<svg viewBox="0 0 21 36" xmlns="http://www.w3.org/2000/svg">
    <path fill="#19455E" fill-rule="evenodd" d="M20.179.984L15.153.975c-5.645 0-9.293 3.48-9.293 8.872v4.09H.807c-.437 0-.791.328-.791.735v5.933c0 .402.354.735.791.735h5.052V36.3c0 .406.354.733.79.733h6.593c.437 0 .79-.327.79-.733V21.34h5.907c.438 0 .791-.333.791-.735l.002-5.933a.712.712 0 0 0-.231-.517.841.841 0 0 0-.56-.218h-5.908v-3.469c0-1.664.426-2.511 2.759-2.511h3.386c.436 0 .79-.33.79-.733V1.716c0-.405-.354-.732-.789-.732z"/>
</svg>