<svg viewBox="0 0 37 37"  xmlns="http://www.w3.org/2000/svg">
    <path fill="#19455E" fill-rule="evenodd" d="M33.3-.001H3.7a3.71 3.71 0 0 0-3.7 3.7v29.6a3.71 3.71 0 0 0 3.7 3.7h29.6a3.71 3.71 0 0 0 3.7-3.7v-29.6a3.71 3.71 0 0 0-3.7-3.7zm-14.8 11.1c4.07 0 7.4 3.33 7.4 7.4s-3.33 7.4-7.4 7.4-7.4-3.33-7.4-7.4 3.33-7.4 7.4-7.4zm-13.875 22.2c-.555 0-.925-.37-.925-.925V16.649h3.885c-.185.555-.185 1.295-.185 1.85 0 6.105 4.995 11.1 11.1 11.1 6.105 0 11.1-4.995 11.1-11.1 0-.555 0-1.295-.185-1.85H33.3v15.725c0 .555-.37.925-.925.925H4.625zM33.3 8.324c0 .555-.37.925-.925.925h-3.7c-.555 0-.925-.37-.925-.925v-3.7c0-.555.37-.925.925-.925h3.7c.555 0 .925.37.925.925v3.7z"/>
</svg>