<?xml version="1.0" encoding="utf-8"?>
<!-- Generator: Adobe Illustrator 19.0.0, SVG Export Plug-In . SVG Version: 6.00 Build 0)  -->
<svg version="1.1" id="Layer_1" xmlns="http://www.w3.org/2000/svg" xmlns:xlink="http://www.w3.org/1999/xlink" x="0px" y="0px"
	 viewBox="206 -206 512 512" style="enable-background:new 206 -206 512 512;" xml:space="preserve">
<style type="text/css">
	.st0{display:none;fill:#0C445B;}
	.st1{fill:#0C445B;}
	.st2{display:none;fill:#FFFFFF;}
	.st3{fill:#FFFFFF;}
</style>
<path class="st0" d="M462-206C320-206,206-92,206,50s114,256,256,256S718,192,718,50S604-206,462-206z M415.5,143.1h11.6
	c7,0,11.6,4.7,11.6,11.6V178c0,7-4.7,11.6-11.6,11.6H334c-7,0-11.6-4.7-11.6-11.6V84.9c0-7,4.7-11.6,11.6-11.6h23.3
	c7,0,11.6,4.7,11.6,11.6v11.6c0,4.7,5.8,8.1,10.5,4.7l23.3-23.3c4.7-4.7,11.6-4.7,16.3,0l16.3,16.3c4.7,4.7,4.7,11.6,0,16.3
	L412,133.8C408.5,137.3,410.8,143.1,415.5,143.1L415.5,143.1z M438.7-54.7c0,7-4.7,11.6-11.6,11.6h-11.6c-4.7,0-8.1,5.8-4.7,10.5
	l23.3,23.3c4.7,4.7,4.7,11.6,0,16.3l-16.3,16.3c-4.7,4.7-11.6,4.7-16.3,0L378.2,0c-3.5-3.5-10.5-1.2-10.5,4.7v11.6
	c0,7-4.7,11.6-11.6,11.6h-23.3c-7,0-11.6-4.7-11.6-11.6v-93.1c0-7,4.7-11.6,11.6-11.6h93.1c7,0,11.6,4.7,11.6,11.6v22.1L438.7-54.7
	L438.7-54.7z M601.6,178c0,7-4.7,11.6-11.6,11.6h-93.1c-7,0-11.6-4.7-11.6-11.6v-23.3c0-7,4.7-11.6,11.6-11.6h11.6
	c4.7,0,8.1-5.8,4.7-10.5l-23.3-23.3c-4.7-4.7-4.7-11.6,0-16.3l16.3-16.3c4.7-4.7,11.6-4.7,16.3,0l23.3,23.3
	c3.5,3.5,10.5,1.2,10.5-4.7V83.7c0-7,4.7-11.6,11.6-11.6h23.3c7,0,11.6,4.7,11.6,11.6V178H601.6z M601.6,15.1
	c0,7-4.7,11.6-11.6,11.6h-23.3c-7,0-11.6-4.7-11.6-11.6V3.5c0-4.7-5.8-8.1-10.5-4.7l-23.3,23.3c-4.7,4.7-11.6,4.7-16.3,0L488.8,5.8
	c-4.7-4.7-4.7-11.6,0-16.3L512-33.8c3.5-3.5,1.2-10.5-4.7-10.5h-11.6c-7,0-11.6-4.7-11.6-11.6v-23.3c0-7,4.7-11.6,11.6-11.6h93.1
	c7,0,11.6,4.7,11.6,11.6v94.3L601.6,15.1L601.6,15.1z"/>
<circle class="st1" cx="461.5" cy="50.5" r="253.5"/>
<path class="st2" d="M539.5,12c1.7,0,3-1.4,3-3v-36.5c0-0.4-0.1-0.8-0.2-1.2c-0.3-0.7-0.9-1.3-1.6-1.6c-0.4-0.2-0.8-0.2-1.2-0.2H503
	c-1.7,0-3,1.4-3,3s1.4,3,3,3h29.1L462,45.7l-70.2-70.2H421c1.7,0,3-1.4,3-3s-1.4-3-3-3h-36.5c-0.4,0-0.8,0.1-1.2,0.2
	c-0.7,0.3-1.3,0.9-1.6,1.6c-0.2,0.4-0.2,0.8-0.2,1.2V9c0,1.7,1.4,3,3,3c1.7,0,3-1.4,3-3v-29.1L457.7,50l-70.2,70.2V91
	c0-1.7-1.4-3-3-3c-1.7,0-3,1.4-3,3v36.5c0,0.4,0.1,0.8,0.2,1.2c0.3,0.7,0.9,1.3,1.6,1.6c0.4,0.2,0.8,0.2,1.2,0.2H421
	c1.7,0,3-1.4,3-3c0-1.7-1.4-3-3-3h-29.1L462,54.3l70.2,70.2H503c-1.7,0-3,1.4-3,3c0,1.7,1.4,3,3,3h36.5c0.4,0,0.8-0.1,1.2-0.2
	c0.7-0.3,1.3-0.9,1.6-1.6c0.2-0.4,0.2-0.8,0.2-1.2V91c0-1.7-1.4-3-3-3s-3,1.4-3,3v29.1L466.3,50l70.2-70.2V9
	C536.5,10.6,537.8,12,539.5,12z"/>
<g>
	<path class="st3" d="M519-7v46.3l-17.8-17.8l-21.4,21.4l-10.7-10.7l21.4-21.4L472.7-7H519z M454.9,67.8l-21.4,21.4l17.8,17.8H405
		V60.7l17.8,17.8l21.4-21.4L454.9,67.8z"/>
</g>
</svg>
