<svg xmlns="http://www.w3.org/2000/svg" viewBox="0 0 123.74 170.63"><defs><style>.cls-1,.cls-2{fill:none;stroke:#355676;stroke-miterlimit:10;}.cls-1{stroke-width:0.75px;}.cls-2{stroke-width:0.65px;}.cls-3{fill:#084064;}.cls-4{fill:#fbfcf4;}.cls-5{fill:#fff;}</style></defs><title>buildings-all</title><g id="Layer_2" data-name="Layer 2"><g id="Layer_1-2" data-name="Layer 1"><polygon class='building' id="Building-a" class="cls-1" points="0.52 142.46 8.81 156.2 29.06 144.15 20.94 130.41 0.52 142.46"/><path class='building' id="Building-B" class="cls-1" d="M34.63,113.73l13.21-8.47L60.23,126l-13.56,8.21Z"/><polygon class='building' id="Building-c4" class="cls-1" points="67.5 98.88 75.25 111.32 98.94 96.95 91.55 84.29 67.5 98.88"/><polygon class='building' id="Building-c3" class="cls-1" points="99.36 79.56 106.75 92.22 119.97 84.21 119.17 70.69 104.06 64.69 98.74 78.5 99.36 79.56"/><polygon class='building' id="Building-c2" class="cls-1" points="77.81 54.28 72.52 68 90.51 75.37 95.88 61.45 77.81 54.28"/><polygon class='building' id="Building-C1" class="cls-1" points="49.06 42.87 43.9 56.29 62.84 64.04 68.09 50.42 49.06 42.87"/><polygon class='building' id="Building-big-C" class="cls-2" points="47.78 38.88 39.9 58.09 92.67 78.93 67.31 94.1 62.74 96.88 65.56 101.42 72.32 112.3 75.09 116.76 79.56 114.03 123.41 87.83 122.6 67.81 47.78 38.88"/><g id="River"><path class="cls-1" d="M48.63.35c2.92,1.12,1.75,4.14,4.67,5.26s4.08-1.89,7-.77S62,9,65,10.1,69,8.21,72,9.34s1.75,4.14,4.67,5.26,4.08-1.89,7-.77S85.39,18,88.3,19.09s4.08-1.89,7-.77,1.75,4.14,4.67,5.26,4.08-1.89,7-.77,1.75,4.14,4.67,5.26,4.08-1.89,7-.77"/><path class="cls-1" d="M46.89,4.86C49.8,6,48.64,9,51.56,10.12s4.08-1.89,7-.77,1.75,4.14,4.67,5.26,4.08-1.89,7-.77S72,18,74.89,19.11s4.08-1.89,7-.77,1.75,4.14,4.67,5.26,4.08-1.89,7-.77S95.31,27,98.23,28.1s4.08-1.89,7-.77,1.75,4.14,4.67,5.26,4.08-1.89,7-.77"/><path class="cls-1" d="M45.14,9.37c2.92,1.12,1.75,4.14,4.67,5.26s4.08-1.89,7-.77,1.75,4.14,4.67,5.26,4.08-1.89,7-.77,1.75,4.14,4.67,5.26,4.08-1.89,7-.77S81.9,27,84.82,28.11s4.08-1.89,7-.77,1.75,4.14,4.67,5.26,4.08-1.89,7-.77,1.75,4.14,4.67,5.26,4.08-1.89,7-.77"/></g><path class="cls-3" d="M50,52.88A2.84,2.84,0,0,1,52.9,50a2.79,2.79,0,0,1,2.4,1.3l-1.1.64a1.45,1.45,0,0,0-1.3-.69,1.66,1.66,0,0,0,0,3.33,1.44,1.44,0,0,0,1.3-.69l1.1.64a2.77,2.77,0,0,1-2.4,1.3A2.84,2.84,0,0,1,50,52.88Z"/><path class="cls-3" d="M58.71,50.08v5.6H57.43V51.43l-1,.27-.31-1.1,1.46-.53Z"/><path class="cls-3" d="M78.9,64.92A2.84,2.84,0,0,1,81.81,62a2.79,2.79,0,0,1,2.4,1.29l-1.1.64a1.45,1.45,0,0,0-1.3-.69,1.66,1.66,0,0,0,0,3.33,1.44,1.44,0,0,0,1.3-.69l1.1.64a2.77,2.77,0,0,1-2.4,1.3A2.84,2.84,0,0,1,78.9,64.92Z"/><path class="cls-3" d="M85.18,66.8l1.88-2a1.58,1.58,0,0,0,.57-1,.56.56,0,0,0-.6-.59.9.9,0,0,0-.82.61l-1.08-.63A2,2,0,0,1,87,62a1.78,1.78,0,0,1,1.9,1.78A2.52,2.52,0,0,1,88,65.56l-.93.94H89v1.23H85.18Z"/><path class="cls-3" d="M105.13,77.82A2.84,2.84,0,0,1,108,74.91a2.79,2.79,0,0,1,2.4,1.29l-1.1.64a1.45,1.45,0,0,0-1.29-.69,1.66,1.66,0,0,0,0,3.33,1.44,1.44,0,0,0,1.29-.69l1.1.64a2.77,2.77,0,0,1-2.4,1.3A2.84,2.84,0,0,1,105.13,77.82Z"/><path class="cls-3" d="M115.36,78.86a1.87,1.87,0,0,1-2,1.87,2,2,0,0,1-2-1.2l1.1-.64a.8.8,0,0,0,.86.59c.53,0,.76-.28.76-.62s-.23-.62-.76-.62h-.26l-.49-.73,1-1.29h-2V75h3.6v1l-1,1.23A1.65,1.65,0,0,1,115.36,78.86Z"/><path class="cls-3" d="M77.76,97.71a2.84,2.84,0,0,1,2.91-2.91,2.79,2.79,0,0,1,2.4,1.3l-1.1.64A1.45,1.45,0,0,0,80.67,96a1.66,1.66,0,0,0,0,3.33A1.44,1.44,0,0,0,82,98.68l1.1.64a2.77,2.77,0,0,1-2.4,1.3A2.84,2.84,0,0,1,77.76,97.71Z"/><path class="cls-3" d="M88.4,99.61h-.56v.9H86.54v-.9H84V98.43l1.78-3.52h1.38l-1.78,3.52h1.17v-1.2h1.29v1.2h.56Z"/><path class="cls-3" d="M49.29,120.51a1.67,1.67,0,0,1-1.81,1.64H45.13v-5.6h2.19a1.64,1.64,0,0,1,1.77,1.6,1.4,1.4,0,0,1-.49,1.1A1.44,1.44,0,0,1,49.29,120.51Zm-2.88-2.76v1h.91a.5.5,0,0,0,0-1Zm1.6,2.66a.51.51,0,0,0-.53-.54H46.41v1.07h1.07A.51.51,0,0,0,48,120.41Z"/><path class="cls-3" d="M15.19,144.69H13.11l-.28.88h-1.4l1.9-5.6H15l1.9,5.6h-1.4Zm-.38-1.2-.66-2.05-.66,2.05Z"/><path id="Trees" class="cls-1" d="M113.57,142.32l-2.35,2.34m-.06-7.15v5.63M109,139.66l2.16,2.15v10.44m7-11.19a6.85,6.85,0,1,0-6.85,6.83A6.84,6.84,0,0,0,118.14,141.07Zm-4.46-19.81-2.35,2.34m-.06-7.15v5.63m-2.16-3.48,2.16,2.15V131.2m7-10.95a6.85,6.85,0,1,0-6.85,6.83A6.84,6.84,0,0,0,118.24,120.25Zm-18.5,10.1-2.35,2.34m-.06-7.15v5.63m-2.16-3.48,2.16,2.15v10.44m7-10.95a6.85,6.85,0,1,0-6.85,6.83A6.84,6.84,0,0,0,104.3,129.34Zm-18.5,10.1-2.35,2.34m-.06-7.15v5.63m-2.16-3.48,2.16,2.15v10.44m7-10.95a6.85,6.85,0,1,0-6.85,6.83A6.84,6.84,0,0,0,90.37,138.43Zm9.37,12.83-2.35,2.34m-.06-7.15v5.63m-2.16-3.48,2.16,2.15V161.2m7-11a6.85,6.85,0,1,0-6.85,6.83A6.84,6.84,0,0,0,104.3,150.25ZM85.65,160.69,83.31,163m-.06-7.15v5.63M81.09,158l2.16,2.15v10.44m7-11.19a6.85,6.85,0,1,0-6.85,6.84A6.84,6.84,0,0,0,90.22,159.44Z"/><polygon class='building' id="Building-c3-2" data-name="Building-c3" class="cls-4" points="99.36 79.56 106.75 92.22 119.97 84.21 119.17 70.69 104.06 64.69 98.74 78.5 99.36 79.56"/><path id="whitespace-B" class="cls-5" d="M34.63,113.73l13.21-8.47L60.23,126l-13.56,8.21Z"/><polygon id="whitespace-c4" class="cls-5" points="67.5 98.88 75.25 111.32 98.94 96.95 91.55 84.29 67.5 98.88"/><polygon id="whitespace-A" class="cls-5" points="0.6 142.45 8.82 156.23 29.23 144.21 20.9 130.32 0.6 142.45"/><polygon id="whitespace-c2" class="cls-5" points="77.81 54.28 72.52 68 90.51 75.37 95.88 61.45 77.81 54.28"/><polygon id="whitespace-c1" class="cls-5" points="49.06 42.87 43.9 56.29 62.84 64.04 68.09 50.42 49.06 42.87"/></g></g></svg>