<?xml version="1.0" encoding="utf-8"?>
<!-- Generator: Adobe Illustrator 16.0.0, SVG Export Plug-In . SVG Version: 6.00 Build 0)  -->
<!DOCTYPE svg PUBLIC "-//W3C//DTD SVG 1.1//EN" "http://www.w3.org/Graphics/SVG/1.1/DTD/svg11.dtd">
<svg version="1.1" id="Layer_1" xmlns="http://www.w3.org/2000/svg" xmlns:xlink="http://www.w3.org/1999/xlink" x="0px" y="0px"
	 width="401px" height="401px" viewBox="0 0 401 401" enable-background="new 0 0 401 401" xml:space="preserve">
<g id="circles">
	<g>
		<path fill="#D7DFE2" d="M205.23,336.753c-0.668,0-1.219-0.529-1.24-1.203c-0.021-0.688,0.519-1.259,1.205-1.281
			c3.273-0.1,6.578-0.32,9.822-0.656c0.683-0.061,1.291,0.426,1.363,1.107c0.07,0.682-0.426,1.293-1.107,1.364
			c-3.303,0.343-6.67,0.566-10.004,0.669C205.258,336.753,205.244,336.753,205.23,336.753z M195.295,336.699
			c-0.017,0-0.033,0-0.051,0c-3.334-0.139-6.697-0.401-9.994-0.78c-0.685-0.078-1.174-0.695-1.095-1.378
			c0.078-0.682,0.689-1.17,1.375-1.092c3.24,0.371,6.544,0.629,9.814,0.765c0.688,0.028,1.221,0.608,1.191,1.295
			C196.51,336.177,195.959,336.699,195.295,336.699z M224.982,334.705c-0.592,0-1.114-0.424-1.223-1.024
			c-0.121-0.676,0.33-1.32,1.006-1.441c3.217-0.574,6.453-1.274,9.619-2.086c0.662-0.17,1.342,0.232,1.514,0.896
			c0.168,0.666-0.231,1.344-0.896,1.512c-3.228,0.824-6.523,1.541-9.803,2.123C225.129,334.699,225.053,334.705,224.982,334.705z
			 M175.568,334.432c-0.075,0-0.153-0.008-0.231-0.021c-3.267-0.621-6.558-1.371-9.775-2.231c-0.664-0.178-1.059-0.859-0.881-1.521
			s0.859-1.055,1.521-0.881c3.161,0.846,6.391,1.584,9.598,2.191c0.674,0.129,1.117,0.778,0.99,1.453
			C176.676,334.018,176.154,334.432,175.568,334.432z M244.223,329.785c-0.52,0-1.004-0.328-1.178-0.848
			c-0.219-0.65,0.131-1.355,0.781-1.574c3.09-1.037,6.184-2.207,9.198-3.475c0.634-0.269,1.361,0.033,1.627,0.666
			c0.267,0.633-0.03,1.358-0.664,1.625c-3.067,1.293-6.221,2.481-9.37,3.541C244.488,329.764,244.354,329.785,244.223,329.785z
			 M156.385,329.298c-0.135,0-0.273-0.021-0.408-0.068c-3.146-1.096-6.293-2.326-9.352-3.652c-0.631-0.272-0.92-1.006-0.646-1.635
			c0.271-0.629,1.004-0.92,1.635-0.646c3.005,1.303,6.093,2.51,9.181,3.586c0.647,0.227,0.99,0.936,0.766,1.582
			C157.379,328.977,156.898,329.298,156.385,329.298z M262.51,322.096c-0.449,0-0.889-0.248-1.105-0.678
			c-0.312-0.613-0.069-1.361,0.541-1.673c2.912-1.483,5.804-3.098,8.599-4.786c0.584-0.357,1.35-0.173,1.705,0.418
			c0.354,0.586,0.168,1.35-0.418,1.707c-2.845,1.723-5.789,3.362-8.754,4.875C262.895,322.053,262.703,322.096,262.51,322.096z
			 M138.146,321.387c-0.194,0-0.391-0.045-0.578-0.142c-2.946-1.547-5.877-3.227-8.707-4.985c-0.584-0.361-0.764-1.129-0.397-1.711
			c0.361-0.584,1.129-0.763,1.709-0.4c2.781,1.73,5.658,3.377,8.553,4.896c0.607,0.317,0.842,1.069,0.523,1.678
			C139.027,321.145,138.594,321.387,138.146,321.387z M279.484,311.805c-0.389,0-0.77-0.183-1.012-0.521
			c-0.397-0.561-0.268-1.336,0.293-1.733c2.658-1.894,5.287-3.91,7.807-5.992c0.527-0.438,1.314-0.363,1.75,0.164
			c0.438,0.526,0.363,1.311-0.163,1.75c-2.568,2.123-5.242,4.178-7.953,6.104C279.986,311.73,279.734,311.805,279.484,311.805z
			 M121.273,310.891c-0.254,0-0.512-0.078-0.731-0.238c-2.691-1.963-5.347-4.049-7.886-6.201c-0.522-0.443-0.59-1.229-0.145-1.752
			c0.441-0.521,1.227-0.588,1.752-0.145c2.492,2.112,5.098,4.162,7.742,6.09c0.555,0.402,0.676,1.18,0.271,1.736
			C122.033,310.714,121.658,310.891,121.273,310.891z M294.783,299.145c-0.326,0-0.65-0.125-0.896-0.381
			c-0.477-0.496-0.459-1.281,0.037-1.759c2.359-2.262,4.666-4.639,6.854-7.067c0.462-0.51,1.246-0.551,1.757-0.092
			c0.51,0.461,0.549,1.245,0.09,1.758c-2.229,2.473-4.58,4.893-6.98,7.194C295.404,299.031,295.092,299.145,294.783,299.145z
			 M106.115,298.049c-0.313,0-0.629-0.116-0.87-0.352c-2.379-2.336-4.699-4.783-6.898-7.279c-0.453-0.518-0.404-1.301,0.113-1.756
			c0.514-0.451,1.301-0.399,1.752,0.111c2.16,2.451,4.438,4.854,6.772,7.146c0.49,0.48,0.498,1.269,0.019,1.759
			C106.758,297.926,106.438,298.049,106.115,298.049z M308.086,284.395c-0.269,0-0.535-0.084-0.765-0.263
			c-0.541-0.42-0.639-1.2-0.217-1.743c2.01-2.584,3.945-5.273,5.758-7.992c0.382-0.57,1.154-0.728,1.724-0.347
			c0.571,0.382,0.727,1.15,0.346,1.724c-1.844,2.77-3.816,5.508-5.863,8.143C308.824,284.23,308.455,284.395,308.086,284.395z
			 M92.986,283.148c-0.375,0-0.745-0.168-0.989-0.49c-2.017-2.656-3.955-5.416-5.767-8.201c-0.373-0.576-0.209-1.346,0.365-1.719
			c0.58-0.375,1.348-0.211,1.721,0.365c1.775,2.733,3.681,5.442,5.66,8.051c0.414,0.549,0.31,1.328-0.238,1.742
			C93.512,283.068,93.25,283.148,92.986,283.148z M319.102,267.857c-0.207,0-0.418-0.053-0.61-0.16
			c-0.597-0.338-0.81-1.096-0.47-1.693c1.609-2.85,3.131-5.795,4.525-8.75c0.293-0.623,1.035-0.887,1.654-0.596
			c0.622,0.293,0.887,1.033,0.596,1.654c-1.42,3.012-2.973,6.012-4.613,8.914C319.955,267.631,319.533,267.857,319.102,267.857z
			 M82.174,266.502c-0.439,0-0.867-0.231-1.092-0.645c-1.605-2.918-3.119-5.933-4.502-8.951c-0.285-0.623-0.013-1.361,0.61-1.646
			c0.627-0.283,1.363-0.011,1.648,0.612c1.356,2.965,2.846,5.922,4.422,8.787c0.33,0.603,0.109,1.357-0.49,1.689
			C82.58,266.453,82.375,266.502,82.174,266.502z M327.58,249.877c-0.146,0-0.3-0.026-0.445-0.082
			c-0.641-0.246-0.961-0.965-0.715-1.604c1.176-3.06,2.25-6.197,3.192-9.326c0.199-0.658,0.892-1.029,1.548-0.83
			c0.659,0.197,1.028,0.889,0.834,1.547c-0.961,3.188-2.058,6.385-3.255,9.5C328.551,249.576,328.08,249.877,327.58,249.877z
			 M73.912,248.463c-0.504,0-0.978-0.311-1.164-0.812c-1.158-3.121-2.218-6.326-3.144-9.521c-0.188-0.659,0.189-1.35,0.851-1.539
			c0.66-0.194,1.35,0.189,1.541,0.849c0.905,3.139,1.942,6.283,3.082,9.35c0.237,0.644-0.091,1.357-0.732,1.599
			C74.203,248.436,74.057,248.463,73.912,248.463z M333.32,230.852c-0.088,0-0.18-0.008-0.27-0.027
			c-0.67-0.15-1.092-0.813-0.943-1.484c0.707-3.186,1.31-6.44,1.781-9.682c0.1-0.678,0.725-1.147,1.41-1.049
			c0.678,0.098,1.147,0.729,1.049,1.41c-0.481,3.299-1.094,6.617-1.813,9.86C334.404,230.459,333.889,230.852,333.32,230.852z
			 M68.391,229.387c-0.574,0-1.09-0.402-1.215-0.986c-0.686-3.256-1.26-6.578-1.705-9.881c-0.092-0.683,0.385-1.308,1.064-1.398
			c0.682-0.094,1.305,0.385,1.397,1.064c0.438,3.242,1,6.508,1.674,9.701c0.144,0.672-0.287,1.329-0.959,1.473
			C68.562,229.377,68.477,229.387,68.391,229.387z M336.199,211.205c-0.031,0-0.062-0.002-0.095-0.004
			c-0.684-0.051-1.196-0.645-1.147-1.328c0.235-3.25,0.354-6.559,0.354-9.84c0-0.686,0.558-1.242,1.242-1.242
			s1.244,0.558,1.244,1.242c0,3.34-0.123,6.711-0.361,10.021C337.387,210.705,336.842,211.205,336.199,211.205z M65.73,209.707
			c-0.651,0-1.196-0.508-1.237-1.166c-0.175-2.817-0.263-5.68-0.263-8.508c0-0.506,0.004-1.012,0.008-1.516
			c0.009-0.685,0.564-1.229,1.244-1.229c0.004,0,0.009,0,0.013,0c0.688,0.006,1.237,0.566,1.229,1.254
			c-0.006,0.496-0.008,0.994-0.008,1.49c0,2.777,0.086,5.588,0.256,8.354c0.041,0.686-0.479,1.274-1.166,1.315
			C65.783,209.705,65.756,209.707,65.73,209.707z M336.381,194.352c-0.658,0-1.207-0.517-1.24-1.183
			c-0.164-3.272-0.451-6.571-0.852-9.805c-0.084-0.682,0.397-1.303,1.08-1.387c0.682-0.084,1.301,0.397,1.385,1.08
			c0.41,3.293,0.699,6.651,0.869,9.987c0.035,0.687-0.492,1.271-1.179,1.304C336.424,194.35,336.402,194.352,336.381,194.352z
			 M65.949,189.85c-0.033,0-0.068-0.004-0.104-0.004c-0.684-0.06-1.191-0.658-1.135-1.345c0.276-3.323,0.682-6.672,1.197-9.953
			c0.106-0.68,0.739-1.139,1.422-1.034c0.68,0.106,1.143,0.741,1.032,1.42c-0.508,3.225-0.901,6.514-1.178,9.774
			C67.133,189.357,66.59,189.85,65.949,189.85z M333.938,174.645c-0.58,0-1.1-0.408-1.217-1c-0.639-3.209-1.406-6.431-2.277-9.574
			c-0.184-0.664,0.203-1.346,0.863-1.531c0.664-0.184,1.346,0.203,1.531,0.865c0.889,3.205,1.67,6.488,2.32,9.756
			c0.135,0.674-0.304,1.328-0.976,1.461C334.1,174.639,334.02,174.645,333.938,174.645z M69.047,170.232
			c-0.094,0-0.189-0.01-0.285-0.031c-0.668-0.156-1.082-0.824-0.926-1.494c0.76-3.242,1.649-6.496,2.646-9.672
			c0.205-0.654,0.906-1.021,1.558-0.813c0.655,0.207,1.02,0.903,0.813,1.559c-0.979,3.119-1.852,6.312-2.598,9.494
			C70.121,169.846,69.609,170.232,69.047,170.232z M328.635,155.51c-0.512,0-0.988-0.316-1.17-0.824
			c-1.103-3.068-2.332-6.142-3.66-9.127c-0.277-0.627,0.004-1.361,0.633-1.642c0.627-0.278,1.359,0.004,1.642,0.633
			c1.35,3.041,2.604,6.169,3.725,9.298c0.232,0.645-0.102,1.356-0.75,1.59C328.914,155.486,328.771,155.51,328.635,155.51z
			 M74.994,151.273c-0.152,0-0.308-0.027-0.457-0.086c-0.64-0.254-0.951-0.978-0.697-1.613c1.229-3.096,2.592-6.188,4.047-9.188
			c0.299-0.617,1.043-0.878,1.66-0.574c0.619,0.299,0.875,1.043,0.576,1.66c-1.431,2.942-2.767,5.979-3.974,9.018
			C75.957,150.979,75.49,151.273,74.994,151.273z M320.578,137.379c-0.443,0-0.871-0.239-1.097-0.657
			c-1.541-2.875-3.211-5.734-4.961-8.498c-0.367-0.58-0.194-1.349,0.385-1.716c0.576-0.366,1.349-0.194,1.716,0.388
			c1.782,2.811,3.481,5.723,5.051,8.653c0.326,0.604,0.098,1.357-0.508,1.683C320.977,137.33,320.775,137.379,320.578,137.379z
			 M83.672,133.393c-0.211,0-0.428-0.056-0.623-0.168c-0.592-0.345-0.795-1.104-0.449-1.699c1.668-2.881,3.469-5.738,5.346-8.49
			c0.388-0.563,1.16-0.711,1.728-0.324c0.566,0.388,0.713,1.16,0.326,1.728c-1.842,2.701-3.609,5.506-5.25,8.336
			C84.518,133.17,84.102,133.393,83.672,133.393z M309.951,120.611c-0.384,0-0.757-0.172-1-0.502
			c-1.947-2.625-4.019-5.211-6.15-7.688c-0.447-0.52-0.389-1.305,0.131-1.754c0.521-0.448,1.305-0.389,1.752,0.131
			c2.172,2.521,4.281,5.156,6.265,7.83c0.407,0.552,0.293,1.33-0.259,1.74C310.467,120.533,310.207,120.611,309.951,120.611z
			 M94.871,116.979c-0.271,0-0.545-0.09-0.771-0.271c-0.539-0.428-0.629-1.211-0.201-1.748c2.072-2.604,4.269-5.168,6.525-7.616
			c0.465-0.507,1.252-0.537,1.756-0.068c0.504,0.463,0.537,1.248,0.072,1.754c-2.219,2.406-4.373,4.92-6.408,7.479
			C95.598,116.816,95.236,116.979,94.871,116.979z M296.988,105.566c-0.317,0-0.637-0.123-0.881-0.365
			c-2.311-2.318-4.733-4.578-7.205-6.717c-0.52-0.447-0.571-1.232-0.123-1.752c0.447-0.519,1.232-0.578,1.755-0.127
			c2.514,2.18,4.979,4.479,7.336,6.838c0.483,0.488,0.481,1.275-0.004,1.758C297.621,105.445,297.305,105.566,296.988,105.566z
			 M108.336,102.371c-0.332,0-0.664-0.131-0.908-0.391c-0.469-0.5-0.443-1.289,0.057-1.756c2.429-2.277,4.972-4.494,7.562-6.588
			c0.533-0.433,1.315-0.351,1.748,0.184c0.432,0.534,0.35,1.316-0.185,1.748c-2.543,2.059-5.039,4.234-7.426,6.469
			C108.943,102.262,108.641,102.371,108.336,102.371z M281.973,92.561c-0.26,0-0.52-0.082-0.742-0.248
			c-2.623-1.955-5.35-3.838-8.108-5.599c-0.576-0.368-0.746-1.139-0.377-1.715c0.368-0.578,1.137-0.746,1.713-0.381
			c2.811,1.791,5.59,3.709,8.258,5.701c0.549,0.41,0.664,1.188,0.254,1.738C282.725,92.387,282.35,92.561,281.973,92.561z
			 M123.773,89.885c-0.393,0-0.776-0.187-1.02-0.535c-0.394-0.562-0.252-1.336,0.312-1.729c2.729-1.897,5.568-3.719,8.435-5.414
			c0.592-0.348,1.354-0.153,1.701,0.437c0.35,0.592,0.153,1.354-0.437,1.703c-2.813,1.664-5.602,3.452-8.283,5.313
			C124.266,89.812,124.02,89.885,123.773,89.885z M265.217,81.877c-0.199,0-0.4-0.047-0.59-0.147
			c-2.883-1.556-5.857-3.021-8.84-4.353c-0.627-0.28-0.908-1.016-0.627-1.643c0.278-0.629,1.014-0.908,1.643-0.627
			c3.035,1.356,6.066,2.85,9.004,4.434c0.605,0.324,0.83,1.078,0.504,1.685C266.086,81.641,265.658,81.877,265.217,81.877z
			 M140.859,79.783c-0.457,0-0.896-0.254-1.112-0.688c-0.306-0.615-0.054-1.361,0.561-1.668c2.984-1.479,6.057-2.865,9.133-4.119
			c0.636-0.259,1.361,0.047,1.619,0.684c0.26,0.637-0.045,1.359-0.68,1.619c-3.021,1.229-6.039,2.592-8.967,4.045
			C141.234,79.74,141.047,79.783,140.859,79.783z M247.07,73.76c-0.141,0-0.282-0.021-0.422-0.07
			c-3.078-1.111-6.231-2.123-9.377-3.002c-0.66-0.185-1.047-0.871-0.86-1.531c0.184-0.662,0.866-1.053,1.53-0.861
			c3.203,0.896,6.416,1.925,9.55,3.058c0.646,0.229,0.981,0.942,0.747,1.592C248.057,73.447,247.578,73.76,247.07,73.76z
			 M159.242,72.295c-0.523,0-1.013-0.334-1.183-0.86c-0.213-0.652,0.146-1.353,0.799-1.562c3.172-1.026,6.418-1.947,9.65-2.731
			c0.666-0.168,1.338,0.246,1.502,0.912c0.162,0.666-0.248,1.338-0.916,1.5c-3.17,0.772-6.357,1.676-9.469,2.684
			C159.498,72.275,159.371,72.295,159.242,72.295z M227.947,68.412c-0.079,0-0.163-0.008-0.245-0.024
			c-3.205-0.646-6.474-1.183-9.718-1.591c-0.68-0.084-1.162-0.707-1.075-1.387c0.084-0.682,0.711-1.162,1.389-1.078
			c3.303,0.416,6.633,0.961,9.895,1.617c0.672,0.137,1.109,0.793,0.974,1.467C229.045,68.004,228.527,68.412,227.947,68.412z
			 M178.535,67.592c-0.599,0-1.123-0.43-1.226-1.038c-0.113-0.677,0.346-1.316,1.021-1.431c3.276-0.547,6.621-0.979,9.942-1.285
			c0.679-0.073,1.287,0.438,1.353,1.121c0.062,0.683-0.439,1.289-1.123,1.353c-3.26,0.303-6.545,0.727-9.762,1.264
			C178.672,67.586,178.604,67.592,178.535,67.592z M208.246,65.927c-0.023,0-0.045-0.003-0.066-0.003
			c-3.271-0.172-6.588-0.225-9.846-0.159c-0.008,0-0.019,0-0.025,0c-0.674,0-1.229-0.541-1.24-1.222
			c-0.016-0.686,0.529-1.252,1.216-1.266c3.319-0.064,6.696-0.008,10.026,0.164c0.685,0.035,1.211,0.619,1.176,1.307
			C209.449,65.412,208.902,65.927,208.246,65.927z"/>
	</g>
	<g>
		<circle fill="#D7DFE2" cx="201.014" cy="200.033" r="117.422"/>
	</g>
</g>
<g id="browser">
	<g>
		<rect x="105.553" y="161.371" fill="#FFFFFF" width="190.924" height="84.094"/>
	</g>
	<g>
		<rect x="105.553" y="154.604" fill="#345568" width="190.924" height="6.768"/>
	</g>
	<g>
		<g>
			<circle fill="#D7DFE2" cx="110.271" cy="157.986" r="0.979"/>
		</g>
		<g>
			<circle fill="#D7DFE2" cx="114.279" cy="157.986" r="0.979"/>
		</g>
		<g>
			<circle fill="#D7DFE2" cx="118.286" cy="157.986" r="0.979"/>
		</g>
	</g>
	<g>
		<path fill="#D7DFE2" d="M245.703,157.986c0,0.812-0.66,1.471-1.47,1.471h-86.438c-0.812,0-1.469-0.658-1.469-1.471l0,0
			c0-0.812,0.655-1.469,1.469-1.469h86.438C245.043,156.518,245.703,157.176,245.703,157.986L245.703,157.986z"/>
	</g>
	<g>
		<g>
			<g>
				<path fill="#D7DFE2" d="M165.891,203.416c0-5.721-4.641-10.362-10.365-10.362c-5.724,0-10.362,4.643-10.362,10.362
					c0,5.728,4.639,10.367,10.362,10.367C161.25,213.783,165.891,209.143,165.891,203.416z"/>
			</g>
			<g>
				<g>
					<rect x="174.297" y="196.652" fill="#D7DFE2" width="82.572" height="2.486"/>
				</g>
				<g>
					<rect x="174.297" y="207.697" fill="#F48272" width="20.02" height="2.488"/>
				</g>
				<g>
					<rect x="205.57" y="207.697" fill="#F48272" width="20.021" height="2.488"/>
				</g>
				<g>
					<rect x="236.848" y="207.697" fill="#F48272" width="20.021" height="2.488"/>
				</g>
				<g>
					<g>
						<rect x="146.492" y="182.217" fill="#D7DFE2" width="110.377" height="2.488"/>
					</g>
					<g>
						<rect x="146.492" y="173.934" fill="#D7DFE2" width="110.377" height="2.485"/>
					</g>
				</g>
				<g>
					<g>
						<rect x="146.492" y="230.822" fill="#D7DFE2" width="110.377" height="2.484"/>
					</g>
					<g>
						<rect x="146.492" y="222.535" fill="#D7DFE2" width="110.377" height="2.486"/>
					</g>
				</g>
			</g>
		</g>
	</g>
	<g>
		<rect x="105.553" y="161.371" fill="none" width="190.924" height="84.094"/>
	</g>
</g>
<g id="lines">
	<g>
		<path fill="#F48272" d="M336.934,264.504h-4.971v-0.828h4.971V264.504z M326.992,264.504h-4.974v-0.828h4.974V264.504z
			 M317.051,264.504h-4.973v-0.828h4.973V264.504z M307.107,264.504h-4.971v-0.828h4.971V264.504z M297.166,264.504h-4.972v-0.828
			h4.972V264.504z M287.225,264.504h-4.971v-0.828h4.971V264.504z M277.283,264.504h-4.974v-0.828h4.974V264.504z M267.342,264.504
			h-4.973v-0.828h4.973V264.504z M257.398,264.504h-4.971v-0.828h4.971V264.504z M247.35,263.705
			c-0.574-0.547-0.904-1.311-0.904-2.102v-2.955h0.828v2.955c0,0.569,0.229,1.104,0.646,1.5L247.35,263.705z M339.605,261.182
			l-0.102-4.97l0.828-0.018l0.102,4.969L339.605,261.182z M247.273,253.68h-0.828v-4.974h0.828V253.68z M339.402,251.242
			l-0.104-4.971l0.83-0.017l0.104,4.97L339.402,251.242z M247.273,243.736h-0.828v-4.971h0.828V243.736z M339.199,241.303
			l-0.104-4.974l0.83-0.016l0.102,4.971L339.199,241.303z M247.273,233.795h-0.828v-4.971h0.828V233.795z M338.996,231.359
			l-0.103-4.967l0.828-0.019l0.103,4.972L338.996,231.359z M247.273,223.854h-0.828v-4.972h0.828V223.854z M338.791,221.422
			l-0.103-4.969l0.83-0.018l0.103,4.971L338.791,221.422z M247.273,213.912h-0.828v-4.971h0.828V213.912z M338.588,211.48
			l-0.101-4.969l0.828-0.017l0.103,4.969L338.588,211.48z M338.387,201.543l-0.104-4.971l0.829-0.016l0.103,4.971L338.387,201.543z
			 M338.182,191.604l-0.102-4.972l0.828-0.018l0.104,4.973L338.182,191.604z M337.979,181.664l-0.102-4.971l0.828-0.016l0.102,4.969
			L337.979,181.664z M337.775,171.723l-0.102-4.97l0.83-0.018l0.102,4.973L337.775,171.723z M337.572,161.783l-0.102-4.967
			l0.828-0.021l0.102,4.972L337.572,161.783z M337.369,151.844l-0.103-4.97l0.828-0.016l0.102,4.969L337.369,151.844z
			 M337.166,141.904l-0.103-4.969l0.828-0.017l0.104,4.968L337.166,141.904z M336.963,131.965l-0.104-4.971l0.83-0.016l0.103,4.969
			L336.963,131.965z M336.76,122.025l-0.102-4.969l0.829-0.019l0.103,4.969L336.76,122.025z M336.557,112.086l-0.102-4.971
			l0.828-0.016l0.102,4.971L336.557,112.086z M336.352,102.146l-0.098-4.972l0.826-0.016l0.1,4.971L336.352,102.146z M335.49,92.744
			c-0.395-0.356-0.897-0.555-1.422-0.555h-3.104v-0.828h3.104c0.729,0,1.433,0.273,1.979,0.77L335.49,92.744z M325.992,92.189
			h-4.972v-0.828h4.972V92.189z M316.051,92.189h-4.971v-0.828h4.971V92.189z M306.109,92.189h-4.971v-0.828h4.971V92.189z"/>
	</g>
	<g>
		<path fill="#F48272" d="M77.543,212.621h-0.83v-4.74h0.83V212.621z M184.723,208.203h-0.83v-4.971h0.83V208.203z M77.543,202.91
			h-0.83v-4.971h0.83V202.91z M184.723,198.262h-0.83v-4.972h0.83V198.262z M77.543,192.967h-0.83v-4.969h0.83V192.967z
			 M184.723,188.32h-0.83v-4.971h0.83V188.32z M77.543,183.025h-0.83v-4.969h0.83V183.025z M184.723,178.377h-0.83v-4.969h0.83
			V178.377z M77.543,173.084h-0.83v-4.971h0.83V173.084z M184.723,168.438h-0.83v-4.972h0.83V168.438z M77.543,163.143h-0.83v-4.972
			h0.83V163.143z M184.723,158.496h-0.83v-4.973h0.83V158.496z M77.543,153.201h-0.83v-4.971h0.83V153.201z M184.723,148.553h-0.83
			v-4.972h0.83V148.553z M77.543,143.26h-0.83v-4.972h0.83V143.26z M184.723,138.611h-0.83v-4.971h0.83V138.611z M77.543,133.316
			h-0.83v-4.969h0.83V133.316z M184.723,128.67h-0.83v-4.973h0.83V128.67z M78.703,124.289l-0.365-0.744
			c0.399-0.198,0.828-0.295,1.274-0.295h3.841v0.828h-3.841C79.295,124.078,78.988,124.148,78.703,124.289z M113.277,124.078h-4.971
			v-0.828h4.971V124.078z M103.336,124.078h-4.971v-0.828h4.971V124.078z M93.395,124.078h-4.971v-0.828h4.971V124.078z
			 M118.215,122.779l-0.689-0.461c0.228-0.338,0.347-0.732,0.347-1.141v-3.517h0.83v3.517
			C118.701,121.748,118.533,122.303,118.215,122.779z M184.723,118.729h-0.83v-4.972h0.83V118.729z M118.701,112.689h-0.83v-4.971
			h0.83V112.689z M184.723,108.787h-0.83v-4.973h0.83V108.787z M118.701,102.748h-0.83v-4.969h0.83V102.748z M184.723,98.844h-0.83
			v-4.972h0.83V98.844z M118.701,92.807h-0.83v-4.972h0.83V92.807z M184.723,88.902h-0.83v-4.971h0.83V88.902z M118.701,82.865
			h-0.83v-4.971h0.83V82.865z M184.723,78.959h-0.83V73.99h0.83V78.959z M118.701,72.924h-0.83v-4.971h0.83V72.924z M184.723,69.02
			h-0.83v-4.972h0.83V69.02z M118.701,62.982h-0.83v-4.805c0-0.064,0.004-0.132,0.008-0.195l0.826,0.057
			c-0.002,0.043-0.004,0.088-0.004,0.133V62.982z M184.723,59.078h-0.83v-0.899c0-1.146-0.93-2.074-2.072-2.074h-0.166v-0.828h0.166
			c1.601,0,2.902,1.301,2.902,2.902V59.078L184.723,59.078z M176.684,56.104h-4.971v-0.828h4.971V56.104z M166.742,56.104h-4.972
			v-0.828h4.972V56.104z M156.801,56.104h-4.973v-0.828h4.973V56.104z M146.857,56.104h-4.969v-0.828h4.969V56.104z M136.918,56.104
			h-4.974v-0.828h4.974V56.104z M126.975,56.104h-4.971v-0.828h4.971V56.104z"/>
	</g>
	<g>
		<path fill="#F48272" d="M218.799,329.689h-4.971v-0.83h4.971V329.689z M208.857,329.689h-4.971v-0.83h4.971V329.689z
			 M198.916,329.689h-4.972v-0.83h4.972V329.689z M188.973,329.689h-4.971v-0.83h4.971V329.689z M179.033,329.689h-4.974v-0.83
			h4.974V329.689z M169.09,329.689h-4.971v-0.83h4.971V329.689z M159.148,329.689h-4.971v-0.83h4.971V329.689z M149.207,329.689
			h-4.974v-0.83h4.974V329.689z M139.266,329.689h-4.973v-0.83h4.973V329.689z M131.131,327.882h-0.828v-4.972h0.828V327.882z
			 M131.131,317.939h-0.828v-4.969h0.828V317.939z M131.131,307.998h-0.828v-4.969h0.828V307.998z M131.131,298.055h-0.828v-4.97
			h0.828V298.055z M131.131,288.115h-0.828v-4.973h0.828V288.115z M131.131,278.172h-0.828v-4.971h0.828V278.172z M131.131,268.23
			h-0.828v-4.969h0.828V268.23z M131.131,258.289h-0.828v-4.971h0.828V258.289z M215.996,253.471h-1.039v-0.83h0.211v-3.935h0.828
			V253.471z M209.986,253.471h-4.969v-0.83h4.969V253.471z M200.045,253.471h-4.971v-0.83h4.971V253.471z M190.104,253.471h-4.971
			v-0.83h4.971V253.471z M180.162,253.471h-4.974v-0.83h4.974V253.471z M170.219,253.471h-4.971v-0.83h4.971V253.471z
			 M160.277,253.471h-4.969v-0.83h4.969V253.471z M150.336,253.471h-4.971v-0.83h4.971V253.471z M140.395,253.471h-4.971v-0.83
			h4.971V253.471z M215.996,243.736h-0.828v-4.971h0.828V243.736z M215.996,233.795h-0.828v-4.971h0.828V233.795z M215.996,223.854
			h-0.828v-4.972h0.828V223.854z M215.996,213.912h-0.828v-4.971h0.828V213.912z"/>
	</g>
</g>
<g id="brush">
	<g>
		<circle fill="#F48272" cx="261.218" cy="89.316" r="41.62"/>
	</g>
	<g>
		<g>
			
				<rect x="238.985" y="68.375" transform="matrix(-0.7071 0.7071 -0.7071 -0.7071 475.9969 -45.9353)" fill="#345568" width="17.053" height="14.48"/>
		</g>
		<g>
			
				<rect x="246.033" y="79.954" transform="matrix(-0.7072 0.707 -0.707 -0.7072 493.0349 -38.8385)" fill="#D7DFE2" width="17.052" height="5.428"/>
		</g>
		<path fill="#FFFFFF" d="M282.111,105.177l-16.868-15.896c-1.646-1.549-2.068-3.734-0.945-4.859
			c0.043-0.043,0.074-0.093,0.115-0.139l1.918-1.919l-3.84-3.839l-12.058,12.062l1.921,1.921c0.004,0.004,0.006,0.009,0.01,0.013
			c0.006,0.005,0.012,0.009,0.018,0.014l1.892,1.891l1.93-1.93c0.04-0.036,0.085-0.063,0.123-0.102
			c1.125-1.121,3.311-0.697,4.856,0.944l15.896,16.871c1.549,1.646,3.985,1.816,5.418,0.386
			C283.93,109.163,283.756,106.726,282.111,105.177z M279.595,109.383c-0.933,0-1.689-0.756-1.689-1.688s0.757-1.689,1.689-1.689
			s1.689,0.757,1.689,1.689S280.528,109.383,279.595,109.383z"/>
	</g>
</g>
<g id="drop">
	<g>
		<circle fill="#F48272" cx="256.869" cy="311.635" r="40.666"/>
	</g>
	<path fill="#D7DFE2" d="M268.306,311.514c-0.036-0.068-0.069-0.138-0.106-0.205c-0.027-0.051-0.053-0.104-0.08-0.154
		c-0.035-0.066-0.067-0.133-0.104-0.197c-0.027-0.052-0.053-0.105-0.081-0.156c-0.034-0.064-0.066-0.13-0.102-0.193
		c-0.027-0.052-0.052-0.104-0.08-0.155c-0.034-0.065-0.067-0.132-0.103-0.196c-0.026-0.05-0.051-0.102-0.078-0.151
		c-0.035-0.067-0.069-0.137-0.106-0.204c-0.026-0.05-0.051-0.102-0.078-0.151c-0.035-0.065-0.068-0.133-0.104-0.198
		c-0.025-0.05-0.05-0.101-0.076-0.149c-0.036-0.067-0.07-0.137-0.106-0.203c-0.027-0.051-0.052-0.103-0.079-0.153
		c-0.034-0.063-0.066-0.129-0.102-0.192c-0.027-0.054-0.054-0.108-0.083-0.161c-0.033-0.063-0.064-0.127-0.099-0.189
		c-0.028-0.054-0.054-0.107-0.083-0.16c-0.035-0.066-0.068-0.135-0.105-0.201c-0.025-0.048-0.048-0.097-0.074-0.144
		c-0.036-0.07-0.071-0.141-0.109-0.209c-0.025-0.048-0.048-0.096-0.074-0.143c-0.034-0.067-0.067-0.135-0.104-0.2
		c-0.027-0.053-0.053-0.105-0.082-0.158c-0.03-0.058-0.058-0.117-0.089-0.175c-0.035-0.065-0.067-0.132-0.104-0.196
		c-0.026-0.052-0.052-0.104-0.079-0.154c-0.035-0.067-0.069-0.135-0.105-0.201c-0.026-0.051-0.052-0.103-0.079-0.152
		c-0.034-0.064-0.065-0.13-0.101-0.193c-0.028-0.053-0.054-0.106-0.083-0.159c-0.033-0.063-0.064-0.128-0.1-0.19
		c-0.028-0.055-0.055-0.11-0.085-0.164c-0.03-0.06-0.06-0.119-0.092-0.177c-0.03-0.06-0.06-0.12-0.092-0.178
		c-0.033-0.064-0.066-0.13-0.101-0.193c-0.026-0.048-0.05-0.098-0.076-0.146c-0.035-0.066-0.067-0.134-0.104-0.199
		c-0.028-0.053-0.054-0.106-0.083-0.159c-0.033-0.064-0.065-0.129-0.101-0.192c-0.028-0.055-0.055-0.109-0.085-0.163
		c-0.032-0.062-0.062-0.124-0.096-0.184c-0.03-0.059-0.059-0.116-0.091-0.174c-0.031-0.061-0.062-0.122-0.096-0.182
		c-0.026-0.051-0.051-0.104-0.079-0.154c-0.032-0.062-0.063-0.127-0.098-0.189c-0.031-0.059-0.06-0.118-0.092-0.177
		c-0.03-0.057-0.059-0.115-0.09-0.172c-0.032-0.062-0.062-0.123-0.096-0.184c-0.028-0.054-0.055-0.108-0.084-0.162
		c-0.033-0.063-0.065-0.129-0.1-0.191c-0.028-0.053-0.054-0.106-0.082-0.158c-0.034-0.065-0.066-0.131-0.102-0.194
		c-0.028-0.055-0.056-0.109-0.085-0.163c-0.032-0.062-0.063-0.126-0.098-0.188c-0.027-0.053-0.054-0.106-0.082-0.158
		c-0.033-0.064-0.065-0.129-0.1-0.192c-0.029-0.055-0.056-0.11-0.086-0.164c-0.03-0.06-0.06-0.12-0.092-0.178
		c-0.032-0.062-0.062-0.124-0.096-0.185c-0.03-0.058-0.06-0.116-0.091-0.174c-0.029-0.056-0.057-0.112-0.087-0.167
		c-0.031-0.061-0.061-0.121-0.094-0.181c-0.03-0.059-0.06-0.119-0.092-0.177c-0.033-0.062-0.064-0.126-0.099-0.188
		c-0.026-0.05-0.05-0.1-0.077-0.149c-0.033-0.063-0.064-0.128-0.099-0.19c-0.031-0.06-0.061-0.12-0.093-0.179
		c-0.029-0.056-0.057-0.112-0.087-0.167c-0.033-0.064-0.065-0.129-0.101-0.191c-0.027-0.053-0.053-0.105-0.081-0.156
		c-0.032-0.063-0.062-0.126-0.097-0.188c-0.064-0.124-0.134-0.245-0.206-0.363c-0.027-0.064-0.066-0.122-0.096-0.186
		c-0.027-0.064-0.067-0.122-0.097-0.187c-0.026-0.062-0.065-0.118-0.094-0.18c-0.028-0.068-0.069-0.129-0.101-0.195
		c-0.025-0.06-0.062-0.112-0.091-0.172c-0.028-0.068-0.068-0.13-0.101-0.196c-0.025-0.061-0.062-0.113-0.091-0.172
		c-0.027-0.067-0.066-0.128-0.098-0.193c-0.027-0.063-0.065-0.121-0.096-0.184c-0.027-0.065-0.066-0.123-0.097-0.188
		c-0.026-0.063-0.065-0.119-0.095-0.182c-0.027-0.064-0.066-0.122-0.097-0.186c-0.026-0.064-0.064-0.121-0.095-0.184
		c-0.027-0.065-0.066-0.124-0.098-0.188c-0.026-0.063-0.064-0.12-0.094-0.182c-0.027-0.066-0.066-0.126-0.099-0.19
		c-0.025-0.061-0.062-0.114-0.091-0.174c-0.028-0.068-0.068-0.131-0.101-0.197c-0.025-0.061-0.062-0.115-0.091-0.174
		c-0.029-0.068-0.068-0.131-0.102-0.196c-0.025-0.062-0.062-0.115-0.091-0.175c-0.028-0.067-0.067-0.129-0.101-0.193
		c-0.025-0.062-0.062-0.116-0.091-0.175c-0.028-0.069-0.067-0.131-0.101-0.197c-0.381-0.915-1.283-1.559-2.336-1.559
		c-1.055,0-1.957,0.646-2.338,1.562c-0.032,0.064-0.071,0.125-0.099,0.192c-0.03,0.061-0.067,0.117-0.094,0.181
		c-0.031,0.062-0.069,0.121-0.097,0.187c-0.031,0.062-0.068,0.12-0.096,0.186c-0.03,0.061-0.067,0.117-0.094,0.18
		c-0.03,0.062-0.068,0.118-0.096,0.183c-0.033,0.066-0.072,0.13-0.102,0.199c-0.028,0.059-0.064,0.111-0.09,0.172
		c-0.031,0.064-0.07,0.124-0.099,0.191c-0.029,0.061-0.067,0.116-0.094,0.179c-0.031,0.064-0.07,0.124-0.098,0.19
		c-0.03,0.062-0.068,0.119-0.095,0.184c-0.03,0.062-0.069,0.12-0.096,0.185c-0.03,0.062-0.068,0.118-0.096,0.182
		c-0.03,0.063-0.069,0.122-0.097,0.188c-0.03,0.062-0.068,0.119-0.096,0.183c-0.03,0.064-0.069,0.124-0.097,0.189
		c-0.029,0.061-0.066,0.114-0.093,0.176c-0.031,0.067-0.072,0.128-0.101,0.197c-0.028,0.06-0.066,0.113-0.092,0.175
		c-0.03,0.065-0.07,0.124-0.099,0.191c-0.028,0.062-0.067,0.117-0.094,0.181c-0.03,0.063-0.069,0.121-0.097,0.187
		c-0.029,0.062-0.068,0.12-0.096,0.185c-0.073,0.119-0.143,0.24-0.206,0.365c-0.034,0.061-0.064,0.122-0.097,0.185
		c-0.028,0.052-0.054,0.104-0.081,0.157c-0.035,0.062-0.067,0.127-0.101,0.191c-0.03,0.055-0.058,0.111-0.087,0.167
		c-0.032,0.059-0.062,0.119-0.093,0.179c-0.034,0.062-0.065,0.127-0.099,0.19c-0.027,0.049-0.051,0.1-0.077,0.149
		c-0.034,0.062-0.065,0.125-0.099,0.188c-0.032,0.058-0.062,0.118-0.092,0.177c-0.034,0.062-0.064,0.125-0.097,0.188
		c-0.028,0.051-0.054,0.104-0.081,0.156c-0.032,0.059-0.062,0.117-0.093,0.177c-0.035,0.063-0.067,0.129-0.101,0.194
		c-0.026,0.047-0.05,0.097-0.075,0.145c-0.037,0.067-0.072,0.136-0.107,0.204c-0.033,0.06-0.062,0.122-0.094,0.183
		c-0.026,0.048-0.05,0.098-0.075,0.146c-0.037,0.065-0.07,0.133-0.104,0.199c-0.027,0.05-0.052,0.101-0.078,0.151
		c-0.038,0.067-0.072,0.137-0.107,0.205c-0.027,0.049-0.051,0.099-0.076,0.147c-0.037,0.067-0.071,0.136-0.106,0.203
		c-0.027,0.05-0.051,0.101-0.077,0.15c-0.036,0.064-0.069,0.131-0.104,0.197c-0.028,0.052-0.054,0.104-0.081,0.156
		c-0.034,0.062-0.066,0.127-0.1,0.19c-0.029,0.054-0.056,0.108-0.084,0.162c-0.036,0.065-0.068,0.132-0.103,0.197
		c-0.028,0.051-0.053,0.103-0.079,0.154c-0.034,0.061-0.065,0.123-0.098,0.186c-0.028,0.052-0.055,0.104-0.082,0.156
		c-0.037,0.067-0.072,0.137-0.108,0.206c-0.029,0.055-0.057,0.111-0.085,0.166c-0.03,0.056-0.059,0.112-0.088,0.169
		c-0.031,0.057-0.061,0.115-0.091,0.173c-0.034,0.062-0.065,0.127-0.099,0.189c-0.03,0.055-0.057,0.11-0.085,0.166
		c-0.035,0.062-0.066,0.127-0.1,0.19c-0.026,0.048-0.05,0.098-0.076,0.146c-0.038,0.068-0.072,0.139-0.109,0.208
		c-0.029,0.055-0.056,0.111-0.085,0.166c-0.03,0.055-0.057,0.111-0.086,0.167c-0.031,0.056-0.06,0.112-0.089,0.168
		c-0.035,0.064-0.068,0.131-0.103,0.196c-0.028,0.052-0.054,0.104-0.081,0.156c-0.036,0.065-0.068,0.132-0.104,0.198
		c-0.027,0.05-0.053,0.103-0.079,0.153c-0.036,0.064-0.068,0.131-0.103,0.196c-0.031,0.058-0.06,0.116-0.09,0.174
		c-0.03,0.056-0.058,0.112-0.087,0.169c-0.028,0.052-0.055,0.105-0.083,0.157c-0.038,0.069-0.073,0.14-0.109,0.21
		c-0.026,0.047-0.049,0.097-0.074,0.145c-0.037,0.065-0.07,0.133-0.105,0.2c-0.031,0.058-0.06,0.117-0.09,0.176
		c-0.029,0.052-0.055,0.105-0.083,0.159c-0.031,0.058-0.062,0.116-0.092,0.175c-0.035,0.064-0.067,0.13-0.102,0.194
		c-0.027,0.05-0.052,0.102-0.078,0.151c-0.037,0.067-0.071,0.136-0.106,0.204c-0.03,0.055-0.057,0.11-0.085,0.165
		c-0.03,0.055-0.058,0.112-0.087,0.168c-0.03,0.055-0.059,0.111-0.088,0.167c-0.037,0.066-0.071,0.136-0.106,0.203
		c-0.027,0.05-0.052,0.102-0.078,0.151c-0.035,0.064-0.068,0.131-0.103,0.196c-0.031,0.056-0.058,0.114-0.088,0.171
		c-0.029,0.054-0.056,0.109-0.085,0.163c-0.03,0.056-0.059,0.113-0.089,0.169c-0.036,0.065-0.069,0.133-0.104,0.198
		c-0.028,0.052-0.054,0.105-0.082,0.157c-0.036,0.066-0.069,0.135-0.104,0.201c-1.017,1.856-1.597,3.986-1.597,6.252
		c0,7.198,5.835,13.034,13.034,13.034c7.198,0,13.033-5.836,13.033-13.034C269.902,315.5,269.323,313.371,268.306,311.514z"/>
</g>
<g id="shues">
	<g>
		<circle fill="#F48272" cx="77.127" cy="232.062" r="44.9"/>
	</g>
	<g>
		<path fill="#345568" d="M92.613,210.93c-0.432,0.334-1.053,0.963-1.385,1.397c0,0-2.516,3.326-6.039,6.047
			c-3.52,2.717-7.379,4.312-7.379,4.312c-0.504,0.211-1.268,0.653-1.701,0.985l-2.731,2.111c-0.435,0.336-1.058,0.963-1.392,1.393
			l-17.731,23.136c-0.332,0.434-0.252,0.516,0.18,0.182l43.205-33.361c0.432-0.334,0.514-0.959,0.18-1.391l-3.666-4.748
			c-0.332-0.43-0.959-0.514-1.391-0.178L92.613,210.93z"/>
		
			<rect x="48.832" y="233.443" transform="matrix(-0.7915 0.6111 -0.6111 -0.7915 281.9066 374.2881)" fill="#FFFFFF" width="56.567" height="3.566"/>
		<g>
			<polygon fill="#D7DFE2" points="70.72,231.664 71.169,231.062 69.795,230.038 69.339,230.634 			"/>
			<polygon fill="#D7DFE2" points="71.524,230.592 71.972,229.99 70.611,228.973 70.155,229.569 			"/>
			<polygon fill="#D7DFE2" points="69.117,233.817 69.567,233.216 68.163,232.167 67.706,232.763 			"/>
			<path fill="#D7DFE2" d="M81.69,229.446l-0.806-1.044c-0.5-0.65-1.441-0.771-2.086-0.271l-11.491,8.876
				c-0.649,0.498-1.586,0.38-2.088-0.27l-0.281-0.364L53.65,251.1L81.69,229.446z"/>
			<polygon fill="#D7DFE2" points="69.918,232.74 70.367,232.138 68.979,231.102 68.523,231.698 			"/>
		</g>
	</g>
</g>
</svg>
