<?xml version="1.0" encoding="utf-8"?>
<!-- Generator: Adobe Illustrator 16.0.0, SVG Export Plug-In . SVG Version: 6.00 Build 0)  -->
<!DOCTYPE svg PUBLIC "-//W3C//DTD SVG 1.1//EN" "http://www.w3.org/Graphics/SVG/1.1/DTD/svg11.dtd">
<svg version="1.1" id="Layer_1" xmlns="http://www.w3.org/2000/svg" xmlns:xlink="http://www.w3.org/1999/xlink" x="0px" y="0px"
	 width="401px" height="401px" viewBox="0 0 401 401" enable-background="new 0 0 401 401" xml:space="preserve">
<g id="circles">
	<g>
		<circle fill="#D7DFE2" cx="201" cy="200.031" r="117.273"/>
	</g>
	<g>
		<path fill="#D7DFE2" d="M205.212,336.578c-0.668,0-1.22-0.53-1.24-1.203c-0.021-0.686,0.519-1.258,1.202-1.278
			c3.271-0.101,6.571-0.319,9.81-0.656c0.683-0.068,1.293,0.426,1.363,1.106c0.07,0.68-0.424,1.292-1.105,1.361
			c-3.3,0.342-6.66,0.567-9.99,0.668C205.237,336.578,205.225,336.578,205.212,336.578z M195.288,336.524
			c-0.018,0-0.033,0-0.052-0.002c-3.329-0.138-6.688-0.399-9.982-0.779c-0.683-0.077-1.17-0.692-1.092-1.374
			c0.079-0.68,0.691-1.166,1.376-1.092c3.233,0.371,6.532,0.629,9.801,0.766c0.686,0.027,1.217,0.606,1.188,1.291
			C196.501,336.003,195.95,336.524,195.288,336.524z M224.936,334.531c-0.59,0-1.111-0.42-1.22-1.022
			c-0.12-0.675,0.328-1.319,1.004-1.439c3.214-0.573,6.447-1.272,9.608-2.082c0.663-0.174,1.34,0.23,1.511,0.896
			c0.17,0.662-0.23,1.339-0.896,1.508c-3.223,0.824-6.515,1.537-9.788,2.121C225.082,334.525,225.009,334.531,224.936,334.531z
			 M175.586,334.26c-0.076,0-0.154-0.008-0.231-0.022c-3.264-0.62-6.549-1.369-9.765-2.229c-0.662-0.179-1.055-0.857-0.878-1.521
			c0.178-0.66,0.858-1.051,1.521-0.877c3.156,0.844,6.382,1.582,9.584,2.189c0.675,0.129,1.116,0.776,0.987,1.452
			C176.69,333.845,176.171,334.26,175.586,334.26z M244.153,329.619c-0.52,0-1.003-0.328-1.177-0.848
			c-0.218-0.649,0.132-1.354,0.781-1.571c3.087-1.036,6.177-2.204,9.187-3.47c0.634-0.264,1.36,0.031,1.625,0.664
			c0.267,0.632-0.029,1.358-0.662,1.625c-3.066,1.288-6.215,2.478-9.358,3.533C244.417,329.598,244.284,329.619,244.153,329.619z
			 M156.427,329.133c-0.136,0-0.273-0.022-0.408-0.069c-3.143-1.096-6.285-2.322-9.341-3.647c-0.629-0.271-0.917-1.003-0.644-1.632
			c0.271-0.63,1.004-0.918,1.632-0.645c3,1.301,6.084,2.504,9.168,3.58c0.647,0.227,0.988,0.934,0.765,1.581
			C157.419,328.811,156.939,329.133,156.427,329.133z M262.419,321.939c-0.451,0-0.889-0.248-1.105-0.677
			c-0.312-0.61-0.068-1.358,0.54-1.669c2.908-1.484,5.797-3.095,8.586-4.785c0.585-0.354,1.35-0.168,1.703,0.418
			c0.355,0.587,0.169,1.35-0.418,1.706c-2.84,1.721-5.781,3.359-8.742,4.87C262.802,321.896,262.608,321.939,262.419,321.939z
			 M138.21,321.23c-0.193,0-0.392-0.045-0.575-0.143c-2.944-1.543-5.87-3.22-8.697-4.979c-0.582-0.36-0.761-1.127-0.397-1.708
			c0.362-0.583,1.127-0.761,1.71-0.396c2.774,1.727,5.648,3.37,8.539,4.887c0.605,0.317,0.842,1.067,0.522,1.675
			C139.09,320.988,138.658,321.23,138.21,321.23z M279.372,311.661c-0.39,0-0.771-0.182-1.015-0.521
			c-0.396-0.559-0.266-1.332,0.293-1.731c2.656-1.888,5.28-3.901,7.8-5.986c0.526-0.437,1.311-0.362,1.746,0.166
			c0.438,0.527,0.363,1.31-0.164,1.746c-2.565,2.124-5.237,4.177-7.942,6.099C279.872,311.588,279.62,311.661,279.372,311.661z
			 M121.357,310.748c-0.253,0-0.508-0.077-0.729-0.237c-2.69-1.961-5.339-4.044-7.877-6.191c-0.521-0.443-0.586-1.228-0.145-1.75
			c0.443-0.521,1.226-0.588,1.748-0.146c2.49,2.11,5.095,4.156,7.734,6.081c0.554,0.401,0.675,1.18,0.271,1.733
			C122.119,310.571,121.741,310.748,121.357,310.748z M294.651,299.02c-0.325,0-0.65-0.129-0.896-0.383
			c-0.475-0.494-0.457-1.281,0.037-1.757c2.358-2.26,4.663-4.635,6.85-7.059c0.459-0.51,1.243-0.55,1.752-0.091
			c0.51,0.459,0.55,1.243,0.09,1.753c-2.226,2.468-4.57,4.888-6.973,7.188C295.269,298.904,294.96,299.02,294.651,299.02z
			 M106.221,297.925c-0.312,0-0.628-0.117-0.87-0.354c-2.375-2.33-4.691-4.774-6.889-7.27c-0.453-0.514-0.404-1.299,0.11-1.752
			c0.515-0.45,1.3-0.401,1.75,0.111c2.157,2.447,4.435,4.85,6.768,7.137c0.488,0.48,0.496,1.269,0.017,1.756
			C106.864,297.799,106.543,297.925,106.221,297.925z M307.936,284.285c-0.266,0-0.534-0.085-0.761-0.261
			c-0.541-0.421-0.639-1.2-0.218-1.743c2.007-2.58,3.939-5.266,5.751-7.981c0.379-0.569,1.148-0.726,1.721-0.345
			c0.569,0.381,0.725,1.151,0.345,1.722c-1.843,2.767-3.812,5.502-5.856,8.131C308.672,284.121,308.306,284.285,307.936,284.285z
			 M93.109,283.042c-0.376,0-0.745-0.17-0.988-0.489c-2.015-2.653-3.951-5.409-5.759-8.191c-0.373-0.575-0.21-1.343,0.365-1.717
			s1.343-0.21,1.717,0.363c1.773,2.732,3.677,5.438,5.652,8.043c0.415,0.547,0.309,1.324-0.238,1.738
			C93.635,282.961,93.37,283.042,93.109,283.042z M318.938,267.77c-0.207,0-0.416-0.053-0.607-0.161
			c-0.599-0.337-0.81-1.095-0.472-1.69c1.607-2.848,3.13-5.788,4.522-8.739c0.292-0.621,1.033-0.885,1.65-0.595
			c0.62,0.293,0.887,1.033,0.595,1.652c-1.418,3.008-2.97,6.001-4.605,8.902C319.791,267.542,319.371,267.77,318.938,267.77z
			 M82.309,266.415c-0.438,0-0.862-0.23-1.089-0.642c-1.604-2.916-3.115-5.924-4.497-8.941c-0.285-0.621-0.012-1.358,0.612-1.645
			c0.623-0.281,1.358-0.013,1.645,0.611c1.355,2.963,2.842,5.914,4.415,8.778c0.33,0.601,0.112,1.354-0.49,1.687
			C82.716,266.365,82.511,266.415,82.309,266.415z M327.405,249.812c-0.146,0-0.298-0.027-0.443-0.084
			c-0.642-0.244-0.96-0.962-0.714-1.604c1.172-3.05,2.244-6.184,3.188-9.312c0.198-0.655,0.892-1.024,1.547-0.83
			c0.655,0.198,1.027,0.892,0.83,1.548c-0.963,3.188-2.055,6.381-3.248,9.487C328.375,249.511,327.904,249.812,327.405,249.812z
			 M74.059,248.398c-0.503,0-0.978-0.31-1.163-0.812c-1.157-3.116-2.214-6.317-3.138-9.51c-0.19-0.659,0.189-1.348,0.848-1.537
			c0.659-0.192,1.348,0.189,1.537,0.847c0.907,3.137,1.943,6.275,3.079,9.338c0.24,0.644-0.089,1.356-0.729,1.596
			C74.349,248.373,74.202,248.398,74.059,248.398z M333.138,230.811c-0.09,0-0.18-0.009-0.271-0.029
			c-0.67-0.149-1.093-0.812-0.942-1.481c0.709-3.183,1.308-6.437,1.78-9.668c0.101-0.678,0.733-1.146,1.407-1.048
			c0.68,0.1,1.147,0.729,1.05,1.406c-0.481,3.293-1.094,6.607-1.814,9.85C334.22,230.418,333.706,230.811,333.138,230.811z
			 M68.544,229.346c-0.574,0-1.09-0.4-1.213-0.984c-0.687-3.25-1.26-6.57-1.705-9.868c-0.091-0.679,0.385-1.306,1.063-1.396
			c0.679-0.101,1.306,0.385,1.396,1.062c0.437,3.24,1,6.499,1.673,9.688c0.142,0.671-0.287,1.33-0.958,1.472
			C68.716,229.336,68.629,229.346,68.544,229.346z M336.013,211.188c-0.029,0-0.062-0.001-0.092-0.004
			c-0.684-0.051-1.197-0.645-1.146-1.327c0.233-3.246,0.354-6.552,0.354-9.826c0-0.686,0.556-1.242,1.242-1.242
			c0.684,0,1.239,0.558,1.239,1.242c0,3.334-0.121,6.701-0.36,10.006C337.202,210.689,336.657,211.188,336.013,211.188z
			 M65.887,209.691c-0.649,0-1.196-0.506-1.237-1.164c-0.173-2.814-0.26-5.673-0.26-8.496c0-0.504,0.004-1.011,0.008-1.516
			c0.007-0.685,0.582-1.212,1.255-1.228c0.686,0.006,1.235,0.568,1.229,1.254c-0.005,0.496-0.008,0.992-0.008,1.488
			c0,2.773,0.086,5.58,0.256,8.344c0.042,0.687-0.479,1.273-1.164,1.314C65.938,209.691,65.911,209.691,65.887,209.691z
			 M336.194,194.355c-0.656,0-1.205-0.515-1.237-1.178c-0.165-3.267-0.451-6.561-0.852-9.795c-0.085-0.681,0.397-1.3,1.078-1.384
			c0.684-0.09,1.301,0.398,1.385,1.078c0.407,3.294,0.699,6.65,0.866,9.976c0.034,0.686-0.492,1.268-1.177,1.303
			C336.236,194.355,336.216,194.355,336.194,194.355z M66.106,189.859c-0.034,0-0.068-0.002-0.104-0.004
			c-0.685-0.06-1.19-0.656-1.134-1.341c0.277-3.319,0.681-6.665,1.196-9.942c0.106-0.677,0.739-1.141,1.42-1.032
			c0.677,0.106,1.139,0.742,1.031,1.419c-0.507,3.22-0.903,6.504-1.174,9.764C67.287,189.369,66.746,189.859,66.106,189.859z
			 M333.756,174.676c-0.581,0-1.099-0.408-1.216-0.998c-0.64-3.2-1.404-6.42-2.276-9.565c-0.183-0.66,0.204-1.344,0.864-1.527
			c0.661-0.184,1.344,0.203,1.528,0.865c0.888,3.203,1.669,6.48,2.317,9.742c0.134,0.672-0.303,1.327-0.975,1.459
			C333.917,174.668,333.837,174.676,333.756,174.676z M69.199,170.27c-0.096,0-0.189-0.013-0.285-0.032
			c-0.667-0.157-1.081-0.824-0.926-1.492c0.761-3.237,1.648-6.487,2.645-9.66c0.206-0.652,0.903-1.021,1.556-0.812
			c0.654,0.205,1.02,0.901,0.813,1.555c-0.979,3.113-1.852,6.305-2.598,9.482C70.272,169.882,69.762,170.27,69.199,170.27z
			 M328.458,155.563c-0.511,0-0.986-0.315-1.169-0.821c-1.102-3.07-2.329-6.137-3.654-9.116c-0.278-0.628,0.005-1.359,0.631-1.638
			c0.626-0.283,1.359,0.004,1.638,0.629c1.35,3.036,2.602,6.16,3.723,9.287c0.231,0.645-0.104,1.354-0.749,1.586
			C328.737,155.54,328.597,155.563,328.458,155.563z M75.14,151.334c-0.152,0-0.308-0.026-0.458-0.087
			c-0.637-0.253-0.947-0.976-0.695-1.611c1.229-3.093,2.589-6.179,4.042-9.175c0.299-0.616,1.042-0.875,1.658-0.574
			c0.616,0.3,0.874,1.042,0.574,1.658c-1.427,2.941-2.761,5.971-3.967,9.006C76.1,151.038,75.633,151.334,75.14,151.334z
			 M320.413,137.455c-0.443,0-0.873-0.238-1.097-0.655c-1.538-2.873-3.205-5.729-4.953-8.486c-0.367-0.579-0.195-1.347,0.384-1.713
			c0.578-0.369,1.346-0.195,1.713,0.383c1.781,2.81,3.479,5.719,5.046,8.646c0.323,0.604,0.097,1.356-0.508,1.68
			C320.812,137.408,320.61,137.455,320.413,137.455z M83.806,133.475c-0.211,0-0.426-0.056-0.621-0.168
			c-0.593-0.345-0.795-1.104-0.451-1.695c1.668-2.879,3.466-5.73,5.342-8.48c0.386-0.564,1.157-0.709,1.725-0.324
			c0.566,0.386,0.712,1.157,0.325,1.726c-1.841,2.698-3.605,5.498-5.243,8.324C84.651,133.253,84.233,133.475,83.806,133.475z
			 M309.797,120.711c-0.379,0-0.752-0.174-0.996-0.502c-1.946-2.623-4.013-5.206-6.143-7.68c-0.447-0.518-0.389-1.303,0.131-1.749
			c0.519-0.449,1.302-0.39,1.75,0.13c2.168,2.519,4.271,5.148,6.255,7.819c0.407,0.55,0.293,1.328-0.259,1.736
			C310.313,120.631,310.054,120.711,309.797,120.711z M94.99,117.081c-0.271,0-0.544-0.087-0.771-0.271
			c-0.536-0.427-0.626-1.207-0.199-1.744c2.069-2.603,4.264-5.162,6.518-7.607c0.465-0.503,1.251-0.535,1.754-0.069
			c0.504,0.465,0.537,1.249,0.071,1.754c-2.215,2.399-4.367,4.914-6.399,7.47C95.718,116.92,95.355,117.081,94.99,117.081z
			 M296.851,105.683c-0.317,0-0.636-0.122-0.879-0.364c-2.307-2.313-4.726-4.57-7.193-6.707c-0.518-0.448-0.573-1.231-0.126-1.752
			c0.45-0.516,1.233-0.572,1.751-0.123c2.515,2.176,4.979,4.473,7.326,6.828c0.484,0.485,0.483,1.271-0.002,1.756
			C297.485,105.562,297.167,105.683,296.851,105.683z M108.438,102.494c-0.331,0-0.661-0.131-0.904-0.394
			c-0.47-0.498-0.444-1.284,0.057-1.753c2.425-2.273,4.965-4.486,7.551-6.579c0.531-0.434,1.313-0.35,1.744,0.185
			c0.433,0.533,0.35,1.314-0.184,1.745c-2.539,2.056-5.032,4.228-7.414,6.461C109.048,102.383,108.742,102.494,108.438,102.494z
			 M281.854,92.691c-0.258,0-0.519-0.079-0.741-0.244c-2.619-1.955-5.346-3.836-8.097-5.59c-0.578-0.369-0.747-1.136-0.38-1.714
			c0.369-0.579,1.137-0.747,1.716-0.38c2.802,1.788,5.576,3.702,8.245,5.692c0.549,0.41,0.662,1.188,0.253,1.736
			C282.607,92.521,282.231,92.691,281.854,92.691z M123.857,90.021c-0.394,0-0.777-0.187-1.021-0.533
			c-0.392-0.562-0.252-1.336,0.312-1.728c2.729-1.896,5.562-3.715,8.425-5.407c0.592-0.351,1.352-0.152,1.7,0.437
			c0.349,0.591,0.152,1.352-0.438,1.7c-2.811,1.662-5.594,3.447-8.272,5.31C124.349,89.949,124.102,90.021,123.857,90.021z
			 M265.12,82.023c-0.198,0-0.4-0.047-0.587-0.148c-2.883-1.553-5.854-3.015-8.829-4.346c-0.627-0.279-0.906-1.016-0.627-1.641
			c0.278-0.625,1.015-0.903,1.64-0.625c3.032,1.354,6.059,2.846,8.993,4.426c0.604,0.326,0.829,1.08,0.504,1.682
			C265.99,81.787,265.562,82.023,265.12,82.023z M140.922,79.934c-0.457,0-0.896-0.254-1.112-0.69
			c-0.305-0.614-0.055-1.357,0.562-1.663c2.979-1.479,6.047-2.861,9.12-4.112c0.635-0.259,1.359,0.045,1.617,0.681
			c0.26,0.634-0.047,1.357-0.682,1.617c-3.016,1.229-6.029,2.587-8.954,4.039C141.296,79.893,141.108,79.934,140.922,79.934z
			 M246.997,73.92c-0.142,0-0.282-0.023-0.422-0.073c-3.074-1.109-6.226-2.118-9.363-2.996c-0.661-0.186-1.046-0.871-0.861-1.529
			c0.184-0.66,0.869-1.048,1.53-0.861c3.197,0.896,6.406,1.921,9.538,3.053c0.644,0.232,0.979,0.943,0.746,1.589
			C247.983,73.605,247.506,73.92,246.997,73.92z M159.28,72.454c-0.522,0-1.01-0.333-1.18-0.857
			c-0.211-0.652,0.146-1.353,0.799-1.562c3.168-1.026,6.409-1.943,9.638-2.729c0.664-0.166,1.337,0.245,1.499,0.911
			c0.162,0.667-0.246,1.337-0.912,1.5c-3.168,0.771-6.351,1.675-9.458,2.68C159.536,72.436,159.408,72.454,159.28,72.454z
			 M227.898,68.576c-0.082,0-0.163-0.008-0.246-0.023c-3.198-0.646-6.464-1.182-9.702-1.588c-0.682-0.087-1.162-0.707-1.077-1.388
			c0.086-0.68,0.711-1.162,1.388-1.075c3.3,0.414,6.624,0.959,9.882,1.615c0.673,0.137,1.107,0.791,0.971,1.464
			C228.995,68.17,228.478,68.576,227.898,68.576z M178.548,67.757c-0.594,0-1.121-0.431-1.222-1.035
			c-0.114-0.679,0.343-1.316,1.02-1.43c3.273-0.546,6.614-0.979,9.932-1.286c0.682-0.065,1.286,0.439,1.35,1.121
			c0.062,0.684-0.438,1.287-1.121,1.351c-3.256,0.303-6.537,0.727-9.75,1.264C178.686,67.751,178.615,67.757,178.548,67.757z
			 M208.222,66.094c-0.021,0-0.043-0.002-0.066-0.003c-3.268-0.172-6.575-0.226-9.833-0.16c-0.72-0.002-1.251-0.531-1.265-1.218
			c-0.014-0.686,0.531-1.251,1.217-1.264c3.313-0.063,6.686-0.012,10.013,0.164c0.684,0.033,1.21,0.619,1.174,1.303
			C209.426,65.578,208.878,66.094,208.222,66.094z"/>
	</g>
</g>
<path id="grid" fill="#FFFFFF" d="M319.545,81.069H82.452c-0.229,0-0.414,0.186-0.414,0.415v118.547c0,0,0,0,0,0.001s0,0,0,0.001
	v39.514v0.001v0.001v79.031c0,0.229,0.185,0.414,0.414,0.414h237.093c0.229,0,0.413-0.185,0.413-0.414v-79.031v-0.001v-0.001
	v-39.514c0,0,0,0,0-0.001s0,0,0-0.001V81.484C319.958,81.255,319.774,81.069,319.545,81.069z M319.13,160.101h-38.688v-38.688
	h38.688V160.101z M82.865,160.93h38.688v38.687H82.865V160.93z M240.1,200.446v38.688h-38.688v-38.688H240.1z M200.584,200.446
	v38.688h-38.688v-38.688H200.584z M161.069,200.446v38.688h-38.688v-38.688H161.069z M240.1,160.93v38.687h-38.688V160.93H240.1z
	 M200.584,160.93v38.687h-38.688V160.93H200.584z M161.069,160.93v38.687h-38.688V160.93H161.069z M279.616,239.134h-38.689v-38.688
	h38.689V239.134z M279.616,199.617h-38.689V160.93h38.689V199.617z M279.616,160.101h-38.689v-38.688h38.689V160.101z
	 M240.1,160.101h-38.688v-38.688H240.1V160.101z M200.584,160.101h-38.688v-38.688h38.688V160.101z M161.069,160.101h-38.688
	v-38.688h38.688V160.101z M121.553,160.101H82.865v-38.688h38.688V160.101z M82.865,200.446h38.688v38.688H82.865V200.446z
	 M319.13,239.134h-38.688v-38.688h38.688V239.134z M319.13,199.617h-38.688V160.93h38.688V199.617z M82.865,239.963h38.688v38.688
	H82.865V239.963z M122.381,239.963h38.688v38.688h-38.688V239.963z M161.896,239.963h38.688v38.688h-38.688V239.963z
	 M201.411,239.963H240.1v38.688h-38.688V239.963z M240.927,239.963h38.689v38.688h-38.689V239.963z M280.442,239.963h38.688v38.688
	h-38.688V239.963z M280.442,81.896h38.688v38.688h-38.688V81.896z M240.927,81.896h38.689v38.688h-38.689V81.896z M201.411,81.896
	H240.1v38.688h-38.688V81.896z M161.896,81.896h38.688v38.688h-38.688V81.896z M122.381,81.896h38.688v38.688h-38.688V81.896z
	 M82.865,81.896h38.688v38.688H82.865V81.896z M121.553,318.168H82.865v-38.688h38.688V318.168z M161.069,318.168h-38.688v-38.688
	h38.688V318.168z M200.584,318.168h-38.688v-38.688h38.688V318.168z M240.1,318.168h-38.688v-38.688H240.1V318.168z
	 M279.616,318.168h-38.689v-38.688h38.689V318.168z M319.13,318.168h-38.688v-38.688h38.688V318.168z"/>
<g id="lines_x5F_02">
	<g>
		<g>
			<path fill="#345568" d="M82.452,319.821c-0.687,0-1.242-0.557-1.242-1.241V81.484c0-0.688,0.557-1.242,1.242-1.242
				c0.685,0,1.24,0.556,1.24,1.242V318.58C83.693,319.265,83.138,319.821,82.452,319.821z"/>
		</g>
		<g>
			<g>
				<path fill="#345568" d="M90.178,82.725h-7.726c-0.687,0-1.242-0.557-1.242-1.24c0-0.688,0.557-1.242,1.242-1.242h7.726
					c0.688,0,1.241,0.556,1.241,1.242C91.419,82.169,90.865,82.725,90.178,82.725z"/>
			</g>
			<g>
				<path fill="#345568" d="M90.178,122.241h-7.726c-0.687,0-1.242-0.556-1.242-1.241c0-0.685,0.557-1.239,1.242-1.239h7.726
					c0.688,0,1.241,0.556,1.241,1.239C91.419,121.686,90.865,122.241,90.178,122.241z"/>
			</g>
			<g>
				<path fill="#345568" d="M90.178,161.756h-7.726c-0.687,0-1.242-0.555-1.242-1.239c0-0.686,0.557-1.242,1.242-1.242h7.726
					c0.688,0,1.241,0.557,1.241,1.242C91.419,161.201,90.865,161.756,90.178,161.756z"/>
			</g>
			<g>
				<path fill="#345568" d="M90.178,201.273h-7.726c-0.687,0-1.242-0.558-1.242-1.242s0.557-1.242,1.242-1.242h7.726
					c0.688,0,1.241,0.558,1.241,1.242S90.865,201.273,90.178,201.273z"/>
			</g>
			<g>
				<path fill="#345568" d="M90.178,240.789h-7.726c-0.687,0-1.242-0.556-1.242-1.242c0-0.685,0.557-1.239,1.242-1.239h7.726
					c0.688,0,1.241,0.556,1.241,1.239C91.419,240.233,90.865,240.789,90.178,240.789z"/>
			</g>
			<g>
				<path fill="#345568" d="M90.178,280.305h-7.726c-0.687,0-1.242-0.557-1.242-1.242s0.557-1.24,1.242-1.24h7.726
					c0.688,0,1.241,0.556,1.241,1.24C91.419,279.749,90.865,280.305,90.178,280.305z"/>
			</g>
		</g>
	</g>
	<g>
		<g>
			<path fill="#F48272" d="M82.451,319.821c-0.686,0-1.241-0.557-1.241-1.241c0-0.686,0.557-1.241,1.241-1.241h237.097
				c0.686,0,1.241,0.556,1.241,1.239c0,0.688-0.557,1.242-1.241,1.242L82.451,319.821z"/>
		</g>
		<g>
			<g>
				<path fill="#F48272" d="M319.548,319.82c-0.687,0-1.241-0.556-1.241-1.242v-7.726c0-0.685,0.556-1.241,1.241-1.241
					c0.685,0,1.241,0.558,1.241,1.241v7.726C320.789,319.265,320.233,319.82,319.548,319.82z"/>
			</g>
			<g>
				<path fill="#F48272" d="M280.031,319.82c-0.685,0-1.241-0.556-1.241-1.242v-7.725c0-0.686,0.558-1.242,1.241-1.242
					c0.685,0,1.241,0.558,1.241,1.242v7.725C281.272,319.265,280.716,319.82,280.031,319.82z"/>
			</g>
			<g>
				<path fill="#F48272" d="M240.516,319.82c-0.687,0-1.241-0.556-1.241-1.242v-7.725c0-0.686,0.556-1.242,1.241-1.242
					c0.687,0,1.241,0.558,1.241,1.242v7.725C241.757,319.265,241.202,319.82,240.516,319.82z"/>
			</g>
			<g>
				<path fill="#F48272" d="M201,319.82c-0.686,0-1.241-0.556-1.241-1.242l-0.001-7.725c0-0.686,0.556-1.242,1.241-1.242
					c0.685,0,1.24,0.558,1.24,1.242l0.002,7.725C202.241,319.265,201.685,319.82,201,319.82z"/>
			</g>
			<g>
				<path fill="#F48272" d="M161.482,319.82c-0.685,0-1.24-0.556-1.24-1.242v-7.725c0-0.686,0.557-1.242,1.24-1.242
					c0.688,0,1.242,0.558,1.242,1.242v7.725C162.725,319.265,162.169,319.82,161.482,319.82z"/>
			</g>
			<g>
				<path fill="#F48272" d="M121.967,319.82c-0.685,0-1.241-0.556-1.241-1.242v-7.725c0-0.686,0.558-1.242,1.241-1.242
					s1.242,0.558,1.242,1.242v7.725C123.209,319.265,122.651,319.82,121.967,319.82z"/>
			</g>
		</g>
	</g>
</g>
<g id="lines_x5F_01">
	<g>
		<path fill="#345568" d="M82.452,319.821c-0.114,0-0.229-0.017-0.346-0.048c-0.658-0.191-1.039-0.879-0.848-1.538l23.181-80.357
			c0.107-0.372,0.383-0.672,0.742-0.812c0.358-0.14,0.765-0.105,1.094,0.096l41.904,25.407l32.221-56.871
			c0.224-0.39,0.635-0.63,1.08-0.63h47.556l24.289-46.673c0.085-0.166,0.208-0.312,0.356-0.422L318,109.828
			c0.549-0.41,1.326-0.299,1.735,0.252c0.411,0.547,0.3,1.325-0.248,1.736l-64.093,47.975l-24.506,47.09
			c-0.214,0.411-0.638,0.668-1.102,0.668h-47.585l-32.492,57.354c-0.166,0.292-0.443,0.505-0.769,0.591
			c-0.323,0.087-0.669,0.033-0.956-0.141l-41.609-25.229l-22.733,78.801C83.487,319.469,82.991,319.821,82.452,319.821z"/>
	</g>
	<g>
		<path fill="#F48272" d="M82.451,319.821c-0.163,0-0.329-0.033-0.489-0.102c-0.629-0.271-0.921-0.999-0.65-1.63l29.172-67.933
			c0.195-0.457,0.645-0.752,1.142-0.752h33.696l50.393-37.765c0.216-0.161,0.477-0.248,0.744-0.248h22.732l39.922-33.79
			l13.913-57.575c0.137-0.557,0.634-0.949,1.207-0.949h45.315c0.686,0,1.241,0.558,1.241,1.241s-0.557,1.242-1.241,1.242h-44.339
			l-13.779,57.02c-0.062,0.256-0.203,0.484-0.403,0.654l-40.577,34.347c-0.227,0.188-0.511,0.294-0.804,0.294H196.87l-50.393,37.765
			c-0.215,0.16-0.477,0.248-0.745,0.248h-33.292l-28.849,67.18C83.39,319.539,82.933,319.821,82.451,319.821z"/>
	</g>
	<g>
		<circle fill="#F48272" cx="126.409" cy="250.992" r="6.341"/>
		<path fill="#345568" d="M126.409,258.574c-4.183,0-7.582-3.4-7.582-7.582c0-4.18,3.399-7.58,7.582-7.58
			c4.181,0,7.582,3.4,7.582,7.58C133.991,255.174,130.59,258.574,126.409,258.574z M126.409,245.894c-2.812,0-5.1,2.288-5.1,5.099
			c0,2.812,2.286,5.1,5.1,5.1c2.812,0,5.1-2.286,5.1-5.1C131.509,248.182,129.222,245.894,126.409,245.894z"/>
	</g>
	<g>
		<circle fill="#F48272" cx="163.546" cy="236.682" r="6.341"/>
		<path fill="#345568" d="M163.545,244.264c-4.182,0-7.581-3.4-7.581-7.582c0-4.181,3.399-7.58,7.581-7.58
			c4.183,0,7.583,3.399,7.583,7.58S167.728,244.264,163.545,244.264z M163.545,231.583c-2.812,0-5.1,2.288-5.1,5.1
			s2.287,5.1,5.1,5.1c2.812,0,5.101-2.288,5.101-5.1S166.357,231.583,163.545,231.583z"/>
	</g>
	<g>
		<circle fill="#F48272" cx="267.708" cy="149.607" r="6.34"/>
		<path fill="#345568" d="M267.71,157.189c-4.183,0-7.583-3.402-7.583-7.582c0-4.183,3.4-7.581,7.583-7.581
			c4.18,0,7.58,3.398,7.58,7.581C275.29,153.787,271.89,157.189,267.71,157.189z M267.71,144.508c-2.812,0-5.101,2.287-5.101,5.101
			c0,2.811,2.287,5.098,5.101,5.098c2.811,0,5.098-2.287,5.098-5.098C272.808,146.795,270.521,144.508,267.71,144.508z"/>
	</g>
	<g>
		<circle fill="#F48272" cx="305.208" cy="120.32" r="6.34"/>
		<path fill="#345568" d="M305.208,127.901c-4.182,0-7.582-3.401-7.582-7.581s3.4-7.582,7.582-7.582
			c4.181,0,7.582,3.402,7.582,7.582S309.389,127.901,305.208,127.901z M305.208,115.223c-2.812,0-5.101,2.287-5.101,5.098
			c0,2.812,2.287,5.1,5.101,5.1c2.812,0,5.1-2.287,5.1-5.1C310.308,117.51,308.02,115.223,305.208,115.223z"/>
	</g>
	<path fill="#345568" d="M227.313,205.92c-0.017,0-0.033,0-0.05-0.002c-0.685-0.026-1.218-0.604-1.191-1.289l0.391-9.922
		c0.024-0.686,0.599-1.219,1.287-1.19c0.686,0.026,1.219,0.604,1.191,1.289l-0.39,9.922
		C228.526,205.395,227.976,205.92,227.313,205.92z M228.092,186.076c-0.017,0-0.034,0-0.05,0c-0.687-0.027-1.22-0.604-1.19-1.29
		l0.388-9.922c0.026-0.685,0.601-1.231,1.289-1.191c0.687,0.026,1.22,0.604,1.191,1.288l-0.389,9.922
		C229.305,185.552,228.755,186.076,228.092,186.076z M228.869,166.232c-0.017,0-0.032,0-0.049,0
		c-0.686-0.027-1.22-0.604-1.192-1.289l0.108-2.75c0.012-0.305,0.136-0.596,0.349-0.815l4.998-5.15
		c0.476-0.494,1.262-0.504,1.754-0.029c0.492,0.479,0.504,1.264,0.026,1.756l-4.666,4.812l-0.09,2.272
		C230.083,165.709,229.532,166.232,228.869,166.232z M240.886,151.202c-0.312,0-0.624-0.116-0.864-0.35
		c-0.493-0.479-0.504-1.264-0.026-1.755l6.912-7.13c0.478-0.491,1.264-0.504,1.755-0.026c0.492,0.478,0.504,1.264,0.026,1.756
		l-6.912,7.128C241.531,151.077,241.21,151.202,240.886,151.202z M250.771,134.79c-0.095,0-0.189-0.009-0.286-0.032
		c-0.667-0.155-1.08-0.825-0.922-1.491l2.276-9.666c0.157-0.668,0.826-1.083,1.491-0.925c0.668,0.157,1.082,0.826,0.925,1.493
		l-2.276,9.665C251.845,134.405,251.334,134.79,250.771,134.79z M255.326,115.461c-0.096,0-0.19-0.011-0.285-0.031
		c-0.667-0.157-1.081-0.825-0.924-1.493l1.99-8.451c0.097-0.408,0.393-0.74,0.787-0.883l1.174-0.422
		c0.646-0.232,1.355,0.103,1.589,0.748c0.232,0.644-0.103,1.354-0.746,1.588l-0.542,0.193l-1.837,7.794
		C256.398,115.076,255.889,115.461,255.326,115.461z M267.831,103.224c-0.511,0-0.985-0.314-1.168-0.821
		c-0.231-0.646,0.103-1.356,0.748-1.588l9.341-3.365c0.646-0.229,1.354,0.103,1.589,0.746c0.231,0.646-0.104,1.357-0.747,1.59
		l-9.342,3.364C268.112,103.199,267.971,103.224,267.831,103.224z M286.515,96.494c-0.509,0-0.986-0.313-1.168-0.82
		c-0.231-0.646,0.104-1.356,0.748-1.589l9.276-3.343c0.645-0.231,1.354,0.104,1.587,0.748c0.233,0.646-0.102,1.355-0.745,1.588
		l-9.278,3.342C286.796,96.471,286.655,96.494,286.515,96.494z"/>
	<g>
		<circle fill="#F48272" cx="227.312" cy="204.678" r="6.34"/>
		<path fill="#345568" d="M227.312,212.26c-4.18,0-7.582-3.4-7.582-7.582c0-4.183,3.402-7.581,7.582-7.581
			c4.182,0,7.582,3.398,7.582,7.581C234.894,208.86,231.492,212.26,227.312,212.26z M227.312,199.578c-2.811,0-5.1,2.288-5.1,5.101
			c0,2.812,2.289,5.1,5.1,5.1c2.812,0,5.101-2.288,5.101-5.1C232.412,201.866,230.124,199.578,227.312,199.578z"/>
	</g>
</g>
</svg>
