<?xml version="1.0" encoding="utf-8"?>
<!-- Generator: Adobe Illustrator 16.0.0, SVG Export Plug-In . SVG Version: 6.00 Build 0)  -->
<!DOCTYPE svg PUBLIC "-//W3C//DTD SVG 1.1//EN" "http://www.w3.org/Graphics/SVG/1.1/DTD/svg11.dtd">
<svg version="1.1" id="Layer_1" xmlns="http://www.w3.org/2000/svg" xmlns:xlink="http://www.w3.org/1999/xlink" x="0px" y="0px"
	 width="401px" height="401px" viewBox="0 0 401 401" enable-background="new 0 0 401 401" xml:space="preserve">
<g id="circles">
	<g>
		<path fill="#F48272" d="M204.7,337.072c-0.668,0-1.22-0.531-1.24-1.203c-0.021-0.686,0.519-1.258,1.203-1.277
			c3.27-0.102,6.569-0.321,9.81-0.657c0.669-0.062,1.292,0.424,1.362,1.106c0.069,0.683-0.424,1.291-1.106,1.361
			c-3.299,0.343-6.659,0.566-9.989,0.668C204.726,337.072,204.714,337.072,204.7,337.072z M194.778,337.018
			c-0.018,0-0.034,0-0.054-0.001c-3.327-0.137-6.687-0.401-9.98-0.778c-0.683-0.078-1.171-0.692-1.092-1.375
			c0.077-0.68,0.702-1.174,1.373-1.09c3.236,0.371,6.535,0.627,9.804,0.762c0.685,0.03,1.218,0.607,1.188,1.294
			C195.988,336.496,195.439,337.018,194.778,337.018z M224.426,335.025c-0.589,0-1.112-0.422-1.219-1.021
			c-0.122-0.676,0.329-1.319,1.003-1.438c3.214-0.574,6.447-1.275,9.605-2.083c0.667-0.171,1.343,0.229,1.512,0.896
			c0.169,0.664-0.231,1.34-0.896,1.508c-3.22,0.822-6.512,1.538-9.786,2.122C224.572,335.02,224.499,335.025,224.426,335.025z
			 M175.078,334.755c-0.077,0-0.156-0.009-0.233-0.021c-3.266-0.619-6.549-1.37-9.764-2.229c-0.662-0.181-1.056-0.857-0.878-1.521
			c0.178-0.662,0.861-1.047,1.521-0.879c3.155,0.846,6.379,1.582,9.585,2.191c0.673,0.127,1.114,0.776,0.986,1.448
			C176.183,334.34,175.662,334.755,175.078,334.755z M243.641,330.113c-0.519,0-1.003-0.328-1.177-0.846
			c-0.219-0.65,0.133-1.354,0.781-1.572c3.087-1.037,6.177-2.204,9.187-3.47c0.634-0.267,1.359,0.032,1.624,0.665
			c0.267,0.632-0.031,1.356-0.662,1.624c-3.065,1.288-6.214,2.478-9.356,3.534C243.904,330.094,243.771,330.113,243.641,330.113z
			 M155.917,329.628c-0.137,0-0.272-0.022-0.408-0.07c-3.139-1.094-6.281-2.32-9.339-3.647c-0.629-0.271-0.918-1.003-0.646-1.63
			c0.272-0.631,1.004-0.924,1.634-0.646c3.002,1.301,6.087,2.506,9.168,3.58c0.647,0.227,0.988,0.934,0.764,1.581
			C156.911,329.305,156.431,329.628,155.917,329.628z M261.905,322.435c-0.451,0-0.887-0.246-1.104-0.678
			c-0.312-0.61-0.07-1.358,0.541-1.669c2.908-1.483,5.795-3.095,8.584-4.783c0.586-0.356,1.35-0.168,1.705,0.418
			c0.354,0.587,0.169,1.35-0.418,1.705c-2.841,1.721-5.781,3.358-8.744,4.871C262.287,322.39,262.096,322.435,261.905,322.435z
			 M137.704,321.726c-0.195,0-0.394-0.044-0.576-0.143c-2.946-1.545-5.873-3.221-8.697-4.979c-0.583-0.361-0.762-1.127-0.397-1.709
			c0.362-0.583,1.129-0.76,1.709-0.4c2.772,1.729,5.646,3.371,8.538,4.89c0.607,0.319,0.843,1.067,0.523,1.677
			C138.582,321.484,138.149,321.726,137.704,321.726z M278.857,312.157c-0.389,0-0.771-0.181-1.012-0.521
			c-0.397-0.559-0.268-1.334,0.292-1.731c2.657-1.891,5.28-3.904,7.798-5.986c0.526-0.437,1.311-0.362,1.746,0.164
			c0.438,0.529,0.364,1.312-0.164,1.748c-2.562,2.121-5.234,4.173-7.941,6.099C279.357,312.085,279.106,312.157,278.857,312.157z
			 M120.854,311.241c-0.255,0-0.51-0.075-0.73-0.235c-2.691-1.962-5.342-4.046-7.876-6.193c-0.522-0.442-0.587-1.225-0.145-1.748
			c0.441-0.524,1.226-0.587,1.75-0.146c2.487,2.109,5.09,4.155,7.732,6.082c0.554,0.402,0.675,1.179,0.271,1.732
			C121.614,311.065,121.235,311.241,120.854,311.241z M294.136,299.516c-0.325,0-0.65-0.129-0.896-0.386
			c-0.475-0.493-0.458-1.279,0.036-1.754c2.359-2.259,4.662-4.635,6.85-7.059c0.461-0.51,1.245-0.549,1.754-0.091
			c0.509,0.459,0.55,1.245,0.091,1.753c-2.228,2.47-4.573,4.888-6.975,7.188C294.755,299.399,294.444,299.516,294.136,299.516z
			 M105.715,298.421c-0.313,0-0.627-0.117-0.87-0.354c-2.376-2.333-4.694-4.779-6.889-7.271c-0.453-0.514-0.403-1.299,0.11-1.752
			c0.517-0.453,1.3-0.402,1.752,0.111c2.153,2.447,4.431,4.848,6.767,7.137c0.487,0.479,0.496,1.269,0.017,1.756
			C106.358,298.295,106.036,298.421,105.715,298.421z M307.419,284.782c-0.267,0-0.532-0.085-0.76-0.26
			c-0.541-0.423-0.641-1.202-0.22-1.743c2.007-2.581,3.941-5.268,5.75-7.981c0.38-0.571,1.151-0.726,1.723-0.345
			c0.569,0.379,0.725,1.148,0.344,1.721c-1.843,2.767-3.812,5.5-5.854,8.13C308.155,284.617,307.79,284.782,307.419,284.782z
			 M92.604,283.539c-0.375,0-0.745-0.169-0.988-0.492c-2.013-2.647-3.949-5.404-5.76-8.188c-0.373-0.575-0.209-1.345,0.365-1.718
			s1.343-0.211,1.717,0.364c1.776,2.732,3.679,5.439,5.654,8.042c0.413,0.547,0.308,1.323-0.238,1.739
			C93.129,283.457,92.866,283.539,92.604,283.539z M318.421,268.268c-0.207,0-0.416-0.054-0.609-0.162
			c-0.598-0.336-0.808-1.092-0.471-1.689c1.606-2.846,3.129-5.787,4.521-8.74c0.294-0.618,1.032-0.884,1.652-0.594
			c0.62,0.293,0.884,1.033,0.593,1.652c-1.418,3.008-2.968,6.002-4.605,8.902C319.273,268.041,318.853,268.268,318.421,268.268z
			 M81.803,266.914c-0.438,0-0.862-0.231-1.088-0.645c-1.602-2.911-3.114-5.919-4.498-8.939c-0.285-0.621-0.011-1.356,0.612-1.645
			c0.627-0.281,1.358-0.014,1.646,0.611c1.357,2.965,2.844,5.919,4.415,8.776c0.33,0.6,0.11,1.354-0.489,1.687
			C82.21,266.865,82.006,266.914,81.803,266.914z M326.89,250.311c-0.146,0-0.3-0.026-0.445-0.082
			c-0.641-0.246-0.958-0.965-0.714-1.604c1.175-3.056,2.248-6.188,3.188-9.312c0.197-0.658,0.892-1.026,1.547-0.831
			c0.657,0.197,1.028,0.891,0.83,1.547c-0.959,3.184-2.052,6.375-3.247,9.488C327.857,250.008,327.388,250.311,326.89,250.311z
			 M73.556,248.895c-0.505,0-0.979-0.308-1.164-0.808c-1.156-3.113-2.211-6.313-3.138-9.513c-0.19-0.657,0.188-1.347,0.848-1.535
			c0.657-0.195,1.348,0.188,1.536,0.847c0.909,3.14,1.945,6.278,3.08,9.337c0.239,0.643-0.089,1.356-0.73,1.597
			C73.845,248.871,73.698,248.895,73.556,248.895z M332.622,231.311c-0.09,0-0.181-0.012-0.271-0.029
			c-0.668-0.149-1.09-0.812-0.94-1.479c0.707-3.183,1.307-6.436,1.778-9.671c0.103-0.677,0.727-1.147,1.408-1.049
			c0.68,0.102,1.148,0.73,1.05,1.41c-0.482,3.294-1.094,6.607-1.814,9.848C333.704,230.917,333.19,231.311,332.622,231.311z
			 M68.04,229.846c-0.573,0-1.09-0.402-1.212-0.986c-0.688-3.26-1.262-6.578-1.704-9.867c-0.092-0.68,0.385-1.305,1.063-1.396
			c0.675-0.1,1.304,0.385,1.396,1.062c0.436,3.229,0.998,6.487,1.673,9.688c0.142,0.671-0.287,1.33-0.958,1.469
			C68.212,229.836,68.125,229.846,68.04,229.846z M335.496,211.689c-0.031,0-0.062-0.002-0.094-0.004
			c-0.683-0.052-1.194-0.646-1.146-1.328c0.235-3.244,0.354-6.55,0.354-9.824c0-0.686,0.557-1.242,1.242-1.242
			s1.242,0.558,1.242,1.242c0,3.334-0.123,6.699-0.363,10.004C336.684,211.19,336.14,211.689,335.496,211.689z M65.384,210.193
			c-0.65,0-1.197-0.507-1.237-1.164c-0.172-2.807-0.26-5.666-0.26-8.496c0-0.508,0.001-1.014,0.007-1.516
			c0.009-0.685,0.562-1.23,1.242-1.23c0.005,0,0.009,0,0.014,0c0.687,0.01,1.234,0.571,1.229,1.256
			c-0.006,0.496-0.009,0.99-0.009,1.49c0,2.779,0.088,5.586,0.256,8.343c0.043,0.684-0.479,1.272-1.162,1.313
			C65.435,210.191,65.409,210.193,65.384,210.193z M335.677,194.859c-0.656,0-1.205-0.517-1.237-1.18
			c-0.166-3.27-0.452-6.562-0.852-9.793c-0.085-0.683,0.398-1.302,1.079-1.387c0.681-0.081,1.299,0.4,1.384,1.081
			c0.407,3.289,0.698,6.646,0.866,9.974c0.035,0.686-0.492,1.268-1.177,1.303C335.718,194.857,335.698,194.859,335.677,194.859z
			 M65.604,190.359c-0.034,0-0.068,0-0.104-0.004c-0.684-0.058-1.189-0.654-1.133-1.339c0.276-3.323,0.68-6.669,1.196-9.944
			c0.106-0.676,0.749-1.139,1.421-1.032c0.677,0.108,1.14,0.743,1.03,1.421c-0.508,3.217-0.902,6.5-1.174,9.763
			C66.784,189.869,66.242,190.359,65.604,190.359z M333.238,175.178c-0.578,0-1.099-0.408-1.215-0.999
			c-0.638-3.204-1.403-6.422-2.275-9.563c-0.183-0.66,0.205-1.344,0.864-1.527c0.663-0.184,1.345,0.203,1.527,0.863
			c0.888,3.201,1.668,6.479,2.316,9.742c0.136,0.674-0.302,1.327-0.975,1.461C333.401,175.172,333.319,175.178,333.238,175.178z
			 M68.695,170.771c-0.095,0-0.188-0.011-0.283-0.032c-0.667-0.157-1.081-0.825-0.927-1.491c0.761-3.239,1.65-6.489,2.644-9.659
			c0.205-0.653,0.897-1.02,1.557-0.812c0.653,0.205,1.02,0.901,0.812,1.557c-0.978,3.112-1.851,6.303-2.595,9.482
			C69.769,170.386,69.258,170.771,68.695,170.771z M327.94,156.067c-0.509,0-0.985-0.315-1.168-0.821
			c-1.102-3.073-2.332-6.141-3.653-9.117c-0.277-0.627,0.005-1.358,0.63-1.639c0.629-0.279,1.359,0.004,1.64,0.631
			c1.346,3.032,2.598,6.156,3.721,9.285c0.231,0.646-0.104,1.355-0.748,1.587C328.221,156.043,328.079,156.067,327.94,156.067z
			 M74.636,151.836c-0.152,0-0.307-0.026-0.458-0.087c-0.638-0.253-0.949-0.974-0.695-1.611c1.229-3.093,2.586-6.179,4.041-9.175
			c0.301-0.615,1.042-0.875,1.659-0.572c0.617,0.298,0.874,1.042,0.574,1.657c-1.427,2.939-2.762,5.972-3.967,9.006
			C75.597,151.54,75.129,151.836,74.636,151.836z M319.897,137.959c-0.442,0-0.871-0.235-1.095-0.654
			c-1.54-2.872-3.206-5.729-4.954-8.486c-0.367-0.577-0.195-1.345,0.383-1.713c0.578-0.366,1.347-0.196,1.713,0.385
			c1.781,2.809,3.479,5.716,5.045,8.644c0.324,0.605,0.098,1.355-0.507,1.683C320.295,137.914,320.095,137.959,319.897,137.959z
			 M83.302,133.979c-0.211,0-0.426-0.057-0.621-0.168c-0.594-0.346-0.795-1.105-0.451-1.695c1.67-2.881,3.466-5.734,5.341-8.479
			c0.389-0.568,1.159-0.709,1.726-0.326c0.566,0.388,0.712,1.159,0.326,1.727c-1.842,2.694-3.605,5.496-5.244,8.323
			C84.146,133.756,83.729,133.979,83.302,133.979z M309.282,121.217c-0.382,0-0.755-0.174-0.997-0.502
			c-1.944-2.621-4.011-5.202-6.143-7.68c-0.447-0.519-0.389-1.302,0.131-1.75c0.52-0.447,1.303-0.389,1.75,0.131
			c2.17,2.521,4.275,5.15,6.254,7.818c0.408,0.551,0.293,1.328-0.258,1.738C309.798,121.137,309.539,121.217,309.282,121.217z
			 M94.485,117.584c-0.271,0-0.543-0.087-0.771-0.27c-0.537-0.428-0.626-1.207-0.198-1.742c2.069-2.606,4.263-5.165,6.518-7.609
			c0.465-0.506,1.25-0.532,1.754-0.069c0.504,0.465,0.534,1.251,0.069,1.754c-2.211,2.397-4.364,4.912-6.397,7.469
			C95.212,117.424,94.852,117.584,94.485,117.584z M296.337,106.189c-0.318,0-0.637-0.121-0.879-0.364
			c-2.308-2.313-4.729-4.572-7.195-6.707c-0.518-0.448-0.572-1.231-0.124-1.751c0.446-0.516,1.23-0.576,1.75-0.125
			c2.511,2.176,4.978,4.473,7.327,6.829c0.484,0.486,0.48,1.272-0.002,1.756C296.971,106.068,296.653,106.189,296.337,106.189z
			 M107.933,102.998c-0.332,0-0.662-0.131-0.906-0.391c-0.469-0.5-0.442-1.285,0.059-1.756c2.422-2.27,4.962-4.481,7.55-6.576
			c0.533-0.432,1.312-0.351,1.746,0.184c0.43,0.533,0.348,1.314-0.186,1.745c-2.542,2.059-5.035,4.231-7.415,6.46
			C108.542,102.887,108.236,102.998,107.933,102.998z M281.341,93.199c-0.259,0-0.52-0.08-0.74-0.246
			c-2.618-1.951-5.343-3.832-8.097-5.59c-0.577-0.368-0.747-1.137-0.38-1.714c0.37-0.577,1.137-0.747,1.715-0.378
			c2.806,1.789,5.578,3.703,8.244,5.69c0.549,0.41,0.662,1.188,0.253,1.736C282.094,93.027,281.718,93.199,281.341,93.199z
			 M123.351,90.525c-0.393,0-0.779-0.187-1.021-0.531c-0.391-0.563-0.251-1.338,0.312-1.729c2.728-1.896,5.562-3.713,8.424-5.404
			c0.591-0.348,1.351-0.154,1.699,0.436c0.351,0.592,0.153,1.353-0.436,1.701c-2.812,1.662-5.594,3.447-8.272,5.308
			C123.842,90.453,123.596,90.525,123.351,90.525z M264.607,82.531c-0.197,0-0.398-0.048-0.589-0.148
			c-2.878-1.551-5.85-3.016-8.827-4.346c-0.626-0.281-0.905-1.016-0.626-1.641c0.279-0.627,1.015-0.906,1.64-0.627
			c3.033,1.356,6.06,2.849,8.991,4.428c0.604,0.325,0.83,1.078,0.506,1.682C265.478,82.295,265.049,82.531,264.607,82.531z
			 M140.415,80.439c-0.456,0-0.896-0.254-1.113-0.69c-0.304-0.613-0.054-1.357,0.561-1.665c2.983-1.477,6.052-2.86,9.121-4.111
			c0.634-0.26,1.359,0.046,1.617,0.682c0.259,0.634-0.047,1.357-0.682,1.616c-3.014,1.229-6.026,2.588-8.953,4.039
			C140.788,80.396,140.601,80.439,140.415,80.439z M246.486,74.427c-0.139,0-0.28-0.022-0.422-0.074
			c-3.072-1.109-6.224-2.119-9.363-2.996c-0.66-0.186-1.047-0.869-0.861-1.53c0.185-0.659,0.868-1.044,1.531-0.86
			c3.196,0.896,6.406,1.922,9.538,3.053c0.644,0.232,0.979,0.944,0.744,1.591C247.472,74.112,246.993,74.427,246.486,74.427z
			 M158.774,72.961c-0.524,0-1.012-0.334-1.181-0.858c-0.211-0.651,0.146-1.354,0.798-1.562c3.168-1.024,6.409-1.944,9.637-2.73
			c0.666-0.165,1.336,0.248,1.5,0.912c0.161,0.666-0.247,1.338-0.91,1.5c-3.17,0.771-6.354,1.674-9.46,2.68
			C159.03,72.941,158.9,72.961,158.774,72.961z M227.388,69.084c-0.082,0-0.164-0.012-0.247-0.024
			c-3.198-0.646-6.462-1.181-9.702-1.588c-0.68-0.086-1.162-0.707-1.076-1.386c0.087-0.683,0.709-1.155,1.388-1.078
			c3.301,0.416,6.625,0.961,9.883,1.617c0.672,0.136,1.104,0.791,0.971,1.463C228.484,68.677,227.966,69.084,227.388,69.084z
			 M178.04,68.264c-0.597,0-1.121-0.432-1.224-1.037c-0.112-0.676,0.345-1.316,1.021-1.431c3.271-0.545,6.613-0.979,9.931-1.282
			c0.686-0.07,1.286,0.438,1.352,1.121c0.062,0.683-0.44,1.286-1.123,1.351c-3.255,0.302-6.537,0.724-9.75,1.262
			C178.177,68.258,178.108,68.264,178.04,68.264z M207.712,66.6c-0.022,0-0.043-0.001-0.064-0.001
			c-3.27-0.172-6.583-0.227-9.835-0.161c-0.007,0-0.016,0-0.023,0c-0.674,0-1.228-0.541-1.24-1.218
			c-0.014-0.686,0.53-1.251,1.217-1.266c3.312-0.064,6.685-0.01,10.012,0.164c0.685,0.035,1.211,0.62,1.175,1.305
			C208.915,66.086,208.368,66.6,207.712,66.6z"/>
	</g>
	<g>
		<circle fill="#D7DFE2" cx="200.49" cy="200.533" r="117.267"/>
	</g>
</g>
<g id="papers">
	<g>
		<polygon fill="#FFFFFF" points="292.33,194.646 216.211,174.976 216.211,98.855 292.33,118.526 		"/>
		<path fill="#345568" d="M292.33,195.891c-0.104,0-0.207-0.017-0.311-0.041l-76.12-19.672c-0.549-0.144-0.932-0.637-0.932-1.202
			v-76.12c0-0.383,0.178-0.746,0.481-0.979c0.305-0.236,0.695-0.319,1.07-0.223l76.118,19.671c0.548,0.142,0.932,0.637,0.932,1.201
			v76.12c0,0.385-0.178,0.748-0.48,0.98C292.87,195.8,292.603,195.891,292.33,195.891z M217.451,174.014l73.638,19.03V119.49
			l-73.638-19.033V174.014L217.451,174.014z"/>
	</g>
	<g>
		<polygon fill="#FFFFFF" points="286.952,200.025 210.833,180.354 210.833,104.234 286.952,123.905 		"/>
		<path fill="#345568" d="M286.952,201.268c-0.104,0-0.207-0.016-0.312-0.041l-76.119-19.671c-0.549-0.142-0.932-0.637-0.932-1.202
			v-76.119c0-0.385,0.178-0.746,0.481-0.98c0.304-0.235,0.696-0.319,1.069-0.221l76.12,19.67c0.548,0.143,0.93,0.637,0.93,1.202
			v76.12c0,0.385-0.176,0.744-0.479,0.979C287.492,201.178,287.225,201.268,286.952,201.268z M212.073,179.393l73.639,19.03v-73.557
			l-73.639-19.032V179.393z"/>
	</g>
	<g>
		<polygon fill="#FFFFFF" points="281.574,205.404 205.454,185.732 205.454,109.613 281.574,129.285 		"/>
		<path fill="#345568" d="M281.574,206.645c-0.104,0-0.208-0.014-0.312-0.039l-76.118-19.673c-0.549-0.143-0.932-0.636-0.932-1.2
			v-76.119c0-0.385,0.178-0.748,0.48-0.982c0.305-0.235,0.696-0.317,1.069-0.221l76.12,19.672c0.549,0.143,0.932,0.637,0.932,1.203
			v76.119c0,0.384-0.178,0.744-0.48,0.979C282.113,206.555,281.847,206.645,281.574,206.645z M206.696,184.77l73.638,19.033v-73.558
			l-73.638-19.031V184.77L206.696,184.77z"/>
	</g>
	<g>
		<polygon fill="#FFFFFF" points="276.196,210.781 200.076,191.109 200.076,114.99 276.196,134.663 		"/>
		<path fill="#345568" d="M276.196,212.021c-0.104,0-0.207-0.013-0.311-0.039l-76.119-19.672c-0.549-0.143-0.932-0.637-0.932-1.201
			V114.99c0-0.383,0.178-0.746,0.479-0.982c0.306-0.233,0.698-0.315,1.071-0.219l76.12,19.671c0.548,0.143,0.931,0.637,0.931,1.203
			v76.118c0,0.385-0.177,0.746-0.48,0.982C276.735,211.934,276.469,212.021,276.196,212.021z M201.317,190.148l73.639,19.031
			v-73.558l-73.639-19.03V190.148L201.317,190.148z"/>
	</g>
	<g>
		<polygon fill="#FFFFFF" points="270.818,216.16 194.698,196.488 194.698,120.369 270.818,140.039 		"/>
		<path fill="#345568" d="M270.818,217.402c-0.104,0-0.208-0.015-0.31-0.041l-76.12-19.672c-0.55-0.144-0.932-0.636-0.932-1.201
			v-76.119c0-0.385,0.178-0.748,0.48-0.981c0.305-0.235,0.697-0.318,1.07-0.22l76.12,19.67c0.548,0.143,0.93,0.637,0.93,1.201
			v76.121c0,0.383-0.177,0.744-0.479,0.979C271.358,217.312,271.09,217.402,270.818,217.402z M195.94,195.527l73.638,19.029v-73.556
			l-73.638-19.03V195.527z"/>
	</g>
	<g>
		<polygon fill="#FFFFFF" points="265.44,221.539 189.32,201.865 189.32,125.744 265.44,145.417 		"/>
		<path fill="#345568" d="M265.44,222.779c-0.104,0-0.207-0.014-0.311-0.041l-76.119-19.671c-0.549-0.142-0.931-0.635-0.931-1.202
			v-76.121c0-0.381,0.178-0.744,0.48-0.979c0.302-0.236,0.695-0.318,1.069-0.224l76.12,19.673c0.548,0.143,0.931,0.637,0.931,1.201
			v76.122c0,0.383-0.179,0.744-0.48,0.979C265.979,222.688,265.712,222.779,265.44,222.779z M190.562,200.904l73.639,19.031v-73.558
			l-73.639-19.029V200.904L190.562,200.904z"/>
	</g>
	<g>
		<polygon fill="#FFFFFF" points="260.062,226.916 183.943,207.244 183.943,131.123 260.062,150.796 		"/>
		<path fill="#345568" d="M260.062,228.156c-0.104,0-0.207-0.013-0.309-0.039l-76.121-19.672c-0.547-0.141-0.931-0.637-0.931-1.201
			v-76.121c0-0.383,0.178-0.744,0.48-0.979c0.303-0.236,0.697-0.318,1.069-0.222l76.12,19.672c0.548,0.143,0.931,0.638,0.931,1.202
			v76.12c0,0.384-0.177,0.744-0.48,0.98C260.602,228.066,260.334,228.156,260.062,228.156z M185.185,206.283l73.637,19.031v-73.56
			l-73.637-19.028V206.283z"/>
	</g>
	<g>
		<polygon fill="#FFFFFF" points="254.685,232.294 178.564,212.623 178.564,136.502 254.685,156.174 		"/>
		<path fill="#345568" d="M254.685,233.533c-0.104,0-0.209-0.012-0.311-0.037l-76.119-19.673c-0.549-0.141-0.933-0.636-0.933-1.2
			v-76.121c0-0.383,0.179-0.746,0.48-0.979c0.304-0.236,0.697-0.32,1.071-0.223l76.12,19.673c0.548,0.143,0.93,0.637,0.93,1.201
			v76.12c0,0.385-0.178,0.745-0.481,0.98C255.224,233.445,254.956,233.533,254.685,233.533z M179.806,211.66l73.638,19.031v-73.558
			l-73.638-19.028V211.66z"/>
	</g>
	<g>
		<polygon fill="#FFFFFF" points="249.306,237.672 173.186,218 173.186,141.881 249.306,161.552 		"/>
		<path fill="#345568" d="M249.306,238.912c-0.104,0-0.207-0.013-0.31-0.039l-76.122-19.672c-0.548-0.141-0.931-0.637-0.931-1.201
			v-76.119c0-0.385,0.179-0.747,0.481-0.981c0.303-0.235,0.696-0.316,1.07-0.221l76.12,19.673c0.548,0.142,0.932,0.636,0.932,1.201
			v76.119c0,0.385-0.179,0.746-0.482,0.98C249.846,238.823,249.578,238.912,249.306,238.912z M174.427,217.039l73.639,19.031
			v-73.559l-73.639-19.028V217.039z"/>
	</g>
	<g>
		<polygon fill="#FFFFFF" points="243.929,243.05 167.809,223.379 167.809,147.258 243.929,166.929 		"/>
		<path fill="#345568" d="M243.929,244.291c-0.104,0-0.207-0.013-0.311-0.039l-76.121-19.672c-0.548-0.141-0.932-0.635-0.932-1.201
			v-76.121c0-0.383,0.178-0.744,0.48-0.979c0.305-0.235,0.696-0.316,1.071-0.22l76.119,19.671c0.549,0.141,0.932,0.636,0.932,1.2
			v76.12c0,0.386-0.179,0.745-0.481,0.98C244.467,244.201,244.201,244.291,243.929,244.291z M169.048,222.417l73.64,19.03v-73.555
			l-73.64-19.032V222.417z"/>
	</g>
	<g>
		<polygon fill="#FFFFFF" points="238.55,248.428 162.43,228.758 162.43,152.637 238.55,172.307 		"/>
		<path fill="#345568" d="M238.55,249.668c-0.104,0-0.207-0.012-0.311-0.039l-76.121-19.672c-0.549-0.141-0.932-0.635-0.932-1.199
			v-76.12c0-0.386,0.18-0.746,0.481-0.982c0.304-0.232,0.697-0.316,1.069-0.219l76.121,19.67c0.549,0.143,0.932,0.637,0.932,1.201
			v76.121c0,0.385-0.179,0.745-0.481,0.98C239.09,249.579,238.822,249.668,238.55,249.668z M163.669,227.795l73.641,19.031V173.27
			l-73.641-19.03V227.795z"/>
	</g>
	<g id="Big_x5F_paper">
		<g>
			<polygon fill="#FFFFFF" points="233.173,297.096 157.052,277.425 157.052,114.155 233.173,133.826 			"/>
			<path fill="#345568" d="M233.173,298.338c-0.104,0-0.209-0.014-0.312-0.041l-76.119-19.671c-0.549-0.142-0.932-0.637-0.932-1.2
				V114.155c0-0.384,0.177-0.747,0.48-0.981s0.697-0.317,1.069-0.219l76.121,19.671c0.548,0.142,0.932,0.637,0.932,1.2v163.271
				c0,0.385-0.18,0.746-0.481,0.979C233.711,298.248,233.444,298.338,233.173,298.338z M158.292,276.463l73.64,19.031V134.789
				l-73.64-19.031V276.463z"/>
		</g>
		<g>
			<g>
				<path fill="#F48272" d="M223.157,144.882c-0.104,0-0.208-0.015-0.312-0.04l-56.089-14.493c-0.664-0.17-1.062-0.849-0.893-1.513
					c0.173-0.662,0.85-1.06,1.513-0.891l56.089,14.494c0.665,0.172,1.062,0.848,0.892,1.512
					C224.212,144.512,223.71,144.882,223.157,144.882z"/>
			</g>
			<g>
				<path fill="#F48272" d="M223.157,155.533c-0.104,0-0.208-0.014-0.312-0.041l-56.089-14.494c-0.664-0.17-1.062-0.847-0.893-1.51
					c0.173-0.664,0.85-1.062,1.513-0.892l56.089,14.492c0.665,0.174,1.062,0.849,0.892,1.515
					C224.212,155.162,223.71,155.533,223.157,155.533z"/>
			</g>
			<g>
				<path fill="#F48272" d="M223.157,166.186c-0.104,0-0.208-0.015-0.312-0.041l-56.089-14.494c-0.664-0.17-1.062-0.848-0.893-1.512
					c0.173-0.664,0.85-1.063,1.513-0.893l56.089,14.494c0.665,0.173,1.062,0.849,0.892,1.512
					C224.212,165.813,223.71,166.186,223.157,166.186z"/>
			</g>
			<g>
				<path fill="#F48272" d="M223.157,176.836c-0.104,0-0.208-0.014-0.312-0.041l-56.089-14.494c-0.664-0.17-1.062-0.848-0.893-1.512
					c0.173-0.662,0.85-1.059,1.513-0.891l56.089,14.494c0.665,0.172,1.062,0.848,0.892,1.512
					C224.212,176.465,223.71,176.836,223.157,176.836z"/>
			</g>
			<g>
				<path fill="#F48272" d="M223.157,187.484c-0.104,0-0.208-0.012-0.312-0.037l-56.089-14.495
					c-0.664-0.171-1.062-0.847-0.893-1.511c0.173-0.664,0.85-1.062,1.513-0.893l56.089,14.494c0.665,0.171,1.062,0.848,0.892,1.513
					C224.212,187.115,223.71,187.484,223.157,187.484z"/>
			</g>
			<g>
				<path fill="#F48272" d="M223.157,198.137c-0.104,0-0.208-0.013-0.312-0.039l-56.089-14.493
					c-0.664-0.171-1.062-0.849-0.893-1.514c0.173-0.663,0.85-1.062,1.513-0.892l56.089,14.495c0.665,0.171,1.062,0.848,0.892,1.511
					C224.212,197.767,223.71,198.137,223.157,198.137z"/>
			</g>
			<g>
				<path fill="#F48272" d="M223.157,208.789c-0.104,0-0.208-0.013-0.312-0.039l-56.089-14.494c-0.664-0.172-1.062-0.85-0.893-1.514
					c0.173-0.664,0.85-1.062,1.513-0.891l56.089,14.494c0.665,0.172,1.062,0.849,0.892,1.512
					C224.212,208.418,223.71,208.789,223.157,208.789z"/>
			</g>
			<g>
				<path fill="#F48272" d="M223.157,219.439c-0.104,0-0.208-0.014-0.312-0.041l-56.089-14.493
					c-0.664-0.171-1.062-0.849-0.893-1.512c0.173-0.663,0.85-1.061,1.513-0.893l56.089,14.495c0.665,0.171,1.062,0.849,0.892,1.513
					C224.212,219.069,223.71,219.439,223.157,219.439z"/>
			</g>
			<g>
				<path fill="#F48272" d="M223.157,230.09c-0.104,0-0.208-0.012-0.312-0.039l-56.089-14.493c-0.664-0.171-1.062-0.85-0.893-1.513
					c0.173-0.664,0.85-1.061,1.513-0.891l56.089,14.494c0.665,0.171,1.062,0.848,0.892,1.511
					C224.212,229.72,223.71,230.09,223.157,230.09z"/>
			</g>
			<g>
				<path fill="#F48272" d="M223.157,240.742c-0.104,0-0.208-0.013-0.312-0.041l-56.089-14.493
					c-0.664-0.171-1.062-0.848-0.893-1.513c0.173-0.663,0.85-1.062,1.513-0.891l56.089,14.493c0.665,0.173,1.062,0.85,0.892,1.512
					C224.212,240.371,223.71,240.742,223.157,240.742z"/>
			</g>
			<g>
				<path fill="#F48272" d="M223.157,251.393c-0.104,0-0.208-0.013-0.312-0.039l-56.089-14.494c-0.664-0.171-1.062-0.85-0.893-1.513
					c0.173-0.662,0.85-1.063,1.513-0.893l56.089,14.494c0.665,0.172,1.062,0.85,0.892,1.512
					C224.212,251.022,223.71,251.393,223.157,251.393z"/>
			</g>
			<g>
				<path fill="#F48272" d="M223.157,262.043c-0.104,0-0.208-0.012-0.312-0.039l-56.089-14.492
					c-0.664-0.173-1.062-0.851-0.893-1.514c0.173-0.662,0.85-1.061,1.513-0.891l56.089,14.493c0.665,0.172,1.062,0.849,0.892,1.512
					C224.212,261.673,223.71,262.043,223.157,262.043z"/>
			</g>
			<g>
				<path fill="#F48272" d="M223.157,272.695c-0.104,0-0.208-0.015-0.312-0.041l-56.089-14.492c-0.664-0.172-1.062-0.85-0.893-1.513
					c0.173-0.663,0.85-1.062,1.513-0.893l56.089,14.494c0.665,0.172,1.062,0.85,0.892,1.514
					C224.212,272.323,223.71,272.695,223.157,272.695z"/>
			</g>
			<g>
				<path fill="#F48272" d="M223.157,283.346c-0.104,0-0.208-0.014-0.312-0.04l-56.089-14.492c-0.664-0.172-1.062-0.852-0.893-1.515
					c0.173-0.662,0.85-1.062,1.513-0.892l56.089,14.495c0.665,0.171,1.062,0.849,0.892,1.511
					C224.212,282.975,223.71,283.346,223.157,283.346z"/>
			</g>
		</g>
	</g>
	<g>
		<polygon fill="#FFFFFF" points="227.794,259.185 151.673,239.512 151.673,163.393 227.794,183.063 		"/>
		<path fill="#345568" d="M227.794,260.424c-0.104,0-0.208-0.012-0.312-0.037l-76.12-19.674c-0.548-0.141-0.931-0.635-0.931-1.2
			v-76.119c0-0.383,0.179-0.746,0.481-0.982c0.303-0.233,0.696-0.317,1.068-0.219l76.122,19.672c0.547,0.141,0.932,0.636,0.932,1.2
			v76.121c0,0.382-0.179,0.745-0.481,0.979C228.334,260.336,228.066,260.424,227.794,260.424z M152.913,238.552l73.641,19.029
			v-73.556l-73.641-19.032V238.552z"/>
	</g>
	<g>
		<polygon fill="#FFFFFF" points="222.417,264.562 146.294,244.891 146.294,168.771 222.417,188.441 		"/>
		<path fill="#345568" d="M222.417,265.803c-0.105,0-0.209-0.014-0.312-0.038l-76.12-19.674c-0.548-0.141-0.932-0.635-0.932-1.2
			v-76.119c0-0.385,0.178-0.746,0.48-0.982c0.305-0.235,0.696-0.319,1.07-0.219l76.12,19.67c0.548,0.144,0.932,0.637,0.932,1.201
			v76.121c0,0.384-0.179,0.745-0.481,0.979C222.956,265.713,222.688,265.803,222.417,265.803z M147.536,243.93l73.64,19.028v-73.555
			l-73.64-19.032V243.93z"/>
	</g>
	<g>
		<polygon fill="#FFFFFF" points="217.038,269.94 140.917,250.268 140.917,174.148 217.038,193.819 		"/>
		<path fill="#345568" d="M217.038,271.182c-0.104,0-0.209-0.014-0.312-0.04l-76.12-19.671c-0.548-0.144-0.931-0.636-0.931-1.203
			v-76.119c0-0.383,0.179-0.745,0.481-0.98s0.694-0.317,1.069-0.221l76.121,19.672c0.547,0.142,0.93,0.635,0.93,1.2v76.121
			c0,0.384-0.178,0.745-0.479,0.979C217.578,271.092,217.311,271.182,217.038,271.182z M142.157,249.307l73.64,19.03v-73.556
			l-73.64-19.032V249.307z"/>
	</g>
	<g>
		<polygon fill="#FFFFFF" points="211.659,275.318 135.538,255.646 135.538,179.527 211.659,199.198 		"/>
		<path fill="#345568" d="M211.659,276.559c-0.104,0-0.207-0.014-0.312-0.038l-76.119-19.673c-0.548-0.142-0.932-0.636-0.932-1.201
			v-76.119c0-0.385,0.178-0.746,0.48-0.982c0.304-0.235,0.696-0.317,1.07-0.22l76.12,19.671c0.548,0.144,0.931,0.637,0.931,1.202
			v76.12c0,0.384-0.178,0.746-0.48,0.98C212.2,276.471,211.933,276.559,211.659,276.559z M136.779,254.686l73.641,19.03V200.16
			l-73.641-19.032V254.686z"/>
	</g>
	<g>
		<polygon fill="#FFFFFF" points="206.282,280.696 130.161,261.023 130.161,184.904 206.282,204.576 		"/>
		<path fill="#345568" d="M206.282,281.938c-0.104,0-0.21-0.014-0.312-0.038l-76.12-19.673c-0.547-0.144-0.931-0.638-0.931-1.203
			v-76.119c0-0.385,0.178-0.746,0.48-0.98c0.304-0.235,0.696-0.318,1.07-0.221l76.121,19.672c0.547,0.144,0.93,0.638,0.93,1.201
			v76.12c0,0.384-0.178,0.745-0.48,0.98C206.822,281.848,206.554,281.938,206.282,281.938z M131.402,260.063l73.64,19.027v-73.554
			l-73.64-19.032V260.063L131.402,260.063z"/>
	</g>
	<g>
		<polygon fill="#FFFFFF" points="200.903,286.075 124.782,266.402 124.782,190.282 200.903,209.953 		"/>
		<path fill="#345568" d="M200.903,287.316c-0.104,0-0.207-0.014-0.311-0.04l-76.12-19.673c-0.548-0.142-0.931-0.636-0.931-1.201
			v-76.12c0-0.384,0.178-0.745,0.48-0.98c0.303-0.234,0.695-0.318,1.07-0.221l76.12,19.673c0.548,0.142,0.931,0.636,0.931,1.199
			v76.122c0,0.383-0.178,0.745-0.48,0.979C201.444,287.227,201.177,287.316,200.903,287.316z M126.023,265.441l73.641,19.031
			v-73.558l-73.641-19.031V265.441L126.023,265.441z"/>
	</g>
	<g>
		<polygon fill="#FFFFFF" points="195.525,291.452 119.405,271.781 119.405,195.66 195.525,215.332 		"/>
		<path fill="#345568" d="M195.525,292.693c-0.104,0-0.207-0.013-0.31-0.039l-76.121-19.672c-0.547-0.144-0.931-0.637-0.931-1.201
			V195.66c0-0.384,0.178-0.745,0.48-0.979c0.303-0.236,0.695-0.319,1.069-0.222l76.12,19.672c0.549,0.142,0.932,0.636,0.932,1.201
			v76.12c0,0.385-0.178,0.746-0.48,0.981C196.066,292.604,195.798,292.693,195.525,292.693z M120.646,270.819l73.64,19.032v-73.559
			l-73.64-19.031V270.819z"/>
	</g>
	<g>
		<polygon fill="#FFFFFF" points="190.147,296.83 114.026,277.158 114.026,201.038 190.147,220.711 		"/>
		<path fill="#345568" d="M190.147,298.071c-0.104,0-0.207-0.014-0.31-0.039l-76.121-19.673c-0.548-0.141-0.931-0.635-0.931-1.201
			v-76.12c0-0.384,0.178-0.745,0.48-0.979c0.302-0.235,0.695-0.316,1.069-0.222l76.121,19.674c0.547,0.141,0.931,0.635,0.931,1.2
			v76.119c0,0.385-0.178,0.746-0.482,0.981C190.687,297.982,190.421,298.071,190.147,298.071z M115.268,276.197l73.641,19.031
			v-73.558l-73.641-19.028V276.197L115.268,276.197z"/>
	</g>
	<g>
		<polygon fill="#FFFFFF" points="184.77,302.209 108.649,282.537 108.649,206.418 184.77,226.088 		"/>
		<path fill="#345568" d="M184.77,303.449c-0.104,0-0.208-0.013-0.311-0.039l-76.121-19.672c-0.547-0.143-0.93-0.637-0.93-1.201
			v-76.119c0-0.386,0.178-0.748,0.48-0.981c0.303-0.234,0.695-0.317,1.068-0.222l76.123,19.673c0.546,0.143,0.93,0.637,0.93,1.2
			v76.121c0,0.385-0.178,0.746-0.482,0.98C185.31,303.361,185.042,303.449,184.77,303.449z M109.89,281.576l73.639,19.029V227.05
			L109.89,208.02V281.576L109.89,281.576z"/>
	</g>
</g>
<g id="eye">
	<g>
		<circle fill="#F48272" cx="103.037" cy="125.5" r="42.237"/>
	</g>
	<g>
		<g>
			<g>
				<path fill="#FFFFFF" d="M74.587,128.66c8.003,8.288,17.827,13.175,28.45,13.175s20.447-4.887,28.449-13.175
					c-8.002-8.291-17.826-13.178-28.449-13.178S82.59,120.369,74.587,128.66z"/>
			</g>
			<g>
				<circle fill="#345568" cx="103.038" cy="128.66" r="7.641"/>
			</g>
		</g>
		<g>
			<g>
				<path fill="#345568" d="M103.037,111.191c-0.686,0-1.241-0.558-1.241-1.239V99.148c0-0.687,0.557-1.242,1.241-1.242
					c0.684,0,1.24,0.557,1.24,1.242v10.804C104.278,110.635,103.722,111.191,103.037,111.191z"/>
			</g>
			<g>
				<path fill="#345568" d="M97.229,111.191c-0.317,0-0.636-0.121-0.878-0.363l-7.638-7.639c-0.486-0.486-0.486-1.271,0-1.756
					c0.484-0.484,1.27-0.484,1.754,0l7.639,7.641c0.486,0.483,0.486,1.271,0,1.754C97.864,111.07,97.546,111.191,97.229,111.191z"/>
			</g>
			<g>
				<path fill="#345568" d="M108.848,111.191c-0.318,0-0.636-0.121-0.877-0.363c-0.485-0.483-0.485-1.271,0-1.754l7.636-7.641
					c0.485-0.484,1.271-0.484,1.756,0c0.484,0.485,0.484,1.27,0,1.756l-7.638,7.639C109.482,111.07,109.164,111.191,108.848,111.191
					z"/>
			</g>
		</g>
	</g>
</g>
<g id="sirene">
	<g>
		<g>
			<circle fill="#345568" cx="298.302" cy="275.561" r="42.238"/>
		</g>
	</g>
	<g>
		<g>
			<path fill="#F48272" d="M314.111,290.37c0.451,2.706-1.425,4.919-4.166,4.919h-23.285c-2.742,0-4.617-2.213-4.166-4.919
				l4.227-25.356c0.453-2.708,3.064-4.921,5.808-4.921h11.55c2.742,0,5.355,2.213,5.808,4.921L314.111,290.37z"/>
		</g>
		<g>
			<rect x="276.591" y="289.423" fill="#D7DFE2" width="43.423" height="11.729"/>
		</g>
		<g>
			<g>
				<path fill="#D7DFE2" d="M298.301,253.905c-0.685,0-1.241-0.557-1.241-1.241v-7.656c0-0.684,0.558-1.239,1.241-1.239
					s1.241,0.557,1.241,1.239v7.656C299.542,253.349,298.985,253.905,298.301,253.905z"/>
			</g>
			<g>
				<g>
					<path fill="#D7DFE2" d="M326.539,269.287h-7.655c-0.687,0-1.241-0.555-1.241-1.24c0-0.684,0.557-1.241,1.241-1.241h7.655
						c0.685,0,1.238,0.559,1.238,1.241C327.778,268.732,327.224,269.287,326.539,269.287z"/>
				</g>
				<g>
					<path fill="#D7DFE2" d="M277.718,269.287h-7.655c-0.685,0-1.239-0.555-1.239-1.24c0-0.684,0.556-1.241,1.239-1.241h7.655
						c0.685,0,1.24,0.559,1.24,1.241C278.958,268.732,278.402,269.287,277.718,269.287z"/>
				</g>
			</g>
			<g>
				<path fill="#D7DFE2" d="M285.907,258.045c-0.318,0-0.638-0.12-0.88-0.362l-5.414-5.414c-0.483-0.484-0.483-1.271,0-1.754
					c0.486-0.484,1.271-0.484,1.757,0l5.414,5.414c0.482,0.483,0.482,1.27,0,1.754C286.542,257.925,286.224,258.045,285.907,258.045
					z"/>
			</g>
			<g>
				<path fill="#D7DFE2" d="M310.696,258.045c-0.316,0-0.634-0.12-0.877-0.362c-0.484-0.484-0.484-1.271,0-1.754l5.414-5.414
					c0.484-0.484,1.271-0.484,1.755,0c0.485,0.483,0.485,1.27,0,1.754l-5.413,5.414
					C311.332,257.925,311.014,258.045,310.696,258.045z"/>
			</g>
		</g>
	</g>
</g>
</svg>
