<?xml version="1.0" encoding="utf-8"?>
<!-- Generator: Adobe Illustrator 16.0.0, SVG Export Plug-In . SVG Version: 6.00 Build 0)  -->
<!DOCTYPE svg PUBLIC "-//W3C//DTD SVG 1.1//EN" "http://www.w3.org/Graphics/SVG/1.1/DTD/svg11.dtd">
<svg version="1.1" id="Layer_1" xmlns="http://www.w3.org/2000/svg" xmlns:xlink="http://www.w3.org/1999/xlink" x="0px" y="0px"
	 width="401px" height="401px" viewBox="0 0 401 401" enable-background="new 0 0 401 401" xml:space="preserve">
<g id="circles">
	<g>
		<path fill="#D7DFE2" d="M205.211,336.604c-0.668,0-1.219-0.531-1.24-1.203c-0.02-0.684,0.518-1.258,1.203-1.278
			c3.271-0.1,6.574-0.32,9.813-0.657c0.671-0.068,1.291,0.425,1.363,1.107c0.068,0.683-0.426,1.291-1.108,1.361
			c-3.3,0.344-6.662,0.568-9.992,0.67C205.236,336.604,205.223,336.604,205.211,336.604z M195.283,336.551
			c-0.017,0-0.035,0-0.052-0.002c-3.33-0.138-6.69-0.399-9.985-0.778c-0.683-0.078-1.172-0.693-1.093-1.375
			c0.078-0.682,0.709-1.171,1.375-1.092c3.236,0.372,6.537,0.629,9.808,0.765c0.684,0.029,1.217,0.606,1.188,1.293
			C196.496,336.028,195.945,336.551,195.283,336.551z M224.943,334.557c-0.59,0-1.112-0.422-1.221-1.022
			c-0.119-0.675,0.33-1.32,1.004-1.439c3.215-0.574,6.447-1.275,9.611-2.083c0.666-0.173,1.342,0.229,1.51,0.896
			c0.172,0.661-0.229,1.338-0.895,1.509c-3.224,0.821-6.517,1.537-9.789,2.12C225.09,334.551,225.016,334.557,224.943,334.557z
			 M175.576,334.285c-0.076,0-0.154-0.008-0.232-0.022c-3.266-0.617-6.551-1.37-9.768-2.23c-0.662-0.176-1.056-0.856-0.877-1.519
			c0.178-0.663,0.854-1.056,1.52-0.88c3.156,0.846,6.381,1.582,9.588,2.19c0.674,0.127,1.115,0.777,0.988,1.451
			C176.682,333.869,176.16,334.285,175.576,334.285z M244.166,329.643c-0.519,0-1.002-0.328-1.179-0.848
			c-0.219-0.65,0.134-1.354,0.783-1.57c3.086-1.039,6.179-2.206,9.189-3.472c0.631-0.268,1.358,0.029,1.625,0.662
			c0.266,0.634-0.031,1.359-0.664,1.628c-3.066,1.288-6.215,2.479-9.361,3.534C244.43,329.621,244.297,329.643,244.166,329.643z
			 M156.41,329.154c-0.138,0-0.273-0.021-0.41-0.067c-3.142-1.097-6.283-2.322-9.342-3.648c-0.63-0.274-0.921-1.004-0.646-1.633
			c0.271-0.629,1.002-0.921,1.631-0.646c3.004,1.302,6.09,2.509,9.174,3.582c0.648,0.226,0.988,0.935,0.765,1.581
			C157.404,328.835,156.922,329.154,156.41,329.154z M262.438,321.961c-0.451,0-0.887-0.247-1.104-0.678
			c-0.312-0.609-0.07-1.357,0.541-1.671c2.907-1.482,5.797-3.094,8.588-4.782c0.584-0.357,1.35-0.171,1.703,0.416
			c0.356,0.588,0.17,1.351-0.418,1.705c-2.841,1.724-5.781,3.362-8.744,4.873C262.82,321.919,262.629,321.961,262.438,321.961z
			 M138.188,321.253c-0.192,0-0.391-0.046-0.574-0.144c-2.946-1.545-5.875-3.221-8.7-4.979c-0.584-0.361-0.763-1.127-0.4-1.709
			c0.363-0.583,1.131-0.763,1.711-0.399c2.775,1.728,5.65,3.373,8.543,4.891c0.607,0.319,0.842,1.069,0.523,1.676
			C139.066,321.01,138.637,321.253,138.188,321.253z M279.396,311.68c-0.389,0-0.77-0.181-1.014-0.521
			c-0.396-0.559-0.266-1.334,0.293-1.729c2.658-1.894,5.283-3.908,7.801-5.99c0.527-0.438,1.312-0.365,1.748,0.164
			c0.438,0.528,0.363,1.312-0.166,1.748c-2.562,2.123-5.234,4.174-7.943,6.102C279.896,311.605,279.646,311.68,279.396,311.68z
			 M121.33,310.766c-0.254,0-0.511-0.078-0.73-0.238c-2.692-1.963-5.342-4.045-7.879-6.193c-0.521-0.443-0.588-1.229-0.145-1.75
			c0.442-0.524,1.227-0.589,1.75-0.145c2.489,2.106,5.094,4.154,7.735,6.082c0.554,0.403,0.676,1.18,0.271,1.735
			C122.092,310.591,121.713,310.766,121.33,310.766z M294.682,299.031c-0.328,0-0.654-0.128-0.897-0.382
			c-0.474-0.495-0.457-1.282,0.036-1.756c2.359-2.26,4.664-4.636,6.853-7.062c0.461-0.51,1.244-0.551,1.754-0.092
			s0.549,1.245,0.092,1.754c-2.229,2.471-4.576,4.891-6.979,7.192C295.299,298.918,294.988,299.031,294.682,299.031z
			 M106.188,297.938c-0.315,0-0.631-0.118-0.873-0.354c-2.377-2.334-4.694-4.78-6.891-7.271c-0.453-0.517-0.402-1.301,0.111-1.754
			c0.516-0.454,1.299-0.402,1.752,0.111c2.155,2.446,4.432,4.849,6.77,7.141c0.488,0.479,0.496,1.266,0.016,1.755
			C106.83,297.812,106.508,297.938,106.188,297.938z M307.969,284.295c-0.266,0-0.533-0.086-0.762-0.263
			c-0.539-0.42-0.638-1.201-0.22-1.741c2.011-2.584,3.943-5.27,5.755-7.985c0.379-0.571,1.149-0.726,1.723-0.345
			c0.57,0.379,0.725,1.15,0.344,1.722c-1.844,2.768-3.813,5.502-5.856,8.133C308.705,284.13,308.34,284.295,307.969,284.295z
			 M93.072,283.051c-0.377,0-0.745-0.17-0.989-0.49c-2.015-2.651-3.951-5.409-5.761-8.195c-0.375-0.571-0.211-1.343,0.363-1.716
			c0.576-0.373,1.344-0.212,1.717,0.363c1.779,2.735,3.683,5.442,5.656,8.047c0.416,0.546,0.31,1.324-0.238,1.738
			C93.598,282.967,93.334,283.051,93.072,283.051z M318.975,267.773c-0.207,0-0.416-0.053-0.608-0.162
			c-0.599-0.336-0.81-1.096-0.472-1.691c1.609-2.847,3.133-5.788,4.525-8.741c0.293-0.621,1.033-0.886,1.651-0.595
			c0.619,0.291,0.888,1.031,0.593,1.652c-1.418,3.008-2.97,6.006-4.607,8.906C319.83,267.545,319.408,267.773,318.975,267.773z
			 M82.266,266.418c-0.438,0-0.861-0.229-1.088-0.645c-1.602-2.91-3.115-5.92-4.5-8.941c-0.285-0.623-0.01-1.358,0.613-1.645
			c0.623-0.281,1.36-0.013,1.646,0.609c1.357,2.969,2.844,5.924,4.416,8.78c0.33,0.603,0.111,1.356-0.49,1.687
			C82.674,266.371,82.469,266.418,82.266,266.418z M327.447,249.809c-0.147,0-0.301-0.026-0.444-0.082
			c-0.642-0.246-0.959-0.963-0.713-1.604c1.174-3.057,2.246-6.192,3.188-9.315c0.199-0.659,0.894-1.029,1.549-0.831
			c0.656,0.195,1.027,0.892,0.83,1.547c-0.961,3.185-2.055,6.378-3.25,9.491C328.416,249.507,327.945,249.809,327.447,249.809z
			 M74.016,248.395c-0.504,0-0.979-0.31-1.164-0.81c-1.156-3.114-2.213-6.315-3.139-9.516c-0.191-0.657,0.188-1.348,0.848-1.537
			c0.658-0.195,1.349,0.188,1.537,0.847c0.91,3.143,1.945,6.284,3.082,9.344c0.238,0.643-0.09,1.354-0.732,1.595
			C74.305,248.369,74.16,248.395,74.016,248.395z M333.182,230.802c-0.09,0-0.18-0.01-0.271-0.03
			c-0.668-0.148-1.091-0.812-0.941-1.48c0.707-3.182,1.307-6.437,1.781-9.673c0.1-0.679,0.727-1.144,1.408-1.049
			c0.678,0.1,1.146,0.731,1.049,1.41c-0.484,3.295-1.095,6.609-1.816,9.851C334.264,230.406,333.75,230.802,333.182,230.802z
			 M68.498,229.337c-0.574,0-1.09-0.4-1.215-0.983c-0.687-3.262-1.261-6.582-1.703-9.874c-0.093-0.68,0.385-1.306,1.063-1.396
			c0.678-0.099,1.306,0.386,1.396,1.063c0.436,3.23,0.998,6.493,1.674,9.691c0.141,0.671-0.289,1.328-0.959,1.472
			C68.67,229.328,68.582,229.337,68.498,229.337z M336.057,211.172c-0.031,0-0.061,0-0.092-0.004
			c-0.685-0.048-1.197-0.643-1.148-1.326c0.236-3.245,0.355-6.553,0.355-9.829c0-0.687,0.555-1.241,1.242-1.241
			c0.684,0,1.239,0.556,1.239,1.241c0,3.338-0.12,6.704-0.36,10.008C337.246,210.674,336.701,211.172,336.057,211.172z
			 M65.84,209.677c-0.65,0-1.197-0.51-1.238-1.166c-0.172-2.808-0.26-5.667-0.26-8.499c0-0.507,0.002-1.013,0.008-1.518
			c0.008-0.687,0.564-1.206,1.256-1.228c0.687,0.008,1.234,0.569,1.229,1.256c-0.006,0.496-0.01,0.992-0.01,1.488
			c0,2.782,0.088,5.59,0.256,8.348c0.043,0.684-0.479,1.271-1.162,1.313C65.893,209.674,65.865,209.677,65.84,209.677z
			 M336.24,194.334c-0.657,0-1.206-0.515-1.239-1.18c-0.166-3.271-0.451-6.566-0.853-9.797c-0.086-0.681,0.398-1.301,1.078-1.385
			c0.683-0.088,1.301,0.397,1.385,1.08c0.408,3.288,0.701,6.646,0.869,9.977c0.033,0.687-0.492,1.268-1.18,1.305
			C336.281,194.334,336.26,194.334,336.24,194.334z M66.061,189.836c-0.035,0-0.069-0.004-0.104-0.004
			c-0.685-0.059-1.191-0.658-1.136-1.342c0.277-3.323,0.683-6.67,1.199-9.945c0.105-0.677,0.75-1.138,1.42-1.031
			c0.679,0.105,1.142,0.742,1.031,1.421c-0.508,3.215-0.902,6.502-1.176,9.764C67.242,189.346,66.699,189.836,66.061,189.836z
			 M333.799,174.646c-0.58,0-1.1-0.408-1.217-0.997c-0.64-3.206-1.404-6.427-2.275-9.567c-0.184-0.662,0.205-1.347,0.863-1.528
			c0.664-0.185,1.346,0.2,1.529,0.863c0.889,3.201,1.668,6.481,2.317,9.745c0.135,0.674-0.303,1.327-0.975,1.461
			C333.961,174.639,333.881,174.646,333.799,174.646z M69.152,170.238c-0.094,0-0.188-0.009-0.284-0.031
			c-0.666-0.157-1.08-0.825-0.925-1.493c0.761-3.238,1.648-6.491,2.644-9.661c0.203-0.655,0.901-1.021,1.557-0.812
			c0.654,0.206,1.021,0.901,0.814,1.557c-0.978,3.112-1.853,6.305-2.597,9.486C70.227,169.854,69.715,170.238,69.152,170.238z
			 M328.5,155.527c-0.513,0-0.988-0.314-1.17-0.822c-1.101-3.065-2.33-6.136-3.656-9.118c-0.279-0.627,0.004-1.361,0.631-1.64
			c0.627-0.279,1.361,0.004,1.639,0.631c1.351,3.04,2.605,6.164,3.726,9.289c0.229,0.646-0.104,1.356-0.75,1.588
			C328.779,155.505,328.637,155.527,328.5,155.527z M75.096,151.299c-0.152,0-0.309-0.028-0.457-0.088
			c-0.639-0.254-0.949-0.975-0.697-1.611c1.229-3.094,2.588-6.182,4.043-9.18c0.302-0.614,1.043-0.872,1.66-0.571
			c0.617,0.298,0.873,1.041,0.574,1.656c-1.428,2.942-2.762,5.975-3.969,9.011C76.057,151.001,75.59,151.299,75.096,151.299z
			 M320.451,137.414c-0.443,0-0.871-0.238-1.097-0.655c-1.539-2.875-3.207-5.729-4.955-8.49c-0.366-0.578-0.194-1.348,0.384-1.713
			c0.577-0.365,1.346-0.197,1.713,0.385c1.782,2.809,3.479,5.719,5.049,8.647c0.324,0.604,0.096,1.354-0.51,1.679
			C320.85,137.366,320.648,137.414,320.451,137.414z M83.766,133.432c-0.213,0-0.428-0.054-0.623-0.166
			c-0.592-0.345-0.795-1.104-0.451-1.697c1.67-2.881,3.47-5.735,5.345-8.483c0.387-0.566,1.157-0.71,1.725-0.324
			c0.568,0.389,0.713,1.159,0.326,1.726c-1.842,2.698-3.605,5.499-5.246,8.327C84.609,133.21,84.193,133.432,83.766,133.432z
			 M309.832,120.664c-0.379,0-0.754-0.175-0.998-0.504c-1.945-2.623-4.015-5.207-6.146-7.68c-0.446-0.521-0.389-1.305,0.131-1.752
			c0.521-0.449,1.304-0.39,1.753,0.131c2.17,2.518,4.274,5.149,6.258,7.822c0.407,0.551,0.291,1.327-0.261,1.737
			C310.348,120.584,310.09,120.664,309.832,120.664z M94.953,117.032c-0.271,0-0.543-0.087-0.773-0.269
			c-0.535-0.429-0.625-1.208-0.197-1.746c2.07-2.605,4.267-5.164,6.521-7.608c0.465-0.505,1.252-0.535,1.754-0.071
			c0.504,0.465,0.535,1.25,0.07,1.753c-2.214,2.4-4.367,4.917-6.402,7.475C95.68,116.873,95.318,117.032,94.953,117.032z
			 M296.881,105.633c-0.318,0-0.637-0.121-0.879-0.365c-2.31-2.315-4.73-4.571-7.197-6.71c-0.518-0.447-0.574-1.23-0.125-1.75
			c0.449-0.519,1.23-0.577,1.752-0.126c2.512,2.177,4.979,4.476,7.328,6.833c0.486,0.485,0.484,1.271-0.002,1.757
			C297.516,105.511,297.199,105.633,296.881,105.633z M108.404,102.441c-0.329,0-0.659-0.131-0.905-0.394
			c-0.47-0.5-0.441-1.284,0.059-1.754c2.422-2.271,4.963-4.484,7.553-6.582c0.533-0.43,1.314-0.348,1.746,0.185
			c0.433,0.535,0.349,1.313-0.186,1.748c-2.541,2.057-5.035,4.229-7.418,6.463C109.014,102.33,108.709,102.441,108.404,102.441z
			 M281.881,92.638c-0.26,0-0.521-0.079-0.742-0.247c-2.619-1.953-5.344-3.833-8.1-5.592c-0.578-0.367-0.746-1.136-0.379-1.714
			c0.368-0.578,1.137-0.747,1.715-0.379c2.807,1.789,5.582,3.705,8.248,5.693c0.549,0.411,0.662,1.188,0.254,1.738
			C282.633,92.465,282.258,92.638,281.881,92.638z M123.83,89.964c-0.394,0-0.779-0.185-1.021-0.533
			c-0.391-0.562-0.252-1.336,0.312-1.729c2.729-1.895,5.563-3.714,8.428-5.406c0.588-0.349,1.352-0.153,1.699,0.438
			c0.35,0.591,0.153,1.351-0.437,1.7c-2.812,1.662-5.596,3.448-8.274,5.311C124.32,89.893,124.074,89.964,123.83,89.964z
			 M265.141,81.965c-0.199,0-0.402-0.049-0.588-0.148c-2.881-1.551-5.855-3.015-8.834-4.35c-0.625-0.278-0.904-1.012-0.625-1.639
			c0.279-0.626,1.016-0.905,1.639-0.626c3.035,1.356,6.062,2.847,8.998,4.429c0.603,0.324,0.828,1.078,0.504,1.683
			C266.01,81.729,265.582,81.965,265.141,81.965z M140.9,79.873c-0.457,0-0.896-0.254-1.112-0.69
			c-0.308-0.611-0.056-1.357,0.559-1.662c2.984-1.479,6.053-2.865,9.125-4.116c0.635-0.257,1.361,0.047,1.619,0.683
			c0.26,0.635-0.047,1.357-0.682,1.616c-3.017,1.229-6.029,2.588-8.957,4.042C141.273,79.832,141.086,79.873,140.9,79.873z
			 M247.012,73.857c-0.141,0-0.281-0.024-0.422-0.074c-3.074-1.11-6.228-2.119-9.369-2.998c-0.66-0.184-1.045-0.869-0.859-1.529
			c0.187-0.659,0.867-1.047,1.529-0.86c3.199,0.895,6.41,1.923,9.543,3.053c0.646,0.233,0.979,0.946,0.746,1.59
			C247.996,73.543,247.52,73.857,247.012,73.857z M159.266,72.392c-0.522,0-1.012-0.333-1.182-0.858
			c-0.211-0.653,0.146-1.354,0.801-1.562c3.166-1.025,6.41-1.945,9.639-2.729c0.666-0.166,1.336,0.244,1.5,0.91
			c0.162,0.666-0.246,1.336-0.912,1.501c-3.17,0.771-6.354,1.675-9.463,2.679C159.521,72.371,159.393,72.392,159.266,72.392z
			 M227.904,68.512c-0.079,0-0.161-0.009-0.245-0.025c-3.199-0.646-6.466-1.18-9.707-1.587c-0.681-0.085-1.162-0.706-1.076-1.386
			c0.086-0.683,0.711-1.158,1.389-1.078c3.303,0.416,6.627,0.961,9.885,1.617c0.672,0.137,1.107,0.79,0.974,1.463
			C229.002,68.106,228.484,68.512,227.904,68.512z M178.539,67.691c-0.597,0-1.121-0.429-1.224-1.035
			c-0.112-0.678,0.345-1.316,1.021-1.429c3.274-0.55,6.619-0.981,9.936-1.286c0.687-0.07,1.287,0.438,1.351,1.121
			c0.062,0.684-0.438,1.287-1.123,1.351c-3.256,0.302-6.537,0.729-9.752,1.262C178.676,67.687,178.607,67.691,178.539,67.691z
			 M208.223,66.028c-0.021,0-0.045-0.002-0.065-0.002c-3.271-0.171-6.582-0.227-9.837-0.161c-0.008,0-0.018,0-0.024,0
			c-0.674,0-1.229-0.541-1.24-1.217c-0.014-0.688,0.531-1.252,1.215-1.267c3.314-0.064,6.689-0.012,10.017,0.164
			c0.686,0.035,1.211,0.619,1.176,1.306C209.426,65.514,208.879,66.028,208.223,66.028z"/>
	</g>
	<g>
		<circle fill="#D7DFE2" cx="200.998" cy="200.012" r="117.312"/>
	</g>
</g>
<g id="lines">
	<g>
		<path fill="#F48272" d="M294.695,197.984c-0.684,0-1.239-0.555-1.239-1.24V171.14c0-3.197-2.603-5.799-5.8-5.799H177.076
			c-4.564,0-8.279-3.713-8.279-8.28v-86.54c0-3.195-2.601-5.798-5.797-5.798H95.24c-3.197,0-5.798,2.603-5.798,5.798v55.915
			c0,3.199,2.601,5.799,5.798,5.799h31.008c4.565,0,8.28,3.714,8.28,8.281v21.103c0,0.686-0.555,1.241-1.239,1.241
			c-0.686,0-1.242-0.557-1.242-1.241v-21.103c0-3.198-2.603-5.8-5.799-5.8H95.24c-4.566,0-8.281-3.713-8.281-8.28V70.521
			c0-4.565,3.715-8.28,8.281-8.28H163c4.565,0,8.278,3.715,8.278,8.28v86.54c0,3.199,2.603,5.799,5.798,5.799h110.579
			c4.566,0,8.281,3.714,8.281,8.28v25.604C295.938,197.43,295.381,197.984,294.695,197.984z"/>
	</g>
	<g>
		<path fill="#F48272" d="M278.957,197.984L278.957,197.984c-0.687,0-1.242-0.555-1.242-1.24v-95.147
			c0-3.196-2.601-5.799-5.797-5.799h-51.687v43.883c0,4.566-3.715,8.28-8.28,8.28h-5.486c-4.564,0-8.279-3.714-8.279-8.28v-38.084
			c0-4.564,3.715-8.28,8.279-8.28h11.283v-7.018c0-3.194-2.601-5.797-5.797-5.797H57.891c-3.195,0-5.797,2.603-5.797,5.797v60.417
			c0,3.197,2.602,5.799,5.797,5.799h16.967c0.685,0,1.24,0.555,1.24,1.239c0,0.686-0.557,1.242-1.24,1.242H57.891
			c-4.563,0-8.279-3.713-8.279-8.28V86.299c0-4.563,3.716-8.279,8.279-8.279h154.062c4.565,0,8.28,3.716,8.28,8.279v7.018h51.687
			c4.565,0,8.281,3.716,8.281,8.28v95.147C280.199,197.43,279.643,197.984,278.957,197.984z M206.465,95.798
			c-3.195,0-5.797,2.603-5.797,5.799v38.084c0,3.196,2.602,5.797,5.797,5.797h5.486c3.196,0,5.797-2.601,5.797-5.797V95.798H206.465
			z"/>
	</g>
	<g>
		<g>
			<path fill="#F48272" d="M203.844,281.004H59.824c-4.566,0-8.281-3.714-8.281-8.278v-42.211c0-4.567,3.715-8.28,8.281-8.28h98.5
				c4.563,0,8.278,3.713,8.278,8.28v31.459c0,0.686-0.555,1.24-1.242,1.24c-0.684,0-1.239-0.556-1.239-1.24v-31.459
				c0-3.199-2.601-5.799-5.797-5.799h-98.5c-3.197,0-5.798,2.6-5.798,5.799v42.211c0,3.194,2.601,5.797,5.798,5.797h144.02
				c3.197,0,5.799-2.603,5.799-5.797v-36.418c0-4.566,3.713-8.28,8.279-8.28h50.074c4.565,0,8.28,3.714,8.28,8.28v16.145
				c0,3.195,2.601,5.797,5.798,5.797h63.125c3.196,0,5.797-2.602,5.797-5.797V130.305c0-3.199-2.604-5.812-5.802-5.82l-73.377-0.248
				c-0.686-0.004-1.239-0.562-1.237-1.246c0.004-0.685,0.559-1.237,1.241-1.237c0.003,0,0.003,0,0.005,0l73.377,0.248
				c4.563,0.016,8.274,3.737,8.274,8.305v122.146c0,4.564-3.713,8.279-8.278,8.279h-63.125c-4.566,0-8.281-3.715-8.281-8.279
				v-16.145c0-3.197-2.601-5.798-5.797-5.798h-50.074c-3.197,0-5.797,2.601-5.797,5.798v36.418
				C212.125,277.29,208.41,281.004,203.844,281.004z"/>
		</g>
		<g>
			<path fill="#F48272" d="M288.547,321.863h-49.312c-4.565,0-8.28-3.715-8.28-8.278V241.01c0-3.198-2.601-5.799-5.797-5.799
				h-36.584c-3.197,0-5.798,2.601-5.798,5.799v67.589c0,4.563-3.715,8.281-8.28,8.281h-68.211c-4.566,0-8.281-3.718-8.281-8.281
				v-48.305c0-4.565,3.715-8.279,8.281-8.279h30.448c0.685,0,1.24,0.557,1.24,1.241c0,0.686-0.557,1.241-1.24,1.241h-30.448
				c-3.197,0-5.798,2.601-5.798,5.797v48.305c0,3.195,2.601,5.797,5.798,5.797h68.211c3.196,0,5.797-2.602,5.797-5.797V241.01
				c0-4.567,3.715-8.282,8.281-8.282h36.584c4.565,0,8.278,3.715,8.278,8.282v72.575c0,3.194,2.603,5.797,5.799,5.797h49.312
				c3.197,0,5.797-2.603,5.797-5.797V198.322c0-0.686,0.557-1.24,1.242-1.24c0.685,0,1.242,0.556,1.242,1.24v115.263
				C296.828,318.148,293.113,321.863,288.547,321.863z"/>
		</g>
	</g>
</g>
<g id="ipad">
	<path fill="#345568" d="M339.701,63.482v-0.963c0-2.581-2.113-4.692-4.691-4.692h-92.631c-2.582,0-4.695,2.111-4.695,4.692v0.963
		v5.655v4.69v0.922v3.771v2.965v97.254v2.965v4.691v4.693v5.654v0.965c0,2.579,2.113,4.69,4.695,4.69h92.631
		c2.578,0,4.691-2.111,4.691-4.69v-0.965h0.001v-10.348v-7.656h-0.001V81.486h0.001V74.75v-0.922L339.701,63.482L339.701,63.482z"/>
	<g>
		<rect x="245.342" y="81.486" fill="#D7DFE2" width="86.701" height="97.254"/>
	</g>
	<g>
		<circle fill="#D7DFE2" cx="288.693" cy="191.57" r="5.174"/>
	</g>
	<g>
		<circle fill="#D7DFE2" cx="288.693" cy="68.656" r="2.23"/>
	</g>
	<g>
		<g>
			<rect x="252.729" y="100.166" fill="#FFFFFF" width="71.931" height="65.138"/>
		</g>
		<g>
			<rect x="252.729" y="94.924" fill="#345568" width="71.931" height="5.242"/>
		</g>
		<g>
			<g>
				<circle fill="#D7DFE2" cx="256.383" cy="97.545" r="0.758"/>
			</g>
			<g>
				<circle fill="#D7DFE2" cx="259.486" cy="97.545" r="0.758"/>
			</g>
			<g>
				<circle fill="#D7DFE2" cx="262.591" cy="97.545" r="0.759"/>
			</g>
		</g>
		<g>
			<path fill="#D7DFE2" d="M301.895,97.545c0,0.627-0.51,1.139-1.139,1.139h-24.125c-0.629,0-1.139-0.512-1.139-1.139l0,0
				c0-0.629,0.51-1.139,1.139-1.139h24.125C301.385,96.406,301.895,96.916,301.895,97.545L301.895,97.545z"/>
		</g>
		<g>
			<g>
				<rect x="259.363" y="107.846" fill="#F48272" width="12.459" height="12.459"/>
			</g>
			<g>
				<rect x="280.475" y="107.822" fill="#F48272" width="37.603" height="3.312"/>
			</g>
			<g>
				<rect x="280.475" y="116.988" fill="#F48272" width="37.603" height="3.311"/>
			</g>
			<g>
				<rect x="259.363" y="126.152" fill="#D7DFE2" width="58.714" height="3.311"/>
			</g>
			<g>
				<rect x="259.311" y="135.316" fill="#D7DFE2" width="58.715" height="3.312"/>
			</g>
			<g>
				<rect x="259.311" y="144.48" fill="#D7DFE2" width="58.715" height="3.311"/>
			</g>
			<g>
				<path fill="#D7DFE2" d="M277.613,157.002H259.31c-0.686,0-1.242-0.556-1.242-1.241c0-0.687,0.558-1.241,1.242-1.241h18.303
					c0.687,0,1.242,0.556,1.242,1.241S278.299,157.002,277.613,157.002z"/>
			</g>
		</g>
	</g>
</g>
<g id="iphone">
	<path fill="#345568" d="M181.408,52.818c0-2.572-2.111-4.675-4.693-4.676h-32.816c-2.58,0-4.692,2.104-4.692,4.676
		c0,0.12,0.027,0.232,0.036,0.35h-0.037v4.326h0.361c-0.23,0.552-0.36,1.155-0.36,1.788v56.415c0,0.074,0.015,0.144,0.018,0.217
		h-0.019v2.538v1.939v2.738h0.001c0,0,0,0,0,0.001c0,2.571,2.112,4.677,4.692,4.677h32.816c2.582,0,4.693-2.106,4.693-4.677
		c0,0,0,0,0-0.001v-2.738v-1.939v-2.538h-0.018c0.003-0.073,0.018-0.143,0.018-0.217V59.282c0-0.633-0.13-1.236-0.36-1.788h0.36
		v-4.326h-0.036C181.382,53.051,181.408,52.938,181.408,52.818z"/>
	<g>
		<rect x="142.229" y="59.065" fill="#D7DFE2" width="36.158" height="56.849"/>
	</g>
	<g>
		<rect x="139.205" y="54.592" fill="#345568" width="42.203" height="4.475"/>
	</g>
	<g>
		<circle fill="#D7DFE2" cx="160.307" cy="122.445" r="2.055"/>
	</g>
	<g>
		<circle fill="#D7DFE2" cx="160.307" cy="53.168" r="1.304"/>
	</g>
	<g>
		<g>
			<rect x="144.127" y="69.986" fill="#FFFFFF" width="32.36" height="38.072"/>
		</g>
		<g>
			<rect x="144.127" y="66.92" fill="#345568" width="32.36" height="3.066"/>
		</g>
		<g>
			<g>
				<circle fill="#D7DFE2" cx="146.262" cy="68.453" r="0.443"/>
			</g>
			<g>
				<circle fill="#D7DFE2" cx="148.075" cy="68.453" r="0.442"/>
			</g>
			<g>
				<circle fill="#D7DFE2" cx="149.89" cy="68.453" r="0.442"/>
			</g>
		</g>
		<g>
			<path fill="#D7DFE2" d="M172.863,68.453c0,0.367-0.297,0.664-0.663,0.664h-14.103c-0.369,0-0.666-0.297-0.666-0.664l0,0
				c0-0.367,0.297-0.666,0.666-0.666h14.103C172.566,67.787,172.863,68.086,172.863,68.453L172.863,68.453z"/>
		</g>
		<g>
			<g>
				<rect x="148.002" y="74.475" fill="#F48272" width="7.283" height="7.28"/>
			</g>
			<g>
				<rect x="160.344" y="74.188" fill="#F48272" width="12.295" height="2.483"/>
			</g>
			<g>
				<rect x="160.344" y="79.543" fill="#F48272" width="12.295" height="2.483"/>
			</g>
			<g>
				<rect x="148.002" y="84.899" fill="#D7DFE2" width="24.637" height="2.485"/>
			</g>
			<g>
				<rect x="147.973" y="90.258" fill="#D7DFE2" width="24.639" height="2.482"/>
			</g>
			<g>
				<rect x="147.973" y="95.615" fill="#D7DFE2" width="24.639" height="2.482"/>
			</g>
			<g>
				<path fill="#D7DFE2" d="M158.672,103.724h-10.699c-0.686,0-1.242-0.559-1.242-1.243c0-0.686,0.558-1.242,1.242-1.242h10.699
					c0.686,0,1.242,0.557,1.242,1.242C159.914,103.166,159.357,103.724,158.672,103.724z"/>
			</g>
		</g>
	</g>
</g>
<g id="imac">
	<path fill="#345568" d="M255.641,142.345H76.307c-2.578,0-4.69,2.111-4.69,4.693v100.22h-0.001v7.656h4.691h179.334h4.691v-4.691
		v-2.965v-100.22C260.332,144.457,258.221,142.345,255.641,142.345z"/>
	<g>
		<rect x="79.271" y="150.002" fill="#D7DFE2" width="173.404" height="97.257"/>
	</g>
	<path fill="#F48272" d="M193.289,254.915H138.66H71.615v10.347h0.001v0.964c0,2.581,2.112,4.691,4.69,4.691h62.354v23.728h-10.97
		v3.861h10.97h54.629h10.966v-3.861h-10.966v-23.728h62.352c2.58,0,4.691-2.11,4.691-4.691v-0.964v-5.653v-4.693H193.289z"/>
	<g>
		<g>
			<rect x="92.031" y="168.684" fill="#FFFFFF" width="147.886" height="65.137"/>
		</g>
		<g>
			<rect x="92.031" y="163.44" fill="#345568" width="147.886" height="5.243"/>
		</g>
		<g>
			<g>
				<circle fill="#D7DFE2" cx="95.686" cy="166.061" r="0.758"/>
			</g>
			<g>
				<circle fill="#D7DFE2" cx="98.79" cy="166.061" r="0.759"/>
			</g>
			<g>
				<circle fill="#D7DFE2" cx="101.894" cy="166.061" r="0.759"/>
			</g>
		</g>
		<g>
			<path fill="#D7DFE2" d="M200.588,166.061c0,0.629-0.508,1.139-1.137,1.139h-66.953c-0.629,0-1.14-0.51-1.14-1.139l0,0
				c0-0.627,0.511-1.138,1.14-1.138h66.953C200.08,164.924,200.588,165.434,200.588,166.061L200.588,166.061z"/>
		</g>
		<g>
			<g>
				<rect x="101.645" y="176.363" fill="#F48272" width="12.459" height="12.458"/>
			</g>
			<g>
				<rect x="122.756" y="176.34" fill="#F48272" width="37.604" height="3.312"/>
			</g>
			<g>
				<rect x="122.756" y="185.504" fill="#F48272" width="37.604" height="3.312"/>
			</g>
			<g>
				<rect x="101.645" y="194.669" fill="#D7DFE2" width="58.715" height="3.312"/>
			</g>
			<g>
				<rect x="101.592" y="203.834" fill="#D7DFE2" width="58.715" height="3.312"/>
			</g>
			<g>
				<rect x="101.592" y="212.998" fill="#D7DFE2" width="58.715" height="3.312"/>
			</g>
			<g>
				<path fill="#D7DFE2" d="M119.896,225.52h-18.305c-0.684,0-1.24-0.558-1.24-1.242s0.558-1.242,1.24-1.242h18.305
					c0.687,0,1.242,0.558,1.242,1.242S120.582,225.52,119.896,225.52z"/>
			</g>
		</g>
		<g>
			<g>
				<rect x="171.258" y="176.363" fill="#F48272" width="12.459" height="12.458"/>
			</g>
			<g>
				<rect x="192.367" y="176.34" fill="#F48272" width="37.604" height="3.312"/>
			</g>
			<g>
				<rect x="192.367" y="185.504" fill="#F48272" width="37.604" height="3.312"/>
			</g>
			<g>
				<rect x="171.258" y="194.669" fill="#D7DFE2" width="58.715" height="3.312"/>
			</g>
			<g>
				<rect x="171.205" y="203.834" fill="#D7DFE2" width="58.713" height="3.312"/>
			</g>
			<g>
				<rect x="171.205" y="212.998" fill="#D7DFE2" width="58.713" height="3.312"/>
			</g>
			<g>
				<path fill="#D7DFE2" d="M189.51,225.52h-18.305c-0.687,0-1.242-0.558-1.242-1.242s0.557-1.242,1.242-1.242h18.305
					c0.684,0,1.24,0.558,1.24,1.242S190.193,225.52,189.51,225.52z"/>
			</g>
		</g>
	</g>
</g>
</svg>
