<?xml version="1.0" encoding="utf-8"?>
<!-- Generator: Adobe Illustrator 16.0.0, SVG Export Plug-In . SVG Version: 6.00 Build 0)  -->
<!DOCTYPE svg PUBLIC "-//W3C//DTD SVG 1.1//EN" "http://www.w3.org/Graphics/SVG/1.1/DTD/svg11.dtd">
<svg version="1.1" id="Layer_1" xmlns="http://www.w3.org/2000/svg" xmlns:xlink="http://www.w3.org/1999/xlink" x="0px" y="0px"
	 width="401px" height="401px" viewBox="0 0 401 401" enable-background="new 0 0 401 401" xml:space="preserve">
<g id="circle_x5F_blue">
	<g>
		<path fill="#D7DFE2" d="M204.688,336.124c-0.662,0-1.211-0.526-1.23-1.194c-0.021-0.682,0.514-1.249,1.193-1.271
			c3.248-0.099,6.527-0.317,9.746-0.649c0.662-0.068,1.282,0.42,1.354,1.098c0.069,0.677-0.422,1.283-1.1,1.354
			c-3.276,0.339-6.615,0.562-9.924,0.662C204.714,336.124,204.7,336.124,204.688,336.124z M194.83,336.07
			c-0.018,0-0.034,0-0.053-0.002c-3.307-0.137-6.644-0.396-9.917-0.772c-0.677-0.077-1.161-0.688-1.084-1.365
			c0.077-0.678,0.7-1.154,1.365-1.084c3.214,0.369,6.491,0.623,9.739,0.758c0.68,0.03,1.209,0.604,1.181,1.285
			C196.034,335.553,195.488,336.07,194.83,336.07z M224.286,334.093c-0.587,0-1.105-0.419-1.212-1.017
			c-0.12-0.671,0.325-1.312,0.995-1.43c3.194-0.572,6.405-1.268,9.544-2.07c0.66-0.174,1.332,0.229,1.5,0.891
			c0.17,0.659-0.229,1.331-0.889,1.499c-3.197,0.817-6.469,1.526-9.723,2.106C224.431,334.086,224.356,334.093,224.286,334.093z
			 M175.26,333.82c-0.077,0-0.155-0.006-0.233-0.021c-3.241-0.616-6.505-1.361-9.696-2.216c-0.658-0.176-1.05-0.853-0.872-1.511
			c0.175-0.658,0.851-1.046,1.51-0.872c3.134,0.838,6.337,1.571,9.521,2.176c0.671,0.127,1.108,0.771,0.98,1.44
			C176.357,333.408,175.841,333.82,175.26,333.82z M243.374,329.212c-0.517,0-0.995-0.325-1.169-0.841
			c-0.218-0.646,0.131-1.346,0.775-1.562c3.066-1.029,6.135-2.189,9.126-3.447c0.627-0.264,1.353,0.031,1.613,0.66
			c0.266,0.627-0.03,1.35-0.657,1.613c-3.045,1.279-6.174,2.463-9.297,3.512C243.636,329.189,243.504,329.212,243.374,329.212z
			 M156.226,328.727c-0.136,0-0.271-0.021-0.407-0.068c-3.117-1.088-6.238-2.307-9.276-3.625c-0.625-0.269-0.911-0.996-0.642-1.621
			c0.271-0.623,0.996-0.911,1.621-0.64c2.982,1.293,6.047,2.49,9.109,3.558c0.644,0.226,0.981,0.929,0.758,1.571
			C157.212,328.408,156.735,328.727,156.226,328.727z M261.519,321.582c-0.448,0-0.881-0.245-1.098-0.672
			c-0.312-0.606-0.069-1.351,0.537-1.658c2.889-1.475,5.758-3.073,8.527-4.753c0.579-0.353,1.342-0.168,1.692,0.415
			c0.354,0.584,0.168,1.342-0.414,1.694c-2.821,1.71-5.743,3.337-8.686,4.839C261.899,321.539,261.708,321.582,261.519,321.582z
			 M138.13,320.88c-0.193,0-0.39-0.046-0.572-0.144c-2.927-1.533-5.834-3.199-8.642-4.945c-0.577-0.358-0.754-1.118-0.395-1.696
			c0.358-0.58,1.121-0.755,1.697-0.396c2.755,1.715,5.609,3.35,8.483,4.855c0.604,0.316,0.836,1.062,0.52,1.663
			C139.002,320.639,138.573,320.88,138.13,320.88z M278.36,311.372c-0.386,0-0.766-0.179-1.006-0.518
			c-0.395-0.556-0.266-1.325,0.29-1.721c2.642-1.878,5.247-3.88,7.747-5.946c0.525-0.435,1.302-0.361,1.736,0.164
			c0.435,0.522,0.359,1.301-0.164,1.734c-2.547,2.107-5.201,4.146-7.892,6.059C278.856,311.299,278.606,311.372,278.36,311.372z
			 M121.389,310.466c-0.253,0-0.507-0.077-0.727-0.236c-2.674-1.949-5.306-4.02-7.823-6.152c-0.521-0.438-0.583-1.219-0.146-1.737
			c0.44-0.521,1.22-0.583,1.738-0.144c2.473,2.094,5.057,4.127,7.684,6.041c0.551,0.4,0.673,1.171,0.271,1.721
			C122.145,310.289,121.769,310.466,121.389,310.466z M293.54,298.812c-0.325,0-0.648-0.127-0.892-0.38
			c-0.472-0.492-0.454-1.272,0.036-1.743c2.343-2.244,4.631-4.604,6.804-7.015c0.457-0.508,1.236-0.546,1.742-0.089
			c0.506,0.455,0.545,1.235,0.09,1.741c-2.213,2.453-4.543,4.855-6.929,7.143C294.153,298.699,293.847,298.812,293.54,298.812z
			 M106.349,297.727c-0.312,0-0.623-0.119-0.863-0.354c-2.361-2.316-4.664-4.746-6.846-7.221c-0.449-0.511-0.398-1.289,0.111-1.741
			c0.513-0.45,1.291-0.401,1.74,0.111c2.14,2.431,4.399,4.814,6.721,7.089c0.485,0.479,0.494,1.26,0.018,1.745
			C106.988,297.603,106.669,297.727,106.349,297.727z M306.736,284.176c-0.265,0-0.53-0.083-0.756-0.258
			c-0.539-0.419-0.635-1.192-0.217-1.729c1.993-2.564,3.915-5.232,5.712-7.932c0.379-0.566,1.146-0.722,1.709-0.343
			c0.567,0.379,0.721,1.144,0.343,1.709c-1.829,2.748-3.787,5.467-5.816,8.078C307.468,284.014,307.104,284.176,306.736,284.176z
			 M93.325,282.941c-0.373,0-0.74-0.168-0.982-0.488c-2-2.633-3.923-5.371-5.722-8.136c-0.371-0.571-0.209-1.335,0.361-1.706
			c0.571-0.371,1.335-0.211,1.705,0.361c1.767,2.716,3.656,5.405,5.618,7.989c0.411,0.541,0.305,1.316-0.237,1.728
			C93.848,282.859,93.585,282.941,93.325,282.941z M317.665,267.768c-0.206,0-0.414-0.05-0.606-0.158
			c-0.593-0.334-0.802-1.087-0.466-1.68c1.598-2.828,3.107-5.749,4.493-8.685c0.29-0.614,1.023-0.877,1.64-0.588
			s0.881,1.025,0.59,1.641c-1.407,2.988-2.948,5.965-4.575,8.845C318.513,267.544,318.095,267.768,317.665,267.768z M82.596,266.424
			c-0.436,0-0.857-0.229-1.081-0.638c-1.591-2.894-3.094-5.88-4.469-8.882c-0.283-0.619-0.011-1.35,0.607-1.635
			c0.619-0.28,1.352-0.012,1.636,0.606c1.349,2.947,2.822,5.881,4.386,8.722c0.328,0.596,0.109,1.348-0.486,1.674
			C82.999,266.376,82.797,266.424,82.596,266.424z M326.078,249.931c-0.147,0-0.296-0.026-0.442-0.082
			c-0.636-0.243-0.952-0.958-0.709-1.596c1.167-3.032,2.231-6.146,3.168-9.25c0.197-0.653,0.885-1.02,1.536-0.825
			c0.653,0.196,1.021,0.885,0.825,1.536c-0.953,3.162-2.039,6.333-3.228,9.427C327.041,249.631,326.573,249.931,326.078,249.931z
			 M74.401,248.525c-0.502,0-0.973-0.308-1.155-0.803c-1.148-3.095-2.197-6.272-3.115-9.449c-0.19-0.654,0.186-1.338,0.84-1.526
			c0.653-0.193,1.338,0.188,1.527,0.841c0.901,3.118,1.933,6.238,3.06,9.275c0.237,0.64-0.089,1.35-0.726,1.586
			C74.688,248.502,74.544,248.525,74.401,248.525z M331.772,231.055c-0.088,0-0.178-0.011-0.269-0.029
			c-0.664-0.148-1.083-0.807-0.937-1.473c0.702-3.158,1.298-6.392,1.77-9.604c0.099-0.674,0.721-1.139,1.397-1.043
			c0.675,0.1,1.142,0.725,1.042,1.4c-0.479,3.272-1.085,6.563-1.802,9.781C332.847,230.664,332.338,231.055,331.772,231.055z
			 M68.921,229.6c-0.568,0-1.082-0.4-1.203-0.979c-0.684-3.237-1.254-6.535-1.693-9.804c-0.091-0.675,0.383-1.296,1.059-1.387
			c0.67-0.104,1.295,0.384,1.386,1.057c0.433,3.209,0.992,6.447,1.662,9.624c0.141,0.666-0.285,1.321-0.953,1.462
			C69.092,229.592,69.006,229.6,68.921,229.6z M334.628,211.561c-0.03,0-0.062-0.001-0.092-0.002
			c-0.679-0.049-1.188-0.644-1.141-1.319c0.233-3.224,0.354-6.508,0.354-9.761c0-0.684,0.552-1.234,1.232-1.234
			c0.682,0,1.232,0.552,1.232,1.234c0,3.312-0.12,6.657-0.359,9.938C335.809,211.064,335.268,211.561,334.628,211.561z
			 M66.283,210.074c-0.647,0-1.19-0.502-1.229-1.156c-0.172-2.787-0.259-5.627-0.259-8.438c0-0.504,0.003-1.006,0.008-1.506
			c0.009-0.685,0.577-1.26,1.247-1.222c0.681,0.009,1.227,0.567,1.22,1.248c-0.007,0.492-0.009,0.984-0.009,1.479
			c0,2.762,0.086,5.551,0.254,8.289c0.041,0.678-0.476,1.264-1.156,1.305C66.333,210.074,66.308,210.074,66.283,210.074z
			 M334.81,194.84c-0.653,0-1.198-0.512-1.229-1.171c-0.166-3.247-0.449-6.521-0.848-9.729c-0.085-0.677,0.396-1.293,1.071-1.375
			s1.291,0.395,1.375,1.072c0.406,3.266,0.695,6.6,0.863,9.907c0.034,0.681-0.488,1.261-1.17,1.293
			C334.851,194.839,334.83,194.84,334.81,194.84z M66.501,190.372c-0.035,0-0.068-0.002-0.104-0.004
			c-0.68-0.058-1.185-0.651-1.127-1.331c0.275-3.302,0.676-6.625,1.19-9.877c0.104-0.673,0.743-1.132,1.409-1.026
			c0.674,0.105,1.133,0.737,1.024,1.41c-0.504,3.194-0.896,6.457-1.167,9.698C67.674,189.885,67.134,190.372,66.501,190.372z
			 M332.386,175.288c-0.576,0-1.092-0.405-1.208-0.992c-0.634-3.183-1.395-6.38-2.261-9.501c-0.183-0.655,0.203-1.336,0.858-1.518
			c0.657-0.182,1.335,0.201,1.519,0.856c0.882,3.181,1.656,6.438,2.302,9.681c0.134,0.668-0.3,1.317-0.968,1.449
			C332.546,175.281,332.466,175.288,332.386,175.288z M69.571,170.91c-0.092,0-0.188-0.01-0.281-0.031
			c-0.662-0.154-1.074-0.819-0.917-1.481c0.753-3.219,1.636-6.446,2.624-9.596c0.203-0.649,0.893-1.015,1.546-0.81
			c0.647,0.205,1.011,0.896,0.808,1.547c-0.97,3.092-1.838,6.262-2.579,9.42C70.639,170.527,70.131,170.91,69.571,170.91z
			 M327.123,156.303c-0.505,0-0.98-0.312-1.161-0.816c-1.09-3.047-2.312-6.094-3.63-9.056c-0.276-0.622,0.005-1.353,0.626-1.629
			c0.623-0.279,1.352,0.004,1.627,0.626c1.342,3.021,2.587,6.123,3.699,9.226c0.229,0.642-0.104,1.349-0.744,1.577
			C327.403,156.279,327.261,156.303,327.123,156.303z M75.474,152.102c-0.149,0-0.306-0.027-0.455-0.087
			c-0.633-0.252-0.941-0.969-0.69-1.604c1.221-3.07,2.57-6.137,4.016-9.113c0.298-0.61,1.036-0.866,1.648-0.569
			s0.866,1.035,0.569,1.647c-1.418,2.921-2.743,5.933-3.939,8.945C76.428,151.807,75.966,152.102,75.474,152.102z M319.131,138.312
			c-0.439,0-0.865-0.234-1.088-0.65c-1.529-2.854-3.187-5.69-4.921-8.432c-0.364-0.574-0.194-1.337,0.381-1.701
			c0.574-0.363,1.337-0.196,1.701,0.381c1.769,2.791,3.455,5.68,5.014,8.588c0.321,0.601,0.095,1.35-0.506,1.669
			C319.526,138.267,319.327,138.312,319.131,138.312z M84.083,134.358c-0.211,0-0.424-0.054-0.617-0.166
			c-0.589-0.343-0.789-1.096-0.448-1.686c1.659-2.859,3.444-5.695,5.307-8.424c0.386-0.562,1.151-0.703,1.714-0.321
			c0.562,0.383,0.707,1.148,0.322,1.712c-1.827,2.679-3.581,5.462-5.21,8.271C84.921,134.139,84.507,134.358,84.083,134.358z
			 M308.586,121.68c-0.378,0-0.749-0.175-0.991-0.498c-1.934-2.606-3.986-5.174-6.102-7.628c-0.444-0.518-0.388-1.296,0.13-1.739
			c0.515-0.446,1.294-0.387,1.736,0.129c2.155,2.5,4.246,5.113,6.216,7.769c0.404,0.548,0.291,1.319-0.257,1.727
			C309.098,121.6,308.841,121.68,308.586,121.68z M95.194,118.074c-0.27,0-0.54-0.089-0.768-0.27
			c-0.533-0.426-0.621-1.198-0.197-1.73c2.058-2.589,4.236-5.131,6.476-7.559c0.463-0.502,1.241-0.531,1.74-0.07
			c0.502,0.461,0.532,1.242,0.071,1.742c-2.197,2.382-4.336,4.88-6.356,7.42C95.916,117.914,95.557,118.074,95.194,118.074z
			 M295.726,106.75c-0.315,0-0.633-0.121-0.874-0.36c-2.292-2.301-4.697-4.541-7.146-6.662c-0.516-0.446-0.569-1.227-0.125-1.74
			c0.446-0.514,1.224-0.571,1.74-0.123c2.494,2.16,4.943,4.441,7.278,6.783c0.48,0.481,0.479,1.264-0.003,1.744
			C296.354,106.63,296.04,106.75,295.726,106.75z M108.552,103.582c-0.328,0-0.655-0.131-0.899-0.389
			c-0.465-0.496-0.439-1.277,0.059-1.744c2.405-2.254,4.929-4.452,7.5-6.535c0.528-0.428,1.306-0.344,1.733,0.185
			c0.429,0.529,0.348,1.306-0.184,1.733c-2.524,2.045-5.002,4.203-7.365,6.417C109.158,103.473,108.854,103.582,108.552,103.582z
			 M280.827,93.846c-0.259,0-0.517-0.079-0.736-0.244c-2.602-1.939-5.307-3.809-8.043-5.554c-0.574-0.365-0.743-1.129-0.377-1.702
			c0.366-0.572,1.129-0.741,1.703-0.377c2.786,1.776,5.543,3.682,8.189,5.655c0.546,0.407,0.659,1.181,0.251,1.726
			C281.574,93.674,281.202,93.846,280.827,93.846z M123.871,91.191c-0.392,0-0.774-0.185-1.016-0.528
			c-0.387-0.56-0.249-1.328,0.312-1.717c2.71-1.882,5.524-3.689,8.369-5.372c0.586-0.346,1.342-0.151,1.688,0.434
			c0.348,0.587,0.152,1.344-0.433,1.689c-2.793,1.652-5.559,3.426-8.22,5.273C124.358,91.121,124.114,91.191,123.871,91.191z
			 M264.203,83.247c-0.198,0-0.399-0.046-0.585-0.146c-2.86-1.541-5.812-2.992-8.771-4.317c-0.621-0.278-0.9-1.007-0.621-1.628
			c0.277-0.623,1.007-0.9,1.628-0.623c3.015,1.348,6.021,2.828,8.935,4.398c0.6,0.321,0.823,1.069,0.5,1.67
			C265.067,83.012,264.642,83.247,264.203,83.247z M140.823,81.171c-0.452,0-0.891-0.252-1.105-0.685
			c-0.304-0.611-0.054-1.352,0.556-1.654c2.964-1.467,6.013-2.844,9.062-4.086c0.627-0.255,1.351,0.047,1.605,0.676
			c0.26,0.632-0.046,1.352-0.677,1.606c-2.994,1.221-5.987,2.571-8.895,4.013C141.193,81.129,141.006,81.171,140.823,81.171z
			 M246.199,75.196c-0.14,0-0.279-0.022-0.42-0.074c-3.054-1.103-6.184-2.104-9.302-2.976c-0.657-0.185-1.039-0.863-0.854-1.521
			c0.184-0.656,0.861-1.041,1.52-0.854c3.177,0.889,6.364,1.908,9.477,3.032c0.641,0.23,0.973,0.938,0.739,1.577
			C247.178,74.885,246.704,75.196,246.199,75.196z M159.062,73.74c-0.521,0-1.004-0.33-1.173-0.854
			c-0.211-0.646,0.146-1.342,0.792-1.553c3.147-1.017,6.367-1.931,9.573-2.71c0.661-0.164,1.329,0.243,1.491,0.904
			c0.158,0.662-0.245,1.328-0.906,1.49c-3.147,0.768-6.311,1.662-9.397,2.66C159.315,73.722,159.187,73.74,159.062,73.74z
			 M227.226,69.889c-0.081,0-0.162-0.011-0.245-0.025c-3.177-0.641-6.421-1.172-9.639-1.576c-0.676-0.086-1.154-0.701-1.069-1.379
			c0.085-0.675,0.703-1.147,1.377-1.069c3.279,0.415,6.583,0.955,9.818,1.606c0.667,0.135,1.1,0.786,0.965,1.453
			C228.314,69.484,227.8,69.889,227.226,69.889z M178.201,69.074c-0.592,0-1.113-0.428-1.215-1.029
			c-0.111-0.672,0.342-1.307,1.014-1.419c3.253-0.544,6.571-0.974,9.866-1.276c0.685-0.074,1.277,0.437,1.34,1.113
			c0.063,0.679-0.437,1.277-1.113,1.341c-3.234,0.301-6.493,0.722-9.687,1.256C178.337,69.068,178.269,69.074,178.201,69.074z
			 M207.68,67.421c-0.021,0-0.044-0.001-0.066-0.001c-3.246-0.169-6.535-0.227-9.769-0.159c-0.008,0-0.017,0-0.024,0
			c-0.67,0-1.22-0.537-1.232-1.209c-0.012-0.681,0.528-1.242,1.21-1.257c3.291-0.065,6.641-0.012,9.945,0.162
			c0.68,0.035,1.202,0.615,1.167,1.295C208.875,66.91,208.33,67.421,207.68,67.421z"/>
	</g>
	<g>
		<circle fill="#D7DFE2" cx="200.505" cy="200.479" r="116.501"/>
	</g>
</g>
<g id="lines">
	<g>
		<path fill="#345568" d="M150.155,74.52h69.457c2.493,0,4.521,2.029,4.521,4.522v64.476h-0.822V79.043
			c0-2.04-1.659-3.699-3.698-3.699h-69.457c-2.039,0-3.697,1.659-3.697,3.699v62.663h-0.823V79.043
			C145.634,76.551,147.662,74.52,150.155,74.52z"/>
	</g>
	<g>
		<path fill="#345568" d="M164.409,228.834H64.471c-2.494,0-4.521-2.028-4.521-4.521v-36.408h0.821v36.408
			c0,2.041,1.658,3.699,3.698,3.699h99.938c2.041,0,3.698-1.658,3.698-3.699V99.369c0-2.039-1.657-3.697-3.698-3.697H64.471
			c-2.04,0-3.698,1.658-3.698,3.697v36.596H59.95V99.369c0-2.492,2.025-4.521,4.521-4.521h99.938c2.494,0,4.521,2.027,4.521,4.521
			v124.943C168.931,226.805,166.904,228.834,164.409,228.834z"/>
	</g>
	<g>
		<path fill="#345568" d="M348.582,191.971h-0.823v-62.663c0-2.04-1.658-3.699-3.697-3.699H227.832c-2.04,0-3.699,1.659-3.699,3.699
			v11.935h-0.822v-11.935c0-2.493,2.029-4.521,4.521-4.521h116.229c2.492,0,4.521,2.027,4.521,4.521L348.582,191.971
			L348.582,191.971z"/>
	</g>
	<g>
		<path fill="#345568" d="M222.988,204.178c0.203,0.458,0.321,0.962,0.321,1.493v133.17c0,2.04-1.658,3.697-3.697,3.697h-24.341
			v0.823h24.341c2.49,0,4.521-2.028,4.521-4.521v-133.17c0-0.525-0.107-1.023-0.273-1.493H222.988z"/>
		<path fill="#345568" d="M96.108,338.842v-133.17c0-0.531,0.118-1.035,0.321-1.493H95.56c-0.166,0.47-0.272,0.968-0.272,1.493
			v133.17c0,2.492,2.026,4.521,4.521,4.521h24.253v-0.823H99.808C97.768,342.539,96.108,340.882,96.108,338.842z"/>
	</g>
	<g>
		<path fill="#345568" d="M278.119,215.259H173.181c-2.797,0-5.072-2.273-5.072-5.069v-5.878h0.822v5.878
			c0,2.343,1.907,4.249,4.25,4.249h104.938c2.343,0,4.249-1.906,4.249-4.249v-5.878h0.822v5.878
			C283.191,212.984,280.916,215.259,278.119,215.259z"/>
	</g>
	<g>
		<rect x="95.288" y="204.311" fill="#345568" width="0.819" height="92.018"/>
	</g>
	<g>
		<path fill="#345568" d="M277.469,317.39h-161.12v-0.821h161.12c2.344,0,4.25-1.675,4.25-3.731v-4.144h0.821v4.144
			C282.54,315.347,280.265,317.39,277.469,317.39z"/>
	</g>
	<g>
		<path fill="#345568" d="M281.268,269.904h-0.822v-38.812c0-2.342-1.905-4.247-4.249-4.247h-47.813
			c-2.797,0-5.072-2.275-5.072-5.072v-17.461h0.822v17.461c0,2.345,1.907,4.25,4.25,4.25h47.813c2.798,0,5.071,2.274,5.071,5.069
			V269.904L281.268,269.904z"/>
	</g>
	<g>
		<path fill="#345568" d="M344.062,329.852H286.89c-2.493,0-4.521-2.029-4.521-4.522v-77.626h0.822v77.626
			c0,2.04,1.659,3.699,3.698,3.699h57.172c2.039,0,3.697-1.659,3.697-3.699v-62.663h0.823v62.663
			C348.582,327.822,346.554,329.852,344.062,329.852z"/>
	</g>
	<g>
		<g>
			<circle fill="#345568" cx="348.17" cy="212.623" r="2.466"/>
		</g>
		<g>
			<circle fill="#345568" cx="348.17" cy="222.42" r="2.466"/>
		</g>
		<g>
			<circle fill="#345568" cx="348.17" cy="242.014" r="2.466"/>
		</g>
		<g>
			<circle fill="#345568" cx="348.17" cy="232.217" r="2.466"/>
		</g>
	</g>
	<g>
		<g>
			<circle fill="#345568" cx="60.361" cy="147.146" r="2.466"/>
		</g>
		<g>
			<circle fill="#345568" cx="60.361" cy="156.943" r="2.466"/>
		</g>
		<g>
			<circle fill="#345568" cx="60.361" cy="176.537" r="2.466"/>
		</g>
		<g>
			<circle fill="#345568" cx="60.361" cy="166.74" r="2.466"/>
		</g>
	</g>
	<g>
		<g>
			<circle fill="#345568" cx="184.202" cy="342.95" r="2.466"/>
		</g>
		<g>
			<circle fill="#345568" cx="174.405" cy="342.95" r="2.466"/>
		</g>
		<g>
			<circle fill="#345568" cx="154.812" cy="342.95" r="2.466"/>
		</g>
		<g>
			<circle fill="#345568" cx="164.608" cy="342.95" r="2.466"/>
		</g>
		<g>
			<circle fill="#345568" cx="135.216" cy="342.95" r="2.466"/>
		</g>
		<g>
			<circle fill="#345568" cx="145.015" cy="342.95" r="2.466"/>
		</g>
	</g>
</g>
<g id="shelf_x5F_big">
	<rect x="84.185" y="196.775" fill="#345568" width="232.644" height="7.402"/>
</g>
<g id="shelf_x5F_small">
	<rect x="168.521" y="299.252" fill="#345568" width="148.308" height="7.402"/>
</g>
<g id="bulb">
	<path fill="#345568" d="M282.131,75.06c-7.251,0-13.128,5.877-13.128,13.128v87.94c0,7.251,5.877,13.128,13.128,13.128
		c7.25,0,13.128-5.877,13.128-13.128v-87.94C295.259,80.937,289.381,75.06,282.131,75.06z"/>
	<path fill="#FFFFFF" d="M287.512,93.61c-1.616,0-2.927,1.313-2.928,2.928h-0.001v2.106h-4.905v-2.106h0.001
		c0-1.615-1.315-2.929-2.931-2.929c-1.614,0-2.928,1.313-2.928,2.928s1.314,2.928,2.929,2.928h0.001h2.104v89.791h0.823V99.465
		h4.905v89.791h0.82V99.465h2.107c1.615,0,2.93-1.31,2.93-2.926S289.128,93.61,287.512,93.61z M276.75,98.644L276.75,98.644
		c-1.161-0.001-2.105-0.946-2.105-2.107s0.943-2.105,2.104-2.105c1.162,0,2.106,0.944,2.106,2.106h-0.001v2.106H276.75z
		 M287.511,98.644h-2.107v-2.105h0.001c0-1.162,0.945-2.106,2.106-2.106c1.162,0,2.105,0.944,2.105,2.106
		C289.616,97.699,288.673,98.644,287.511,98.644z"/>
	<polygon fill="#F48272" points="287.563,192.695 287.563,188.614 276.698,188.614 276.698,192.695 271.729,192.695 
		271.729,196.775 292.531,196.775 292.531,192.695 	"/>
	<g>
		<rect x="271.729" y="204.131" fill="#F48272" width="20.802" height="4.082"/>
	</g>
</g>
<g id="device">
	<g>
		<rect x="84.185" y="114.029" fill="#F48272" width="100.5" height="82.746"/>
	</g>
	<g>
		<rect x="90.759" y="119.443" fill="#D7DFE2" width="60.225" height="71.92"/>
	</g>
	<g>
		<circle fill="#D7DFE2" cx="167.423" cy="125.197" r="5.754"/>
	</g>
	<g>
		<circle fill="#D7DFE2" cx="167.423" cy="141.242" r="5.754"/>
	</g>
	<g>
		<circle fill="#D7DFE2" cx="167.424" cy="188.486" r="2.877"/>
	</g>
	<g>
		<g>
			<g>
				<path fill="#345568" d="M101.145,131.465h-0.823c0-1.159-0.942-2.104-2.104-2.104s-2.107,0.945-2.107,2.104H95.29
					c0-1.614,1.312-2.928,2.928-2.928S101.145,129.85,101.145,131.465z"/>
			</g>
			<g>
				<path fill="#345568" d="M103.25,182.271c-1.615,0-2.93-1.314-2.93-2.931h0.823c0,1.162,0.944,2.107,2.105,2.107
					s2.105-0.945,2.105-2.107h0.822C106.179,180.957,104.865,182.271,103.25,182.271z"/>
			</g>
			<g>
				<rect x="95.288" y="131.465" fill="#345568" width="0.819" height="59.898"/>
			</g>
			<g>
				<rect x="100.321" y="131.465" fill="#345568" width="0.823" height="47.877"/>
			</g>
			<g>
				<rect x="145.634" y="119.443" fill="#345568" width="0.821" height="59.897"/>
			</g>
		</g>
		<g>
			<g>
				<path fill="#345568" d="M111.213,131.465h-0.822c0-1.159-0.945-2.104-2.104-2.104c-1.161,0-2.106,0.945-2.106,2.104h-0.822
					c0-1.614,1.313-2.928,2.93-2.928C109.899,128.537,111.213,129.85,111.213,131.465z"/>
			</g>
			<g>
				<path fill="#345568" d="M113.319,182.271c-1.613,0-2.929-1.314-2.929-2.931h0.822c0,1.162,0.945,2.107,2.105,2.107
					c1.162,0,2.107-0.945,2.107-2.107h0.822C116.249,180.957,114.935,182.271,113.319,182.271z"/>
			</g>
			<g>
				<rect x="105.356" y="131.465" fill="#345568" width="0.822" height="47.877"/>
			</g>
			<g>
				<rect x="110.391" y="131.465" fill="#345568" width="0.822" height="47.877"/>
			</g>
		</g>
		<g>
			<g>
				<path fill="#345568" d="M121.282,131.465h-0.821c0-1.159-0.944-2.104-2.106-2.104c-1.161,0-2.104,0.945-2.104,2.104h-0.822
					c0-1.614,1.312-2.928,2.928-2.928S121.282,129.85,121.282,131.465z"/>
			</g>
			<g>
				<path fill="#345568" d="M123.39,182.271c-1.615,0-2.929-1.314-2.929-2.931h0.821c0,1.162,0.944,2.107,2.106,2.107
					c1.16,0,2.105-0.945,2.105-2.107h0.821C126.317,180.957,125.003,182.271,123.39,182.271z"/>
			</g>
			<g>
				<rect x="115.427" y="131.465" fill="#345568" width="0.822" height="47.877"/>
			</g>
			<g>
				<rect x="120.461" y="131.465" fill="#345568" width="0.821" height="47.877"/>
			</g>
		</g>
		<g>
			<g>
				<path fill="#345568" d="M131.351,131.465h-0.822c0-1.159-0.942-2.104-2.104-2.104s-2.105,0.945-2.105,2.104h-0.821
					c0-1.614,1.312-2.928,2.928-2.928S131.351,129.85,131.351,131.465z"/>
			</g>
			<g>
				<path fill="#345568" d="M133.458,182.271c-1.615,0-2.931-1.314-2.931-2.931h0.822c0,1.162,0.946,2.107,2.107,2.107
					c1.162,0,2.105-0.945,2.105-2.107h0.822C136.387,180.957,135.073,182.271,133.458,182.271z"/>
			</g>
			<g>
				<rect x="125.495" y="131.465" fill="#345568" width="0.821" height="47.877"/>
			</g>
			<g>
				<rect x="130.528" y="131.465" fill="#345568" width="0.822" height="47.877"/>
			</g>
		</g>
		<g>
			<g>
				<path fill="#345568" d="M141.421,131.465H140.6c0-1.159-0.945-2.104-2.106-2.104c-1.16,0-2.105,0.945-2.105,2.104h-0.822
					c0-1.614,1.314-2.928,2.929-2.928C140.107,128.537,141.421,129.85,141.421,131.465z"/>
			</g>
			<g>
				<path fill="#345568" d="M143.526,182.271c-1.614,0-2.927-1.314-2.927-2.931h0.821c0,1.162,0.943,2.107,2.104,2.107
					c1.162,0,2.107-0.945,2.107-2.107h0.821C146.455,180.957,145.143,182.271,143.526,182.271z"/>
			</g>
			<g>
				<rect x="135.564" y="131.465" fill="#345568" width="0.822" height="47.877"/>
			</g>
			<g>
				<rect x="140.6" y="131.465" fill="#345568" width="0.821" height="47.877"/>
			</g>
		</g>
	</g>
	<g>
		<rect x="162.767" y="108.688" fill="#345568" width="11.507" height="5.342"/>
	</g>
	<g>
		<rect x="158.976" y="204.131" fill="#F48272" width="20.803" height="4.082"/>
	</g>
</g>
<g id="mechanism">
	<g>
		<path fill="#F48272" d="M136.214,292.01h-2.117c-0.433,0-0.896-0.337-1.035-0.745l-1.312-3.176
			c-0.195-0.387-0.104-0.952,0.202-1.259l1.496-1.499c0.307-0.305,0.307-0.805,0-1.108l-4.992-4.994
			c-0.308-0.306-0.808-0.306-1.111,0l-1.5,1.499c-0.305,0.306-0.871,0.396-1.256,0.202l-3.175-1.316
			c-0.41-0.137-0.747-0.602-0.747-1.035v-2.115c0-0.432-0.354-0.784-0.785-0.784h-7.062c-0.433,0-0.785,0.354-0.785,0.784v2.115
			c0,0.435-0.336,0.898-0.745,1.035l-3.177,1.316c-0.385,0.192-0.951,0.104-1.257-0.202l-1.5-1.499c-0.305-0.306-0.806-0.306-1.11,0
			l-4.993,4.994c-0.307,0.305-0.307,0.805-0.001,1.108l1.5,1.499c0.307,0.307,0.396,0.872,0.202,1.259l-1.315,3.176
			c-0.136,0.408-0.603,0.745-1.035,0.745h-2.116c-0.432,0-0.785,0.353-0.785,0.784v7.062c0,0.432,0.354,0.785,0.785,0.785h2.116
			c0.434,0,0.899,0.335,1.035,0.747l1.315,3.175c0.192,0.387,0.104,0.951-0.202,1.257l-1.5,1.499c-0.306,0.308-0.306,0.805,0,1.111
			l4.994,4.994c0.306,0.306,0.807,0.306,1.112,0l1.498-1.498c0.306-0.307,0.872-0.396,1.257-0.201l3.177,1.312
			c0.409,0.14,0.745,0.603,0.745,1.035v2.118c0,0.434,0.354,0.786,0.785,0.786h7.062c0.433,0,0.785-0.354,0.785-0.786v-2.118
			c0-0.434,0.337-0.896,0.747-1.035l3.175-1.312c0.385-0.195,0.951-0.104,1.256,0.201l1.5,1.498c0.305,0.306,0.805,0.306,1.111,0
			l4.992-4.994c0.307-0.308,0.307-0.805,0-1.111l-1.496-1.499c-0.308-0.306-0.397-0.87-0.202-1.257l1.312-3.175
			c0.14-0.412,0.604-0.747,1.035-0.747h2.117c0.432,0,0.784-0.354,0.784-0.785v-7.062
			C136.998,292.362,136.646,292.01,136.214,292.01z M116.35,309.158c-7.088,0-12.833-5.744-12.833-12.831
			s5.745-12.833,12.833-12.833s12.833,5.746,12.833,12.833S123.438,309.158,116.35,309.158z"/>
	</g>
	<path fill="#345568" d="M195.768,244.52c-2.545-2.546-5.928-3.947-9.527-3.947c-2.015,0-3.956,0.454-5.726,1.287l-0.026-0.053
		l-73.5,35.679l-0.013-0.025c-7.21,3.586-11.688,10.816-11.688,18.867c0,11.614,9.447,21.062,21.061,21.062l0,0h0.001
		c4.73,0,9.196-1.533,12.917-4.432l0.063,0.085l56.5-42.167v29.057h0.821v-29.67l5.543-4.137c1.305-0.645,2.515-1.492,3.574-2.553
		c2.545-2.544,3.947-5.927,3.947-9.527C199.715,250.45,198.313,247.065,195.768,244.52z M186.24,241.395
		c3.238,0,6.283,1.22,8.633,3.423l-5.819,5.83c-0.793-0.659-1.769-1.034-2.813-1.034c-1.048,0-2.028,0.377-2.822,1.04l-5.825-5.824
		C179.947,242.619,182.997,241.395,186.24,241.395z M184.001,251.237c0.637-0.509,1.411-0.799,2.239-0.799
		c0.823,0,1.596,0.287,2.232,0.792l-2.237,2.241L184.001,251.237z M185.655,254.052l-2.227,2.231
		c-1.04-1.307-1.042-3.155-0.006-4.464L185.655,254.052z M189.054,251.81c0.507,0.637,0.797,1.411,0.797,2.236
		c0,0.828-0.291,1.604-0.799,2.241l-2.236-2.235L189.054,251.81z M182.839,251.236c-0.657,0.793-1.033,1.768-1.033,2.81
		c0,1.049,0.379,2.026,1.041,2.82l-5.821,5.832c-2.213-2.355-3.438-5.406-3.438-8.651c0-3.238,1.221-6.284,3.426-8.635
		L182.839,251.236z M185.829,269.852l-56.938,42.493l-0.064-0.082c-3.591,2.816-7.907,4.305-12.479,4.305
		c-11.16,0-20.24-9.08-20.24-20.24c0-7.723,4.291-14.658,11.199-18.111l0.012,0.025l69.338-33.66
		c-2.508,2.538-3.892,5.895-3.892,9.465c0,3.6,1.402,6.983,3.948,9.527c2.447,2.449,5.672,3.824,9.116,3.928V269.852z
		 M185.829,266.679c-3.084-0.098-5.971-1.293-8.223-3.402l5.821-5.831c0.687,0.57,1.513,0.912,2.401,0.994V266.679z M186.24,257.66
		c-0.825,0-1.597-0.289-2.233-0.795l2.228-2.231l2.234,2.234C187.834,257.372,187.063,257.66,186.24,257.66z M186.651,269.239
		v-1.737c0.974-0.029,1.928-0.163,2.854-0.393L186.651,269.239z M191.768,265.42c-1.582,0.771-3.315,1.203-5.117,1.261v-8.24
		c0.888-0.082,1.713-0.422,2.399-0.992l5.727,5.727L191.768,265.42z M195.458,262.694l-5.826-5.826
		c0.663-0.795,1.041-1.773,1.041-2.822c0-1.045-0.377-2.023-1.038-2.817l5.82-5.83c2.213,2.353,3.438,5.404,3.438,8.648
		C198.893,257.29,197.67,260.34,195.458,262.694z"/>
</g>
<g id="bateries">
	<g>
		<rect x="220.974" y="136.746" fill="#F48272" width="5.494" height="7.099"/>
	</g>
	<g>
		<rect x="197.467" y="192.695" fill="#F48272" width="54.128" height="4.08"/>
	</g>
	<g>
		<rect x="197.467" y="143.518" fill="#F48272" width="54.128" height="4.08"/>
	</g>
	<g>
		<polygon fill="#345568" points="216.413,147.598 206.96,147.598 206.96,150.475 203.056,150.475 203.056,189.86 206.96,189.86 
			206.96,192.695 216.413,192.695 216.413,189.86 220.318,189.86 220.318,150.475 216.413,150.475 		"/>
		<polygon fill="#345568" points="246.004,150.475 242.099,150.475 242.099,147.598 232.647,147.598 232.647,150.475 
			228.743,150.475 228.743,189.86 232.647,189.86 232.647,192.695 242.099,192.695 242.099,189.86 246.004,189.86 		"/>
	</g>
	<g>
		<path fill="#D7DFE2" d="M214.198,169.773v0.787h-2.093v2.121h-0.838v-2.121h-2.092v-0.787h2.092v-2.12h0.838v2.12H214.198z"/>
	</g>
	<g>
		<path fill="#D7DFE2" d="M235.405,170.551v-0.768h3.937v0.768H235.405z"/>
	</g>
	<g>
		<rect x="220.974" y="204.178" fill="#F48272" width="5.494" height="7.1"/>
	</g>
</g>
<g id="pump">
	<polygon fill="#345568" points="291.112,250.523 295.61,247 291.112,243.477 273.149,243.477 268.649,247 273.149,250.523 
		268.649,254.047 273.149,257.572 268.649,261.096 273.149,264.62 268.649,268.143 273.149,271.666 268.649,275.189 
		273.149,278.715 268.649,282.24 273.149,285.764 268.649,289.287 273.149,292.81 291.112,292.81 295.61,289.287 291.112,285.764 
		295.61,282.24 291.112,278.715 295.61,275.189 291.112,271.666 295.61,268.143 291.112,264.62 295.61,261.096 291.112,257.572 
		295.61,254.047 	"/>
	<g>
		<rect x="265.716" y="292.81" fill="#F48272" width="32.829" height="6.441"/>
	</g>
	<g>
		<rect x="265.716" y="237.033" fill="#F48272" width="32.829" height="6.443"/>
	</g>
	<g>
		<rect x="268.649" y="288.876" fill="#D7DFE2" width="26.961" height="0.821"/>
	</g>
	<g>
		<rect x="268.649" y="281.828" fill="#D7DFE2" width="26.961" height="0.822"/>
	</g>
	<g>
		<rect x="268.649" y="274.779" fill="#D7DFE2" width="26.961" height="0.822"/>
	</g>
	<g>
		<rect x="268.649" y="267.732" fill="#D7DFE2" width="26.961" height="0.821"/>
	</g>
	<g>
		<rect x="268.649" y="260.686" fill="#D7DFE2" width="26.961" height="0.821"/>
	</g>
	<g>
		<rect x="268.649" y="253.637" fill="#D7DFE2" width="26.961" height="0.819"/>
	</g>
	<g>
		<rect x="268.649" y="246.589" fill="#D7DFE2" width="26.961" height="0.821"/>
	</g>
	<g>
		<rect x="271.728" y="306.654" fill="#F48272" width="20.804" height="4.08"/>
	</g>
	<g>
		<rect x="278.108" y="233.484" fill="#F48272" width="5.494" height="3.549"/>
	</g>
</g>
</svg>
