<?xml version="1.0" encoding="utf-8"?>
<!-- Generator: Adobe Illustrator 16.0.0, SVG Export Plug-In . SVG Version: 6.00 Build 0)  -->
<!DOCTYPE svg PUBLIC "-//W3C//DTD SVG 1.1//EN" "http://www.w3.org/Graphics/SVG/1.1/DTD/svg11.dtd">
<svg version="1.1" id="Layer_1" xmlns="http://www.w3.org/2000/svg" xmlns:xlink="http://www.w3.org/1999/xlink" x="0px" y="0px"
	 width="401px" height="401px" viewBox="0 0 401 401" enable-background="new 0 0 401 401" xml:space="preserve">
<g id="circles">
	<g>
		<path fill="#D7DFE2" d="M199.204,336.594c-0.668,0-1.222-0.531-1.24-1.205c-0.021-0.687,0.518-1.258,1.203-1.277
			c3.271-0.102,6.571-0.322,9.813-0.658c0.672-0.062,1.291,0.427,1.361,1.107s-0.424,1.293-1.107,1.363
			c-3.299,0.342-6.662,0.565-9.991,0.668C199.229,336.594,199.218,336.594,199.204,336.594z M189.276,336.539
			c-0.016,0-0.034,0-0.053,0c-3.328-0.141-6.688-0.401-9.984-0.778c-0.682-0.08-1.172-0.695-1.092-1.375
			c0.078-0.685,0.703-1.168,1.373-1.095c3.238,0.373,6.537,0.63,9.81,0.767c0.684,0.029,1.217,0.606,1.188,1.293
			C190.489,336.018,189.94,336.539,189.276,336.539z M218.938,334.548c-0.592,0-1.115-0.423-1.223-1.023
			c-0.119-0.676,0.33-1.32,1.004-1.441c3.217-0.573,6.451-1.272,9.611-2.081c0.666-0.173,1.342,0.229,1.512,0.895
			s-0.232,1.342-0.896,1.51c-3.221,0.824-6.516,1.539-9.791,2.123C219.085,334.541,219.011,334.548,218.938,334.548z
			 M169.569,334.273c-0.075,0-0.155-0.008-0.233-0.02c-3.267-0.623-6.551-1.371-9.767-2.232c-0.661-0.178-1.055-0.859-0.879-1.52
			c0.179-0.664,0.855-1.058,1.521-0.882c3.156,0.847,6.381,1.582,9.588,2.191c0.674,0.127,1.115,0.777,0.986,1.453
			C170.675,333.859,170.153,334.273,169.569,334.273z M238.159,329.632c-0.521,0-1.005-0.328-1.179-0.847
			c-0.217-0.649,0.133-1.354,0.781-1.571c3.088-1.039,6.18-2.205,9.189-3.472c0.635-0.266,1.36,0.031,1.627,0.664
			c0.266,0.633-0.031,1.357-0.664,1.625c-3.064,1.289-6.218,2.479-9.361,3.535C238.423,329.611,238.29,329.632,238.159,329.632z
			 M150.401,329.145c-0.137,0-0.272-0.021-0.407-0.07c-3.142-1.094-6.285-2.321-9.345-3.647c-0.629-0.271-0.916-1.004-0.645-1.633
			c0.271-0.63,1.002-0.921,1.633-0.646c3.002,1.303,6.088,2.508,9.172,3.582c0.648,0.227,0.99,0.934,0.764,1.582
			C151.396,328.824,150.915,329.145,150.401,329.145z M256.431,321.951c-0.451,0-0.889-0.248-1.104-0.68
			c-0.312-0.609-0.07-1.357,0.541-1.67c2.909-1.482,5.797-3.094,8.588-4.783c0.584-0.356,1.35-0.172,1.705,0.418
			c0.354,0.586,0.168,1.351-0.421,1.703c-2.84,1.723-5.78,3.363-8.745,4.875C256.813,321.906,256.622,321.951,256.431,321.951z
			 M132.181,321.24c-0.193,0-0.393-0.045-0.574-0.143c-2.948-1.545-5.877-3.221-8.703-4.979c-0.582-0.36-0.76-1.129-0.397-1.711
			s1.131-0.758,1.709-0.397c2.774,1.727,5.649,3.373,8.545,4.891c0.607,0.316,0.84,1.068,0.521,1.676
			C133.06,321,132.628,321.24,132.181,321.24z M273.39,311.671c-0.389,0-0.77-0.185-1.014-0.523
			c-0.396-0.559-0.267-1.334,0.293-1.729c2.66-1.894,5.283-3.909,7.801-5.988c0.527-0.439,1.311-0.365,1.748,0.163
			c0.438,0.527,0.363,1.312-0.166,1.748c-2.562,2.122-5.236,4.173-7.943,6.101C273.89,311.596,273.64,311.671,273.39,311.671z
			 M115.321,310.755c-0.252,0-0.51-0.078-0.729-0.238c-2.693-1.961-5.344-4.045-7.879-6.193c-0.523-0.443-0.588-1.229-0.146-1.752
			c0.441-0.523,1.226-0.586,1.75-0.146c2.488,2.109,5.093,4.158,7.736,6.085c0.553,0.401,0.676,1.18,0.271,1.733
			C116.083,310.576,115.706,310.755,115.321,310.755z M288.675,299.021c-0.326,0-0.652-0.129-0.896-0.383
			c-0.475-0.496-0.457-1.281,0.037-1.757c2.357-2.26,4.664-4.637,6.853-7.062c0.459-0.51,1.244-0.551,1.754-0.09
			c0.508,0.459,0.549,1.244,0.09,1.754c-2.227,2.471-4.576,4.889-6.977,7.19C289.292,298.906,288.983,299.021,288.675,299.021z
			 M100.179,297.926c-0.313,0-0.629-0.116-0.871-0.354c-2.377-2.334-4.697-4.781-6.893-7.271c-0.453-0.514-0.402-1.299,0.11-1.752
			c0.517-0.454,1.3-0.403,1.752,0.109c2.156,2.447,4.433,4.852,6.771,7.141c0.488,0.48,0.498,1.267,0.016,1.757
			C100.821,297.803,100.499,297.926,100.179,297.926z M301.964,284.283c-0.269,0-0.535-0.086-0.762-0.262
			c-0.541-0.422-0.64-1.201-0.22-1.742c2.009-2.582,3.943-5.271,5.754-7.986c0.38-0.569,1.152-0.725,1.72-0.344
			c0.571,0.381,0.727,1.15,0.348,1.721c-1.844,2.769-3.814,5.504-5.859,8.136C302.7,284.117,302.335,284.283,301.964,284.283z
			 M87.063,283.039c-0.375,0-0.746-0.17-0.989-0.492c-2.015-2.649-3.951-5.407-5.761-8.192c-0.375-0.572-0.211-1.344,0.363-1.717
			c0.576-0.373,1.344-0.212,1.719,0.364c1.775,2.736,3.681,5.441,5.656,8.043c0.414,0.55,0.307,1.326-0.238,1.742
			C87.589,282.957,87.323,283.039,87.063,283.039z M312.968,267.762c-0.205,0-0.416-0.054-0.609-0.162
			c-0.598-0.338-0.809-1.095-0.471-1.689c1.609-2.85,3.133-5.791,4.525-8.746c0.293-0.619,1.032-0.883,1.651-0.592
			s0.886,1.033,0.592,1.652c-1.415,3.01-2.967,6.006-4.606,8.905C313.823,267.533,313.401,267.762,312.968,267.762z M76.259,266.406
			c-0.438,0-0.863-0.23-1.09-0.643c-1.601-2.912-3.113-5.923-4.498-8.943c-0.285-0.623-0.012-1.359,0.613-1.646
			c0.623-0.282,1.356-0.01,1.645,0.613c1.357,2.967,2.844,5.92,4.416,8.781c0.332,0.6,0.111,1.354-0.49,1.686
			C76.665,266.357,76.46,266.406,76.259,266.406z M321.44,249.799c-0.147,0-0.299-0.026-0.444-0.084
			c-0.642-0.245-0.959-0.965-0.716-1.604c1.177-3.057,2.248-6.193,3.191-9.318c0.199-0.655,0.891-1.024,1.547-0.83
			c0.656,0.197,1.027,0.892,0.832,1.548c-0.961,3.186-2.055,6.379-3.25,9.491C322.409,249.496,321.94,249.799,321.44,249.799z
			 M68.007,248.383c-0.504,0-0.979-0.309-1.164-0.809c-1.156-3.115-2.213-6.316-3.139-9.514c-0.189-0.66,0.188-1.351,0.848-1.539
			c0.658-0.195,1.348,0.188,1.537,0.848c0.908,3.142,1.947,6.283,3.082,9.342c0.238,0.644-0.088,1.355-0.732,1.595
			C68.296,248.357,68.151,248.383,68.007,248.383z M327.175,230.791c-0.09,0-0.18-0.012-0.271-0.03
			c-0.668-0.148-1.09-0.812-0.94-1.48c0.707-3.182,1.309-6.436,1.781-9.674c0.1-0.678,0.727-1.148,1.407-1.049
			c0.679,0.102,1.148,0.731,1.05,1.409c-0.484,3.298-1.095,6.611-1.814,9.853C328.257,230.398,327.743,230.791,327.175,230.791z
			 M62.489,229.324c-0.573,0-1.09-0.397-1.213-0.984c-0.688-3.26-1.262-6.579-1.705-9.873c-0.092-0.68,0.388-1.305,1.064-1.396
			c0.678-0.096,1.303,0.387,1.396,1.066c0.437,3.229,0.998,6.491,1.675,9.688c0.141,0.672-0.289,1.33-0.959,1.473
			C62.661,229.316,62.573,229.324,62.489,229.324z M330.05,211.16c-0.031,0-0.062-0.002-0.092-0.004
			c-0.685-0.049-1.197-0.645-1.148-1.328c0.236-3.244,0.355-6.553,0.355-9.828c0-0.686,0.557-1.239,1.239-1.239
			c0.688,0,1.242,0.555,1.242,1.239c0,3.336-0.121,6.705-0.36,10.008C331.239,210.662,330.694,211.16,330.05,211.16z
			 M59.831,209.666c-0.65,0-1.197-0.508-1.236-1.168c-0.174-2.805-0.26-5.664-0.26-8.498c0-0.506,0.002-1.012,0.008-1.516
			c0.006-0.682,0.561-1.229,1.24-1.229c0.006,0,0.01,0,0.014,0c0.688,0.009,1.236,0.57,1.229,1.254
			c-0.007,0.498-0.011,0.994-0.011,1.49c0,2.783,0.088,5.59,0.256,8.349c0.044,0.684-0.477,1.271-1.161,1.313
			C59.884,209.664,59.858,209.666,59.831,209.666z M330.233,194.324c-0.657,0-1.207-0.518-1.239-1.182
			c-0.164-3.271-0.451-6.566-0.853-9.797c-0.086-0.681,0.398-1.302,1.078-1.386c0.678-0.084,1.303,0.398,1.385,1.08
			c0.41,3.289,0.701,6.646,0.869,9.978c0.035,0.688-0.492,1.27-1.178,1.305C330.274,194.322,330.253,194.324,330.233,194.324z
			 M60.052,189.824c-0.035,0-0.07,0-0.105-0.004c-0.684-0.057-1.19-0.658-1.135-1.342c0.279-3.322,0.681-6.67,1.199-9.945
			c0.107-0.678,0.748-1.137,1.422-1.033c0.676,0.107,1.137,0.744,1.029,1.42c-0.508,3.218-0.902,6.504-1.174,9.767
			C61.233,189.334,60.69,189.824,60.052,189.824z M327.79,174.635c-0.578,0-1.099-0.408-1.213-1
			c-0.642-3.205-1.406-6.425-2.277-9.566c-0.184-0.662,0.203-1.346,0.863-1.529c0.664-0.182,1.346,0.203,1.528,0.865
			c0.888,3.201,1.668,6.48,2.318,9.746c0.135,0.672-0.303,1.326-0.975,1.461C327.954,174.629,327.872,174.635,327.79,174.635z
			 M63.144,170.227c-0.094,0-0.188-0.011-0.285-0.033c-0.666-0.154-1.08-0.824-0.924-1.492c0.758-3.24,1.65-6.49,2.644-9.66
			c0.205-0.655,0.899-1.024,1.557-0.813c0.654,0.205,1.02,0.901,0.814,1.557c-0.978,3.113-1.851,6.303-2.597,9.486
			C64.22,169.842,63.708,170.227,63.144,170.227z M322.493,155.516c-0.511,0-0.986-0.314-1.171-0.822
			c-1.098-3.066-2.327-6.135-3.655-9.117c-0.277-0.627,0.004-1.363,0.631-1.641c0.629-0.279,1.361,0.006,1.641,0.631
			c1.351,3.039,2.603,6.164,3.724,9.289c0.231,0.646-0.104,1.356-0.75,1.588C322.772,155.492,322.632,155.516,322.493,155.516z
			 M69.089,151.285c-0.154,0-0.31-0.027-0.461-0.086c-0.637-0.254-0.947-0.977-0.695-1.613c1.23-3.092,2.588-6.18,4.045-9.178
			c0.299-0.615,1.041-0.875,1.658-0.574c0.617,0.299,0.875,1.043,0.574,1.658c-1.428,2.943-2.765,5.973-3.969,9.01
			C70.048,150.99,69.581,151.285,69.089,151.285z M314.444,137.4c-0.442,0-0.871-0.236-1.094-0.654
			c-1.541-2.875-3.209-5.731-4.957-8.49c-0.365-0.58-0.195-1.348,0.383-1.713c0.578-0.369,1.349-0.196,1.716,0.386
			c1.78,2.809,3.479,5.717,5.047,8.646c0.323,0.605,0.096,1.355-0.509,1.68C314.843,137.355,314.642,137.4,314.444,137.4z
			 M77.757,133.418c-0.213,0-0.426-0.053-0.621-0.166c-0.594-0.344-0.795-1.104-0.453-1.694c1.67-2.884,3.469-5.736,5.344-8.482
			c0.39-0.568,1.16-0.711,1.726-0.326c0.567,0.385,0.713,1.158,0.326,1.726c-1.841,2.696-3.605,5.5-5.246,8.328
			C78.601,133.199,78.185,133.418,77.757,133.418z M303.825,120.65c-0.38,0-0.755-0.172-0.998-0.5
			c-1.945-2.625-4.013-5.209-6.144-7.682c-0.449-0.521-0.391-1.306,0.129-1.753c0.521-0.446,1.304-0.389,1.752,0.132
			c2.168,2.52,4.275,5.149,6.256,7.821c0.408,0.552,0.294,1.328-0.256,1.738C304.343,120.572,304.083,120.65,303.825,120.65z
			 M88.944,117.02c-0.27,0-0.543-0.088-0.771-0.271c-0.537-0.426-0.625-1.207-0.199-1.744c2.072-2.604,4.267-5.166,6.521-7.608
			c0.465-0.506,1.252-0.535,1.754-0.072c0.504,0.465,0.537,1.25,0.069,1.756c-2.211,2.398-4.364,4.914-6.399,7.474
			C89.673,116.859,89.31,117.02,88.944,117.02z M290.874,105.619c-0.316,0-0.636-0.123-0.879-0.365
			c-2.308-2.315-4.729-4.571-7.197-6.709c-0.519-0.448-0.572-1.231-0.123-1.752c0.447-0.518,1.229-0.576,1.75-0.125
			c2.512,2.177,4.979,4.476,7.33,6.83c0.483,0.488,0.481,1.273-0.002,1.758C291.511,105.498,291.192,105.619,290.874,105.619z
			 M102.397,102.43c-0.332,0-0.662-0.134-0.908-0.396c-0.467-0.5-0.44-1.285,0.06-1.754c2.422-2.271,4.965-4.484,7.553-6.58
			c0.533-0.432,1.316-0.348,1.746,0.185c0.432,0.532,0.35,1.313-0.186,1.745c-2.539,2.06-5.037,4.232-7.416,6.464
			C103.005,102.316,102.702,102.43,102.397,102.43z M275.874,92.625c-0.261,0-0.521-0.082-0.742-0.248
			c-2.619-1.953-5.344-3.834-8.098-5.59c-0.58-0.369-0.748-1.137-0.382-1.715c0.371-0.578,1.138-0.748,1.716-0.379
			c2.807,1.789,5.582,3.705,8.247,5.693c0.55,0.409,0.662,1.188,0.255,1.735C276.626,92.451,276.251,92.625,275.874,92.625z
			 M117.821,89.951c-0.393,0-0.778-0.184-1.021-0.533c-0.391-0.562-0.25-1.338,0.312-1.729c2.73-1.896,5.566-3.713,8.429-5.408
			c0.59-0.348,1.352-0.154,1.701,0.438c0.35,0.59,0.153,1.35-0.437,1.7c-2.812,1.662-5.596,3.447-8.277,5.312
			C118.313,89.881,118.065,89.951,117.821,89.951z M259.134,81.951c-0.199,0-0.402-0.047-0.59-0.147
			c-2.881-1.554-5.853-3.015-8.83-4.349c-0.627-0.278-0.906-1.016-0.627-1.641s1.012-0.904,1.639-0.625
			c3.035,1.354,6.062,2.848,8.998,4.428c0.603,0.324,0.83,1.078,0.502,1.682C260.003,81.715,259.575,81.951,259.134,81.951z
			 M134.892,79.859c-0.457,0-0.896-0.252-1.113-0.689c-0.305-0.612-0.055-1.358,0.562-1.664c2.981-1.479,6.053-2.862,9.125-4.114
			c0.631-0.259,1.359,0.045,1.617,0.682c0.26,0.635-0.045,1.359-0.681,1.617c-3.016,1.229-6.03,2.588-8.959,4.041
			C135.267,79.818,135.077,79.859,134.892,79.859z M241.003,73.844c-0.14,0-0.281-0.023-0.42-0.072
			c-3.076-1.111-6.228-2.121-9.369-2.998c-0.66-0.187-1.045-0.871-0.859-1.531c0.187-0.66,0.867-1.047,1.529-0.861
			c3.199,0.896,6.41,1.925,9.543,3.054c0.645,0.233,0.979,0.944,0.746,1.592C241.989,73.531,241.513,73.844,241.003,73.844z
			 M153.259,72.379c-0.523,0-1.012-0.334-1.182-0.858c-0.214-0.652,0.146-1.353,0.799-1.564c3.168-1.022,6.41-1.942,9.639-2.729
			c0.666-0.162,1.338,0.246,1.5,0.912s-0.244,1.338-0.91,1.502c-3.17,0.771-6.354,1.674-9.463,2.68
			C153.515,72.359,153.384,72.379,153.259,72.379z M221.897,68.5c-0.08,0-0.164-0.008-0.246-0.024
			c-3.198-0.646-6.465-1.183-9.705-1.588c-0.682-0.086-1.161-0.707-1.077-1.39c0.086-0.678,0.711-1.151,1.387-1.076
			c3.303,0.418,6.629,0.961,9.889,1.619c0.67,0.136,1.105,0.789,0.971,1.461C222.995,68.092,222.478,68.5,221.897,68.5z
			 M172.532,67.68c-0.597,0-1.121-0.433-1.224-1.037c-0.113-0.677,0.344-1.316,1.021-1.431c3.274-0.547,6.616-0.979,9.936-1.284
			c0.687-0.074,1.287,0.438,1.351,1.123c0.062,0.682-0.439,1.284-1.123,1.35c-3.257,0.301-6.537,0.725-9.755,1.262
			C172.669,67.674,172.601,67.68,172.532,67.68z M202.214,66.016c-0.021,0-0.043,0-0.064-0.002c-3.27-0.173-6.582-0.229-9.838-0.16
			c-0.008,0-0.016,0-0.022,0c-0.677,0-1.229-0.541-1.242-1.217c-0.014-0.688,0.531-1.255,1.217-1.269
			c3.314-0.063,6.689-0.012,10.016,0.164c0.687,0.035,1.212,0.621,1.177,1.305C203.419,65.502,202.872,66.016,202.214,66.016z"/>
	</g>
	<g>
		<circle fill="#D7DFE2" cx="194.991" cy="200" r="117.314"/>
	</g>
</g>
<g id="way">
	<path id="w" fill="#345568" d="M304.956,219.563c-0.53-0.103-1.077-0.159-1.638-0.159h-15.354v-38.809h13.643
		c20.285,0,36.787-16.502,36.787-36.785c0-19.154-14.718-34.93-33.438-36.626c-0.53-0.103-1.077-0.159-1.638-0.159h-15.354V91.674
		c0-0.559-0.059-1.104-0.158-1.634c-1.695-18.722-17.471-33.443-36.627-33.443s-34.932,14.722-36.627,33.443
		c-0.101,0.53-0.158,1.075-0.158,1.634v15.353h-38.809V93.381c0-20.282-16.502-36.784-36.787-36.784
		c-19.156,0-34.932,14.722-36.626,33.443c-0.102,0.53-0.159,1.075-0.159,1.634v71.541H88.372c-20.285,0-36.785,16.502-36.785,36.785
		s16.5,36.785,36.785,36.785h13.643v47.498c0,4.801,3.894,8.691,8.691,8.691h47.498v13.645c0,20.283,16.504,36.785,36.787,36.785
		c20.282,0,36.784-16.502,36.784-36.785v-13.645h71.543c0.561,0,1.106-0.059,1.638-0.159c18.722-1.697,33.438-17.472,33.438-36.626
		S323.678,221.261,304.956,219.563z M270.585,219.404h-38.81v-38.809h38.81V219.404z M175.587,219.404v-38.809h38.809v38.809
		H175.587z M214.396,236.785v38.81h-38.809v-38.81H214.396z M158.204,219.404h-38.808v-38.809h38.808V219.404z M231.776,163.215
		v-38.807h38.81v38.807H231.776z M301.608,124.408c10.701,0,19.404,8.703,19.404,19.402c0,10.698-8.703,19.403-19.404,19.403
		h-13.643v-38.807L301.608,124.408L301.608,124.408z M231.776,93.381c0-10.698,8.705-19.403,19.404-19.403
		s19.404,8.705,19.404,19.403v13.646h-38.81L231.776,93.381L231.776,93.381z M214.396,124.408v38.807h-38.809v-38.807H214.396z
		 M138.8,73.977c10.699,0,19.404,8.705,19.404,19.403v13.646h-38.808V93.381C119.397,82.682,128.101,73.977,138.8,73.977z
		 M119.397,124.408h38.808v38.807h-38.808V124.408z M88.372,219.404c-10.699,0-19.404-8.705-19.404-19.404
		s8.705-19.403,19.404-19.403h13.643v38.809L88.372,219.404L88.372,219.404z M119.397,275.594v-38.81h38.808v38.81H119.397z
		 M214.396,306.619c0,10.699-8.705,19.404-19.403,19.404c-10.699,0-19.404-8.705-19.404-19.404v-13.645h38.809L214.396,306.619
		L214.396,306.619z M231.776,236.785h38.81v38.81h-38.81V236.785z M301.608,275.594h-13.643v-38.81h13.643
		c10.701,0,19.404,8.705,19.404,19.404S312.31,275.594,301.608,275.594z"/>
	<g>
		<g>
			<path fill="#D7DFE2" d="M300.194,284.697h-9.934c-0.229,0-0.414-0.186-0.414-0.414c0-0.228,0.187-0.414,0.414-0.414h9.934
				c0.229,0,0.414,0.187,0.414,0.414C300.608,284.511,300.423,284.697,300.194,284.697z M280.329,284.697h-9.933
				c-0.229,0-0.414-0.186-0.414-0.414c0-0.228,0.185-0.414,0.414-0.414h9.933c0.229,0,0.414,0.187,0.414,0.414
				C280.743,284.511,280.558,284.697,280.329,284.697z M260.464,284.697h-9.935c-0.229,0-0.414-0.186-0.414-0.414
				c0-0.228,0.187-0.414,0.414-0.414h9.935c0.229,0,0.414,0.187,0.414,0.414C260.878,284.511,260.692,284.697,260.464,284.697z
				 M240.599,284.697h-9.932c-0.229,0-0.414-0.186-0.414-0.414c0-0.228,0.186-0.414,0.414-0.414h9.932
				c0.229,0,0.414,0.187,0.414,0.414C241.013,284.511,240.827,284.697,240.599,284.697z M220.733,284.697H210.8
				c-0.228,0-0.412-0.186-0.412-0.414c0-0.228,0.187-0.414,0.412-0.414h9.934c0.229,0,0.414,0.187,0.414,0.414
				C221.148,284.511,220.962,284.697,220.733,284.697z M200.868,284.697h-9.935c-0.229,0-0.412-0.186-0.412-0.414
				c0-0.228,0.185-0.414,0.412-0.414h9.935c0.229,0,0.414,0.187,0.414,0.414C201.282,284.511,201.097,284.697,200.868,284.697z
				 M181.003,284.697h-9.935c-0.227,0-0.411-0.186-0.411-0.414c0-0.228,0.186-0.414,0.411-0.414h9.935
				c0.229,0,0.414,0.187,0.414,0.414C181.417,284.511,181.231,284.697,181.003,284.697z M161.138,284.697h-9.932
				c-0.23,0-0.414-0.186-0.414-0.414c0-0.228,0.184-0.414,0.414-0.414h9.932c0.229,0,0.414,0.187,0.414,0.414
				C161.552,284.511,161.366,284.697,161.138,284.697z M141.272,284.697h-9.934c-0.229,0-0.412-0.186-0.412-0.414
				c0-0.228,0.184-0.414,0.412-0.414h9.934c0.229,0,0.414,0.187,0.414,0.414C141.686,284.511,141.501,284.697,141.272,284.697z
				 M121.407,284.697h-9.933c-0.229,0-0.414-0.186-0.414-0.414c0-0.228,0.187-0.414,0.414-0.414h9.933
				c0.229,0,0.413,0.187,0.413,0.414C121.821,284.511,121.636,284.697,121.407,284.697z M306.681,284.242
				c-0.197,0-0.371-0.141-0.408-0.34c-0.039-0.225,0.109-0.441,0.334-0.48c3.224-0.588,6.289-1.735,9.113-3.411
				c0.197-0.117,0.451-0.054,0.566,0.145c0.116,0.197,0.053,0.451-0.146,0.566c-2.908,1.727-6.067,2.909-9.387,3.514
				C306.729,284.24,306.704,284.242,306.681,284.242z M323.411,274.326c-0.093,0-0.187-0.031-0.263-0.094
				c-0.176-0.146-0.205-0.406-0.059-0.582c2.074-2.549,3.664-5.414,4.721-8.512c0.074-0.216,0.312-0.33,0.525-0.259
				c0.217,0.076,0.332,0.312,0.258,0.527c-1.088,3.188-2.725,6.137-4.861,8.766C323.649,274.273,323.53,274.326,323.411,274.326z
				 M329.696,255.92c-0.223,0-0.407-0.18-0.413-0.403c-0.078-3.291-0.729-6.5-1.937-9.537c-0.084-0.213,0.021-0.453,0.23-0.537
				c0.213-0.084,0.454,0.02,0.539,0.231c1.241,3.127,1.913,6.435,1.993,9.822c0.007,0.228-0.176,0.418-0.403,0.424
				C329.702,255.92,329.7,255.92,329.696,255.92z M322.526,237.846c-0.112,0-0.225-0.046-0.307-0.138
				c-2.195-2.444-4.775-4.463-7.67-5.996c-0.201-0.106-0.277-0.356-0.172-0.561c0.104-0.201,0.356-0.277,0.559-0.172
				c2.982,1.578,5.64,3.658,7.898,6.176c0.151,0.172,0.139,0.432-0.031,0.584C322.726,237.812,322.626,237.846,322.526,237.846z
				 M305.333,228.754c-0.019,0-0.035-0.002-0.056-0.004c-1.207-0.162-2.44-0.239-3.67-0.239h-2.776
				c-0.229,0-0.414-0.187-0.414-0.414c0-0.23,0.186-0.416,0.414-0.416h4.487c0.08,0,0.156,0.022,0.222,0.063
				c0.621,0.043,1.235,0.104,1.848,0.185c0.227,0.03,0.387,0.237,0.355,0.467C305.716,228.602,305.538,228.754,305.333,228.754z
				 M288.897,228.51h-9.932c-0.23,0-0.414-0.187-0.414-0.414c0-0.23,0.184-0.416,0.414-0.416h9.932c0.229,0,0.414,0.186,0.414,0.416
				C289.312,228.324,289.126,228.51,288.897,228.51z M269.032,228.51h-9.935c-0.227,0-0.412-0.187-0.412-0.414
				c0-0.23,0.187-0.416,0.412-0.416h9.935c0.229,0,0.413,0.186,0.413,0.416C269.446,228.324,269.261,228.51,269.032,228.51z
				 M249.167,228.51h-9.933c-0.229,0-0.414-0.187-0.414-0.414c0-0.23,0.187-0.416,0.414-0.416h9.933
				c0.229,0,0.414,0.186,0.414,0.416C249.581,228.324,249.396,228.51,249.167,228.51z M229.302,228.51h-9.932
				c-0.229,0-0.414-0.187-0.414-0.414c0-0.23,0.186-0.416,0.414-0.416h9.932c0.229,0,0.414,0.186,0.414,0.416
				C229.716,228.324,229.53,228.51,229.302,228.51z M209.437,228.51h-9.934c-0.228,0-0.412-0.187-0.412-0.414
				c0-0.23,0.186-0.416,0.412-0.416h9.934c0.229,0,0.414,0.186,0.414,0.416C209.851,228.324,209.665,228.51,209.437,228.51z
				 M189.571,228.51h-9.932c-0.229,0-0.414-0.187-0.414-0.414c0-0.23,0.187-0.416,0.414-0.416h9.932
				c0.229,0,0.414,0.186,0.414,0.416C189.985,228.324,189.8,228.51,189.571,228.51z M169.708,228.51h-9.935
				c-0.229,0-0.414-0.187-0.414-0.414c0-0.23,0.187-0.416,0.414-0.416h9.935c0.227,0,0.412,0.186,0.412,0.416
				C170.12,228.324,169.935,228.51,169.708,228.51z M149.841,228.51h-9.932c-0.229,0-0.414-0.187-0.414-0.414
				c0-0.23,0.186-0.416,0.414-0.416h9.932c0.229,0,0.414,0.186,0.414,0.416C150.255,228.324,150.071,228.51,149.841,228.51z
				 M129.978,228.51h-9.934c-0.229,0-0.414-0.187-0.414-0.414c0-0.23,0.186-0.416,0.414-0.416h9.934
				c0.229,0,0.412,0.186,0.412,0.416C130.39,228.324,130.206,228.51,129.978,228.51z M110.11,228.51h-9.932
				c-0.229,0-0.414-0.187-0.414-0.414c0-0.23,0.187-0.416,0.414-0.416h9.932c0.23,0,0.414,0.186,0.414,0.416
				C110.524,228.324,110.341,228.51,110.11,228.51z M90.245,228.51h-1.873c-2.744,0-5.459-0.39-8.064-1.158
				c-0.221-0.064-0.344-0.295-0.279-0.515c0.062-0.219,0.293-0.342,0.515-0.278c2.528,0.744,5.164,1.121,7.83,1.121h1.873
				c0.229,0,0.414,0.186,0.414,0.416C90.659,228.324,90.476,228.51,90.245,228.51z M71.591,222.949
				c-0.086,0-0.172-0.027-0.246-0.084c-2.709-2.02-5.018-4.479-6.865-7.305c-0.123-0.193-0.069-0.447,0.121-0.574
				c0.193-0.123,0.447-0.07,0.572,0.121c1.793,2.748,4.035,5.133,6.666,7.096c0.184,0.137,0.221,0.396,0.084,0.578
				C71.843,222.891,71.718,222.949,71.591,222.949z M60.972,206.652c-0.188,0-0.359-0.131-0.402-0.324
				c-0.469-2.062-0.707-4.188-0.707-6.328c0.003-1.231,0.082-2.471,0.238-3.684c0.029-0.228,0.229-0.394,0.463-0.357
				c0.228,0.029,0.388,0.236,0.357,0.463c-0.152,1.179-0.229,2.382-0.23,3.578c0,2.074,0.23,4.144,0.685,6.146
				c0.053,0.223-0.088,0.444-0.312,0.496C61.032,206.648,61.001,206.652,60.972,206.652z M63.485,187.365
				c-0.065,0-0.131-0.016-0.19-0.049c-0.203-0.105-0.281-0.355-0.174-0.56c1.567-2.985,3.637-5.647,6.146-7.916
				c0.168-0.153,0.432-0.141,0.584,0.029s0.142,0.433-0.029,0.584c-2.436,2.201-4.444,4.789-5.971,7.688
				C63.776,187.285,63.634,187.365,63.485,187.365z M77.921,174.328c-0.164,0-0.318-0.1-0.383-0.26
				c-0.086-0.213,0.018-0.453,0.229-0.539c3.127-1.254,6.43-1.936,9.82-2.027c0.004,0,0.008,0,0.012,0
				c0.223,0,0.406,0.179,0.412,0.404s-0.174,0.418-0.402,0.424c-3.291,0.088-6.498,0.752-9.532,1.969
				C78.024,174.318,77.972,174.328,77.921,174.328z M301.608,172.318h-5.426c-0.229,0-0.414-0.185-0.414-0.412
				c0-0.23,0.185-0.416,0.414-0.416h5.426c1.48,0,2.968-0.117,4.42-0.352c0.22-0.031,0.438,0.118,0.476,0.344
				c0.035,0.227-0.119,0.438-0.344,0.475C304.663,172.195,303.134,172.318,301.608,172.318z M286.249,172.318h-9.933
				c-0.229,0-0.416-0.185-0.416-0.412c0-0.23,0.187-0.416,0.416-0.416h9.933c0.229,0,0.414,0.186,0.414,0.416
				C286.663,172.135,286.478,172.318,286.249,172.318z M266.384,172.318h-9.932c-0.23,0-0.414-0.185-0.414-0.412
				c0-0.23,0.184-0.416,0.414-0.416h9.932c0.229,0,0.414,0.186,0.414,0.416C266.798,172.135,266.614,172.318,266.384,172.318z
				 M246.519,172.318h-9.932c-0.23,0-0.414-0.185-0.414-0.412c0-0.23,0.184-0.416,0.414-0.416h9.932
				c0.229,0,0.414,0.186,0.414,0.416C246.933,172.135,246.747,172.318,246.519,172.318z M226.653,172.318h-9.934
				c-0.229,0-0.412-0.185-0.412-0.412c0-0.23,0.185-0.416,0.412-0.416h9.934c0.229,0,0.414,0.186,0.414,0.416
				C227.067,172.135,226.882,172.318,226.653,172.318z M206.788,172.318h-9.933c-0.229,0-0.414-0.185-0.414-0.412
				c0-0.23,0.187-0.416,0.414-0.416h9.933c0.229,0,0.414,0.186,0.414,0.416C207.202,172.135,207.017,172.318,206.788,172.318z
				 M186.923,172.318h-9.932c-0.23,0-0.414-0.185-0.414-0.412c0-0.23,0.184-0.416,0.414-0.416h9.932
				c0.229,0,0.414,0.186,0.414,0.416C187.337,172.135,187.151,172.318,186.923,172.318z M167.058,172.318h-9.932
				c-0.23,0-0.414-0.185-0.414-0.412c0-0.23,0.184-0.416,0.414-0.416h9.932c0.229,0,0.416,0.186,0.416,0.416
				C167.474,172.135,167.286,172.318,167.058,172.318z M147.192,172.318h-9.932c-0.23,0-0.414-0.185-0.414-0.412
				c0-0.23,0.184-0.416,0.414-0.416h9.932c0.229,0,0.414,0.186,0.414,0.416C147.606,172.135,147.421,172.318,147.192,172.318z
				 M127.327,172.318h-9.933c-0.229,0-0.414-0.185-0.414-0.412c0-0.23,0.185-0.416,0.414-0.416h9.933
				c0.229,0,0.414,0.186,0.414,0.416C127.741,172.135,127.556,172.318,127.327,172.318z M107.462,172.318H97.53
				c-0.229,0-0.413-0.185-0.413-0.412c0-0.23,0.186-0.416,0.413-0.416h9.933c0.229,0,0.414,0.186,0.414,0.416
				C107.876,172.135,107.69,172.318,107.462,172.318z M315.415,168.697c-0.144,0-0.283-0.074-0.359-0.209
				c-0.111-0.199-0.041-0.453,0.156-0.564c2.852-1.61,5.377-3.696,7.504-6.2c0.146-0.175,0.408-0.195,0.58-0.047
				c0.176,0.146,0.197,0.407,0.049,0.584c-2.189,2.575-4.789,4.727-7.725,6.385C315.554,168.68,315.485,168.697,315.415,168.697z
				 M328.003,153.869c-0.045,0-0.094-0.008-0.142-0.024c-0.215-0.078-0.323-0.316-0.245-0.531c1.11-3.039,1.674-6.234,1.674-9.502
				v-0.088c0-0.229,0.186-0.414,0.414-0.414c0.228,0,0.414,0.186,0.414,0.414v0.075c0,3.375-0.58,6.668-1.726,9.8
				C328.333,153.766,328.175,153.869,328.003,153.869z M327.944,134.416c-0.168,0-0.325-0.102-0.387-0.268
				c-1.143-3.066-2.809-5.885-4.951-8.377c-0.151-0.174-0.131-0.437,0.043-0.584c0.175-0.148,0.437-0.129,0.582,0.043
				c2.209,2.567,3.924,5.471,5.103,8.627c0.08,0.215-0.029,0.453-0.242,0.533C328.04,134.408,327.993,134.416,327.944,134.416z
				 M315.267,119.666c-0.067,0-0.137-0.018-0.201-0.053c-2.866-1.598-5.965-2.66-9.205-3.158c-0.227-0.035-0.381-0.248-0.348-0.473
				c0.035-0.228,0.252-0.379,0.475-0.346c3.339,0.514,6.529,1.608,9.48,3.256c0.199,0.108,0.271,0.36,0.158,0.561
				C315.554,119.59,315.411,119.666,315.267,119.666z M299.425,116.129h-9.934c-0.229,0-0.412-0.184-0.412-0.414
				c0-0.229,0.184-0.411,0.412-0.411h9.934c0.229,0,0.414,0.184,0.414,0.411C299.839,115.945,299.655,116.129,299.425,116.129z
				 M279.56,116.129h-9.932c-0.23,0-0.414-0.184-0.414-0.414c0-0.229,0.184-0.411,0.414-0.411h9.932c0.23,0,0.414,0.184,0.414,0.411
				C279.974,115.945,279.79,116.129,279.56,116.129z M259.694,116.129h-9.932c-0.23,0-0.414-0.184-0.414-0.414
				c0-0.229,0.184-0.411,0.414-0.411h9.932c0.23,0,0.414,0.184,0.414,0.411C260.108,115.945,259.925,116.129,259.694,116.129z
				 M239.829,116.129h-9.933c-0.229,0-0.414-0.184-0.414-0.414c0-0.229,0.187-0.411,0.414-0.411h9.933
				c0.229,0,0.414,0.184,0.414,0.411C240.243,115.945,240.058,116.129,239.829,116.129z M219.964,116.129h-9.932
				c-0.229,0-0.414-0.184-0.414-0.414c0-0.229,0.186-0.411,0.414-0.411h9.932c0.229,0,0.416,0.184,0.416,0.411
				C220.38,115.945,220.192,116.129,219.964,116.129z M200.101,116.129h-9.934c-0.229,0-0.414-0.184-0.414-0.414
				c0-0.229,0.186-0.411,0.414-0.411h9.934c0.228,0,0.414,0.184,0.414,0.411C200.515,115.945,200.327,116.129,200.101,116.129z
				 M180.233,116.129h-9.932c-0.229,0-0.414-0.184-0.414-0.414c0-0.229,0.186-0.411,0.414-0.411h9.932
				c0.23,0,0.414,0.184,0.414,0.411C180.647,115.945,180.464,116.129,180.233,116.129z M160.37,116.129h-9.935
				c-0.229,0-0.414-0.184-0.414-0.414c0-0.229,0.187-0.411,0.414-0.411h9.935c0.229,0,0.414,0.184,0.414,0.411
				C160.784,115.945,160.599,116.129,160.37,116.129z M140.505,116.129h-9.935c-0.229,0-0.413-0.184-0.413-0.414
				c0-0.229,0.186-0.411,0.413-0.411h9.935c0.229,0,0.412,0.184,0.412,0.411C140.917,115.945,140.733,116.129,140.505,116.129z
				 M120.64,116.129h-9.934c-0.229,0-0.414-0.184-0.414-0.414c0-0.229,0.186-0.411,0.414-0.411h9.934
				c0.228,0,0.412,0.184,0.412,0.411C121.052,115.945,120.866,116.129,120.64,116.129z"/>
		</g>
		<g>
			<path fill="#D7DFE2" d="M194.991,335.128c-1.23,0-2.472-0.078-3.685-0.234c-0.227-0.031-0.387-0.238-0.356-0.465
				c0.029-0.228,0.229-0.394,0.465-0.357c3.217,0.418,6.562,0.263,9.723-0.455c0.228-0.055,0.443,0.088,0.494,0.312
				c0.051,0.223-0.09,0.442-0.312,0.494C199.257,334.891,197.126,335.128,194.991,335.128z M181.942,331.921
				c-0.063,0-0.131-0.017-0.192-0.05c-2.986-1.567-5.648-3.637-7.916-6.146c-0.154-0.17-0.142-0.43,0.028-0.584
				c0.168-0.152,0.433-0.142,0.584,0.029c2.203,2.438,4.789,4.446,7.688,5.971c0.203,0.104,0.281,0.354,0.176,0.557
				C182.235,331.839,182.091,331.921,181.942,331.921z M210.325,330.578c-0.136,0-0.269-0.065-0.349-0.188
				c-0.123-0.193-0.07-0.449,0.121-0.574c2.746-1.791,5.133-4.033,7.094-6.666c0.14-0.184,0.398-0.221,0.58-0.084
				c0.185,0.139,0.222,0.396,0.084,0.58c-2.018,2.709-4.477,5.018-7.307,6.863C210.479,330.557,210.401,330.578,210.325,330.578z
				 M168.903,317.484c-0.164,0-0.317-0.098-0.383-0.258c-1.256-3.129-1.938-6.432-2.028-9.82c-0.005-0.229,0.176-0.42,0.403-0.426
				c0.002,0,0.008,0,0.013,0c0.223,0,0.405,0.178,0.413,0.402c0.089,3.291,0.75,6.498,1.968,9.532
				c0.084,0.214-0.019,0.455-0.23,0.539C169.009,317.475,168.956,317.484,168.903,317.484z M221.946,314.98
				c-0.038,0-0.077-0.006-0.118-0.018c-0.218-0.064-0.345-0.295-0.279-0.515c0.746-2.53,1.123-5.166,1.123-7.83v-1.875
				c0-0.229,0.186-0.412,0.414-0.412c0.228,0,0.416,0.185,0.416,0.412v1.875c0,2.744-0.392,5.457-1.158,8.064
				C222.29,314.863,222.124,314.98,221.946,314.98z M166.896,297.875c-0.229,0-0.414-0.184-0.414-0.414v-9.932
				c0-0.229,0.187-0.414,0.414-0.414c0.229,0,0.414,0.186,0.414,0.414v9.932C167.31,297.691,167.124,297.875,166.896,297.875z
				 M223.085,295.227c-0.229,0-0.414-0.187-0.414-0.414v-9.935c0-0.229,0.186-0.414,0.414-0.414c0.228,0,0.416,0.187,0.416,0.414
				v9.935C223.501,295.041,223.313,295.227,223.085,295.227z M110.706,284.697c-0.229,0-0.414-0.186-0.414-0.414v-9.932
				c0-0.229,0.186-0.414,0.414-0.414c0.228,0,0.414,0.186,0.414,0.414v9.932C111.12,284.512,110.935,284.697,110.706,284.697z
				 M279.274,283.928c-0.229,0-0.414-0.185-0.414-0.412v-9.933c0-0.229,0.187-0.414,0.414-0.414c0.229,0,0.416,0.187,0.416,0.414
				v9.933C279.69,283.744,279.503,283.928,279.274,283.928z M166.896,278.01c-0.229,0-0.414-0.185-0.414-0.414v-9.933
				c0-0.229,0.187-0.412,0.414-0.412c0.229,0,0.414,0.185,0.414,0.412v9.933C167.31,277.826,167.124,278.01,166.896,278.01z
				 M223.085,275.361c-0.229,0-0.414-0.187-0.414-0.414v-9.934c0-0.229,0.186-0.414,0.414-0.414c0.228,0,0.416,0.186,0.416,0.414
				v9.934C223.501,275.176,223.313,275.361,223.085,275.361z M110.706,264.832c-0.229,0-0.414-0.184-0.414-0.414v-9.932
				c0-0.229,0.186-0.414,0.414-0.414c0.228,0,0.414,0.186,0.414,0.414v9.932C111.12,264.648,110.935,264.832,110.706,264.832z
				 M279.274,264.064c-0.229,0-0.414-0.187-0.414-0.414v-9.933c0-0.229,0.187-0.415,0.414-0.415c0.229,0,0.416,0.188,0.416,0.415
				v9.933C279.69,263.879,279.503,264.064,279.274,264.064z M166.896,258.146c-0.229,0-0.414-0.188-0.414-0.416v-9.933
				c0-0.229,0.187-0.414,0.414-0.414c0.229,0,0.414,0.187,0.414,0.414v9.933C167.31,257.959,167.124,258.146,166.896,258.146z
				 M223.085,255.496c-0.229,0-0.414-0.186-0.414-0.414v-9.934c0-0.229,0.186-0.412,0.414-0.412c0.228,0,0.416,0.184,0.416,0.412
				v9.934C223.501,255.311,223.313,255.496,223.085,255.496z M110.706,244.967c-0.229,0-0.414-0.184-0.414-0.413v-9.933
				c0-0.229,0.186-0.414,0.414-0.414c0.228,0,0.414,0.187,0.414,0.414v9.933C111.12,244.783,110.935,244.967,110.706,244.967z
				 M279.274,244.199c-0.229,0-0.414-0.186-0.414-0.414v-9.932c0-0.229,0.187-0.416,0.414-0.416c0.229,0,0.416,0.188,0.416,0.416
				v9.932C279.69,244.014,279.503,244.199,279.274,244.199z M166.896,238.281c-0.229,0-0.414-0.186-0.414-0.416v-9.932
				c0-0.229,0.187-0.414,0.414-0.414c0.229,0,0.414,0.186,0.414,0.414v9.932C167.31,238.096,167.124,238.281,166.896,238.281z
				 M223.085,235.631c-0.229,0-0.414-0.186-0.414-0.414v-9.934c0-0.227,0.186-0.414,0.414-0.414c0.228,0,0.416,0.188,0.416,0.414
				v9.934C223.501,235.445,223.313,235.631,223.085,235.631z M110.706,225.102c-0.229,0-0.414-0.187-0.414-0.414v-9.933
				c0-0.229,0.186-0.414,0.414-0.414c0.228,0,0.414,0.187,0.414,0.414v9.933C111.12,224.916,110.935,225.102,110.706,225.102z
				 M279.274,224.334c-0.229,0-0.414-0.186-0.414-0.414v-9.932c0-0.23,0.187-0.414,0.414-0.414c0.229,0,0.416,0.184,0.416,0.414
				v9.932C279.69,224.148,279.503,224.334,279.274,224.334z M166.896,218.414c-0.229,0-0.414-0.184-0.414-0.414v-9.932
				c0-0.229,0.187-0.414,0.414-0.414c0.229,0,0.414,0.186,0.414,0.414V218C167.31,218.23,167.124,218.414,166.896,218.414z
				 M223.085,215.764c-0.229,0-0.414-0.185-0.414-0.412v-9.935c0-0.227,0.186-0.412,0.414-0.412c0.228,0,0.416,0.187,0.416,0.412
				v9.935C223.501,215.58,223.313,215.764,223.085,215.764z M110.706,205.236c-0.229,0-0.414-0.184-0.414-0.414v-9.932
				c0-0.229,0.186-0.414,0.414-0.414c0.228,0,0.414,0.186,0.414,0.414v9.932C111.12,205.053,110.935,205.236,110.706,205.236z
				 M279.274,204.469c-0.229,0-0.414-0.185-0.414-0.414v-9.935c0-0.229,0.187-0.414,0.414-0.414c0.229,0,0.416,0.187,0.416,0.414
				v9.935C279.69,204.285,279.503,204.469,279.274,204.469z M166.896,198.551c-0.229,0-0.414-0.186-0.414-0.415v-9.933
				c0-0.229,0.187-0.414,0.414-0.414c0.229,0,0.414,0.187,0.414,0.414v9.933C167.31,198.365,167.124,198.551,166.896,198.551z
				 M223.085,195.9c-0.229,0-0.414-0.187-0.414-0.414v-9.934c0-0.229,0.186-0.412,0.414-0.412c0.228,0,0.416,0.184,0.416,0.412
				v9.934C223.501,195.715,223.313,195.9,223.085,195.9z M110.706,185.373c-0.229,0-0.414-0.186-0.414-0.416v-9.932
				c0-0.229,0.186-0.414,0.414-0.414c0.228,0,0.414,0.186,0.414,0.414v9.932C111.12,185.188,110.935,185.373,110.706,185.373z
				 M279.274,184.604c-0.229,0-0.414-0.185-0.414-0.414v-9.935c0-0.229,0.187-0.411,0.414-0.411c0.229,0,0.416,0.184,0.416,0.411
				v9.935C279.69,184.42,279.503,184.604,279.274,184.604z M166.896,178.686c-0.229,0-0.414-0.187-0.414-0.414v-9.935
				c0-0.229,0.187-0.414,0.414-0.414c0.229,0,0.414,0.187,0.414,0.414v9.935C167.31,178.5,167.124,178.686,166.896,178.686z
				 M223.085,176.035c-0.229,0-0.414-0.186-0.414-0.414v-9.934c0-0.229,0.186-0.412,0.414-0.412c0.228,0,0.416,0.184,0.416,0.412
				v9.934C223.501,175.85,223.313,176.035,223.085,176.035z M110.706,165.508c-0.229,0-0.414-0.186-0.414-0.416v-9.932
				c0-0.229,0.186-0.414,0.414-0.414c0.228,0,0.414,0.187,0.414,0.414v9.932C111.12,165.322,110.935,165.508,110.706,165.508z
				 M279.274,164.738c-0.229,0-0.414-0.186-0.414-0.412v-9.934c0-0.23,0.187-0.414,0.414-0.414c0.229,0,0.416,0.184,0.416,0.414
				v9.934C279.69,164.553,279.503,164.738,279.274,164.738z M166.896,158.818c-0.229,0-0.414-0.187-0.414-0.412v-9.932
				c0-0.23,0.187-0.416,0.414-0.416c0.229,0,0.414,0.186,0.414,0.416v9.932C167.31,158.633,167.124,158.818,166.896,158.818z
				 M223.085,156.17c-0.229,0-0.414-0.186-0.414-0.414v-9.934c0-0.229,0.186-0.412,0.414-0.412c0.228,0,0.416,0.185,0.416,0.412
				v9.934C223.501,155.984,223.313,156.17,223.085,156.17z M110.706,145.643c-0.229,0-0.414-0.187-0.414-0.416v-9.933
				c0-0.229,0.186-0.414,0.414-0.414c0.228,0,0.414,0.187,0.414,0.414v9.933C111.12,145.457,110.935,145.643,110.706,145.643z
				 M279.274,144.873c-0.229,0-0.414-0.184-0.414-0.414v-9.932c0-0.229,0.187-0.414,0.414-0.414c0.229,0,0.416,0.186,0.416,0.414
				v9.932C279.69,144.689,279.503,144.873,279.274,144.873z M166.896,138.955c-0.229,0-0.414-0.188-0.414-0.414v-9.934
				c0-0.229,0.187-0.412,0.414-0.412c0.229,0,0.414,0.184,0.414,0.412v9.934C167.31,138.768,167.124,138.955,166.896,138.955z
				 M223.085,136.305c-0.229,0-0.414-0.187-0.414-0.414v-9.933c0-0.229,0.186-0.414,0.414-0.414c0.228,0,0.416,0.185,0.416,0.414
				v9.933C223.501,136.119,223.313,136.305,223.085,136.305z M110.706,125.777c-0.229,0-0.414-0.187-0.414-0.416v-9.932
				c0-0.229,0.186-0.414,0.414-0.414c0.228,0,0.414,0.186,0.414,0.414v9.932C111.12,125.592,110.935,125.777,110.706,125.777z
				 M279.274,125.008c-0.229,0-0.414-0.184-0.414-0.413v-9.933c0-0.229,0.187-0.414,0.414-0.414c0.229,0,0.416,0.187,0.416,0.414
				v9.933C279.69,124.824,279.503,125.008,279.274,125.008z M166.896,119.09c-0.229,0-0.414-0.186-0.414-0.414v-9.934
				c0-0.229,0.187-0.414,0.414-0.414c0.229,0,0.414,0.187,0.414,0.414v9.934C167.31,118.904,167.124,119.09,166.896,119.09z
				 M223.085,116.439c-0.229,0-0.414-0.187-0.414-0.414v-9.932c0-0.229,0.186-0.414,0.414-0.414c0.228,0,0.416,0.186,0.416,0.414
				v9.932C223.501,116.254,223.313,116.439,223.085,116.439z M110.706,105.912c-0.229,0-0.414-0.188-0.414-0.414v-9.934
				c0-0.229,0.186-0.414,0.414-0.414c0.228,0,0.414,0.186,0.414,0.414v9.934C111.12,105.725,110.935,105.912,110.706,105.912z
				 M279.274,105.145c-0.229,0-0.414-0.187-0.414-0.416v-9.933c0-0.229,0.187-0.414,0.414-0.414c0.229,0,0.416,0.185,0.416,0.414
				v9.933C279.69,104.959,279.503,105.145,279.274,105.145z M166.896,99.223c-0.229,0-0.414-0.185-0.414-0.412v-5.431
				c0-1.479-0.117-2.965-0.352-4.418c-0.035-0.227,0.119-0.438,0.344-0.475c0.223-0.033,0.438,0.117,0.476,0.344
				c0.239,1.496,0.362,3.027,0.36,4.549v5.431C167.31,99.039,167.124,99.223,166.896,99.223z M223.085,96.574
				c-0.229,0-0.414-0.184-0.414-0.414v-4.486c0-0.084,0.022-0.157,0.065-0.223c0.039-0.619,0.103-1.238,0.183-1.848
				c0.031-0.229,0.242-0.388,0.465-0.357c0.229,0.031,0.387,0.238,0.357,0.465c-0.16,1.207-0.24,2.441-0.24,3.67v2.779
				C223.501,96.391,223.313,96.574,223.085,96.574z M111.036,89.482c-0.021,0-0.043-0.004-0.064-0.006
				c-0.225-0.035-0.381-0.246-0.346-0.474c0.516-3.338,1.61-6.528,3.256-9.481c0.109-0.199,0.363-0.271,0.562-0.158
				c0.199,0.109,0.271,0.363,0.158,0.562c-1.596,2.865-2.658,5.964-3.158,9.205C111.413,89.334,111.235,89.482,111.036,89.482z
				 M278.817,88.725c-0.194,0-0.371-0.14-0.405-0.34c-0.586-3.224-1.736-6.289-3.412-9.113c-0.117-0.197-0.054-0.451,0.145-0.566
				c0.197-0.117,0.451-0.053,0.568,0.146c1.727,2.907,2.908,6.065,3.514,9.387c0.041,0.225-0.106,0.439-0.334,0.482
				C278.868,88.723,278.843,88.725,278.817,88.725z M226.337,80.66c-0.064,0-0.131-0.014-0.193-0.049
				c-0.201-0.105-0.276-0.355-0.17-0.559c1.578-2.98,3.656-5.638,6.174-7.896c0.17-0.154,0.433-0.141,0.584,0.031
				c0.152,0.17,0.14,0.432-0.03,0.584c-2.445,2.194-4.464,4.774-5.996,7.668C226.63,80.58,226.485,80.66,226.337,80.66z
				 M163.274,79.988c-0.145,0-0.282-0.076-0.36-0.209c-1.609-2.852-3.697-5.377-6.199-7.504c-0.174-0.146-0.195-0.408-0.047-0.582
				c0.146-0.176,0.406-0.193,0.582-0.049c2.578,2.188,4.727,4.789,6.387,7.727c0.111,0.199,0.041,0.451-0.156,0.564
				C163.415,79.973,163.343,79.988,163.274,79.988z M120.493,72.484c-0.119,0-0.234-0.049-0.314-0.144
				c-0.15-0.174-0.131-0.436,0.043-0.584c2.566-2.209,5.471-3.924,8.627-5.102c0.217-0.078,0.453,0.029,0.533,0.244
				c0.08,0.213-0.029,0.453-0.244,0.533c-3.063,1.141-5.885,2.807-8.377,4.95C120.683,72.451,120.587,72.484,120.493,72.484z
				 M268.901,71.994c-0.094,0-0.184-0.033-0.262-0.094c-2.549-2.076-5.414-3.664-8.51-4.723c-0.217-0.072-0.332-0.312-0.26-0.525
				c0.073-0.215,0.312-0.332,0.524-0.258c3.191,1.09,6.144,2.725,8.769,4.862c0.178,0.144,0.202,0.404,0.059,0.582
				C269.142,71.941,269.021,71.994,268.901,71.994z M240.817,67.674c-0.164,0-0.319-0.1-0.385-0.262
				c-0.084-0.213,0.021-0.453,0.232-0.539c3.127-1.24,6.432-1.91,9.821-1.994c0.265,0,0.418,0.179,0.425,0.406
				c0.006,0.229-0.177,0.416-0.404,0.422c-3.293,0.078-6.5,0.73-9.537,1.938C240.919,67.664,240.868,67.674,240.817,67.674z
				 M148.446,67.4c-0.047,0-0.096-0.01-0.143-0.025c-3.039-1.11-6.236-1.674-9.504-1.674h-0.086c-0.23,0-0.416-0.186-0.416-0.414
				c0-0.228,0.186-0.414,0.416-0.414l0.074-0.002c3.377,0,6.67,0.582,9.801,1.728c0.215,0.078,0.324,0.313,0.246,0.53
				C148.772,67.295,148.616,67.4,148.446,67.4z"/>
		</g>
	</g>
</g>
<g id="electricity">
	<g>
		<g>
			<g>
				<rect x="297.132" y="94.697" fill="#F48272" width="3.311" height="68.566"/>
			</g>
			<g>
				<rect x="192.45" y="94.697" fill="#F48272" width="3.312" height="68.566"/>
			</g>
			<g>
				<rect x="87.771" y="94.697" fill="#F48272" width="3.312" height="68.566"/>
			</g>
		</g>
		<g>
			<g>
				<path fill="#FFFFFF" d="M139.755,123.189c-34.146,0-50.742-9.32-50.742-28.492h0.828c0,18.615,16.326,27.664,49.914,27.664
					c34.594,0,54.436-10.082,54.436-27.664h0.826C195.017,112.805,174.874,123.189,139.755,123.189z"/>
			</g>
			<g>
				<path fill="#FFFFFF" d="M248.956,123.189c-35.121,0-55.265-10.385-55.265-28.492h0.828c0,17.582,19.842,27.664,54.437,27.664
					c33.586,0,49.914-9.049,49.914-27.664h0.827C299.698,113.869,283.101,123.189,248.956,123.189z"/>
			</g>
		</g>
	</g>
	<g>
		<g>
			<g>
				<rect x="297.132" y="207.062" fill="#F48272" width="3.311" height="68.567"/>
			</g>
			<g>
				<rect x="192.45" y="207.062" fill="#F48272" width="3.312" height="68.567"/>
			</g>
			<g>
				<rect x="87.771" y="207.062" fill="#F48272" width="3.312" height="68.567"/>
			</g>
		</g>
		<g>
			<g>
				<path fill="#FFFFFF" d="M139.755,235.555c-34.146,0-50.742-9.32-50.742-28.492h0.828c0,18.615,16.326,27.666,49.914,27.666
					c34.594,0,54.436-10.086,54.436-27.666h0.826C195.017,225.17,174.874,235.555,139.755,235.555z"/>
			</g>
			<g>
				<path fill="#FFFFFF" d="M248.956,235.555c-35.121,0-55.265-10.386-55.265-28.492h0.828c0,17.58,19.842,27.666,54.437,27.666
					c33.586,0,49.914-9.051,49.914-27.666h0.827C299.698,226.234,283.101,235.555,248.956,235.555z"/>
			</g>
		</g>
	</g>
</g>
<g id="trees">
	<g>
		<path fill="#F48272" d="M248.392,206.809c0.479-0.937,0.755-1.994,0.755-3.118c0-2.728-1.596-5.076-3.9-6.183
			c0.226-0.679,0.352-1.402,0.352-2.156c0-3.789-3.071-6.86-6.86-6.86c-3.788,0-6.859,3.071-6.859,6.86
			c0,0.79,0.141,1.546,0.386,2.252c-2.197,1.144-3.7,3.438-3.7,6.087c0,1.081,0.257,2.1,0.702,3.01
			c-1.977,1.204-3.3,3.372-3.3,5.856c0,3.789,3.071,6.86,6.861,6.86v0.002h11.825l0,0h0.001c3.786,0,6.861-3.071,6.861-6.862
			C251.515,210.149,250.27,208.034,248.392,206.809z"/>
		<g>
			<rect x="237.911" y="194.5" fill="#345568" width="1.655" height="24.92"/>
		</g>
	</g>
	<g>
		<path fill="#F48272" d="M162.221,150.608c0.479-0.937,0.755-1.995,0.755-3.12c0-2.727-1.594-5.075-3.898-6.181
			c0.225-0.679,0.351-1.403,0.351-2.157c0-3.79-3.072-6.862-6.862-6.862c-3.789,0-6.861,3.072-6.861,6.862
			c0,0.79,0.14,1.545,0.386,2.251c-2.197,1.144-3.7,3.438-3.7,6.086c0,1.082,0.257,2.101,0.703,3.01
			c-1.976,1.205-3.3,3.374-3.3,5.857c0,3.789,3.071,6.86,6.86,6.86v0.004h11.826v-0.004c3.789,0,6.861-3.071,6.861-6.86
			C165.342,153.947,164.098,151.832,162.221,150.608z"/>
		<g>
			<rect x="151.739" y="138.299" fill="#345568" width="1.656" height="24.921"/>
		</g>
	</g>
</g>
<g id="points_1_">
	<g>
		<g>
			<path fill="#F48272" d="M122.825,258.791c0-6.399-5.189-11.59-11.593-11.59c-6.402,0-11.592,5.189-11.592,11.59
				c0,6.402,8.312,25.324,11.592,25.324C114.587,284.115,122.825,265.193,122.825,258.791z"/>
		</g>
		<g>
			<path fill="#FFFFFF" d="M117.638,258.791c0-3.537-2.867-6.401-6.404-6.401s-6.403,2.864-6.403,6.401
				c0,3.539,2.866,6.406,6.403,6.406S117.638,262.33,117.638,258.791z"/>
		</g>
	</g>
	<g>
		<g>
			<path fill="#F48272" d="M290.866,146.582c0-6.401-5.189-11.592-11.593-11.592c-6.399,0-11.59,5.189-11.59,11.592
				c0,6.4,8.312,25.324,11.59,25.324C282.628,171.906,290.866,152.982,290.866,146.582z"/>
		</g>
		<g>
			<circle fill="#FFFFFF" cx="279.274" cy="146.582" r="6.404"/>
		</g>
	</g>
	<g>
		<g>
			<path fill="#F48272" d="M121.771,90.924c0-6.399-5.188-11.59-11.59-11.59c-6.402,0-11.592,5.189-11.592,11.59
				c0,6.402,8.311,25.324,11.592,25.324C113.534,116.248,121.771,97.326,121.771,90.924z"/>
		</g>
		<g>
			<circle fill="#FFFFFF" cx="110.181" cy="90.924" r="6.404"/>
		</g>
	</g>
</g>
<g id="truck_x5F_big">
	<g>
		<path fill="#FFFFFF" d="M212.399,256.766c-0.149-0.316-0.557-0.576-0.907-0.576h-7.486c-0.351,0-0.637,0.285-0.637,0.637v15.885
			c0,0.353,0,0.925,0,1.275v5.244c0,0.35,0.286,0.639,0.637,0.639h15.51c0.351,0,0.637-0.289,0.637-0.639v-5.244
			c0-0.352-0.121-0.898-0.27-1.215L212.399,256.766z"/>
	</g>
	<g>
		<path fill="#D7DFE2" d="M203.368,280.506c0-0.352,0.286-0.637,0.637-0.637h16.051c0.353,0,0.639,0.285,0.639,0.637v0.972
			c0,0.352-0.286,0.639-0.639,0.639h-16.051c-0.351,0-0.637-0.287-0.637-0.639V280.506z"/>
	</g>
	<g>
		<path fill="#D7DFE2" d="M167.739,280.506c0-0.352,0.289-0.637,0.64-0.637h34.354c0.353,0,0.638,0.285,0.638,0.637v0.972
			c0,0.352-0.285,0.639-0.638,0.639h-34.354c-0.351,0-0.64-0.287-0.64-0.639V280.506z"/>
	</g>
	<g>
		<path fill="#345568" d="M218.013,275.559c0-0.351,0.289-0.638,0.637-0.638h1.332c0.351,0,0.64,0.287,0.64,0.638v0.975
			c0,0.35-0.289,0.637-0.64,0.637h-1.332c-0.348,0-0.637-0.287-0.637-0.637V275.559z"/>
	</g>
	<g>
		<path fill="#D7DFE2" d="M205.896,272.605c0-0.117,0.097-0.213,0.211-0.213h0.064c0.115,0,0.211,0.096,0.211,0.213v1.822
			c0,0.116-0.096,0.213-0.211,0.213h-0.064c-0.114,0-0.211-0.097-0.211-0.213V272.605z"/>
	</g>
	<g>
		<path fill="#345568" d="M204.606,270.576c0,0.35,0.287,0.637,0.638,0.637h11.905c0.354,0,0.521-0.262,0.375-0.578l-5.717-12.479
			c-0.146-0.318-0.553-0.578-0.902-0.578h-5.661c-0.351,0-0.638,0.285-0.638,0.637V270.576L204.606,270.576z"/>
	</g>
	<g>
		<path fill="#F48272" d="M167.882,279.029c-0.078,0.461,0.24,0.84,0.709,0.84h33.178c0.469,0,0.853-0.385,0.853-0.852v-20.595
			c0-0.467-0.384-0.848-0.853-0.848h-29.43c-0.469,0-0.912,0.375-0.992,0.836L167.882,279.029z"/>
	</g>
	<g>
		<path fill="#345568" d="M215.452,277.377h-10.15c-0.465,0-0.844-0.379-0.844-0.844v-5.994h0.414v5.994
			c0,0.236,0.192,0.43,0.43,0.43h10.15c0.252,0,0.521-0.215,0.575-0.459l1.279-5.657l0.404,0.09l-1.279,5.658
			C216.333,277.031,215.903,277.377,215.452,277.377z"/>
	</g>
	<g>
		<g>
			<path fill="#D7DFE2" d="M214.515,280.992c0-1.832-1.486-3.316-3.313-3.316c-1.834,0-3.318,1.484-3.318,3.316"/>
		</g>
		<g>
			<path fill="#F48272" d="M213.976,280.992c0-1.535-1.244-2.777-2.774-2.777c-1.537,0-2.777,1.242-2.777,2.777
				c0,1.531,1.24,2.775,2.777,2.775C212.731,283.768,213.976,282.523,213.976,280.992z"/>
		</g>
		<g>
			<path fill="#345568" d="M212.606,280.992c0-0.779-0.631-1.41-1.405-1.41c-0.781,0-1.41,0.631-1.41,1.41
				c0,0.777,0.629,1.408,1.41,1.408C211.976,282.4,212.606,281.77,212.606,280.992z"/>
		</g>
	</g>
	<g>
		<g>
			<path fill="#D7DFE2" d="M181.88,280.992c0-1.832-1.484-3.316-3.316-3.316s-3.315,1.484-3.315,3.316"/>
		</g>
		<g>
			<circle fill="#F48272" cx="178.563" cy="280.992" r="2.777"/>
		</g>
		<g>
			<circle fill="#345568" cx="178.562" cy="280.992" r="1.409"/>
		</g>
	</g>
	<g>
		<rect x="168.317" y="276.963" fill="#345568" width="34.304" height="0.414"/>
	</g>
	<g>
		<path fill="#D7DFE2" d="M132.112,280.506c0-0.352,0.287-0.637,0.64-0.637h34.352c0.353,0,0.638,0.285,0.638,0.637v0.972
			c0,0.352-0.285,0.639-0.638,0.639h-34.352c-0.353,0-0.64-0.287-0.64-0.639V280.506z"/>
	</g>
	<g>
		<path fill="#F48272" d="M132.253,279.029c-0.076,0.461,0.242,0.84,0.709,0.84h33.178c0.469,0,0.853-0.385,0.853-0.852v-20.595
			c0-0.467-0.384-0.848-0.853-0.848h-29.428c-0.469,0-0.914,0.375-0.992,0.836L132.253,279.029z"/>
	</g>
	<g>
		<g>
			<path fill="#D7DFE2" d="M146.249,280.992c0-1.832-1.482-3.316-3.314-3.316c-1.83,0-3.313,1.484-3.313,3.316"/>
		</g>
		<g>
			<circle fill="#F48272" cx="142.936" cy="280.992" r="2.776"/>
		</g>
		<g>
			<circle fill="#345568" cx="142.936" cy="280.992" r="1.409"/>
		</g>
	</g>
	<g>
		<rect x="132.688" y="276.963" fill="#345568" width="34.304" height="0.414"/>
	</g>
</g>
<g id="truck_x5F_small">
	<g>
		<path fill="#F48272" d="M204.903,144.387c0.148-0.316,0.558-0.576,0.906-0.576h7.486c0.352,0,0.637,0.287,0.637,0.637v15.885
			c0,0.353,0,0.924,0,1.275v5.244c0,0.35-0.285,0.639-0.637,0.639h-15.508c-0.353,0-0.64-0.289-0.64-0.639v-5.244
			c0-0.353,0.123-0.896,0.271-1.215L204.903,144.387z"/>
	</g>
	<g>
		<path fill="#D7DFE2" d="M213.933,168.125c0-0.35-0.285-0.635-0.637-0.635h-16.051c-0.351,0-0.636,0.285-0.636,0.635v0.974
			c0,0.35,0.285,0.639,0.636,0.639h16.051c0.352,0,0.637-0.289,0.637-0.639V168.125z"/>
	</g>
	<g>
		<path fill="#D7DFE2" d="M249.562,168.125c0-0.35-0.287-0.635-0.637-0.635h-34.354c-0.352,0-0.639,0.285-0.639,0.635v0.974
			c0,0.35,0.287,0.639,0.639,0.639h34.354c0.35,0,0.637-0.289,0.637-0.639V168.125z"/>
	</g>
	<g>
		<path fill="#345568" d="M199.29,163.182c0-0.353-0.287-0.64-0.638-0.64h-1.332c-0.35,0-0.637,0.287-0.637,0.64v0.973
			c0,0.35,0.287,0.637,0.637,0.637h1.332c0.351,0,0.638-0.287,0.638-0.637V163.182z"/>
	</g>
	<g>
		<path fill="#D7DFE2" d="M211.407,160.229c0-0.119-0.095-0.213-0.212-0.213h-0.063c-0.115,0-0.211,0.094-0.211,0.213v1.822
			c0,0.114,0.096,0.213,0.211,0.213h0.063c0.117,0,0.212-0.099,0.212-0.213V160.229z"/>
	</g>
	<g>
		<path fill="#345568" d="M212.694,158.197c0,0.35-0.284,0.637-0.637,0.637h-11.906c-0.352,0-0.518-0.26-0.371-0.578l5.716-12.479
			c0.146-0.318,0.551-0.578,0.901-0.578h5.66c0.353,0,0.637,0.285,0.637,0.637V158.197L212.694,158.197z"/>
	</g>
	<g>
		<path fill="#FFFFFF" d="M249.421,166.65c0.078,0.461-0.242,0.84-0.709,0.84h-33.178c-0.468,0-0.851-0.385-0.851-0.852v-20.595
			c0-0.467,0.383-0.848,0.851-0.848h29.428c0.469,0,0.914,0.377,0.992,0.836L249.421,166.65z"/>
	</g>
	<g>
		<path fill="#345568" d="M212.001,164.996h-10.15c-0.451,0-0.883-0.342-0.979-0.781l-1.277-5.657l0.402-0.091l1.278,5.658
			c0.056,0.244,0.322,0.459,0.576,0.459h10.15c0.235,0,0.43-0.192,0.43-0.43v-5.992h0.414v5.992
			C212.845,164.619,212.468,164.996,212.001,164.996z"/>
	</g>
	<g>
		<g>
			<path fill="#D7DFE2" d="M202.79,168.611c0-1.83,1.483-3.312,3.313-3.312s3.314,1.482,3.314,3.312"/>
		</g>
		<g>
			<circle fill="#F48272" cx="206.105" cy="168.611" r="2.776"/>
		</g>
		<g>
			<circle fill="#345568" cx="206.104" cy="168.611" r="1.408"/>
		</g>
	</g>
	<g>
		<g>
			<path fill="#D7DFE2" d="M235.423,168.611c0-1.83,1.483-3.312,3.313-3.312c1.832,0,3.316,1.482,3.316,3.312"/>
		</g>
		<g>
			<circle fill="#F48272" cx="238.738" cy="168.611" r="2.776"/>
		</g>
		<g>
			<circle fill="#345568" cx="238.739" cy="168.611" r="1.408"/>
		</g>
	</g>
	<g>
		<rect x="214.685" y="164.584" fill="#345568" width="34.303" height="0.412"/>
	</g>
</g>
<path id="path" fill="#F48272" d="M279.274,171.078H111.534v-54.963c0-0.459-0.371-0.828-0.828-0.828s-0.828,0.369-0.828,0.828
	v55.791c0,0.457,0.371,0.826,0.828,0.826h167.741v54.344l-55.364,0.191c-0.457,0-0.826,0.371-0.826,0.828v55.358l-111.549-0.168
	h-0.002c-0.457,0-0.826,0.369-0.828,0.826c0,0.459,0.369,0.828,0.826,0.83l112.379,0.168c0.002,0,0.002,0,0.002,0
	c0.219,0,0.43-0.088,0.586-0.242c0.154-0.154,0.242-0.365,0.242-0.586V228.92l55.364-0.19c0.457,0,0.826-0.371,0.826-0.826v-55.996
	C280.104,171.447,279.733,171.078,279.274,171.078z"/>
</svg>
