<?xml version="1.0" encoding="utf-8"?>
<!-- Generator: Adobe Illustrator 16.0.0, SVG Export Plug-In . SVG Version: 6.00 Build 0)  -->
<!DOCTYPE svg PUBLIC "-//W3C//DTD SVG 1.1//EN" "http://www.w3.org/Graphics/SVG/1.1/DTD/svg11.dtd">
<svg version="1.1" id="Layer_1" xmlns="http://www.w3.org/2000/svg" xmlns:xlink="http://www.w3.org/1999/xlink" x="0px" y="0px"
	 width="401px" height="401px" viewBox="0 0 401 401" enable-background="new 0 0 401 401" xml:space="preserve">
<g id="circles">
	<g>
		<circle fill="#D7DFE2" cx="199.99" cy="199.996" r="117.274"/>
	</g>
	<g>
		<g>
			<path fill="#345568" d="M204.201,336.544c-0.668,0-1.222-0.531-1.24-1.203c-0.021-0.687,0.517-1.259,1.202-1.278
				c3.269-0.101,6.57-0.32,9.81-0.657c0.668-0.063,1.291,0.424,1.363,1.107c0.069,0.681-0.426,1.291-1.107,1.362
				c-3.298,0.343-6.659,0.564-9.988,0.668C204.226,336.544,204.214,336.544,204.201,336.544z M194.276,336.489
				c-0.016,0-0.032,0-0.052-0.001c-3.329-0.139-6.688-0.399-9.982-0.778c-0.683-0.078-1.17-0.693-1.093-1.373
				c0.08-0.685,0.707-1.175,1.375-1.095c3.236,0.373,6.534,0.629,9.805,0.767c0.684,0.028,1.217,0.606,1.188,1.292
				C195.489,335.967,194.938,336.489,194.276,336.489z M223.927,334.496c-0.59,0-1.111-0.422-1.221-1.021
				c-0.119-0.675,0.33-1.318,1.004-1.441c3.215-0.572,6.449-1.272,9.606-2.081c0.666-0.171,1.343,0.229,1.513,0.896
				c0.169,0.664-0.232,1.34-0.896,1.508c-3.219,0.824-6.511,1.539-9.786,2.122C224.074,334.49,223.999,334.496,223.927,334.496z
				 M174.577,334.225c-0.079,0-0.156-0.008-0.235-0.022c-3.264-0.619-6.548-1.368-9.763-2.229c-0.661-0.176-1.057-0.858-0.878-1.521
				c0.179-0.661,0.854-1.053,1.52-0.879c3.157,0.845,6.38,1.58,9.585,2.189c0.675,0.129,1.115,0.776,0.987,1.451
				C175.681,333.81,175.16,334.225,174.577,334.225z M243.142,329.582c-0.519,0-1.001-0.325-1.176-0.846
				c-0.219-0.646,0.132-1.353,0.781-1.571c3.086-1.035,6.177-2.203,9.187-3.469c0.631-0.267,1.36,0.032,1.625,0.663
				c0.266,0.632-0.032,1.359-0.663,1.626c-3.064,1.288-6.215,2.479-9.356,3.534C243.406,329.562,243.272,329.582,243.142,329.582z
				 M155.413,329.098c-0.136,0-0.271-0.022-0.408-0.07c-3.137-1.094-6.28-2.32-9.339-3.646c-0.628-0.272-0.917-1.003-0.646-1.633
				c0.272-0.629,1.005-0.924,1.633-0.645c3.001,1.301,6.088,2.506,9.169,3.581c0.648,0.226,0.989,0.931,0.764,1.58
				C156.407,328.775,155.929,329.098,155.413,329.098z M261.409,321.905c-0.453,0-0.889-0.249-1.108-0.678
				c-0.312-0.61-0.068-1.358,0.543-1.669c2.908-1.484,5.797-3.094,8.583-4.783c0.586-0.354,1.35-0.17,1.706,0.418
				c0.354,0.586,0.167,1.351-0.42,1.703c-2.838,1.723-5.78,3.361-8.741,4.871C261.79,321.86,261.597,321.905,261.409,321.905z
				 M137.199,321.196c-0.193,0-0.392-0.046-0.575-0.142c-2.945-1.546-5.872-3.221-8.697-4.98c-0.584-0.36-0.762-1.127-0.398-1.707
				c0.361-0.584,1.131-0.76,1.71-0.397c2.772,1.725,5.646,3.369,8.538,4.887c0.607,0.318,0.843,1.069,0.525,1.676
				C138.079,320.955,137.647,321.196,137.199,321.196z M278.362,311.628c-0.391,0-0.772-0.183-1.016-0.521
				c-0.395-0.559-0.266-1.334,0.293-1.729c2.658-1.893,5.282-3.904,7.8-5.986c0.526-0.438,1.312-0.364,1.747,0.164
				c0.437,0.526,0.363,1.311-0.165,1.745c-2.562,2.123-5.234,4.173-7.942,6.101C278.859,311.553,278.61,311.628,278.362,311.628z
				 M120.347,310.714c-0.254,0-0.51-0.076-0.729-0.237c-2.69-1.962-5.343-4.046-7.875-6.192c-0.524-0.443-0.59-1.227-0.146-1.75
				c0.443-0.522,1.228-0.588,1.751-0.145c2.488,2.107,5.092,4.153,7.732,6.081c0.555,0.402,0.676,1.179,0.271,1.732
				C121.108,310.537,120.73,310.714,120.347,310.714z M293.641,298.984c-0.326,0-0.653-0.129-0.896-0.383
				c-0.475-0.494-0.458-1.281,0.036-1.754c2.357-2.261,4.663-4.636,6.85-7.062c0.461-0.511,1.245-0.551,1.754-0.091
				s0.55,1.243,0.09,1.754c-2.227,2.469-4.574,4.887-6.975,7.188C294.258,298.868,293.949,298.984,293.641,298.984z M105.209,297.89
				c-0.313,0-0.628-0.118-0.87-0.354c-2.378-2.332-4.695-4.777-6.889-7.27c-0.454-0.515-0.405-1.297,0.109-1.752
				c0.516-0.453,1.298-0.401,1.751,0.11c2.155,2.447,4.431,4.849,6.768,7.138c0.488,0.479,0.497,1.266,0.017,1.756
				C105.851,297.766,105.53,297.89,105.209,297.89z M306.924,284.251c-0.267,0-0.534-0.085-0.76-0.261
				c-0.542-0.422-0.64-1.201-0.22-1.743c2.009-2.579,3.943-5.267,5.75-7.98c0.383-0.57,1.153-0.726,1.723-0.347
				c0.569,0.38,0.726,1.15,0.344,1.722c-1.841,2.766-3.812,5.502-5.854,8.131C307.659,284.084,307.296,284.251,306.924,284.251z
				 M92.099,283.008c-0.376,0-0.745-0.17-0.989-0.49c-2.012-2.651-3.949-5.406-5.761-8.19c-0.372-0.574-0.209-1.344,0.366-1.718
				c0.576-0.374,1.344-0.21,1.716,0.364c1.778,2.734,3.68,5.439,5.656,8.043c0.413,0.547,0.306,1.324-0.238,1.737
				C92.623,282.924,92.36,283.008,92.099,283.008z M317.926,267.734c-0.207,0-0.417-0.052-0.61-0.16
				c-0.596-0.337-0.807-1.094-0.469-1.691c1.607-2.846,3.131-5.786,4.522-8.739c0.293-0.621,1.032-0.886,1.651-0.593
				c0.618,0.291,0.886,1.031,0.593,1.65c-1.419,3.008-2.97,6.004-4.607,8.904C318.779,267.508,318.359,267.734,317.926,267.734z
				 M81.297,266.381c-0.439,0-0.862-0.23-1.088-0.643c-1.603-2.91-3.114-5.919-4.498-8.94c-0.286-0.624-0.012-1.357,0.611-1.646
				c0.623-0.281,1.359-0.011,1.646,0.611c1.358,2.968,2.844,5.92,4.416,8.778c0.33,0.601,0.11,1.354-0.489,1.685
				C81.703,266.332,81.5,266.381,81.297,266.381z M326.396,249.777c-0.147,0-0.299-0.026-0.444-0.082
				c-0.642-0.245-0.959-0.965-0.714-1.605c1.174-3.055,2.246-6.188,3.188-9.311c0.2-0.66,0.89-1.029,1.547-0.833
				c0.657,0.2,1.027,0.892,0.832,1.547c-0.961,3.186-2.055,6.376-3.25,9.488C327.364,249.475,326.894,249.777,326.396,249.777z
				 M73.048,248.363c-0.504,0-0.979-0.309-1.164-0.809c-1.154-3.113-2.211-6.314-3.135-9.513c-0.192-0.659,0.188-1.348,0.846-1.536
				c0.656-0.195,1.346,0.188,1.537,0.849c0.909,3.138,1.945,6.277,3.078,9.335c0.24,0.644-0.087,1.358-0.729,1.597
				C73.337,248.34,73.19,248.363,73.048,248.363z M332.128,230.777c-0.088,0-0.181-0.011-0.271-0.031
				c-0.669-0.147-1.091-0.811-0.94-1.479c0.707-3.181,1.307-6.435,1.778-9.67c0.102-0.679,0.726-1.148,1.41-1.048
				c0.677,0.101,1.147,0.729,1.047,1.406c-0.481,3.297-1.093,6.609-1.812,9.851C333.209,230.383,332.696,230.777,332.128,230.777z
				 M67.532,229.311c-0.574,0-1.091-0.4-1.213-0.984c-0.687-3.258-1.26-6.578-1.703-9.867c-0.092-0.68,0.385-1.305,1.063-1.396
				c0.676-0.101,1.303,0.385,1.396,1.063c0.435,3.23,0.997,6.488,1.674,9.688c0.141,0.671-0.288,1.331-0.959,1.472
				C67.704,229.303,67.618,229.311,67.532,229.311z M335.001,211.152c-0.031,0-0.061-0.001-0.09-0.002
				c-0.687-0.049-1.198-0.644-1.148-1.328c0.235-3.244,0.355-6.549,0.355-9.826c0-0.685,0.555-1.24,1.238-1.24
				c0.688,0,1.242,0.557,1.242,1.24c0,3.336-0.122,6.702-0.362,10.006C336.19,210.656,335.646,211.152,335.001,211.152z
				 M64.877,209.658c-0.651,0-1.197-0.507-1.238-1.166c-0.173-2.805-0.261-5.663-0.261-8.496c0-0.507,0.002-1.011,0.008-1.516
				c0.01-0.682,0.562-1.228,1.242-1.228c0.005,0,0.009,0,0.014,0c0.688,0.009,1.234,0.568,1.229,1.255
				c-0.007,0.495-0.01,0.991-0.01,1.487c0,2.781,0.086,5.59,0.257,8.345c0.043,0.684-0.479,1.272-1.163,1.315
				C64.927,209.658,64.9,209.658,64.877,209.658z M335.184,194.323c-0.656,0-1.206-0.517-1.237-1.181
				c-0.167-3.271-0.453-6.565-0.853-9.793c-0.086-0.681,0.398-1.303,1.079-1.386c0.679-0.08,1.3,0.397,1.385,1.078
				c0.407,3.288,0.699,6.646,0.868,9.976c0.033,0.686-0.493,1.269-1.179,1.303C335.226,194.322,335.204,194.323,335.184,194.323z
				 M65.096,189.824c-0.034,0-0.069-0.002-0.104-0.004c-0.684-0.057-1.19-0.658-1.134-1.34c0.277-3.322,0.682-6.668,1.197-9.943
				c0.106-0.677,0.747-1.141,1.421-1.033c0.677,0.106,1.14,0.743,1.03,1.42c-0.507,3.216-0.902,6.501-1.175,9.764
				C66.276,189.334,65.733,189.824,65.096,189.824z M332.743,174.641c-0.579,0-1.098-0.408-1.217-1
				c-0.639-3.203-1.402-6.421-2.273-9.562c-0.185-0.661,0.203-1.346,0.864-1.526c0.662-0.184,1.343,0.202,1.527,0.861
				c0.888,3.2,1.666,6.479,2.316,9.744c0.135,0.672-0.303,1.325-0.976,1.458C332.907,174.633,332.823,174.641,332.743,174.641z
				 M68.188,170.233c-0.095,0-0.189-0.009-0.285-0.033c-0.666-0.155-1.081-0.823-0.925-1.491c0.76-3.239,1.649-6.488,2.644-9.659
				c0.205-0.652,0.899-1.021,1.557-0.812c0.654,0.207,1.018,0.902,0.812,1.557c-0.976,3.111-1.849,6.304-2.596,9.484
				C69.261,169.849,68.751,170.233,68.188,170.233z M327.447,155.529c-0.509,0-0.986-0.316-1.169-0.824
				c-1.098-3.063-2.326-6.133-3.653-9.115c-0.279-0.626,0.004-1.358,0.629-1.637c0.628-0.281,1.36,0.004,1.639,0.629
				c1.353,3.039,2.605,6.162,3.726,9.287c0.229,0.646-0.105,1.355-0.751,1.586C327.727,155.506,327.586,155.529,327.447,155.529z
				 M74.13,151.299c-0.154,0-0.31-0.026-0.46-0.087c-0.637-0.253-0.948-0.975-0.694-1.611c1.228-3.092,2.587-6.179,4.041-9.175
				c0.299-0.616,1.042-0.872,1.658-0.573c0.618,0.299,0.875,1.043,0.575,1.658c-1.43,2.938-2.764,5.971-3.967,9.008
				C75.089,151.003,74.623,151.299,74.13,151.299z M319.4,137.42c-0.44,0-0.871-0.236-1.094-0.655
				c-1.539-2.873-3.206-5.729-4.954-8.486c-0.367-0.58-0.195-1.347,0.384-1.714c0.577-0.366,1.347-0.195,1.712,0.386
				c1.781,2.809,3.479,5.715,5.049,8.646c0.321,0.604,0.094,1.354-0.51,1.68C319.801,137.373,319.601,137.42,319.4,137.42z
				 M82.794,133.439c-0.211,0-0.425-0.056-0.62-0.168c-0.593-0.346-0.794-1.104-0.453-1.695c1.672-2.881,3.468-5.731,5.342-8.479
				c0.389-0.568,1.161-0.708,1.727-0.326c0.565,0.387,0.713,1.159,0.325,1.725c-1.842,2.698-3.604,5.497-5.244,8.325
				C83.64,133.217,83.223,133.439,82.794,133.439z M308.786,120.676c-0.381,0-0.754-0.174-0.998-0.503
				c-1.943-2.622-4.013-5.206-6.143-7.677c-0.446-0.52-0.39-1.305,0.13-1.752s1.304-0.389,1.752,0.131
				c2.17,2.52,4.272,5.148,6.255,7.819c0.407,0.552,0.293,1.329-0.258,1.737C309.302,120.597,309.044,120.676,308.786,120.676z
				 M93.979,117.046c-0.271,0-0.543-0.089-0.772-0.269c-0.536-0.428-0.625-1.209-0.197-1.745c2.071-2.604,4.264-5.165,6.517-7.608
				c0.467-0.505,1.251-0.533,1.753-0.069c0.506,0.465,0.538,1.25,0.072,1.754c-2.212,2.397-4.365,4.912-6.399,7.471
				C94.706,116.885,94.346,117.046,93.979,117.046z M295.84,105.646c-0.318,0-0.636-0.121-0.879-0.363
				c-2.31-2.313-4.729-4.572-7.194-6.705c-0.517-0.449-0.574-1.233-0.125-1.753c0.448-0.517,1.23-0.575,1.751-0.126
				c2.511,2.176,4.979,4.475,7.327,6.83c0.484,0.486,0.482,1.271-0.002,1.756C296.476,105.527,296.157,105.646,295.84,105.646z
				 M107.427,102.459c-0.331,0-0.66-0.131-0.906-0.393c-0.468-0.5-0.441-1.285,0.06-1.755c2.42-2.271,4.961-4.481,7.55-6.578
				c0.533-0.431,1.312-0.346,1.744,0.185c0.433,0.533,0.351,1.312-0.184,1.745c-2.542,2.059-5.037,4.231-7.416,6.46
				C108.036,102.348,107.73,102.459,107.427,102.459z M280.843,92.658c-0.258,0-0.518-0.08-0.74-0.246
				c-2.617-1.953-5.342-3.834-8.096-5.59c-0.578-0.369-0.748-1.137-0.381-1.713c0.369-0.579,1.139-0.748,1.715-0.38
				c2.805,1.788,5.58,3.704,8.246,5.691c0.549,0.41,0.663,1.188,0.252,1.736C281.597,92.486,281.222,92.658,280.843,92.658z
				 M122.846,89.986c-0.393,0-0.779-0.187-1.021-0.532c-0.391-0.562-0.251-1.337,0.312-1.729c2.729-1.896,5.563-3.713,8.424-5.406
				c0.591-0.346,1.353-0.153,1.7,0.438c0.35,0.591,0.154,1.352-0.437,1.699c-2.81,1.662-5.593,3.448-8.271,5.311
				C123.337,89.914,123.091,89.986,122.846,89.986z M264.108,81.989c-0.198,0-0.4-0.048-0.588-0.147
				c-2.879-1.553-5.851-3.015-8.829-4.349c-0.624-0.279-0.904-1.013-0.624-1.638c0.279-0.627,1.014-0.906,1.64-0.627
				c3.031,1.355,6.059,2.846,8.991,4.428c0.604,0.324,0.828,1.077,0.506,1.68C264.978,81.754,264.55,81.989,264.108,81.989z
				 M139.909,79.898c-0.455,0-0.896-0.253-1.111-0.689c-0.306-0.614-0.055-1.358,0.56-1.664c2.983-1.479,6.051-2.861,9.123-4.114
				c0.63-0.258,1.357,0.048,1.616,0.683c0.26,0.635-0.046,1.358-0.681,1.616c-3.016,1.229-6.027,2.588-8.955,4.041
				C140.283,79.857,140.096,79.898,139.909,79.898z M245.985,73.885c-0.138,0-0.279-0.025-0.421-0.074
				c-3.074-1.109-6.224-2.117-9.362-2.996c-0.661-0.187-1.047-0.871-0.861-1.531c0.187-0.66,0.87-1.045,1.53-0.859
				c3.197,0.896,6.405,1.921,9.538,3.053c0.645,0.232,0.979,0.945,0.745,1.59C246.972,73.568,246.495,73.885,245.985,73.885z
				 M158.271,72.42c-0.522,0-1.011-0.335-1.181-0.858c-0.211-0.652,0.146-1.354,0.799-1.563c3.166-1.023,6.408-1.941,9.635-2.729
				c0.668-0.166,1.338,0.247,1.501,0.912c0.162,0.666-0.246,1.338-0.912,1.5c-3.168,0.772-6.352,1.674-9.459,2.68
				C158.525,72.4,158.396,72.42,158.271,72.42z M226.888,68.541c-0.083,0-0.166-0.008-0.247-0.022
				c-3.199-0.646-6.464-1.182-9.703-1.59c-0.681-0.083-1.163-0.705-1.076-1.387c0.085-0.679,0.711-1.156,1.388-1.077
				c3.302,0.418,6.625,0.962,9.884,1.617c0.67,0.138,1.104,0.791,0.971,1.463C227.983,68.135,227.466,68.541,226.888,68.541z
				 M177.537,67.722c-0.597,0-1.121-0.432-1.223-1.036c-0.113-0.679,0.343-1.316,1.02-1.431c3.273-0.547,6.615-0.979,9.931-1.282
				c0.689-0.074,1.289,0.438,1.352,1.121c0.062,0.682-0.438,1.285-1.122,1.35c-3.254,0.301-6.535,0.725-9.748,1.262
				C177.675,67.716,177.604,67.722,177.537,67.722z M207.21,66.057c-0.021,0-0.045,0-0.065,0c-3.268-0.171-6.578-0.228-9.833-0.161
				c-0.009,0-0.017,0-0.024,0c-0.676,0-1.228-0.54-1.24-1.218c-0.014-0.686,0.53-1.252,1.216-1.267
				c3.314-0.062,6.688-0.011,10.013,0.165c0.685,0.036,1.211,0.619,1.176,1.304C208.414,65.544,207.866,66.057,207.21,66.057z"/>
		</g>
	</g>
</g>
<g id="lines">
	<g>
		<rect x="199.575" y="82.723" fill="#FFFFFF" width="0.826" height="234.549"/>
	</g>
	<g>
		<rect x="82.716" y="199.582" fill="#FFFFFF" width="234.548" height="0.828"/>
	</g>
</g>
<g id="blue">
	<path fill="#345568" d="M310.007,217.576h-28.83c-1.475,0-2.672,1.197-2.672,2.672v15.584c0,1.477,1.197,2.671,2.672,2.671h0.002
		v3.734l3.45-3.734h25.378c1.476,0,2.671-1.194,2.671-2.671v-15.584C312.678,218.773,311.482,217.576,310.007,217.576z"/>
	<path fill="#345568" d="M252.878,277.536H224.05c-1.478,0-2.672,1.195-2.672,2.673v15.584c0,1.476,1.195,2.67,2.672,2.67h0.002
		v3.734l3.45-3.734h25.376c1.476,0,2.672-1.194,2.672-2.67v-15.584C255.55,278.731,254.354,277.536,252.878,277.536z"/>
	<g>
		<g>
			<circle fill="#FFFFFF" cx="233.228" cy="288" r="1.206"/>
		</g>
		<g>
			<circle fill="#FFFFFF" cx="238.463" cy="288" r="1.205"/>
		</g>
		<g>
			<circle fill="#FFFFFF" cx="243.7" cy="288" r="1.205"/>
		</g>
	</g>
	<g>
		<path fill="#345568" d="M195.784,151.127h-28.83c-1.477,0-2.672,1.195-2.672,2.672v15.584c0,1.476,1.195,2.673,2.672,2.673h0.002
			v3.731l3.446-3.731h25.382c1.475,0,2.671-1.197,2.671-2.673v-15.584C198.455,152.322,197.259,151.127,195.784,151.127z"/>
		<g>
			<g>
				<circle fill="#FFFFFF" cx="176.133" cy="161.589" r="1.205"/>
			</g>
			<g>
				<circle fill="#FFFFFF" cx="181.369" cy="161.589" r="1.206"/>
			</g>
			<g>
				<circle fill="#FFFFFF" cx="186.604" cy="161.589" r="1.205"/>
			</g>
		</g>
	</g>
	<g>
		<path fill="#345568" d="M155.604,97.93h-28.829c-1.475,0-2.67,1.194-2.67,2.67v15.584c0,1.477,1.195,2.672,2.67,2.672h0.004v3.733
			l3.449-3.733h25.376c1.478,0,2.671-1.195,2.671-2.672V100.6C158.275,99.125,157.081,97.93,155.604,97.93z"/>
		<g>
			<g>
				<circle fill="#FFFFFF" cx="135.955" cy="108.393" r="1.206"/>
			</g>
			<g>
				<circle fill="#FFFFFF" cx="141.191" cy="108.393" r="1.206"/>
			</g>
			<g>
				<circle fill="#FFFFFF" cx="146.427" cy="108.393" r="1.205"/>
			</g>
		</g>
	</g>
	<g>
		<path fill="#345568" d="M126.084,141.868H97.253c-1.475,0-2.671,1.195-2.671,2.672v15.583c0,1.476,1.196,2.67,2.671,2.67h0.005
			v3.736l3.449-3.736h25.377c1.477,0,2.672-1.194,2.672-2.67V144.54C128.756,143.063,127.561,141.868,126.084,141.868z"/>
		<g>
			<g>
				<circle fill="#FFFFFF" cx="106.433" cy="152.33" r="1.205"/>
			</g>
			<g>
				<circle fill="#FFFFFF" cx="111.668" cy="152.33" r="1.206"/>
			</g>
			<g>
				<circle fill="#FFFFFF" cx="116.905" cy="152.33" r="1.205"/>
			</g>
		</g>
	</g>
	<g>
		<path fill="#345568" d="M103.943,180.586H75.112c-1.475,0-2.672,1.195-2.672,2.672v15.584c0,1.478,1.197,2.673,2.672,2.673h0.004
			v3.732l3.447-3.732h25.38c1.476,0,2.672-1.195,2.672-2.673v-15.584C106.615,181.781,105.418,180.586,103.943,180.586z"/>
		<g>
			<g>
				<circle fill="#FFFFFF" cx="84.292" cy="191.05" r="1.205"/>
			</g>
			<g>
				<circle fill="#FFFFFF" cx="89.528" cy="191.05" r="1.206"/>
			</g>
			<g>
				<circle fill="#FFFFFF" cx="94.763" cy="191.05" r="1.205"/>
			</g>
		</g>
	</g>
	<g>
		<path fill="#345568" d="M166.252,249.734h-28.829c-1.478,0-2.672,1.197-2.672,2.672v15.584c0,1.475,1.194,2.67,2.672,2.67h0.003
			v3.735l3.45-3.735h25.376c1.476,0,2.671-1.195,2.671-2.67v-15.584C168.923,250.932,167.728,249.734,166.252,249.734z"/>
		<g>
			<g>
				<circle fill="#FFFFFF" cx="146.602" cy="260.198" r="1.206"/>
			</g>
			<g>
				<circle fill="#FFFFFF" cx="151.837" cy="260.198" r="1.205"/>
			</g>
			<g>
				<circle fill="#FFFFFF" cx="157.073" cy="260.198" r="1.205"/>
			</g>
		</g>
	</g>
	<g>
		<path fill="#345568" d="M184.695,211.977h-28.831c-1.475,0-2.672,1.196-2.672,2.672v15.586c0,1.475,1.197,2.67,2.672,2.67h0.003
			v3.734l3.448-3.734h25.38c1.477,0,2.672-1.195,2.672-2.67v-15.586C187.366,213.174,186.171,211.977,184.695,211.977z"/>
		<g>
			<g>
				<circle fill="#FFFFFF" cx="165.044" cy="222.441" r="1.205"/>
			</g>
			<g>
				<circle fill="#FFFFFF" cx="170.279" cy="222.441" r="1.206"/>
			</g>
			<g>
				<circle fill="#FFFFFF" cx="175.515" cy="222.441" r="1.205"/>
			</g>
		</g>
	</g>
	<g>
		<path fill="#345568" d="M113.207,227.381H84.378c-1.477,0-2.672,1.197-2.672,2.673v15.584c0,1.475,1.195,2.67,2.672,2.67h0.004
			v3.734l3.45-3.734h25.375c1.476,0,2.671-1.195,2.671-2.67v-15.584C115.878,228.578,114.683,227.381,113.207,227.381z"/>
		<g>
			<g>
				<circle fill="#FFFFFF" cx="93.558" cy="237.845" r="1.206"/>
			</g>
			<g>
				<circle fill="#FFFFFF" cx="98.793" cy="237.845" r="1.205"/>
			</g>
			<g>
				<circle fill="#FFFFFF" cx="104.028" cy="237.845" r="1.205"/>
			</g>
		</g>
	</g>
	<g>
		<path fill="#345568" d="M109.177,269.338H80.349c-1.477,0-2.672,1.195-2.672,2.671v15.585c0,1.476,1.195,2.672,2.672,2.672h0.003
			v3.732l3.447-3.732h25.378c1.476,0,2.672-1.196,2.672-2.672V272.01C111.849,270.533,110.652,269.338,109.177,269.338z"/>
		<g>
			<g>
				<circle fill="#FFFFFF" cx="89.528" cy="279.801" r="1.206"/>
			</g>
			<g>
				<circle fill="#FFFFFF" cx="94.763" cy="279.801" r="1.205"/>
			</g>
			<g>
				<circle fill="#FFFFFF" cx="99.998" cy="279.801" r="1.205"/>
			</g>
		</g>
	</g>
	<g>
		<path fill="#345568" d="M182.575,289.867h-28.828c-1.477,0-2.672,1.196-2.672,2.67v15.584c0,1.478,1.195,2.674,2.672,2.674h0.002
			v3.732l3.447-3.732h25.379c1.477,0,2.672-1.196,2.672-2.674v-15.584C185.247,291.063,184.052,289.867,182.575,289.867z"/>
		<g>
			<g>
				<circle fill="#FFFFFF" cx="162.926" cy="300.33" r="1.206"/>
			</g>
			<g>
				<circle fill="#FFFFFF" cx="168.161" cy="300.33" r="1.205"/>
			</g>
			<g>
				<circle fill="#FFFFFF" cx="173.397" cy="300.33" r="1.205"/>
			</g>
		</g>
	</g>
	<g>
		<path fill="#345568" d="M208.05,320.816h-28.828c-1.477,0-2.672,1.196-2.672,2.671v15.585c0,1.476,1.195,2.67,2.672,2.67h0.002
			v3.734l3.45-3.734h25.376c1.477,0,2.672-1.194,2.672-2.67v-15.585C210.722,322.013,209.526,320.816,208.05,320.816z"/>
		<g>
			<g>
				<circle fill="#FFFFFF" cx="188.4" cy="331.279" r="1.206"/>
			</g>
			<g>
				<path fill="#FFFFFF" d="M194.84,331.279c0,0.666-0.54,1.205-1.202,1.205c-0.668,0-1.206-0.539-1.206-1.205
					c0-0.665,0.538-1.205,1.206-1.205C194.3,330.074,194.84,330.614,194.84,331.279z"/>
			</g>
			<g>
				<path fill="#FFFFFF" d="M200.076,331.279c0,0.666-0.54,1.205-1.206,1.205c-0.662,0-1.202-0.539-1.202-1.205
					c0-0.665,0.54-1.205,1.202-1.205C199.536,330.074,200.076,330.614,200.076,331.279z"/>
			</g>
		</g>
	</g>
	<g>
		<path fill="#345568" d="M236.846,224.31h-28.831c-1.475,0-2.672,1.194-2.672,2.67v15.585c0,1.475,1.197,2.672,2.672,2.672h0.003
			v3.732l3.447-3.732h25.381c1.476,0,2.671-1.197,2.671-2.672V226.98C239.517,225.505,238.321,224.31,236.846,224.31z"/>
		<g>
			<g>
				<path fill="#FFFFFF" d="M218.399,234.773c0,0.664-0.539,1.202-1.206,1.202c-0.664,0-1.201-0.538-1.201-1.202
					c0-0.667,0.537-1.207,1.201-1.207C217.86,233.566,218.399,234.106,218.399,234.773z"/>
			</g>
			<g>
				<path fill="#FFFFFF" d="M223.636,234.773c0,0.664-0.539,1.202-1.205,1.202c-0.667,0-1.206-0.538-1.206-1.202
					c0-0.667,0.539-1.207,1.206-1.207C223.097,233.566,223.636,234.106,223.636,234.773z"/>
			</g>
			<g>
				<path fill="#FFFFFF" d="M228.87,234.773c0,0.664-0.539,1.202-1.203,1.202c-0.666,0-1.206-0.538-1.206-1.202
					c0-0.667,0.54-1.207,1.206-1.207C228.331,233.566,228.87,234.106,228.87,234.773z"/>
			</g>
		</g>
	</g>
	<g>
		<path fill="#345568" d="M321.857,252.809h-28.829c-1.475,0-2.671,1.194-2.671,2.67v15.585c0,1.475,1.196,2.671,2.671,2.671h0.003
			v3.732l3.449-3.732h25.377c1.476,0,2.672-1.196,2.672-2.671v-15.585C324.529,254.004,323.332,252.809,321.857,252.809z"/>
		<g>
			<g>
				<circle fill="#FFFFFF" cx="302.208" cy="263.271" r="1.205"/>
			</g>
			<g>
				<circle fill="#FFFFFF" cx="307.442" cy="263.271" r="1.205"/>
			</g>
			<g>
				<circle fill="#FFFFFF" cx="312.679" cy="263.271" r="1.205"/>
			</g>
		</g>
	</g>
	<g>
		<g>
			<circle fill="#FFFFFF" cx="290.356" cy="228.04" r="1.205"/>
		</g>
		<g>
			<circle fill="#FFFFFF" cx="295.592" cy="228.04" r="1.205"/>
		</g>
		<g>
			<circle fill="#FFFFFF" cx="300.827" cy="228.04" r="1.205"/>
		</g>
	</g>
</g>
<g id="orange">
	<g>
		<path fill="#F48272" d="M258.265,61.636h-28.829c-1.476,0-2.671,1.195-2.671,2.672v15.584c0,1.475,1.195,2.672,2.671,2.672h25.379
			l3.447,3.732v-3.732h0.003c1.477,0,2.672-1.197,2.672-2.672V64.308C260.937,62.832,259.74,61.636,258.265,61.636z"/>
		<g>
			<g>
				<circle fill="#FFFFFF" cx="243.851" cy="72.1" r="1.205"/>
			</g>
		</g>
	</g>
	<g>
		<path fill="#F48272" d="M227.252,97.266h-28.829c-1.477,0-2.671,1.194-2.671,2.672v15.584c0,1.475,1.194,2.672,2.671,2.672h25.378
			l3.447,3.733v-3.733h0.004c1.476,0,2.672-1.197,2.672-2.672V99.938C229.924,98.461,228.728,97.266,227.252,97.266z"/>
		<g>
			<g>
				<circle fill="#FFFFFF" cx="212.837" cy="107.729" r="1.206"/>
			</g>
		</g>
	</g>
	<g>
		<path fill="#F48272" d="M174.048,61.566H145.22c-1.477,0-2.672,1.195-2.672,2.67v15.585c0,1.477,1.195,2.671,2.672,2.671h25.376
			l3.449,3.734v-3.734h0.003c1.475,0,2.672-1.194,2.672-2.671V64.236C176.72,62.762,175.522,61.566,174.048,61.566z"/>
		<g>
			<g>
				<circle fill="#FFFFFF" cx="159.633" cy="72.029" r="1.205"/>
			</g>
		</g>
	</g>
	<g>
		<path fill="#F48272" d="M239.255,139.258h-28.829c-1.475,0-2.671,1.197-2.671,2.673v15.584c0,1.476,1.196,2.673,2.671,2.673
			h25.379l3.447,3.73v-3.73h0.003c1.477,0,2.672-1.197,2.672-2.673V141.93C241.927,140.455,240.731,139.258,239.255,139.258z"/>
		<g>
			<g>
				<circle fill="#FFFFFF" cx="224.841" cy="149.723" r="1.205"/>
			</g>
		</g>
	</g>
	<g>
		<path fill="#F48272" d="M287.619,128.875h-28.831c-1.477,0-2.671,1.197-2.671,2.672v15.583c0,1.478,1.194,2.673,2.671,2.673
			h25.379l3.449,3.734v-3.734h0.003c1.474,0,2.671-1.195,2.671-2.673v-15.583C290.29,130.072,289.093,128.875,287.619,128.875z"/>
		<g>
			<g>
				<circle fill="#FFFFFF" cx="273.205" cy="139.34" r="1.206"/>
			</g>
		</g>
	</g>
	<g>
		<path fill="#F48272" d="M308.802,164.582h-28.831c-1.476,0-2.672,1.195-2.672,2.672v15.582c0,1.478,1.196,2.672,2.672,2.672
			h25.379l3.449,3.734v-3.734h0.003c1.475,0,2.672-1.194,2.672-2.672v-15.582C311.474,165.777,310.276,164.582,308.802,164.582z"/>
		<g>
			<g>
				<circle fill="#FFFFFF" cx="294.386" cy="175.046" r="1.206"/>
			</g>
		</g>
	</g>
	<g>
		<path fill="#F48272" d="M298.005,93.284h-28.831c-1.477,0-2.672,1.195-2.672,2.671v15.584c0,1.476,1.196,2.672,2.672,2.672h25.381
			l3.446,3.732v-3.732h0.004c1.474,0,2.671-1.196,2.671-2.672V95.955C300.676,94.479,299.479,93.284,298.005,93.284z"/>
		<g>
			<g>
				<circle fill="#FFFFFF" cx="283.588" cy="103.748" r="1.206"/>
			</g>
		</g>
	</g>
	<g>
		<path fill="#F48272" d="M262.146,178.719h-28.831c-1.476,0-2.672,1.196-2.672,2.672v15.584c0,1.475,1.196,2.672,2.672,2.672h25.38
			l3.448,3.732v-3.732h0.003c1.475,0,2.671-1.197,2.671-2.672v-15.584C264.816,179.916,263.619,178.719,262.146,178.719z"/>
		<g>
			<g>
				<circle fill="#FFFFFF" cx="247.729" cy="189.183" r="1.206"/>
			</g>
		</g>
	</g>
	<g>
		<path fill="#F48272" d="M181.372,121.883h-28.831c-1.477,0-2.672,1.195-2.672,2.673v15.582c0,1.477,1.195,2.672,2.672,2.672
			h25.379l3.449,3.734v-3.734h0.003c1.474,0,2.672-1.195,2.672-2.672v-15.582C184.044,123.078,182.846,121.883,181.372,121.883z"/>
		<g>
			<g>
				<circle fill="#FFFFFF" cx="166.957" cy="132.346" r="1.206"/>
			</g>
		</g>
	</g>
	<g>
		<path fill="#F48272" d="M85.65,133.934H56.821c-1.477,0-2.672,1.196-2.672,2.672v15.584c0,1.477,1.195,2.672,2.672,2.672h25.376
			l3.449,3.734v-3.734h0.004c1.477,0,2.672-1.195,2.672-2.672v-15.584C88.322,135.131,87.126,133.934,85.65,133.934z"/>
		<g>
			<g>
				<circle fill="#FFFFFF" cx="71.235" cy="144.397" r="1.205"/>
			</g>
		</g>
	</g>
	<g>
		<path fill="#F48272" d="M159.638,169.801h-28.832c-1.475,0-2.67,1.195-2.67,2.673v15.583c0,1.476,1.195,2.672,2.67,2.672h25.382
			l3.446,3.732v-3.732h0.004c1.473,0,2.672-1.196,2.672-2.672v-15.583C162.31,170.996,161.11,169.801,159.638,169.801z"/>
		<g>
			<g>
				<circle fill="#FFFFFF" cx="145.222" cy="180.264" r="1.205"/>
			</g>
		</g>
	</g>
	<g>
		<path fill="#F48272" d="M260.939,310.796h-28.83c-1.475,0-2.67,1.195-2.67,2.671v15.583c0,1.477,1.195,2.672,2.67,2.672h25.378
			l3.449,3.733v-3.733h0.003c1.477,0,2.672-1.195,2.672-2.672v-15.583C263.611,311.991,262.415,310.796,260.939,310.796z"/>
		<g>
			<g>
				<circle fill="#FFFFFF" cx="246.524" cy="321.259" r="1.205"/>
			</g>
		</g>
	</g>
	<g>
		<path fill="#F48272" d="M278.026,249.074h-28.829c-1.477,0-2.672,1.195-2.672,2.672v15.582c0,1.478,1.195,2.672,2.672,2.672
			h25.378l3.448,3.734V270h0.003c1.477,0,2.671-1.194,2.671-2.672v-15.582C280.697,250.27,279.502,249.074,278.026,249.074z"/>
		<g>
			<g>
				<circle fill="#FFFFFF" cx="263.611" cy="259.537" r="1.205"/>
			</g>
		</g>
	</g>
	<g>
		<path fill="#F48272" d="M347.007,189.183h-28.83c-1.477,0-2.672,1.195-2.672,2.672v15.584c0,1.475,1.195,2.67,2.672,2.67h25.378
			l3.449,3.735v-3.735h0.003c1.474,0,2.672-1.195,2.672-2.67v-15.584C349.679,190.379,348.48,189.183,347.007,189.183z"/>
		<g>
			<g>
				<circle fill="#FFFFFF" cx="332.592" cy="199.646" r="1.206"/>
			</g>
		</g>
	</g>
</g>
</svg>
