<?xml version="1.0" encoding="utf-8"?>
<!-- Generator: Adobe Illustrator 16.0.0, SVG Export Plug-In . SVG Version: 6.00 Build 0)  -->
<!DOCTYPE svg PUBLIC "-//W3C//DTD SVG 1.1//EN" "http://www.w3.org/Graphics/SVG/1.1/DTD/svg11.dtd">
<svg version="1.1" id="Layer_1" xmlns="http://www.w3.org/2000/svg" xmlns:xlink="http://www.w3.org/1999/xlink" x="0px" y="0px"
	 width="401px" height="401px" viewBox="0 0 401 401" enable-background="new 0 0 401 401" xml:space="preserve">
<g id="circles">
	<g>
		<circle fill="#D7DFE2" cx="201.166" cy="200.028" r="117.137"/>
	</g>
	<g>
		<path fill="#F48272" d="M205.372,336.42c-0.666,0-1.219-0.531-1.238-1.205c-0.021-0.685,0.517-1.256,1.201-1.275
			c3.267-0.1,6.562-0.32,9.8-0.656c0.665-0.062,1.288,0.427,1.359,1.105c0.069,0.68-0.425,1.291-1.104,1.361
			c-3.295,0.34-6.652,0.565-9.979,0.665C205.398,336.42,205.385,336.42,205.372,336.42z M195.46,336.362c-0.018,0-0.035,0-0.053,0
			c-3.324-0.139-6.68-0.399-9.972-0.776c-0.681-0.08-1.169-0.695-1.09-1.375c0.078-0.681,0.705-1.166,1.373-1.091
			c3.232,0.373,6.526,0.632,9.791,0.767c0.685,0.026,1.215,0.604,1.188,1.289C196.67,335.842,196.121,336.362,195.46,336.362z
			 M225.075,334.374c-0.59,0-1.11-0.42-1.219-1.021c-0.12-0.676,0.329-1.32,1.002-1.439c3.212-0.571,6.44-1.272,9.598-2.079
			c0.662-0.171,1.338,0.229,1.508,0.895s-0.229,1.338-0.894,1.508c-3.216,0.822-6.505,1.535-9.774,2.119
			C225.222,334.366,225.147,334.374,225.075,334.374z M175.782,334.101c-0.076,0-0.155-0.006-0.232-0.021
			c-3.262-0.618-6.542-1.366-9.752-2.227c-0.662-0.178-1.055-0.855-0.878-1.518c0.178-0.662,0.854-1.054,1.519-0.877
			c3.152,0.842,6.373,1.577,9.574,2.188c0.672,0.127,1.113,0.775,0.986,1.449C176.886,333.688,176.366,334.101,175.782,334.101z
			 M244.269,329.467c-0.518,0-1-0.326-1.175-0.847c-0.219-0.647,0.131-1.352,0.78-1.569c3.082-1.033,6.17-2.201,9.176-3.465
			c0.633-0.269,1.358,0.03,1.623,0.663c0.267,0.63-0.031,1.357-0.663,1.623c-3.062,1.287-6.206,2.476-9.347,3.527
			C244.533,329.446,244.399,329.467,244.269,329.467z M156.644,328.979c-0.137,0-0.272-0.021-0.408-0.07
			c-3.135-1.094-6.273-2.317-9.327-3.643c-0.63-0.271-0.917-1.002-0.646-1.631c0.271-0.627,1.002-0.918,1.631-0.644
			c2.998,1.301,6.08,2.502,9.159,3.576c0.646,0.228,0.987,0.932,0.761,1.578C157.636,328.659,157.156,328.979,156.644,328.979z
			 M262.513,321.797c-0.451,0-0.887-0.246-1.104-0.677c-0.312-0.61-0.069-1.356,0.54-1.668c2.904-1.481,5.789-3.09,8.575-4.776
			c0.583-0.355,1.348-0.17,1.701,0.418c0.354,0.584,0.168,1.348-0.417,1.701c-2.837,1.721-5.772,3.356-8.732,4.866
			C262.896,321.754,262.703,321.797,262.513,321.797z M138.449,321.09c-0.193,0-0.392-0.047-0.573-0.144
			c-2.944-1.545-5.867-3.215-8.689-4.973c-0.582-0.361-0.759-1.125-0.396-1.709c0.361-0.582,1.127-0.758,1.708-0.396
			c2.77,1.724,5.64,3.363,8.528,4.879c0.607,0.318,0.842,1.068,0.522,1.677C139.327,320.847,138.897,321.09,138.449,321.09z
			 M279.446,311.53c-0.388,0-0.77-0.182-1.012-0.521c-0.396-0.558-0.266-1.332,0.292-1.729c2.655-1.889,5.275-3.9,7.79-5.979
			c0.525-0.438,1.311-0.364,1.744,0.164c0.438,0.525,0.363,1.31-0.164,1.744c-2.561,2.119-5.229,4.169-7.934,6.091
			C279.946,311.456,279.694,311.53,279.446,311.53z M121.617,310.618c-0.254,0-0.51-0.078-0.729-0.239
			c-2.688-1.957-5.334-4.04-7.867-6.185c-0.521-0.441-0.587-1.223-0.145-1.746s1.224-0.586,1.748-0.145
			c2.484,2.104,5.085,4.147,7.725,6.072c0.553,0.401,0.675,1.178,0.271,1.731C122.377,310.442,122,310.618,121.617,310.618z
			 M294.708,298.901c-0.325,0-0.651-0.127-0.896-0.383c-0.475-0.492-0.457-1.277,0.037-1.752c2.354-2.257,4.656-4.629,6.839-7.052
			c0.461-0.51,1.243-0.551,1.753-0.09c0.509,0.457,0.55,1.242,0.09,1.75c-2.225,2.47-4.566,4.883-6.966,7.183
			C295.325,298.786,295.017,298.901,294.708,298.901z M106.495,297.808c-0.312,0-0.627-0.115-0.868-0.354
			c-2.375-2.33-4.69-4.771-6.882-7.26c-0.451-0.514-0.403-1.297,0.11-1.75c0.515-0.453,1.297-0.402,1.75,0.111
			c2.152,2.442,4.425,4.842,6.758,7.127c0.488,0.479,0.496,1.266,0.018,1.754C107.138,297.685,106.817,297.808,106.495,297.808z
			 M307.978,284.185c-0.267,0-0.534-0.084-0.761-0.261c-0.541-0.42-0.638-1.196-0.218-1.739c2.005-2.576,3.938-5.261,5.744-7.974
			c0.38-0.571,1.15-0.723,1.719-0.344c0.57,0.379,0.724,1.148,0.344,1.719c-1.84,2.763-3.809,5.496-5.85,8.121
			C308.712,284.021,308.347,284.185,307.978,284.185z M93.401,282.944c-0.375,0-0.745-0.17-0.987-0.49
			c-2.011-2.646-3.945-5.399-5.753-8.182c-0.373-0.574-0.211-1.344,0.364-1.717c0.573-0.371,1.343-0.209,1.714,0.364
			c1.775,2.732,3.677,5.435,5.648,8.033c0.413,0.545,0.307,1.324-0.238,1.736C93.925,282.862,93.662,282.944,93.401,282.944z
			 M318.966,267.688c-0.207,0-0.417-0.054-0.61-0.16c-0.595-0.338-0.806-1.094-0.469-1.689c1.606-2.844,3.127-5.778,4.52-8.729
			c0.29-0.619,1.029-0.883,1.648-0.592c0.618,0.293,0.884,1.03,0.593,1.649c-1.417,3.006-2.965,5.996-4.603,8.894
			C319.817,267.462,319.397,267.688,318.966,267.688z M82.612,266.337c-0.438,0-0.86-0.229-1.088-0.643
			c-1.599-2.908-3.109-5.912-4.491-8.93c-0.285-0.623-0.011-1.357,0.611-1.644c0.62-0.281,1.357-0.012,1.644,0.611
			c1.355,2.961,2.841,5.912,4.408,8.768c0.331,0.599,0.111,1.353-0.487,1.685C83.019,266.288,82.814,266.337,82.612,266.337z
			 M327.426,249.753c-0.148,0-0.3-0.026-0.446-0.082c-0.639-0.246-0.957-0.963-0.712-1.604c1.173-3.049,2.243-6.18,3.186-9.303
			c0.198-0.656,0.89-1.023,1.544-0.83c0.656,0.198,1.026,0.891,0.831,1.547c-0.959,3.18-2.053,6.369-3.245,9.477
			C328.393,249.45,327.923,249.753,327.426,249.753z M74.373,248.341c-0.504,0-0.979-0.309-1.161-0.809
			c-1.156-3.111-2.21-6.307-3.134-9.5c-0.19-0.658,0.188-1.346,0.845-1.535c0.656-0.19,1.346,0.188,1.535,0.846
			c0.908,3.138,1.942,6.273,3.077,9.326c0.237,0.642-0.09,1.355-0.731,1.595C74.661,248.315,74.517,248.341,74.373,248.341z
			 M333.15,230.774c-0.089,0-0.18-0.012-0.271-0.029c-0.667-0.147-1.089-0.811-0.941-1.479c0.707-3.179,1.307-6.427,1.779-9.658
			c0.1-0.676,0.722-1.142,1.407-1.047c0.677,0.098,1.146,0.729,1.046,1.405c-0.481,3.291-1.092,6.601-1.812,9.839
			C334.23,230.382,333.719,230.774,333.15,230.774z M68.864,229.31c-0.572,0-1.088-0.398-1.212-0.984
			c-0.687-3.252-1.259-6.568-1.701-9.854c-0.092-0.681,0.385-1.304,1.062-1.396c0.674-0.104,1.303,0.385,1.395,1.064
			c0.436,3.225,0.996,6.479,1.671,9.676c0.142,0.67-0.287,1.328-0.958,1.469C69.034,229.302,68.948,229.31,68.864,229.31z
			 M336.021,211.173c-0.029,0-0.061,0-0.091-0.002c-0.683-0.051-1.196-0.645-1.146-1.327c0.234-3.24,0.354-6.541,0.354-9.814
			c0-0.684,0.555-1.238,1.239-1.238c0.686,0,1.24,0.556,1.24,1.238c0,3.332-0.122,6.695-0.361,9.994
			C337.208,210.675,336.664,211.173,336.021,211.173z M66.211,209.681c-0.651,0-1.196-0.507-1.237-1.166
			c-0.173-2.804-0.26-5.654-0.26-8.486c0-0.504,0.004-1.01,0.008-1.512c0.009-0.687,0.594-1.209,1.254-1.228
			c0.687,0.008,1.232,0.568,1.228,1.252c-0.007,0.496-0.009,0.992-0.009,1.486c0,2.779,0.084,5.582,0.256,8.336
			c0.042,0.682-0.479,1.271-1.162,1.314C66.263,209.681,66.235,209.681,66.211,209.681z M336.203,194.36
			c-0.655,0-1.204-0.514-1.237-1.176c-0.165-3.269-0.45-6.56-0.85-9.783c-0.086-0.68,0.396-1.299,1.075-1.383
			c0.678-0.08,1.301,0.397,1.384,1.078c0.407,3.282,0.699,6.635,0.866,9.963c0.035,0.686-0.49,1.266-1.176,1.301
			C336.246,194.36,336.224,194.36,336.203,194.36z M66.43,189.868c-0.034,0-0.068,0-0.104-0.004
			c-0.684-0.057-1.189-0.654-1.134-1.338c0.277-3.316,0.681-6.66,1.197-9.932c0.106-0.675,0.748-1.14,1.418-1.031
			c0.676,0.106,1.138,0.742,1.03,1.418c-0.507,3.213-0.902,6.492-1.175,9.752C67.609,189.38,67.067,189.868,66.43,189.868z
			 M333.767,174.704c-0.579,0-1.098-0.408-1.214-0.998c-0.639-3.201-1.403-6.416-2.273-9.555c-0.184-0.66,0.204-1.342,0.863-1.525
			c0.661-0.182,1.343,0.203,1.526,0.863c0.887,3.197,1.665,6.471,2.313,9.732c0.136,0.672-0.303,1.323-0.975,1.457
			C333.929,174.696,333.847,174.704,333.767,174.704z M69.518,170.304c-0.095,0-0.188-0.013-0.284-0.035
			c-0.665-0.156-1.079-0.822-0.924-1.49c0.759-3.234,1.646-6.48,2.641-9.646c0.204-0.653,0.896-1.021,1.554-0.813
			c0.654,0.205,1.019,0.902,0.812,1.555c-0.975,3.109-1.848,6.295-2.592,9.474C70.589,169.915,70.08,170.304,69.518,170.304z
			 M328.476,155.614c-0.508,0-0.984-0.316-1.168-0.822c-1.096-3.062-2.325-6.127-3.648-9.104c-0.278-0.627,0.005-1.359,0.629-1.64
			c0.626-0.278,1.357,0.005,1.638,0.632c1.348,3.032,2.6,6.153,3.718,9.274c0.23,0.646-0.104,1.355-0.749,1.586
			C328.755,155.591,328.615,155.614,328.476,155.614z M75.452,151.39c-0.152,0-0.309-0.027-0.458-0.088
			c-0.637-0.253-0.947-0.974-0.694-1.609c1.227-3.088,2.584-6.17,4.037-9.164c0.299-0.615,1.041-0.875,1.656-0.574
			c0.614,0.299,0.873,1.041,0.573,1.658c-1.427,2.936-2.759,5.963-3.963,8.996C76.411,151.094,75.945,151.39,75.452,151.39z
			 M320.44,137.526c-0.442,0-0.871-0.238-1.095-0.656c-1.538-2.871-3.202-5.723-4.948-8.477c-0.366-0.578-0.194-1.345,0.383-1.711
			c0.578-0.367,1.344-0.195,1.712,0.385c1.777,2.805,3.474,5.709,5.038,8.633c0.325,0.604,0.099,1.355-0.507,1.678
			C320.837,137.478,320.638,137.526,320.44,137.526z M84.108,133.55c-0.211,0-0.426-0.053-0.621-0.168
			c-0.592-0.342-0.794-1.102-0.45-1.69c1.669-2.877,3.464-5.729,5.334-8.471c0.389-0.566,1.159-0.709,1.725-0.326
			c0.566,0.385,0.711,1.155,0.324,1.723c-1.838,2.693-3.601,5.49-5.237,8.316C84.952,133.329,84.535,133.55,84.108,133.55z
			 M309.836,120.802c-0.379,0-0.753-0.175-0.995-0.505c-1.943-2.618-4.008-5.196-6.136-7.668c-0.445-0.518-0.39-1.301,0.13-1.748
			c0.52-0.446,1.301-0.389,1.748,0.13c2.167,2.516,4.27,5.145,6.249,7.812c0.405,0.549,0.292,1.326-0.26,1.734
			C310.353,120.724,310.093,120.802,309.836,120.802z M95.279,117.177c-0.271,0-0.542-0.091-0.771-0.271
			c-0.536-0.428-0.625-1.207-0.199-1.742c2.069-2.604,4.26-5.16,6.51-7.6c0.467-0.506,1.25-0.535,1.753-0.072
			c0.504,0.465,0.534,1.25,0.07,1.752c-2.21,2.396-4.359,4.908-6.394,7.463C96.005,117.015,95.644,117.177,95.279,117.177z
			 M296.906,105.792c-0.317,0-0.637-0.125-0.878-0.364c-2.307-2.312-4.724-4.566-7.188-6.699c-0.517-0.447-0.572-1.23-0.124-1.748
			c0.447-0.519,1.229-0.576,1.749-0.127c2.508,2.174,4.97,4.469,7.318,6.821c0.481,0.484,0.481,1.271-0.003,1.757
			C297.539,105.671,297.223,105.792,296.906,105.792z M108.711,102.606c-0.329,0-0.66-0.133-0.904-0.394
			c-0.469-0.498-0.442-1.284,0.057-1.754c2.42-2.266,4.957-4.477,7.542-6.569c0.533-0.431,1.312-0.347,1.743,0.186
			c0.432,0.532,0.35,1.312-0.185,1.744c-2.539,2.055-5.029,4.225-7.405,6.451C109.319,102.495,109.015,102.606,108.711,102.606z
			 M281.926,92.815c-0.259,0-0.518-0.08-0.739-0.246c-2.615-1.949-5.336-3.828-8.088-5.582c-0.576-0.369-0.746-1.135-0.378-1.713
			c0.368-0.576,1.135-0.744,1.711-0.377c2.804,1.787,5.574,3.699,8.236,5.686c0.549,0.41,0.662,1.187,0.253,1.734
			C282.678,92.644,282.304,92.815,281.926,92.815z M124.112,90.147c-0.392,0-0.777-0.187-1.019-0.533
			c-0.39-0.562-0.252-1.334,0.311-1.725c2.727-1.894,5.558-3.709,8.415-5.4c0.589-0.348,1.351-0.152,1.699,0.434
			c0.349,0.593,0.152,1.351-0.437,1.699c-2.808,1.662-5.587,3.445-8.264,5.303C124.604,90.075,124.357,90.147,124.112,90.147z
			 M265.212,82.159c-0.199,0-0.4-0.047-0.589-0.147c-2.876-1.552-5.844-3.011-8.817-4.341c-0.626-0.278-0.905-1.016-0.626-1.641
			c0.28-0.625,1.013-0.9,1.638-0.623c3.029,1.354,6.053,2.842,8.982,4.42c0.603,0.324,0.828,1.078,0.504,1.68
			C266.08,81.925,265.651,82.159,265.212,82.159z M141.156,80.069c-0.454,0-0.894-0.25-1.11-0.688
			c-0.304-0.612-0.054-1.354,0.561-1.661c2.979-1.478,6.043-2.857,9.111-4.109c0.632-0.256,1.357,0.047,1.614,0.682
			c0.26,0.636-0.046,1.357-0.682,1.615c-3.01,1.227-6.021,2.584-8.941,4.033C141.53,80.03,141.343,80.069,141.156,80.069z
			 M247.11,74.063c-0.141,0-0.28-0.021-0.422-0.072c-3.069-1.106-6.217-2.115-9.354-2.994c-0.66-0.184-1.045-0.867-0.859-1.524
			c0.186-0.66,0.865-1.045,1.527-0.863c3.194,0.896,6.399,1.922,9.526,3.051c0.646,0.232,0.979,0.941,0.746,1.586
			C248.095,73.751,247.617,74.063,247.11,74.063z M159.497,72.601c-0.525,0-1.012-0.332-1.182-0.859
			c-0.211-0.647,0.146-1.348,0.798-1.559c3.164-1.023,6.4-1.941,9.625-2.728c0.666-0.166,1.334,0.246,1.497,0.91
			s-0.243,1.336-0.909,1.498c-3.165,0.771-6.345,1.672-9.448,2.676C159.751,72.581,159.622,72.601,159.497,72.601z M228.032,68.728
			c-0.082,0-0.163-0.008-0.247-0.023c-3.194-0.646-6.453-1.18-9.69-1.588c-0.68-0.086-1.16-0.705-1.075-1.385
			c0.085-0.678,0.709-1.156,1.385-1.076c3.298,0.418,6.619,0.961,9.871,1.617c0.672,0.135,1.106,0.789,0.973,1.461
			C229.128,68.321,228.61,68.728,228.032,68.728z M178.741,67.909c-0.597,0-1.121-0.43-1.223-1.035
			c-0.113-0.676,0.343-1.315,1.02-1.428c3.271-0.547,6.606-0.979,9.92-1.283c0.688-0.074,1.285,0.438,1.348,1.119
			c0.064,0.682-0.438,1.285-1.121,1.348c-3.25,0.304-6.527,0.728-9.738,1.263C178.877,67.901,178.808,67.909,178.741,67.909z
			 M208.379,66.247c-0.021,0-0.045,0-0.065-0.002c-3.264-0.172-6.571-0.225-9.821-0.16c-0.011,0-0.018,0-0.026,0
			c-0.672,0-1.224-0.539-1.238-1.215c-0.012-0.686,0.53-1.252,1.216-1.264c3.312-0.064,6.68-0.012,9.999,0.162
			c0.686,0.035,1.21,0.619,1.176,1.303C209.582,65.733,209.034,66.247,208.379,66.247z"/>
	</g>
</g>
<g id="diagonal_x5F_line">
	<path fill="#F48272" d="M294.903,295.007c-0.316,0-0.635-0.12-0.876-0.362l-7.015-7.015c-0.484-0.483-0.484-1.268,0-1.752
		c0.484-0.485,1.27-0.485,1.754,0l7.013,7.015c0.484,0.481,0.484,1.27,0,1.752C295.537,294.886,295.22,295.007,294.903,295.007z
		 M280.877,280.983c-0.317,0-0.635-0.123-0.876-0.365l-7.015-7.016c-0.482-0.482-0.482-1.269,0-1.752
		c0.484-0.482,1.27-0.482,1.755,0l7.013,7.016c0.482,0.484,0.482,1.268,0,1.752C281.512,280.86,281.194,280.983,280.877,280.983z
		 M266.851,266.956c-0.315,0-0.633-0.121-0.876-0.363l-7.013-7.014c-0.484-0.483-0.484-1.27,0-1.754
		c0.483-0.482,1.269-0.482,1.754,0l7.013,7.014c0.483,0.484,0.483,1.271,0,1.754C267.486,266.835,267.168,266.956,266.851,266.956z
		 M252.826,252.929c-0.317,0-0.636-0.121-0.877-0.361l-7.013-7.014c-0.483-0.482-0.483-1.271,0-1.752
		c0.483-0.484,1.269-0.484,1.752,0l7.014,7.012c0.483,0.483,0.483,1.27,0,1.754C253.461,252.808,253.143,252.929,252.826,252.929z
		 M238.801,238.903c-0.317,0-0.634-0.121-0.876-0.361l-7.014-7.014c-0.484-0.484-0.484-1.268,0-1.752
		c0.483-0.484,1.269-0.484,1.753,0l7.014,7.012c0.483,0.484,0.483,1.269,0,1.754C239.436,238.782,239.118,238.903,238.801,238.903z
		 M224.775,224.878c-0.316,0-0.635-0.121-0.877-0.36l-7.013-7.015c-0.484-0.483-0.484-1.268,0-1.754
		c0.484-0.481,1.269-0.481,1.752,0l7.014,7.015c0.484,0.483,0.484,1.268,0,1.754C225.409,224.757,225.092,224.878,224.775,224.878z
		 M210.749,210.853c-0.317,0-0.635-0.121-0.877-0.363l-7.013-7.012c-0.483-0.484-0.483-1.271,0-1.754
		c0.483-0.482,1.269-0.482,1.752,0l7.015,7.014c0.483,0.482,0.483,1.268,0,1.752C211.384,210.731,211.067,210.853,210.749,210.853z
		 M196.724,196.827c-0.316,0-0.634-0.121-0.877-0.363l-7.013-7.012c-0.484-0.483-0.484-1.27,0-1.754
		c0.483-0.484,1.269-0.484,1.753,0l7.013,7.012c0.484,0.486,0.484,1.271,0,1.754C197.358,196.706,197.04,196.827,196.724,196.827z
		 M182.698,182.802c-0.317,0-0.635-0.121-0.877-0.363l-7.014-7.015c-0.482-0.481-0.482-1.268,0-1.752
		c0.484-0.483,1.271-0.483,1.754,0l7.012,7.013c0.485,0.483,0.485,1.27,0,1.754C183.331,182.681,183.015,182.802,182.698,182.802z
		 M168.671,168.774c-0.316,0-0.635-0.121-0.875-0.361l-7.013-7.014c-0.484-0.482-0.484-1.271,0-1.752
		c0.483-0.484,1.268-0.484,1.752,0l7.013,7.012c0.485,0.484,0.485,1.269,0,1.754C169.306,168.653,168.989,168.774,168.671,168.774z
		 M154.646,154.751c-0.315,0-0.633-0.119-0.877-0.362l-7.011-7.015c-0.485-0.483-0.485-1.268,0-1.752
		c0.484-0.483,1.269-0.483,1.753,0l7.012,7.012c0.484,0.484,0.484,1.271,0,1.755C155.28,154.632,154.962,154.751,154.646,154.751z
		 M140.62,140.726c-0.316,0-0.634-0.121-0.876-0.363l-7.014-7.014c-0.483-0.484-0.483-1.271,0-1.754
		c0.484-0.484,1.271-0.484,1.753,0l7.014,7.014c0.483,0.484,0.483,1.27,0,1.754C141.255,140.604,140.938,140.726,140.62,140.726z
		 M126.595,126.7c-0.316,0-0.633-0.121-0.876-0.363l-7.013-7.014c-0.484-0.484-0.484-1.268,0-1.754c0.483-0.484,1.27-0.484,1.753,0
		l7.013,7.014c0.484,0.484,0.484,1.271,0,1.754C127.229,126.579,126.912,126.7,126.595,126.7z M112.569,112.673
		c-0.316,0-0.635-0.118-0.877-0.362l-7.012-7.013c-0.484-0.483-0.484-1.27,0-1.754c0.484-0.483,1.268-0.483,1.752,0l7.014,7.015
		c0.484,0.481,0.484,1.27,0,1.752C113.204,112.554,112.887,112.673,112.569,112.673z"/>
</g>
<g id="magnifying_x5F_glass">
	<g>
		<path fill="#F48272" d="M24.48,168.733c0-31.701,25.698-57.398,57.4-57.398s57.4,25.697,57.4,57.398
			c0,31.703-25.698,57.404-57.4,57.404S24.48,200.437,24.48,168.733z"/>
	</g>
	<g>
		<g opacity="0.6">
			<circle fill="#FFFFFF" cx="68.609" cy="155.464" r="15.855"/>
		</g>
		<g>
			<path fill="#345568" d="M113.64,195.237l-20.951-20.953c-1.142-1.143-2.842-1.372-4.223-0.714l-6.936-6.936
				c2.692-3.106,4.176-7.021,4.176-11.171c0-4.564-1.78-8.858-5.01-12.088c-3.229-3.23-7.521-5.008-12.088-5.008
				c-4.567,0-8.859,1.778-12.089,5.008c-6.666,6.666-6.666,17.513,0,24.177c3.229,3.23,7.522,5.01,12.089,5.01
				c4.151,0,8.065-1.484,11.169-4.174l6.936,6.936c-0.656,1.381-0.427,3.079,0.717,4.22l20.951,20.951
				c0.725,0.728,1.677,1.092,2.629,1.092c0.951,0,1.904-0.364,2.629-1.092C115.093,199.044,115.093,196.688,113.64,195.237z
				 M58.273,165.798c-5.697-5.696-5.697-14.971,0-20.67c2.762-2.761,6.433-4.278,10.336-4.278c3.904,0,7.574,1.517,10.335,4.278
				c2.762,2.761,4.282,6.433,4.282,10.336c0,3.904-1.52,7.574-4.282,10.339c-2.761,2.758-6.431,4.278-10.335,4.278
				C64.706,170.081,61.034,168.56,58.273,165.798z"/>
			<path fill="#345568" d="M61.53,146.634c-0.482-0.483-1.268-0.483-1.752,0c-4.868,4.869-4.868,12.791,0,17.66
				c0.242,0.242,0.561,0.363,0.876,0.363c0.318,0,0.636-0.121,0.876-0.363c0.484-0.483,0.484-1.268,0-1.752
				c-3.9-3.903-3.9-10.254,0-14.155C62.014,147.902,62.014,147.118,61.53,146.634z"/>
		</g>
	</g>
</g>
<g id="man">
	<g>
		<path fill="#345568" d="M279.519,239.2c-1.127-11.027-9.802-19.456-20.375-20.689h0.009l-113.562-0.161l-0.016,0.117
			c-1.543-0.155-3.125-0.159-4.729,0.004c-11.028,1.127-19.456,9.804-20.688,20.376l-7.648,37.743
			c6.492,7.511,13.927,14.181,22.113,19.843l7.356-47.768c0.104-0.676,0.741-1.144,1.412-1.037c0.677,0.105,1.142,0.738,1.037,1.416
			l-7.534,48.919c18.453,12.136,40.534,19.205,64.271,19.205c32.339,0,61.616-13.104,82.812-34.294L279.519,239.2z M252.188,305.498
			l-5.592-53.889c-0.07-0.681,0.425-1.291,1.104-1.363c0.684-0.064,1.291,0.425,1.362,1.105l5.495,52.967"/>
	</g>
	<g>
		<path fill="#FFFFFF" d="M260.357,138.938c-1.312-0.671-2.729-0.906-4.093-0.769l2.475-13.076h-81.591l-16.927,93.256l5.97,30.504
			l74.84-30.366l12.6-66.404c3.63,1.855,8.078,0.42,9.934-3.209C265.421,145.241,263.984,140.794,260.357,138.938z"/>
		<path fill="#345568" d="M260.923,137.835c-2.052-1.05-4.388-1.235-6.578-0.526c-2.191,0.707-3.975,2.224-5.025,4.274
			c-0.311,0.609-0.069,1.357,0.539,1.668c0.608,0.313,1.357,0.072,1.669-0.537c0.747-1.463,2.019-2.543,3.58-3.049
			c1.562-0.504,3.226-0.369,4.688,0.377c3.012,1.543,4.209,5.25,2.667,8.269c-1.542,3.014-5.252,4.213-8.268,2.668
			c-0.608-0.308-1.356-0.068-1.669,0.543c-0.083,0.164-0.121,0.336-0.128,0.508c-0.079,0.128-0.141,0.27-0.169,0.427L239.81,221.96
			c-0.12,0.676,0.328,1.32,1.001,1.441c0.075,0.014,0.149,0.02,0.223,0.02c0.589,0,1.11-0.42,1.217-1.02l12.265-68.647
			c0.812,0.244,1.641,0.378,2.463,0.378c3.136,0,6.167-1.715,7.691-4.692C266.833,145.206,265.152,139.999,260.923,137.835z"/>
	</g>
	<g>
		<path fill="#345568" d="M201.553,160.929h-8.831c-0.442,0-0.852-0.236-1.073-0.619c-0.222-0.381-0.224-0.853-0.004-1.234
			l7.225-12.617c0.34-0.594,1.096-0.799,1.69-0.459c0.594,0.338,0.8,1.099,0.459,1.691l-6.16,10.76h6.694
			c0.686,0,1.241,0.555,1.241,1.238C202.794,160.374,202.238,160.929,201.553,160.929z"/>
	</g>
	<g>
		<path fill="#345568" d="M163.604,198.892c-0.077,0-0.151-0.006-0.229-0.021c-0.674-0.123-1.117-0.771-0.992-1.442l16.635-89.406
			c0.125-0.674,0.777-1.115,1.444-0.99c0.674,0.125,1.118,0.771,0.992,1.445l-16.635,89.403
			C164.709,198.474,164.188,198.892,163.604,198.892z"/>
	</g>
	<g>
		<g>
			<path fill="#F48272" d="M208.881,134.675c-0.532,0-1.025-0.346-1.188-0.883c-0.195-0.655,0.177-1.348,0.832-1.545l19.305-5.787
				c0.653-0.196,1.347,0.177,1.543,0.832c0.195,0.656-0.177,1.349-0.831,1.543l-19.305,5.789
				C209.119,134.659,208.999,134.675,208.881,134.675z"/>
		</g>
		<g>
			<path fill="#F48272" d="M192.722,134.675c-0.117,0-0.238-0.016-0.356-0.051l-19.308-5.789c-0.656-0.194-1.028-0.887-0.832-1.543
				c0.197-0.655,0.89-1.024,1.543-0.832l19.31,5.787c0.655,0.197,1.027,0.89,0.831,1.545
				C193.747,134.329,193.254,134.675,192.722,134.675z"/>
		</g>
	</g>
	<g>
		<path fill="none" stroke="#345568" stroke-width="3" stroke-linecap="round" stroke-linejoin="round" stroke-miterlimit="10" d="
			M189.233,228.132"/>
	</g>
	<g>
		<path fill="none" stroke="#345568" stroke-width="3" stroke-linecap="round" stroke-linejoin="round" stroke-miterlimit="10" d="
			M189.233,228.132"/>
	</g>
	<g>
		<path fill="#F48272" d="M260.163,122.37c1.287-0.065,2.121,0.908,1.855,2.17l-2.385,11.295c-0.266,1.261-1.528,2.15-2.805,1.98
			l-3.377-0.459c-1.277-0.172-2.536,0.719-2.799,1.979l-5.905,28.517c-0.262,1.264-1.515,2.473-2.783,2.688l-4.924,0.844
			c-1.271,0.22-2.146-0.646-1.946-1.918l6.872-43.85c0.199-1.272,1.416-2.369,2.702-2.436L260.163,122.37z"/>
	</g>
	<polygon fill="none" points="255.845,155.813 170.146,155.813 174.445,132.673 260.273,132.673 	"/>
	<path fill="#345568" d="M269.611,101.952h-94.01c-1.29,0-2.553,1.031-2.811,2.293l-3.778,18.551
		c-0.258,1.265,0.587,2.298,1.876,2.298h94.382c1.29,0,2.539-1.037,2.775-2.304l3.476-18.535
		C271.757,102.987,270.899,101.952,269.611,101.952z M187.532,106.831l-2.826,13.875c-0.119,0.59-0.638,0.994-1.214,0.994
		c-0.082,0-0.165-0.008-0.249-0.025c-0.672-0.135-1.104-0.791-0.968-1.463l2.826-13.877c0.136-0.67,0.79-1.104,1.463-0.967
		C187.235,105.505,187.668,106.159,187.532,106.831z M198.709,120.706c-0.12,0.59-0.637,0.994-1.213,0.994
		c-0.082,0-0.166-0.008-0.249-0.025c-0.671-0.135-1.104-0.791-0.969-1.463l2.826-13.877c0.138-0.67,0.79-1.104,1.463-0.967
		c0.671,0.137,1.104,0.791,0.969,1.463L198.709,120.706z M215.538,106.831l-2.826,13.875c-0.119,0.59-0.636,0.994-1.213,0.994
		c-0.082,0-0.166-0.008-0.25-0.025c-0.67-0.135-1.104-0.791-0.966-1.463l2.824-13.877c0.139-0.67,0.79-1.104,1.464-0.967
		C215.243,105.505,215.675,106.159,215.538,106.831z M229.541,106.831l-2.825,13.875c-0.12,0.59-0.637,0.994-1.214,0.994
		c-0.082,0-0.165-0.008-0.249-0.025c-0.672-0.135-1.104-0.791-0.967-1.463l2.825-13.877c0.137-0.67,0.789-1.104,1.463-0.967
		C229.245,105.505,229.678,106.159,229.541,106.831z M243.545,106.831l-2.827,13.875c-0.119,0.59-0.636,0.994-1.212,0.994
		c-0.083,0-0.167-0.008-0.25-0.025c-0.671-0.135-1.104-0.791-0.967-1.463l2.827-13.877c0.136-0.67,0.786-1.104,1.461-0.967
		C243.248,105.505,243.681,106.159,243.545,106.831z M257.548,106.831l-2.826,13.875c-0.12,0.59-0.637,0.994-1.213,0.994
		c-0.083,0-0.166-0.008-0.25-0.025c-0.67-0.135-1.104-0.791-0.967-1.463l2.826-13.877c0.138-0.67,0.786-1.104,1.463-0.967
		C257.252,105.505,257.685,106.159,257.548,106.831z"/>
	<g>
		<path fill="#345568" d="M194.087,206.122c-0.687,0-1.241-0.555-1.241-1.24c0-4.666-3.797-8.463-8.464-8.463
			c-0.685,0-1.238-0.555-1.238-1.239s0.556-1.24,1.238-1.24c6.035,0,10.943,4.91,10.943,10.942
			C195.325,205.567,194.771,206.122,194.087,206.122z"/>
	</g>
	<g>
		<circle fill="#345568" cx="211.498" cy="176.04" r="4.545"/>
	</g>
	<path fill="#345568" d="M263.852,99.552l0.336-1.968c2.604-15.239-7.914-27.709-23.378-27.709h-25.16
		c-15.463,0-30.372,12.447-33.133,27.662l-0.365,2.015H263.852z"/>
	<polygon fill="#345568" points="260.303,132.673 257.4,132.673 249.176,132.673 175.996,132.673 171.282,155.813 253.63,155.813 
		256.522,138.061 259.315,137.349 	"/>
	<g>
		<g>
			<g>
				<path fill="#FFFFFF" d="M192.392,144.243c0,2.213-1.797,4.008-4.01,4.008h-10.625c-2.214,0-4.009-1.795-4.009-4.008l0,0
					c0-2.215,1.795-4.01,4.009-4.01h10.625C190.595,140.233,192.392,142.028,192.392,144.243L192.392,144.243z"/>
			</g>
			<g>
				<path fill="#FFFFFF" d="M227.802,144.243c0,2.201-1.785,3.984-3.985,3.984h-10.564c-2.202,0-3.986-1.783-3.986-3.984l0,0
					c0-2.201,1.784-3.988,3.986-3.988h10.564C226.017,140.255,227.802,142.042,227.802,144.243L227.802,144.243z"/>
			</g>
		</g>
		<g>
			<path fill="#345568" d="M185.903,144.243c0-1.563-1.271-2.834-2.836-2.834c-1.562,0-2.832,1.271-2.832,2.834
				c0,1.562,1.271,2.83,2.832,2.83C184.632,147.073,185.903,145.806,185.903,144.243z"/>
		</g>
		<g>
			<path fill="#345568" d="M221.368,144.243c0-1.563-1.271-2.834-2.836-2.834c-1.562,0-2.832,1.271-2.832,2.834
				c0,1.562,1.271,2.83,2.832,2.83C220.099,147.073,221.368,145.806,221.368,144.243z"/>
		</g>
	</g>
</g>
<g id="papers">
	<g>
		<path fill="#345568" d="M282.642,195.298c0-28.118,22.796-50.914,50.919-50.914c28.122,0,50.92,22.796,50.92,50.914
			c0,28.123-22.798,50.925-50.92,50.925C305.438,246.222,282.642,223.421,282.642,195.298z"/>
	</g>
	<g>
		<g>
			<path fill="#FFFFFF" d="M322.306,157.245v2.258l31.715,8.197c0.548,0.143,0.931,0.637,0.931,1.203v52.618l1.351,0.349v-55.838
				L322.306,157.245z"/>
		</g>
		<g>
			<g>
				<g>
					<path fill="#FFFFFF" d="M318.478,161.075v2.259l31.715,8.197c0.549,0.141,0.932,0.633,0.932,1.199v52.621l1.35,0.349v-55.842
						L318.478,161.075z"/>
				</g>
			</g>
		</g>
		<g>
			<polygon fill="#FFFFFF" points="344.815,233.356 344.815,177.518 310.82,168.731 310.82,224.571 			"/>
			<g>
				<g>
					<path fill="#F48272" d="M339.317,187.019c-0.104,0-0.207-0.015-0.312-0.043l-22.994-5.941
						c-0.664-0.172-1.062-0.846-0.891-1.508c0.171-0.664,0.845-1.062,1.51-0.891l22.996,5.94c0.663,0.172,1.062,0.848,0.891,1.51
						C340.372,186.647,339.869,187.019,339.317,187.019z"/>
				</g>
				<g>
					<path fill="#F48272" d="M339.317,194.312c-0.104,0-0.207-0.015-0.312-0.037l-22.994-5.945c-0.664-0.17-1.062-0.846-0.891-1.508
						c0.171-0.664,0.845-1.062,1.51-0.893l22.996,5.942c0.663,0.172,1.062,0.849,0.891,1.51
						C340.372,193.942,339.869,194.312,339.317,194.312z"/>
				</g>
				<g>
					<path fill="#F48272" d="M339.317,201.606c-0.104,0-0.207-0.012-0.312-0.039l-22.994-5.943c-0.664-0.17-1.062-0.846-0.891-1.508
						c0.171-0.662,0.845-1.061,1.51-0.891l22.996,5.94c0.663,0.172,1.062,0.849,0.891,1.513
						C340.372,201.237,339.869,201.606,339.317,201.606z"/>
				</g>
				<g>
					<path fill="#F48272" d="M339.317,208.903c-0.104,0-0.207-0.014-0.312-0.041l-22.994-5.939
						c-0.664-0.172-1.062-0.848-0.891-1.512c0.171-0.662,0.845-1.059,1.51-0.889l22.996,5.938c0.663,0.17,1.062,0.849,0.891,1.513
						C340.372,208.532,339.869,208.903,339.317,208.903z"/>
				</g>
				<g>
					<path fill="#F48272" d="M339.317,216.198c-0.104,0-0.207-0.012-0.312-0.041l-22.994-5.941
						c-0.664-0.172-1.062-0.846-0.891-1.512c0.171-0.662,0.845-1.057,1.51-0.889l22.996,5.942c0.663,0.171,1.062,0.849,0.891,1.513
						C340.372,215.827,339.869,216.198,339.317,216.198z"/>
				</g>
				<g>
					<path fill="#F48272" d="M339.317,223.493c-0.104,0-0.207-0.014-0.312-0.039l-22.994-5.942
						c-0.664-0.173-1.062-0.849-0.891-1.509c0.171-0.664,0.845-1.063,1.51-0.893l22.996,5.943c0.663,0.172,1.062,0.85,0.891,1.51
						C340.372,223.124,339.869,223.493,339.317,223.493z"/>
				</g>
			</g>
		</g>
	</g>
	<g>
		<path fill="#FFFFFF" d="M314.647,164.905v2.256l31.719,8.198c0.547,0.143,0.93,0.637,0.93,1.201v52.617l1.349,0.349v-55.838
			L314.647,164.905z"/>
	</g>
</g>
</svg>
