<?xml version="1.0" encoding="utf-8"?>
<!-- Generator: Adobe Illustrator 16.0.0, SVG Export Plug-In . SVG Version: 6.00 Build 0)  -->
<!DOCTYPE svg PUBLIC "-//W3C//DTD SVG 1.1//EN" "http://www.w3.org/Graphics/SVG/1.1/DTD/svg11.dtd">
<svg version="1.1" id="Layer_1" xmlns="http://www.w3.org/2000/svg" xmlns:xlink="http://www.w3.org/1999/xlink" x="0px" y="0px"
	 width="401px" height="401px" viewBox="0 0 401 401" enable-background="new 0 0 401 401" xml:space="preserve">
<g id="circles">
	<g>
		<path fill="#D7DFE2" d="M205.214,336.377c-0.668,0-1.219-0.531-1.24-1.201c-0.02-0.687,0.519-1.258,1.203-1.277
			c3.266-0.1,6.562-0.32,9.799-0.656c0.683-0.061,1.289,0.424,1.359,1.105c0.072,0.68-0.424,1.289-1.104,1.358
			c-3.295,0.345-6.653,0.566-9.979,0.669C205.239,336.377,205.226,336.377,205.214,336.377z M195.3,336.321
			c-0.018,0-0.033,0-0.051,0c-3.326-0.139-6.681-0.399-9.974-0.778c-0.682-0.078-1.17-0.691-1.09-1.373
			c0.078-0.681,0.689-1.17,1.373-1.091c3.232,0.371,6.527,0.63,9.791,0.765c0.687,0.028,1.215,0.604,1.188,1.291
			C196.511,335.801,195.962,336.321,195.3,336.321z M224.917,334.331c-0.59,0-1.113-0.42-1.219-1.021
			c-0.121-0.674,0.327-1.318,1.002-1.438c3.211-0.573,6.438-1.272,9.598-2.079c0.664-0.173,1.34,0.229,1.51,0.895
			c0.17,0.662-0.229,1.338-0.895,1.508c-3.218,0.822-6.506,1.537-9.777,2.117C225.062,334.325,224.989,334.331,224.917,334.331z
			 M175.62,334.06c-0.078,0-0.156-0.008-0.234-0.021c-3.26-0.618-6.541-1.368-9.752-2.229c-0.664-0.176-1.055-0.855-0.879-1.518
			c0.178-0.66,0.856-1.054,1.52-0.878c3.152,0.845,6.375,1.578,9.574,2.188c0.672,0.127,1.115,0.775,0.986,1.449
			C176.722,333.646,176.202,334.06,175.62,334.06z M244.112,329.424c-0.518,0-1-0.326-1.174-0.845
			c-0.219-0.647,0.131-1.354,0.781-1.569c3.082-1.037,6.17-2.203,9.176-3.467c0.631-0.267,1.357,0.03,1.625,0.663
			c0.265,0.632-0.033,1.357-0.664,1.621c-3.062,1.289-6.207,2.478-9.348,3.531C244.378,329.403,244.245,329.424,244.112,329.424z
			 M156.478,328.938c-0.135,0-0.271-0.021-0.406-0.07c-3.141-1.094-6.278-2.319-9.329-3.643c-0.63-0.273-0.916-1.004-0.646-1.631
			c0.271-0.629,1.004-0.92,1.631-0.646c2.996,1.299,6.076,2.502,9.158,3.576c0.646,0.227,0.988,0.934,0.764,1.58
			C157.472,328.618,156.991,328.938,156.478,328.938z M262.36,321.754c-0.45,0-0.887-0.248-1.104-0.677
			c-0.312-0.61-0.068-1.356,0.541-1.668c2.906-1.481,5.791-3.09,8.574-4.778c0.586-0.353,1.35-0.166,1.704,0.418
			s0.169,1.35-0.418,1.703c-2.838,1.721-5.774,3.354-8.733,4.864C262.741,321.711,262.55,321.754,262.36,321.754z M138.282,321.045
			c-0.193,0-0.392-0.043-0.576-0.144c-2.939-1.541-5.863-3.215-8.688-4.973c-0.582-0.359-0.76-1.125-0.397-1.707
			c0.361-0.582,1.125-0.758,1.707-0.396c2.772,1.726,5.645,3.367,8.53,4.881c0.607,0.32,0.84,1.068,0.521,1.675
			C139.159,320.804,138.729,321.045,138.282,321.045z M279.296,311.485c-0.387,0-0.771-0.182-1.015-0.521
			c-0.395-0.558-0.264-1.332,0.294-1.729c2.653-1.887,5.274-3.898,7.79-5.98c0.527-0.436,1.31-0.362,1.746,0.166
			c0.437,0.525,0.363,1.31-0.166,1.744c-2.562,2.121-5.231,4.171-7.934,6.093C279.794,311.411,279.544,311.485,279.296,311.485z
			 M121.446,310.573c-0.254,0-0.508-0.078-0.727-0.237c-2.689-1.959-5.334-4.04-7.869-6.187c-0.521-0.441-0.588-1.226-0.145-1.748
			c0.442-0.521,1.227-0.586,1.748-0.144c2.487,2.105,5.088,4.15,7.725,6.072c0.553,0.404,0.674,1.181,0.271,1.732
			C122.208,310.396,121.831,310.573,121.446,310.573z M294.56,298.856c-0.326,0-0.649-0.129-0.896-0.381
			c-0.474-0.496-0.457-1.281,0.039-1.754c2.354-2.259,4.655-4.632,6.84-7.056c0.459-0.506,1.244-0.547,1.75-0.09
			c0.51,0.459,0.551,1.244,0.092,1.752c-2.225,2.467-4.568,4.883-6.967,7.183C295.177,298.741,294.868,298.856,294.56,298.856z
			 M106.325,297.763c-0.312,0-0.628-0.117-0.869-0.354c-2.371-2.328-4.688-4.771-6.881-7.262c-0.455-0.515-0.404-1.297,0.108-1.75
			c0.517-0.451,1.297-0.402,1.75,0.11c2.154,2.443,4.428,4.845,6.758,7.13c0.488,0.479,0.496,1.266,0.019,1.754
			C106.968,297.638,106.646,297.763,106.325,297.763z M307.831,284.138c-0.269,0-0.535-0.084-0.763-0.261
			c-0.541-0.42-0.637-1.198-0.217-1.741c2.004-2.576,3.938-5.261,5.742-7.974c0.381-0.57,1.15-0.725,1.721-0.344
			c0.568,0.379,0.726,1.146,0.347,1.719c-1.843,2.762-3.812,5.496-5.853,8.121C308.565,283.974,308.198,284.138,307.831,284.138z
			 M93.228,282.897c-0.375,0-0.746-0.172-0.987-0.492c-2.013-2.648-3.947-5.402-5.753-8.182c-0.372-0.574-0.209-1.343,0.365-1.716
			c0.574-0.372,1.34-0.209,1.715,0.363c1.771,2.729,3.672,5.433,5.646,8.035c0.414,0.545,0.307,1.322-0.238,1.736
			C93.751,282.813,93.489,282.897,93.228,282.897z M318.821,267.64c-0.207,0-0.418-0.054-0.608-0.16
			c-0.596-0.338-0.808-1.094-0.469-1.689c1.604-2.846,3.125-5.783,4.516-8.731c0.293-0.619,1.033-0.881,1.65-0.593
			c0.618,0.294,0.885,1.031,0.594,1.65c-1.416,3.004-2.965,5.996-4.603,8.894C319.673,267.413,319.253,267.64,318.821,267.64z
			 M82.438,266.288c-0.438,0-0.86-0.231-1.088-0.643c-1.602-2.912-3.113-5.918-4.492-8.933c-0.284-0.621-0.012-1.358,0.611-1.643
			s1.357-0.012,1.643,0.611c1.354,2.957,2.841,5.907,4.41,8.768c0.33,0.6,0.111,1.354-0.487,1.684
			C82.845,266.237,82.64,266.288,82.438,266.288z M327.28,249.702c-0.147,0-0.299-0.027-0.444-0.084
			c-0.642-0.246-0.957-0.963-0.711-1.602c1.168-3.047,2.242-6.179,3.184-9.306c0.197-0.653,0.891-1.021,1.545-0.83
			c0.654,0.197,1.027,0.892,0.828,1.548c-0.959,3.184-2.051,6.372-3.242,9.477C328.247,249.397,327.778,249.702,327.28,249.702z
			 M74.196,248.288c-0.502,0-0.977-0.309-1.161-0.807c-1.156-3.117-2.212-6.314-3.134-9.504c-0.19-0.656,0.188-1.347,0.847-1.535
			c0.657-0.188,1.344,0.188,1.535,0.848c0.905,3.131,1.94,6.269,3.075,9.326c0.24,0.643-0.088,1.357-0.729,1.594
			C74.485,248.265,74.341,248.288,74.196,248.288z M333.005,230.72c-0.088,0-0.18-0.011-0.271-0.029
			c-0.666-0.148-1.088-0.812-0.938-1.479c0.707-3.182,1.307-6.432,1.779-9.659c0.1-0.679,0.729-1.142,1.405-1.048
			c0.679,0.099,1.146,0.729,1.049,1.406c-0.481,3.287-1.094,6.598-1.813,9.838C334.085,230.327,333.573,230.72,333.005,230.72z
			 M68.688,229.255c-0.574,0-1.09-0.397-1.211-0.983c-0.686-3.242-1.26-6.562-1.703-9.855c-0.092-0.68,0.384-1.305,1.062-1.396
			c0.678-0.094,1.303,0.385,1.393,1.063c0.439,3.234,1.002,6.49,1.674,9.679c0.142,0.67-0.286,1.327-0.957,1.469
			C68.858,229.247,68.772,229.255,68.688,229.255z M335.876,211.116c-0.029,0-0.06,0-0.09-0.004
			c-0.683-0.049-1.195-0.641-1.146-1.324c0.234-3.244,0.354-6.545,0.354-9.815c0-0.685,0.555-1.238,1.239-1.238
			s1.24,0.555,1.24,1.238c0,3.332-0.121,6.692-0.361,9.993C337.065,210.618,336.521,211.116,335.876,211.116z M66.034,209.624
			c-0.65,0-1.195-0.508-1.236-1.166c-0.172-2.811-0.26-5.666-0.26-8.485c0-0.505,0.002-1.011,0.008-1.515
			c0.008-0.68,0.561-1.227,1.24-1.227c0.004,0,0.008,0,0.014,0c0.684,0.008,1.232,0.567,1.227,1.254
			c-0.006,0.494-0.008,0.99-0.008,1.486c-0.002,2.77,0.084,5.575,0.254,8.334c0.041,0.686-0.479,1.271-1.162,1.313
			C66.085,209.622,66.06,209.624,66.034,209.624z M336.06,194.304c-0.656,0-1.205-0.517-1.238-1.179
			c-0.163-3.262-0.448-6.555-0.85-9.785c-0.084-0.678,0.398-1.299,1.078-1.381c0.678-0.084,1.299,0.396,1.383,1.076
			c0.408,3.291,0.699,6.646,0.865,9.965c0.035,0.685-0.49,1.267-1.176,1.302C336.103,194.304,336.079,194.304,336.06,194.304z
			 M66.251,189.81c-0.033,0-0.068-0.002-0.104-0.004c-0.682-0.058-1.188-0.656-1.131-1.338c0.277-3.316,0.678-6.656,1.195-9.933
			c0.106-0.678,0.74-1.143,1.418-1.033c0.676,0.107,1.139,0.742,1.031,1.418c-0.509,3.218-0.902,6.498-1.175,9.754
			C67.433,189.321,66.89,189.81,66.251,189.81z M333.624,174.642c-0.58,0-1.101-0.406-1.218-0.998
			c-0.637-3.195-1.399-6.41-2.272-9.554c-0.182-0.659,0.205-1.344,0.865-1.526c0.657-0.183,1.342,0.203,1.522,0.865
			c0.89,3.198,1.668,6.475,2.318,9.731c0.133,0.672-0.303,1.322-0.976,1.455C333.784,174.634,333.702,174.642,333.624,174.642z
			 M69.343,170.241c-0.096,0-0.189-0.012-0.283-0.033c-0.668-0.155-1.084-0.824-0.926-1.49c0.758-3.235,1.646-6.479,2.641-9.649
			c0.205-0.652,0.902-1.019,1.556-0.812c0.653,0.205,1.018,0.9,0.811,1.556c-0.975,3.108-1.848,6.297-2.592,9.471
			C70.413,169.854,69.905,170.241,69.343,170.241z M328.329,155.55c-0.509,0-0.984-0.313-1.168-0.819
			c-1.101-3.066-2.326-6.131-3.648-9.107c-0.277-0.625,0.004-1.356,0.629-1.637s1.359,0.006,1.637,0.631
			c1.349,3.031,2.599,6.152,3.72,9.275c0.229,0.646-0.104,1.354-0.748,1.586C328.61,155.526,328.468,155.55,328.329,155.55z
			 M75.276,151.325c-0.153,0-0.309-0.027-0.457-0.086c-0.637-0.254-0.946-0.975-0.694-1.611c1.229-3.088,2.584-6.17,4.037-9.164
			c0.299-0.616,1.041-0.873,1.657-0.573c0.615,0.299,0.873,1.041,0.574,1.657c-1.426,2.937-2.76,5.964-3.965,8.996
			C76.235,151.03,75.771,151.325,75.276,151.325z M320.294,137.46c-0.443,0-0.871-0.235-1.094-0.653
			c-1.537-2.871-3.203-5.724-4.949-8.478c-0.367-0.58-0.195-1.346,0.383-1.713c0.578-0.369,1.344-0.195,1.711,0.383
			c1.779,2.808,3.475,5.711,5.041,8.638c0.322,0.604,0.096,1.354-0.508,1.678C320.692,137.413,320.491,137.46,320.294,137.46z
			 M83.933,133.483c-0.211,0-0.424-0.055-0.621-0.166c-0.592-0.344-0.793-1.103-0.451-1.695c1.67-2.875,3.466-5.725,5.336-8.471
			c0.388-0.564,1.158-0.711,1.726-0.324c0.566,0.387,0.711,1.158,0.324,1.723c-1.841,2.695-3.603,5.492-5.238,8.316
			C84.778,133.265,84.36,133.483,83.933,133.483z M309.69,120.733c-0.379,0-0.754-0.174-0.998-0.502
			c-1.94-2.619-4.008-5.199-6.135-7.668c-0.447-0.521-0.389-1.303,0.131-1.75c0.519-0.449,1.301-0.39,1.748,0.131
			c2.166,2.514,4.269,5.143,6.248,7.811c0.408,0.552,0.293,1.326-0.258,1.734C310.206,120.655,309.946,120.733,309.69,120.733z
			 M95.106,117.106c-0.271,0-0.543-0.086-0.771-0.271c-0.535-0.426-0.625-1.205-0.199-1.739c2.068-2.601,4.258-5.158,6.51-7.601
			c0.465-0.504,1.25-0.535,1.754-0.072c0.502,0.466,0.535,1.248,0.07,1.753c-2.211,2.399-4.363,4.909-6.393,7.463
			C95.833,116.948,95.472,117.106,95.106,117.106z M296.757,105.722c-0.316,0-0.637-0.123-0.879-0.363
			c-2.303-2.312-4.722-4.566-7.187-6.699c-0.518-0.449-0.573-1.231-0.125-1.75c0.447-0.518,1.23-0.576,1.748-0.127
			c2.511,2.176,4.974,4.471,7.318,6.822c0.484,0.485,0.481,1.271-0.002,1.756C297.39,105.601,297.073,105.722,296.757,105.722z
			 M108.54,102.536c-0.33,0-0.662-0.131-0.904-0.393c-0.469-0.498-0.443-1.283,0.057-1.752c2.422-2.271,4.961-4.48,7.541-6.57
			c0.533-0.432,1.314-0.35,1.744,0.182c0.433,0.533,0.351,1.314-0.184,1.746c-2.535,2.051-5.027,4.224-7.406,6.451
			C109.147,102.425,108.843,102.536,108.54,102.536z M281.774,92.745c-0.258,0-0.518-0.078-0.737-0.248
			c-2.619-1.949-5.341-3.828-8.091-5.58c-0.575-0.369-0.745-1.137-0.379-1.713c0.369-0.578,1.138-0.746,1.713-0.379
			c2.802,1.785,5.57,3.697,8.238,5.687c0.547,0.409,0.66,1.188,0.252,1.735C282.528,92.573,282.153,92.745,281.774,92.745z
			 M123.944,90.075c-0.393,0-0.778-0.184-1.02-0.531c-0.391-0.562-0.252-1.336,0.311-1.727c2.726-1.894,5.558-3.709,8.416-5.4
			c0.593-0.35,1.351-0.151,1.699,0.437c0.349,0.59,0.152,1.35-0.438,1.696c-2.808,1.662-5.588,3.445-8.265,5.306
			C124.433,90.005,124.187,90.075,123.944,90.075z M265.058,82.087c-0.197,0-0.397-0.047-0.586-0.146
			c-2.879-1.553-5.846-3.014-8.82-4.344c-0.623-0.279-0.903-1.013-0.623-1.638c0.277-0.625,1.013-0.903,1.636-0.625
			c3.03,1.355,6.053,2.843,8.983,4.422c0.605,0.324,0.828,1.076,0.504,1.681C265.927,81.851,265.501,82.087,265.058,82.087z
			 M140.991,79.999c-0.457,0-0.896-0.252-1.113-0.688c-0.303-0.611-0.053-1.357,0.561-1.66c2.978-1.478,6.041-2.859,9.111-4.111
			c0.633-0.262,1.356,0.045,1.617,0.683c0.258,0.633-0.049,1.354-0.685,1.614c-3.012,1.228-6.021,2.586-8.942,4.035
			C141.364,79.958,141.175,79.999,140.991,79.999z M246.954,73.991c-0.142,0-0.283-0.022-0.423-0.072
			c-3.069-1.108-6.217-2.116-9.354-2.994c-0.66-0.186-1.045-0.868-0.859-1.528c0.185-0.658,0.867-1.047,1.527-0.859
			c3.195,0.896,6.4,1.92,9.529,3.049c0.645,0.232,0.979,0.943,0.744,1.588C247.938,73.679,247.462,73.991,246.954,73.991z
			 M159.331,72.528c-0.523,0-1.011-0.334-1.183-0.857c-0.209-0.651,0.146-1.352,0.799-1.562c3.164-1.025,6.404-1.941,9.628-2.728
			c0.663-0.168,1.336,0.246,1.497,0.912c0.162,0.664-0.245,1.334-0.909,1.496c-3.166,0.771-6.347,1.674-9.451,2.679
			C159.587,72.51,159.456,72.528,159.331,72.528z M227.876,68.653c-0.08,0-0.164-0.008-0.246-0.023
			c-3.195-0.646-6.457-1.178-9.693-1.588c-0.678-0.084-1.16-0.703-1.076-1.385c0.089-0.678,0.709-1.154,1.388-1.076
			c3.295,0.418,6.619,0.961,9.873,1.615c0.67,0.139,1.104,0.791,0.971,1.463C228.972,68.247,228.454,68.653,227.876,68.653z
			 M178.577,67.835c-0.597,0-1.121-0.43-1.222-1.035c-0.112-0.676,0.342-1.313,1.019-1.428c3.27-0.545,6.608-0.979,9.922-1.283
			c0.68-0.073,1.285,0.438,1.35,1.121c0.062,0.683-0.44,1.285-1.123,1.349c-3.252,0.301-6.528,0.725-9.739,1.26
			C178.714,67.829,178.646,67.835,178.577,67.835z M208.22,66.173c-0.021,0-0.045-0.002-0.066-0.002
			c-3.264-0.172-6.571-0.227-9.821-0.159c-0.011,0-0.019,0-0.025,0c-0.674,0-1.225-0.539-1.24-1.218
			c-0.012-0.684,0.531-1.25,1.218-1.264c3.311-0.062,6.678-0.008,10,0.164c0.686,0.037,1.211,0.619,1.174,1.305
			C209.423,65.659,208.874,66.173,208.22,66.173z"/>
	</g>
	<g>
		<circle fill="#D7DFE2" cx="201.006" cy="199.972" r="117.151"/>
	</g>
	<path fill="#345568" d="M113.581,277.944c21.455,24.038,52.669,39.179,87.425,39.179s65.97-15.141,87.425-39.179H113.581z"/>
</g>
<g id="lines">
	<g>
		<path fill="#F48272" d="M122.153,216.386h-31.27c-4.562,0-8.271-3.709-8.271-8.269V102.636c0-4.56,3.709-8.269,8.271-8.269h60.977
			c4.56,0,8.271,3.709,8.271,8.269v45.036c0,3.191,2.596,5.789,5.789,5.789h23.459c3.19,0,5.791-2.598,5.791-5.789V60.146
			c0-4.562,3.707-8.271,8.268-8.271h96.017c4.559,0,8.27,3.707,8.27,8.271l-0.004,86.201c0,0.684-0.553,1.237-1.238,1.237
			c-0.685,0-1.239-0.555-1.239-1.237l0.002-86.201c0-3.195-2.601-5.791-5.789-5.791h-96.017c-3.19,0-5.789,2.596-5.789,5.791v87.526
			c0,4.562-3.709,8.271-8.27,8.271H165.92c-4.562,0-8.271-3.709-8.271-8.271v-45.036c0-3.191-2.598-5.789-5.789-5.789H90.884
			c-3.191,0-5.791,2.598-5.791,5.789v105.481c0,3.191,2.6,5.789,5.791,5.789h31.27c0.688,0,1.24,0.555,1.24,1.24
			C123.394,215.831,122.841,216.386,122.153,216.386z"/>
	</g>
	<g>
		<g>
			<path fill="#F48272" d="M207.849,272.261c-0.686,0-1.242-0.556-1.242-1.24v-26.855c0-4.561,3.711-8.27,8.271-8.27h50.004
				c4.561,0,8.27,3.709,8.27,8.27v16.121c0,3.193,2.599,5.789,5.789,5.789h33.5c3.193,0,5.789-2.596,5.789-5.789V138.038
				c0-3.19-2.596-5.789-5.789-5.789h-56.733c-0.685,0-1.238-0.557-1.238-1.24c0-0.683,0.555-1.239,1.238-1.239h56.733
				c4.562,0,8.271,3.711,8.271,8.27v122.248c0,4.562-3.709,8.271-8.271,8.271h-33.5c-4.561,0-8.268-3.709-8.268-8.271v-16.121
				c0-3.192-2.598-5.789-5.791-5.789h-50.004c-3.193,0-5.791,2.597-5.791,5.789v26.855
				C209.087,271.706,208.532,272.261,207.849,272.261z"/>
		</g>
		<g>
			<path fill="#F48272" d="M117.608,272.261h-68.88c-4.559,0-8.27-3.71-8.27-8.271v-58.693c0-4.561,3.711-8.27,8.27-8.27H155.36
				c4.562,0,8.271,3.709,8.271,8.27v25.291c0,0.687-0.555,1.24-1.24,1.24c-0.685,0-1.24-0.555-1.24-1.24v-25.291
				c0-3.192-2.596-5.791-5.789-5.791H48.728c-3.19,0-5.789,2.599-5.789,5.791v58.693c0,3.191,2.599,5.789,5.789,5.789h68.881
				c0.685,0,1.238,0.557,1.238,1.24C118.847,271.706,118.292,272.261,117.608,272.261z"/>
		</g>
		<g>
			<path fill="#F48272" d="M171.511,341.165h-68.117c-4.559,0-8.27-3.706-8.27-8.27V268.12c0-4.561,3.711-8.27,8.27-8.27H133.8
				c0.686,0,1.24,0.555,1.24,1.239s-0.556,1.24-1.24,1.24h-30.406c-3.19,0-5.789,2.596-5.789,5.789v64.775
				c0,3.193,2.599,5.791,5.789,5.791h68.117c3.193,0,5.789-2.598,5.789-5.791V248.86c0-4.562,3.709-8.271,8.27-8.271h36.533
				c4.562,0,8.271,3.709,8.271,8.271v64.203c0,3.193,2.598,5.789,5.789,5.789h100.485c3.189,0,5.789-2.596,5.789-5.789v-99.801
				c0-1.537-0.604-2.984-1.699-4.072c-1.088-1.08-2.522-1.674-4.049-1.674c-0.012,0-0.021,0-0.035,0l-54.135,0.325
				c-0.004,0-0.006,0-0.008,0c-0.682,0-1.238-0.551-1.24-1.231c-0.006-0.685,0.547-1.242,1.232-1.246l54.137-0.328
				c2.182-0.008,4.277,0.836,5.846,2.396c1.566,1.557,2.433,3.627,2.433,5.83v99.801c0,4.561-3.711,8.27-8.271,8.27H236.161
				c-4.56,0-8.271-3.709-8.271-8.27V248.86c0-3.193-2.596-5.789-5.789-5.789h-36.533c-3.19,0-5.789,2.596-5.789,5.789v84.035
				C179.78,337.459,176.071,341.165,171.511,341.165z"/>
		</g>
	</g>
</g>
<g id="imac">
	<path fill="#345568" d="M290.548,121.999H111.462c-2.577,0-4.687,2.11-4.687,4.687v100.082v2.961v4.685h4.677
		c0.003,0,0.006,0.001,0.01,0.001h179.085c0.003,0,0.006-0.001,0.01-0.001h4.676v-4.685h0.001V126.685
		C295.234,124.108,293.126,121.999,290.548,121.999z"/>
	<g>
		<rect x="114.423" y="129.646" fill="#D7DFE2" width="173.166" height="97.121"/>
	</g>
	<path fill="#F48272" d="M295.233,239.09v-4.677h-4.685h-62.265h-54.556h-62.266h-4.687v4.687v5.646v0.963
		c0,2.577,2.11,4.687,4.687,4.687h62.266v23.694h-10.952v3.855h10.952h54.556h10.949v-3.855h-10.949v-23.694h62.264
		c2.579,0,4.686-2.11,4.686-4.687h0.001v-6.608C295.234,239.096,295.233,239.094,295.233,239.09z"/>
</g>
<g id="shoes_x5F_2">
	<g>
		<circle fill="#345568" cx="102.533" cy="271.187" r="49.595"/>
	</g>
	<g>
		<rect x="65.337" y="285.296" fill="#F48272" width="74.391" height="4.689"/>
	</g>
	<path fill="#D7DFE2" d="M113.937,252.389v12.375l-37.584,8.003l0.001,0.013c-6.21,0.795-11.016,6.087-11.017,12.516h74.391v-26.021
		v-6.885H113.937z"/>
	<g>
		<path fill="#F48272" d="M79.282,285.296c0-4.802-2.319-9.062-5.886-11.755c-0.297,0.115-0.587,0.242-0.872,0.379
			c3.581,2.52,5.932,6.675,5.932,11.376H79.282z"/>
		<path fill="#F48272" d="M139.728,270.912c-1.021-0.226-2.079-0.353-3.168-0.353c-8.125,0-14.733,6.61-14.733,14.735h0.825
			c0-7.672,6.238-13.907,13.908-13.907c1.091,0,2.148,0.14,3.168,0.378V270.912z"/>
		<path fill="#F48272" d="M97.653,270.565v-2.334l-0.825,0.176v2.98h0.414c7.668,0,13.907,6.235,13.907,13.907h0.826
			C111.976,277.31,105.589,270.786,97.653,270.565z"/>
		<polygon fill="#F48272" points="109.513,268.733 107.602,266.113 106.715,266.303 108.845,269.222 		"/>
		<polygon fill="#F48272" points="106.462,269.222 107.13,268.733 105.539,266.553 104.652,266.741 		"/>
		<polygon fill="#F48272" points="111.229,269.222 111.896,268.733 109.663,265.674 108.777,265.863 		"/>
	</g>
</g>
<g id="browser">
	<g>
		<rect x="128.087" y="150.101" fill="#FFFFFF" width="147.68" height="65.047"/>
	</g>
	<g>
		<g>
			<rect x="128.087" y="144.864" fill="#345568" width="147.68" height="5.236"/>
		</g>
		<g>
			<g>
				<circle fill="#D7DFE2" cx="131.735" cy="147.481" r="0.758"/>
			</g>
			<g>
				<circle fill="#D7DFE2" cx="134.836" cy="147.481" r="0.757"/>
			</g>
			<g>
				<circle fill="#D7DFE2" cx="137.935" cy="147.481" r="0.758"/>
			</g>
		</g>
		<g>
			<path fill="#D7DFE2" d="M236.493,147.481c0,0.627-0.511,1.137-1.138,1.137h-66.86c-0.627,0-1.138-0.51-1.138-1.137l0,0
				c0-0.629,0.511-1.135,1.138-1.135h66.86C235.983,146.347,236.493,146.853,236.493,147.481L236.493,147.481z"/>
		</g>
	</g>
	<g>
		<g>
			<g>
				<rect x="137.687" y="158.103" fill="#345568" width="8.681" height="8.678"/>
			</g>
			<g>
				<rect x="150.497" y="158.985" fill="#345568" width="16.785" height="0.826"/>
			</g>
			<g>
				<rect x="150.497" y="164.909" fill="#345568" width="16.785" height="0.828"/>
			</g>
			<g>
				<rect x="137.687" y="170.97" fill="#345568" width="29.597" height="0.827"/>
			</g>
			<g>
				<rect x="137.636" y="177.151" fill="#345568" width="29.594" height="0.828"/>
			</g>
			<g>
				<rect x="137.636" y="183.3" fill="#345568" width="29.594" height="0.826"/>
			</g>
			<g>
				<rect x="137.636" y="189.446" fill="#345568" width="29.594" height="0.826"/>
			</g>
			<g>
				<rect x="137.636" y="195.594" fill="#345568" width="29.594" height="0.825"/>
			</g>
			<g>
				<path fill="#345568" d="M155.913,206.856h-18.277c-0.688,0-1.24-0.555-1.24-1.24c0-0.684,0.553-1.24,1.24-1.24h18.277
					c0.686,0,1.239,0.558,1.239,1.24C157.153,206.302,156.599,206.856,155.913,206.856z"/>
			</g>
		</g>
	</g>
	<g>
		<g>
			<path fill="#D7DFE2" d="M267.378,159.761c-0.887,0-2.312,0.188-3.166,0.422c0,0-6.541,4.26-13.769,4.26
				c-7.225,0-13.766-5.918-13.766-5.918c-0.857-0.23-2.281-0.422-3.166-0.422h-5.611c-0.887,0-2.312,0.186-3.168,0.414
				l-45.766,12.963c-0.855,0.227-0.832,0.414,0.055,0.414h88.662c0.887,0,1.611-0.726,1.611-1.611v-8.91
				c0-0.887-0.726-1.61-1.611-1.61L267.378,159.761L267.378,159.761z"/>
		</g>
		<g>
			<rect x="177.411" y="171.894" fill="#F48272" width="91.885" height="5.793"/>
		</g>
		<g>
			
				<rect x="216.265" y="160.882" transform="matrix(0.9637 -0.2669 0.2669 0.9637 -35.5424 63.7336)" fill="#345568" width="0.827" height="3.461"/>
			
				<rect x="220.458" y="159.698" transform="matrix(0.9631 -0.2691 0.2691 0.9631 -35.2952 65.3928)" fill="#345568" width="0.827" height="3.474"/>
			
				<rect x="218.354" y="160.293" transform="matrix(0.9626 -0.271 0.271 0.9626 -35.7209 65.3452)" fill="#345568" width="0.829" height="3.465"/>
			
				<rect x="214.173" y="161.478" transform="matrix(0.963 -0.2694 0.2694 0.963 -36.0348 63.8463)" fill="#345568" width="0.826" height="3.453"/>
			<path fill="#345568" d="M269.296,167.849h-10.449c-1.363,0-2.479,1.114-2.479,2.479v1.447c0,0.041,0.011,0.079,0.013,0.119
				h12.915V167.849z"/>
			<path fill="#345568" d="M177.411,171.894h57.545v-2.146c0-1.328-1.086-2.416-2.416-2.416h-23.586
				c-1.328,0-2.416-1.088-2.416-2.418v-1.239L177.411,171.894z"/>
		</g>
	</g>
	<g>
		<g>
			<rect x="177.411" y="200.812" fill="#F48272" width="91.885" height="5.793"/>
		</g>
		<path fill="#345568" d="M267.685,187.847h-0.307c-0.887,0-2.312,0.192-3.166,0.424c0,0-6.541,1.778-13.769,1.778
			c-7.225,0-13.766-1.778-13.766-1.778c-0.857-0.23-2.281-0.424-3.166-0.424h-5.611c-0.887,0-2.312,0.188-3.168,0.411l-45.766,12.14
			c-0.855,0.229-0.832,0.414,0.055,0.414h83.642h5.021h1.611V199.2v-3.395v-6.349C269.296,188.573,268.571,187.847,267.685,187.847z
			"/>
		<g>
			<path fill="#D7DFE2" d="M234.956,198.667c0-1.328-1.086-2.416-2.416-2.416h-23.586c-1.328,0-2.416-1.088-2.416-2.418v-0.748
				l-27.57,7.312c-0.855,0.229-0.832,0.414,0.055,0.414h55.935L234.956,198.667L234.956,198.667z"/>
			<polygon fill="#D7DFE2" points="220.937,192.138 221.733,191.915 220.99,189.252 220.19,189.464 			"/>
			<polygon fill="#D7DFE2" points="214.642,193.894 215.437,193.671 214.672,190.928 213.873,191.139 			"/>
			<polygon fill="#D7DFE2" points="218.837,192.722 219.634,192.499 218.884,189.811 218.084,190.022 			"/>
			<polygon fill="#D7DFE2" points="216.737,193.308 217.534,193.087 216.777,190.369 215.977,190.581 			"/>
		</g>
	</g>
</g>
<g id="shoes_x5F_1">
	<g>
		<circle fill="#345568" cx="310.575" cy="113.743" r="49.594"/>
	</g>
	<g>
		<polygon fill="#F48272" points="278.255,116.646 278.255,115.348 273.603,116.646 273.382,116.646 273.382,116.707 
			273.382,119.129 273.382,121.335 347.772,121.335 347.772,116.646 		"/>
		<g>
			<polygon fill="#D7DFE2" points="283.083,116.646 287.956,116.646 287.956,114.277 292.786,113.492 292.786,116.646 
				297.661,116.646 297.661,112.7 302.487,111.916 302.487,116.646 307.362,116.646 307.362,111.123 313.021,110.204 
				313.021,106.151 312.85,106.18 273.382,116.646 283.083,115.068 			"/>
			<polygon fill="#D7DFE2" points="340.487,106.151 335.614,106.151 313.046,106.151 313.046,110.204 335.614,110.204 
				335.614,116.646 340.487,116.646 340.487,110.204 347.772,110.204 347.772,106.151 			"/>
		</g>
	</g>
</g>
</svg>
