<?xml version="1.0" encoding="utf-8"?>
<!-- Generator: Adobe Illustrator 16.0.0, SVG Export Plug-In . SVG Version: 6.00 Build 0)  -->
<!DOCTYPE svg PUBLIC "-//W3C//DTD SVG 1.1//EN" "http://www.w3.org/Graphics/SVG/1.1/DTD/svg11.dtd">
<svg version="1.1" id="Layer_1" xmlns="http://www.w3.org/2000/svg" xmlns:xlink="http://www.w3.org/1999/xlink" x="0px" y="0px"
	 width="401px" height="401px" viewBox="0 0 401 401" enable-background="new 0 0 401 401" xml:space="preserve">
<g id="circle_x5F_02">
	<path fill="#D6DEE1" d="M204.211,336.603c-0.668,0-1.219-0.531-1.24-1.203c-0.02-0.684,0.518-1.258,1.203-1.278
		c3.271-0.1,6.574-0.321,9.814-0.658c0.67-0.068,1.291,0.425,1.363,1.108c0.068,0.682-0.426,1.291-1.109,1.361
		c-3.299,0.344-6.662,0.568-9.992,0.67C204.237,336.603,204.223,336.603,204.211,336.603z M194.283,336.55
		c-0.016,0-0.035,0-0.051-0.002c-3.33-0.137-6.691-0.399-9.986-0.778c-0.682-0.078-1.172-0.693-1.092-1.375
		c0.078-0.682,0.709-1.171,1.375-1.092c3.236,0.372,6.537,0.629,9.807,0.765c0.684,0.029,1.217,0.606,1.189,1.293
		C195.496,336.028,194.946,336.55,194.283,336.55z M223.944,334.556c-0.59,0-1.113-0.422-1.221-1.022
		c-0.119-0.675,0.33-1.321,1.004-1.44c3.215-0.574,6.447-1.275,9.611-2.083c0.666-0.173,1.342,0.229,1.51,0.897
		c0.172,0.661-0.23,1.338-0.895,1.508c-3.223,0.822-6.516,1.538-9.789,2.121C224.09,334.55,224.016,334.556,223.944,334.556z
		 M174.576,334.285c-0.076,0-0.154-0.008-0.232-0.023c-3.266-0.617-6.551-1.369-9.768-2.23c-0.662-0.176-1.055-0.857-0.877-1.519
		c0.178-0.663,0.855-1.055,1.52-0.88c3.156,0.846,6.381,1.582,9.588,2.191c0.674,0.127,1.115,0.777,0.988,1.451
		C175.682,333.869,175.16,334.285,174.576,334.285z M243.166,329.642c-0.518,0-1.002-0.328-1.178-0.848
		c-0.219-0.65,0.133-1.354,0.783-1.57c3.086-1.039,6.178-2.205,9.189-3.472c0.631-0.267,1.359,0.03,1.625,0.663
		s-0.031,1.359-0.664,1.627c-3.066,1.289-6.215,2.479-9.361,3.535C243.43,329.621,243.297,329.642,243.166,329.642z M155.41,329.154
		c-0.137,0-0.273-0.021-0.41-0.068c-3.141-1.096-6.283-2.322-9.342-3.648c-0.629-0.274-0.92-1.004-0.645-1.633
		c0.271-0.629,1.002-0.921,1.631-0.645c3.004,1.301,6.09,2.508,9.174,3.582c0.648,0.225,0.988,0.934,0.764,1.581
		C156.405,328.834,155.922,329.154,155.41,329.154z M261.438,321.96c-0.451,0-0.887-0.247-1.105-0.677
		c-0.312-0.61-0.07-1.358,0.541-1.671c2.908-1.483,5.797-3.093,8.588-4.782c0.584-0.358,1.35-0.171,1.703,0.416
		c0.357,0.588,0.17,1.35-0.418,1.705c-2.84,1.723-5.781,3.362-8.744,4.873C261.821,321.918,261.629,321.96,261.438,321.96z
		 M137.188,321.252c-0.193,0-0.391-0.045-0.574-0.143c-2.947-1.545-5.875-3.221-8.701-4.98c-0.584-0.361-0.762-1.127-0.4-1.709
		c0.363-0.583,1.131-0.762,1.711-0.399c2.775,1.728,5.65,3.374,8.543,4.891c0.607,0.319,0.842,1.069,0.523,1.675
		C138.067,321.009,137.637,321.252,137.188,321.252z M278.397,311.679c-0.389,0-0.77-0.18-1.014-0.521
		c-0.396-0.559-0.266-1.334,0.293-1.73c2.658-1.893,5.283-3.908,7.801-5.99c0.527-0.438,1.312-0.365,1.748,0.164
		c0.438,0.529,0.363,1.312-0.166,1.748c-2.562,2.123-5.234,4.174-7.943,6.102C278.897,311.605,278.647,311.679,278.397,311.679z
		 M120.33,310.765c-0.254,0-0.51-0.078-0.73-0.238c-2.693-1.963-5.342-4.045-7.879-6.193c-0.521-0.444-0.588-1.229-0.145-1.75
		c0.443-0.525,1.227-0.589,1.75-0.145c2.49,2.107,5.094,4.154,7.736,6.082c0.553,0.403,0.676,1.18,0.271,1.735
		C121.092,310.59,120.713,310.765,120.33,310.765z M293.682,299.031c-0.328,0-0.654-0.128-0.898-0.382
		c-0.473-0.495-0.457-1.282,0.037-1.755c2.359-2.26,4.664-4.636,6.852-7.062c0.461-0.51,1.244-0.551,1.754-0.092
		s0.549,1.245,0.092,1.754c-2.23,2.471-4.576,4.891-6.979,7.192C294.299,298.918,293.989,299.031,293.682,299.031z M105.188,297.937
		c-0.316,0-0.631-0.118-0.873-0.354c-2.377-2.334-4.695-4.781-6.891-7.271c-0.453-0.516-0.402-1.301,0.111-1.754
		c0.516-0.454,1.299-0.402,1.752,0.112c2.156,2.446,4.432,4.849,6.77,7.14c0.488,0.48,0.496,1.266,0.016,1.755
		C105.83,297.812,105.508,297.937,105.188,297.937z M306.969,284.295c-0.266,0-0.533-0.086-0.762-0.263
		c-0.539-0.42-0.637-1.201-0.219-1.741c2.01-2.584,3.943-5.27,5.754-7.986c0.379-0.571,1.15-0.725,1.723-0.344
		c0.57,0.379,0.725,1.15,0.344,1.721c-1.844,2.768-3.814,5.502-5.857,8.133C307.705,284.13,307.34,284.295,306.969,284.295z
		 M92.073,283.051c-0.377,0-0.746-0.17-0.99-0.49c-2.014-2.652-3.951-5.41-5.76-8.196c-0.375-0.571-0.211-1.343,0.363-1.716
		c0.576-0.373,1.344-0.212,1.717,0.363c1.779,2.736,3.682,5.443,5.656,8.047c0.416,0.546,0.309,1.325-0.238,1.739
		C92.598,282.967,92.334,283.051,92.073,283.051z M317.975,267.773c-0.207,0-0.416-0.053-0.609-0.162
		c-0.598-0.336-0.809-1.096-0.471-1.691c1.609-2.847,3.133-5.788,4.525-8.742c0.293-0.621,1.033-0.885,1.652-0.594
		s0.887,1.031,0.592,1.652c-1.418,3.008-2.969,6.006-4.607,8.906C318.83,267.545,318.408,267.773,317.975,267.773z M81.266,266.418
		c-0.438,0-0.861-0.23-1.088-0.645c-1.602-2.91-3.115-5.92-4.5-8.941c-0.285-0.623-0.01-1.359,0.613-1.645
		c0.623-0.281,1.361-0.012,1.646,0.61c1.357,2.968,2.844,5.923,4.416,8.78c0.33,0.602,0.111,1.357-0.49,1.686
		C81.674,266.371,81.469,266.418,81.266,266.418z M326.448,249.808c-0.148,0-0.301-0.026-0.445-0.082
		c-0.641-0.246-0.959-0.963-0.713-1.604c1.174-3.057,2.246-6.193,3.188-9.316c0.199-0.659,0.893-1.029,1.549-0.83
		c0.656,0.195,1.027,0.891,0.83,1.546c-0.961,3.185-2.055,6.378-3.25,9.491C327.416,249.507,326.946,249.808,326.448,249.808z
		 M73.016,248.394c-0.504,0-0.979-0.309-1.164-0.809c-1.156-3.115-2.213-6.316-3.139-9.516c-0.191-0.657,0.189-1.348,0.848-1.537
		c0.658-0.195,1.348,0.188,1.537,0.847c0.91,3.142,1.945,6.284,3.082,9.343c0.238,0.643-0.09,1.355-0.732,1.595
		C73.305,248.369,73.16,248.394,73.016,248.394z M332.182,230.802c-0.09,0-0.18-0.009-0.271-0.03
		c-0.668-0.148-1.09-0.812-0.941-1.48c0.707-3.182,1.307-6.437,1.781-9.673c0.1-0.679,0.727-1.144,1.408-1.049
		c0.678,0.1,1.146,0.731,1.049,1.41c-0.484,3.295-1.094,6.61-1.816,9.851C333.264,230.406,332.75,230.802,332.182,230.802z
		 M67.498,229.337c-0.574,0-1.09-0.401-1.215-0.983c-0.686-3.262-1.26-6.583-1.703-9.875c-0.092-0.679,0.385-1.305,1.064-1.395
		c0.678-0.099,1.305,0.385,1.396,1.063c0.436,3.231,0.998,6.493,1.674,9.692c0.141,0.67-0.289,1.328-0.959,1.471
		C67.67,229.328,67.582,229.337,67.498,229.337z M335.057,211.172c-0.031,0-0.061,0-0.092-0.004
		c-0.684-0.048-1.197-0.643-1.148-1.326c0.236-3.246,0.355-6.553,0.355-9.83c0-0.686,0.555-1.241,1.242-1.241
		c0.684,0,1.24,0.556,1.24,1.241c0,3.338-0.121,6.705-0.361,10.008C336.246,210.674,335.701,211.172,335.057,211.172z
		 M64.84,209.677c-0.65,0-1.197-0.509-1.238-1.166c-0.172-2.807-0.26-5.667-0.26-8.499c0-0.506,0.002-1.012,0.008-1.517
		c0.008-0.687,0.564-1.206,1.256-1.228c0.686,0.008,1.234,0.57,1.229,1.256c-0.006,0.496-0.01,0.992-0.01,1.488
		c0,2.783,0.088,5.59,0.256,8.348c0.043,0.684-0.479,1.271-1.162,1.314C64.893,209.674,64.865,209.677,64.84,209.677z
		 M335.24,194.334c-0.658,0-1.207-0.515-1.24-1.18c-0.166-3.27-0.451-6.566-0.852-9.797c-0.086-0.681,0.398-1.301,1.078-1.385
		c0.682-0.088,1.301,0.398,1.385,1.08c0.408,3.289,0.701,6.646,0.869,9.977c0.033,0.687-0.492,1.268-1.18,1.305
		C335.281,194.334,335.26,194.334,335.24,194.334z M65.061,189.836c-0.035,0-0.07-0.004-0.105-0.004
		c-0.684-0.059-1.191-0.658-1.135-1.342c0.277-3.323,0.682-6.67,1.199-9.945c0.105-0.677,0.75-1.138,1.42-1.032
		c0.678,0.106,1.141,0.743,1.031,1.421c-0.508,3.215-0.902,6.502-1.176,9.764C66.242,189.345,65.699,189.836,65.061,189.836z
		 M332.799,174.646c-0.58,0-1.1-0.408-1.217-0.997c-0.639-3.206-1.404-6.427-2.275-9.567c-0.184-0.662,0.205-1.347,0.863-1.529
		c0.664-0.184,1.346,0.201,1.529,0.864c0.889,3.201,1.668,6.481,2.318,9.745c0.135,0.674-0.303,1.327-0.975,1.461
		C332.961,174.638,332.881,174.646,332.799,174.646z M68.153,170.238c-0.094,0-0.189-0.009-0.285-0.031
		c-0.666-0.157-1.08-0.825-0.924-1.493c0.76-3.239,1.648-6.492,2.643-9.662c0.203-0.655,0.902-1.021,1.557-0.812
		c0.654,0.206,1.02,0.901,0.814,1.557c-0.977,3.112-1.852,6.304-2.596,9.486C69.227,169.853,68.715,170.238,68.153,170.238z
		 M327.5,155.527c-0.512,0-0.988-0.314-1.17-0.822c-1.1-3.066-2.33-6.136-3.656-9.118c-0.279-0.627,0.004-1.362,0.631-1.64
		c0.627-0.279,1.361,0.004,1.639,0.631c1.35,3.04,2.605,6.164,3.725,9.289c0.23,0.646-0.104,1.356-0.75,1.588
		C327.78,155.505,327.637,155.527,327.5,155.527z M74.096,151.299c-0.152,0-0.309-0.029-0.457-0.088
		c-0.639-0.254-0.949-0.975-0.697-1.612c1.229-3.093,2.588-6.181,4.043-9.179c0.301-0.615,1.043-0.872,1.66-0.572
		c0.617,0.298,0.873,1.041,0.574,1.657c-1.428,2.942-2.762,5.974-3.969,9.01C75.057,151.001,74.59,151.299,74.096,151.299z
		 M319.451,137.414c-0.443,0-0.871-0.238-1.096-0.655c-1.539-2.875-3.207-5.73-4.955-8.491c-0.367-0.578-0.195-1.347,0.383-1.713
		c0.578-0.365,1.346-0.197,1.713,0.385c1.783,2.809,3.48,5.719,5.049,8.648c0.324,0.604,0.096,1.354-0.51,1.678
		C319.85,137.366,319.649,137.414,319.451,137.414z M82.766,133.431c-0.213,0-0.428-0.053-0.623-0.166
		c-0.592-0.344-0.795-1.104-0.451-1.697c1.67-2.881,3.469-5.735,5.344-8.483c0.387-0.567,1.158-0.71,1.725-0.325
		c0.568,0.389,0.713,1.16,0.326,1.726c-1.842,2.698-3.605,5.499-5.246,8.327C83.61,133.21,83.194,133.431,82.766,133.431z
		 M308.832,120.664c-0.379,0-0.754-0.175-0.998-0.504c-1.945-2.623-4.014-5.207-6.145-7.68c-0.447-0.52-0.389-1.304,0.131-1.752
		c0.52-0.449,1.303-0.389,1.752,0.131c2.17,2.518,4.275,5.15,6.258,7.822c0.408,0.551,0.291,1.328-0.26,1.738
		C309.348,120.584,309.09,120.664,308.832,120.664z M93.953,117.032c-0.27,0-0.543-0.087-0.773-0.269
		c-0.535-0.428-0.625-1.208-0.197-1.746c2.07-2.605,4.266-5.164,6.52-7.608c0.465-0.505,1.252-0.535,1.754-0.071
		c0.504,0.464,0.535,1.25,0.07,1.753c-2.213,2.4-4.367,4.917-6.402,7.474C94.68,116.873,94.319,117.032,93.953,117.032z
		 M295.881,105.633c-0.318,0-0.637-0.122-0.879-0.366c-2.309-2.315-4.73-4.571-7.197-6.71c-0.518-0.447-0.574-1.23-0.125-1.75
		c0.449-0.518,1.23-0.577,1.752-0.126c2.512,2.177,4.979,4.476,7.328,6.833c0.486,0.486,0.484,1.271-0.002,1.757
		C296.516,105.51,296.199,105.633,295.881,105.633z M107.405,102.441c-0.33,0-0.66-0.131-0.906-0.393
		c-0.469-0.5-0.441-1.285,0.059-1.754c2.422-2.271,4.963-4.484,7.553-6.582c0.533-0.43,1.314-0.348,1.746,0.184
		c0.432,0.535,0.348,1.314-0.186,1.748c-2.541,2.057-5.035,4.23-7.418,6.463C108.014,102.33,107.709,102.441,107.405,102.441z
		 M280.881,92.637c-0.26,0-0.52-0.079-0.742-0.247c-2.619-1.953-5.344-3.833-8.1-5.591c-0.578-0.368-0.746-1.136-0.379-1.714
		c0.369-0.578,1.137-0.747,1.715-0.379c2.807,1.789,5.582,3.705,8.248,5.693c0.549,0.412,0.662,1.188,0.254,1.738
		C281.633,92.465,281.258,92.637,280.881,92.637z M122.83,89.964c-0.393,0-0.779-0.185-1.021-0.534
		c-0.391-0.561-0.252-1.336,0.312-1.729c2.729-1.895,5.564-3.714,8.428-5.406c0.588-0.349,1.352-0.154,1.699,0.437
		c0.35,0.591,0.154,1.351-0.436,1.7c-2.812,1.662-5.596,3.449-8.275,5.311C123.321,89.892,123.074,89.964,122.83,89.964z
		 M264.141,81.965c-0.199,0-0.402-0.049-0.588-0.149c-2.881-1.551-5.855-3.015-8.834-4.349c-0.625-0.279-0.904-1.012-0.625-1.639
		c0.279-0.626,1.016-0.905,1.639-0.626c3.035,1.356,6.062,2.847,8.998,4.429c0.602,0.324,0.828,1.078,0.504,1.682
		C265.01,81.728,264.582,81.965,264.141,81.965z M139.901,79.873c-0.457,0-0.896-0.254-1.113-0.691
		c-0.307-0.611-0.055-1.357,0.559-1.662c2.984-1.479,6.053-2.865,9.125-4.116c0.635-0.257,1.361,0.047,1.619,0.683
		c0.26,0.634-0.047,1.357-0.682,1.616c-3.016,1.229-6.029,2.588-8.957,4.042C140.274,79.832,140.086,79.873,139.901,79.873z
		 M246.012,73.857c-0.141,0-0.281-0.024-0.422-0.074c-3.074-1.11-6.227-2.119-9.369-2.998c-0.66-0.184-1.045-0.869-0.859-1.529
		s0.867-1.047,1.529-0.861c3.199,0.895,6.41,1.923,9.543,3.053c0.645,0.233,0.979,0.947,0.746,1.59
		C246.996,73.543,246.52,73.857,246.012,73.857z M158.266,72.392c-0.523,0-1.012-0.334-1.182-0.859
		c-0.211-0.653,0.146-1.354,0.801-1.563c3.166-1.025,6.41-1.945,9.639-2.729c0.666-0.166,1.336,0.244,1.5,0.91
		c0.162,0.666-0.246,1.336-0.912,1.501c-3.17,0.771-6.354,1.675-9.463,2.679C158.522,72.371,158.393,72.392,158.266,72.392z
		 M226.905,68.511c-0.08,0-0.162-0.008-0.246-0.025c-3.199-0.645-6.465-1.18-9.707-1.587c-0.68-0.085-1.162-0.706-1.076-1.386
		c0.086-0.682,0.711-1.158,1.389-1.078c3.303,0.416,6.627,0.961,9.885,1.617c0.672,0.137,1.107,0.79,0.973,1.463
		C228.002,68.106,227.485,68.511,226.905,68.511z M177.539,67.691c-0.596,0-1.121-0.429-1.223-1.035
		c-0.113-0.678,0.344-1.316,1.02-1.428c3.275-0.551,6.619-0.982,9.936-1.287c0.686-0.07,1.287,0.439,1.35,1.121
		c0.062,0.684-0.438,1.287-1.123,1.351c-3.256,0.302-6.537,0.728-9.752,1.262C177.676,67.686,177.608,67.691,177.539,67.691z
		 M207.223,66.028c-0.021,0-0.045-0.002-0.066-0.002c-3.27-0.171-6.582-0.226-9.836-0.161c-0.008,0-0.018,0-0.025,0
		c-0.674,0-1.229-0.541-1.24-1.217c-0.014-0.687,0.531-1.252,1.215-1.266c3.314-0.065,6.689-0.012,10.016,0.164
		c0.686,0.035,1.211,0.619,1.176,1.305C208.426,65.513,207.879,66.028,207.223,66.028z"/>
</g>
<g id="circle_x5F_01">
	<circle fill="#D6DEE1" cx="199.998" cy="200.011" r="117.312"/>
</g>
<path fill="none" stroke="#F38173" stroke-width="3" stroke-miterlimit="10" d="M142.012,148.194
	c-2.436,6.915-3.762,14.347-3.762,22.093"/>
<g id="Path_x5F_03">
	<path fill="none" stroke="#F38173" stroke-miterlimit="10" stroke-dasharray="6" d="M224.936,241.22v16.475c0,1.65,1.35,3,3,3
		h106.632c1.649,0,2.972-1.35,2.938-3l-3.364-164.49c-0.034-1.65-1.411-3-3.062-3h-35.656"/>
</g>
<g id="Path_x5F_02">
	<path fill="none" stroke="#F38173" stroke-miterlimit="10" stroke-dasharray="6" d="M85.581,167.142H57.426c-1.65,0-3,1.35-3,3
		v59.322c0,1.65,1.35,3,3,3h44.848c1.65,0,3,1.35,3,3v34.723c0,1.65,1.35,3,3,3H212.44c1.65,0,3-1.35,3-3V241.22"/>
</g>
<g id="man">
	<path id="headphones_x5F_left" fill="#F38173" d="M146.41,168.543c-10.142-1.762-19.795,5.031-21.557,15.17
		c-1.762,10.146,5.031,19.797,15.173,21.56"/>
	
		<path id="mouth" fill="none" stroke="#345569" stroke-width="3" stroke-linecap="round" stroke-linejoin="round" stroke-miterlimit="10" d="
		M187.028,234.871c7.613-0.521,14.947-3.42,20.879-8.333"/>
	<path id="eye_x5F_02" fill="#345569" d="M162.761,182.203c0-2.396-1.947-4.339-4.341-4.339c-2.396,0-4.34,1.942-4.34,4.339
		c0,2.391,1.944,4.336,4.34,4.336C160.814,186.539,162.761,184.594,162.761,182.203z"/>
	<path id="eye_x5F_01" fill="#345569" d="M217.095,182.203c0-2.396-1.946-4.339-4.345-4.339c-2.393,0-4.34,1.942-4.34,4.339
		c0,2.391,1.947,4.336,4.34,4.336C215.149,186.539,217.095,184.594,217.095,182.203z"/>
	
		<line id="eyebrow_x5F_02" fill="none" stroke="#345569" stroke-width="3" stroke-linecap="round" stroke-linejoin="round" stroke-miterlimit="10" x1="143.629" y1="165.642" x2="173.207" y2="165.642"/>
	
		<line id="eyebrow_x5F_01" fill="none" stroke="#345569" stroke-width="3" stroke-linecap="round" stroke-linejoin="round" stroke-miterlimit="10" x1="197.965" y1="165.642" x2="227.537" y2="165.642"/>
	
		<polyline id="nose" fill="none" stroke="#345569" stroke-width="3" stroke-linecap="round" stroke-linejoin="round" stroke-miterlimit="10" points="
		184.272,186.539 173.207,205.862 186.74,205.862 	"/>
	
		<line id="left" fill="none" stroke="#345569" stroke-width="3" stroke-linecap="round" stroke-linejoin="round" stroke-miterlimit="10" x1="154.08" y1="127.06" x2="128.598" y2="264.021"/>
	
		<line id="right" fill="none" stroke="#345569" stroke-width="3" stroke-linecap="round" stroke-linejoin="round" stroke-miterlimit="10" x1="266.519" y1="194.215" x2="247.217" y2="301.599"/>
	<path id="hair" fill="#345569" d="M281.535,134.281c0-15.707-12.734-28.432-28.439-28.432c-2.763,0-5.431,0.401-7.955,1.136
		c-2.221-13.491-13.932-23.784-28.046-23.784c-5.622,0-10.86,1.637-15.271,4.453c-5.216-6.26-13.065-10.246-21.848-10.246
		c-12.051,0-22.343,7.504-26.486,18.088c-2.748-0.885-5.673-1.367-8.714-1.367c-15.709,0-28.438,12.729-28.438,28.439
		c0,15.699,12.729,28.43,28.438,28.43c5.652,0,10.916-1.655,15.345-4.504c5.386,4.473,12.306,7.164,19.855,7.164
		c7.833,0,14.989-2.907,20.458-7.689c3.779,1.63,7.943,2.541,12.32,2.541c5.064,0,9.841-1.219,14.064-3.367
		c2.521,6.092,7.094,11.115,12.859,14.209c-1.237,2.213-1.949,4.763-1.949,7.478c0,3.392,1.109,6.516,2.969,9.057
		c-1.854,2.243-2.969,5.12-2.969,8.256c0,7.169,5.811,12.974,12.975,12.974c7.162,0,12.97-5.805,12.97-12.974
		c0-1.856-0.399-3.62-1.103-5.218c3.588-2.815,5.9-7.182,5.9-12.095c0-2.715-0.712-5.265-1.949-7.478
		C275.457,154.556,281.535,145.129,281.535,134.281z"/>
	<g id="headphones_x5F_right">
		<path fill="none" stroke="#F38173" stroke-width="3" stroke-miterlimit="10" d="M271.097,170.287
			c0-21.867-10.567-41.277-26.88-53.383"/>
		<path fill="#F38173" d="M289.737,186.539c0-10.295-8.344-18.637-18.64-18.637c-10.292,0-18.64,8.342-18.64,18.637
			c0,10.297,8.348,18.642,18.64,18.642C281.393,205.18,289.737,196.836,289.737,186.539z"/>
		<path fill="none" stroke="#F38173" stroke-width="3" stroke-miterlimit="10" d="M212.752,238.425h21.263
			c20.375,0,36.886-16.515,36.886-36.89"/>
		<path fill="#F38173" d="M224.883,233.406h-10.031c-2.772,0-5.016,2.248-5.016,5.019c0,2.768,2.243,5.017,5.016,5.017h10.031
			c2.77,0,5.02-2.249,5.02-5.017C229.903,235.654,227.653,233.406,224.883,233.406z"/>
	</g>
</g>
<polyline id="path_x5F_01" fill="none" stroke="#F38173" stroke-miterlimit="10" stroke-dasharray="6" points="217.344,330.844 
	128.78,330.844 128.78,293.41 307.996,293.41 307.996,276.195 220.627,276.195 220.627,240.4 "/>
<g id="_x31_">
	<circle fill="#F38173" cx="295.062" cy="91.627" r="25.509"/>
	<g>
		<path fill="#FFFFFF" d="M294.789,100.401V85.426h-2.297v-2.571h5.141v17.547H294.789z"/>
	</g>
</g>
<g id="_x32_">
	<circle fill="#F38173" cx="86.31" cy="167.586" r="25.509"/>
	<g>
		<path fill="#FFFFFF" d="M80.317,176.521v-2.051c0.412-0.361,1.012-0.881,1.803-1.555c0.792-0.676,1.398-1.201,1.816-1.572
			c0.42-0.369,0.943-0.848,1.57-1.433c0.625-0.584,1.111-1.087,1.458-1.509c0.347-0.418,0.7-0.893,1.062-1.42
			c0.678-0.955,1.014-1.912,1.014-2.866c0-2.044-0.973-3.065-2.916-3.065c-0.971,0-1.727,0.31-2.26,0.927
			c-0.537,0.619-0.82,1.446-0.854,2.485h-2.718c0.05-1.88,0.613-3.318,1.693-4.313c1.078-0.997,2.483-1.494,4.213-1.494
			c1.729,0,3.102,0.483,4.115,1.457c1.014,0.972,1.52,2.259,1.52,3.855c0,1.202-0.322,2.349-0.964,3.435
			c-0.345,0.56-0.675,1.061-0.989,1.494c-0.312,0.438-0.748,0.938-1.309,1.496c-0.561,0.561-1.006,0.998-1.334,1.311
			c-0.33,0.313-0.812,0.75-1.446,1.309c-0.636,0.562-1.067,0.949-1.298,1.162h7.834v2.348H80.317z"/>
	</g>
</g>
<g id="_x33_">
	<circle fill="#F38173" cx="207.626" cy="328.249" r="25.51"/>
	<g>
		<path fill="#FFFFFF" d="M203.635,320.268c1.078-0.856,2.471-1.284,4.177-1.284s3.048,0.439,4.027,1.322
			c0.981,0.881,1.471,2.005,1.471,3.373c0,1.021-0.272,1.895-0.815,2.62s-1.194,1.211-1.952,1.458v0.098
			c0.972,0.298,1.731,0.838,2.274,1.619c0.543,0.782,0.814,1.85,0.814,3.199c0,1.352-0.507,2.498-1.518,3.438
			c-1.016,0.939-2.424,1.407-4.229,1.407c-1.803,0-3.279-0.456-4.424-1.372c-1.145-0.914-1.758-2.227-1.84-3.94h2.719
			c0.064,0.874,0.402,1.587,1.013,2.137c0.608,0.552,1.425,0.829,2.446,0.829s1.805-0.277,2.348-0.829
			c0.544-0.55,0.816-1.263,0.816-2.137c0-1.153-0.366-1.973-1.1-2.46c-0.733-0.484-1.858-0.728-3.374-0.728h-0.642v-2.323h0.667
			c2.734-0.033,4.102-0.932,4.102-2.695c0-0.791-0.257-1.418-0.767-1.89c-0.511-0.47-1.232-0.706-2.162-0.706
			c-0.932,0-1.65,0.236-2.162,0.706c-0.512,0.472-0.816,1.05-0.914,1.743h-2.742C201.967,322.319,202.556,321.125,203.635,320.268z"
			/>
	</g>
</g>
</svg>
