<?xml version="1.0" encoding="utf-8"?>
<!-- Generator: Adobe Illustrator 16.0.0, SVG Export Plug-In . SVG Version: 6.00 Build 0)  -->
<!DOCTYPE svg PUBLIC "-//W3C//DTD SVG 1.1//EN" "http://www.w3.org/Graphics/SVG/1.1/DTD/svg11.dtd">
<svg version="1.1" id="Layer_1" xmlns="http://www.w3.org/2000/svg" xmlns:xlink="http://www.w3.org/1999/xlink" x="0px" y="0px"
	 width="401px" height="401px" viewBox="0 0 401 401" enable-background="new 0 0 401 401" xml:space="preserve">
<g id="circles">
	<g>
		<path fill="#F48272" d="M205.21,336.551c-0.668,0-1.222-0.529-1.24-1.203c-0.02-0.687,0.518-1.256,1.203-1.276
			c3.27-0.101,6.572-0.322,9.811-0.657c0.672-0.063,1.291,0.425,1.361,1.107c0.07,0.68-0.424,1.291-1.107,1.361
			c-3.299,0.342-6.657,0.565-9.987,0.668C205.235,336.551,205.222,336.551,205.21,336.551z M195.286,336.496
			c-0.019,0-0.035,0-0.054,0c-3.328-0.139-6.688-0.398-9.983-0.778c-0.681-0.079-1.168-0.693-1.09-1.374
			c0.077-0.685,0.704-1.172,1.375-1.092c3.235,0.37,6.534,0.629,9.803,0.766c0.686,0.027,1.217,0.604,1.188,1.291
			C196.497,335.975,195.948,336.496,195.286,336.496z M224.937,334.506c-0.59,0-1.112-0.422-1.221-1.023
			c-0.119-0.674,0.33-1.319,1.004-1.438c3.215-0.574,6.447-1.275,9.607-2.082c0.666-0.174,1.342,0.229,1.51,0.895
			c0.172,0.664-0.23,1.34-0.894,1.51c-3.221,0.823-6.514,1.536-9.789,2.121C225.083,334.499,225.009,334.506,224.937,334.506z
			 M175.585,334.233c-0.076,0-0.154-0.008-0.234-0.021c-3.264-0.62-6.549-1.37-9.762-2.231c-0.662-0.176-1.055-0.855-0.877-1.52
			c0.176-0.662,0.854-1.056,1.518-0.88c3.156,0.847,6.381,1.582,9.586,2.191c0.675,0.127,1.115,0.776,0.988,1.45
			C176.69,333.817,176.169,334.233,175.585,334.233z M244.151,329.592c-0.52,0-1.002-0.328-1.176-0.847
			c-0.219-0.648,0.133-1.354,0.781-1.571c3.084-1.037,6.176-2.203,9.186-3.47c0.634-0.268,1.359,0.032,1.627,0.663
			c0.265,0.632-0.032,1.358-0.664,1.624c-3.063,1.29-6.215,2.479-9.356,3.536C244.415,329.571,244.281,329.592,244.151,329.592z
			 M156.423,329.104c-0.135,0-0.271-0.021-0.408-0.068c-3.139-1.093-6.281-2.32-9.338-3.646c-0.629-0.271-0.918-1.004-0.646-1.633
			c0.273-0.629,1.003-0.92,1.634-0.646c3.002,1.301,6.088,2.508,9.17,3.581c0.646,0.227,0.99,0.934,0.764,1.581
			C157.419,328.784,156.938,329.104,156.423,329.104z M262.417,321.912c-0.451,0-0.888-0.248-1.105-0.677
			c-0.312-0.611-0.069-1.358,0.541-1.67c2.908-1.482,5.797-3.092,8.584-4.783c0.586-0.354,1.351-0.168,1.705,0.418
			c0.355,0.585,0.168,1.351-0.418,1.704c-2.84,1.723-5.781,3.36-8.744,4.872C262.8,321.868,262.606,321.912,262.417,321.912z
			 M138.208,321.204c-0.193,0-0.392-0.047-0.574-0.143c-2.945-1.545-5.873-3.221-8.699-4.979c-0.58-0.36-0.76-1.127-0.396-1.709
			c0.36-0.584,1.129-0.759,1.709-0.397c2.772,1.727,5.646,3.369,8.539,4.889c0.606,0.318,0.842,1.066,0.522,1.676
			C139.087,320.963,138.657,321.204,138.208,321.204z M279.37,311.636c-0.39,0-0.771-0.183-1.013-0.523
			c-0.397-0.558-0.268-1.333,0.291-1.73c2.658-1.891,5.281-3.905,7.799-5.985c0.527-0.438,1.312-0.363,1.746,0.165
			c0.439,0.526,0.365,1.312-0.161,1.746c-2.564,2.122-5.236,4.173-7.943,6.099C279.87,311.561,279.618,311.636,279.37,311.636z
			 M121.356,310.721c-0.254,0-0.51-0.077-0.729-0.237c-2.693-1.961-5.342-4.046-7.877-6.192c-0.523-0.443-0.588-1.227-0.146-1.75
			c0.441-0.523,1.226-0.587,1.748-0.145c2.49,2.107,5.092,4.153,7.734,6.08c0.553,0.403,0.676,1.181,0.271,1.735
			C122.118,310.545,121.741,310.721,121.356,310.721z M294.651,298.991c-0.328,0-0.653-0.127-0.897-0.383
			c-0.474-0.494-0.457-1.28,0.037-1.754c2.358-2.26,4.662-4.635,6.85-7.06c0.461-0.511,1.244-0.551,1.752-0.092
			c0.51,0.459,0.551,1.244,0.092,1.753c-2.227,2.472-4.573,4.89-6.975,7.188C295.269,298.876,294.958,298.991,294.651,298.991z
			 M106.218,297.897c-0.314,0-0.629-0.118-0.871-0.355c-2.375-2.332-4.693-4.775-6.889-7.268c-0.453-0.517-0.402-1.301,0.11-1.752
			c0.515-0.453,1.298-0.404,1.752,0.11c2.154,2.445,4.431,4.849,6.767,7.138c0.488,0.479,0.498,1.266,0.018,1.756
			C106.86,297.772,106.538,297.897,106.218,297.897z M307.935,284.259c-0.268,0-0.535-0.086-0.762-0.262
			c-0.541-0.421-0.639-1.201-0.217-1.741c2.006-2.581,3.938-5.269,5.75-7.981c0.381-0.572,1.151-0.727,1.719-0.345
			c0.572,0.38,0.727,1.148,0.346,1.721c-1.84,2.766-3.811,5.5-5.854,8.131C308.671,284.093,308.304,284.259,307.935,284.259z
			 M93.106,283.015c-0.375,0-0.744-0.169-0.987-0.49c-2.013-2.65-3.949-5.407-5.761-8.191c-0.373-0.573-0.209-1.344,0.365-1.717
			c0.576-0.373,1.344-0.211,1.717,0.365c1.777,2.733,3.681,5.439,5.654,8.041c0.414,0.549,0.309,1.326-0.238,1.74
			C93.632,282.933,93.368,283.015,93.106,283.015z M318.937,267.743c-0.207,0-0.418-0.053-0.61-0.163
			c-0.597-0.336-0.808-1.093-0.47-1.689c1.607-2.847,3.129-5.786,4.521-8.739c0.295-0.62,1.033-0.884,1.651-0.594
			c0.619,0.292,0.888,1.031,0.595,1.651c-1.418,3.008-2.97,6.004-4.607,8.903C319.79,267.515,319.368,267.743,318.937,267.743z
			 M82.306,266.389c-0.438,0-0.861-0.231-1.088-0.645c-1.602-2.912-3.115-5.919-4.498-8.938c-0.285-0.623-0.012-1.359,0.613-1.646
			c0.621-0.283,1.356-0.014,1.645,0.61c1.357,2.968,2.844,5.921,4.416,8.777c0.33,0.603,0.111,1.355-0.49,1.687
			C82.714,266.339,82.509,266.389,82.306,266.389z M327.405,249.786c-0.147,0-0.299-0.027-0.444-0.084
			c-0.642-0.244-0.959-0.964-0.715-1.604c1.174-3.056,2.248-6.189,3.188-9.312c0.199-0.658,0.892-1.024,1.547-0.832
			c0.656,0.199,1.027,0.892,0.83,1.547c-0.959,3.185-2.053,6.377-3.248,9.487C328.374,249.482,327.903,249.786,327.405,249.786z
			 M74.058,248.37c-0.504,0-0.979-0.307-1.164-0.809c-1.156-3.113-2.211-6.313-3.135-9.512c-0.191-0.657,0.186-1.347,0.846-1.535
			c0.656-0.195,1.347,0.188,1.537,0.846c0.908,3.139,1.943,6.28,3.078,9.337c0.24,0.644-0.088,1.356-0.729,1.597
			C74.347,248.345,74.202,248.37,74.058,248.37z M333.138,230.784c-0.09,0-0.18-0.01-0.271-0.031
			c-0.668-0.146-1.091-0.81-0.941-1.479c0.707-3.18,1.307-6.434,1.779-9.668c0.1-0.681,0.727-1.146,1.409-1.049
			c0.677,0.101,1.146,0.729,1.048,1.407c-0.482,3.297-1.093,6.609-1.814,9.851C334.22,230.391,333.706,230.784,333.138,230.784z
			 M68.542,229.319c-0.574,0-1.09-0.401-1.213-0.986c-0.688-3.258-1.263-6.578-1.703-9.867c-0.092-0.68,0.385-1.305,1.063-1.396
			c0.674-0.099,1.306,0.384,1.396,1.062c0.436,3.229,0.998,6.489,1.674,9.688c0.141,0.67-0.289,1.33-0.959,1.473
			C68.714,229.311,68.626,229.319,68.542,229.319z M336.011,211.161c-0.031,0-0.061-0.001-0.092-0.003
			c-0.685-0.05-1.197-0.644-1.146-1.328c0.234-3.244,0.354-6.551,0.354-9.825c0-0.686,0.557-1.241,1.24-1.241
			c0.686,0,1.243,0.557,1.243,1.241c0,3.334-0.123,6.701-0.362,10.006C337.198,210.662,336.655,211.161,336.011,211.161z
			 M65.886,209.665c-0.65,0-1.197-0.506-1.238-1.166c-0.172-2.805-0.26-5.663-0.26-8.494c0-0.507,0.002-1.013,0.008-1.518
			c0.008-0.681,0.562-1.228,1.242-1.228c0.004,0,0.008,0,0.012,0c0.688,0.009,1.236,0.569,1.229,1.257
			c-0.006,0.496-0.008,0.991-0.008,1.487c0,2.781,0.086,5.588,0.254,8.344c0.043,0.685-0.478,1.272-1.162,1.314
			C65.937,209.665,65.911,209.665,65.886,209.665z M336.194,194.331c-0.657,0-1.207-0.518-1.239-1.18
			c-0.164-3.271-0.451-6.566-0.853-9.796c-0.084-0.68,0.398-1.3,1.08-1.382c0.678-0.082,1.301,0.396,1.383,1.075
			c0.408,3.289,0.699,6.646,0.869,9.977c0.035,0.687-0.492,1.268-1.178,1.303C336.235,194.329,336.214,194.331,336.194,194.331z
			 M66.104,189.831c-0.035,0-0.069-0.001-0.104-0.003c-0.683-0.058-1.189-0.657-1.133-1.342c0.276-3.321,0.68-6.667,1.198-9.941
			c0.105-0.677,0.748-1.142,1.418-1.032c0.679,0.105,1.142,0.742,1.033,1.421c-0.508,3.215-0.904,6.5-1.178,9.762
			C67.286,189.344,66.743,189.831,66.104,189.831z M333.753,174.647c-0.578,0-1.099-0.408-1.215-0.998
			c-0.64-3.205-1.404-6.424-2.275-9.564c-0.184-0.66,0.205-1.344,0.863-1.526c0.664-0.183,1.346,0.202,1.528,0.862
			c0.888,3.2,1.666,6.479,2.316,9.744c0.135,0.672-0.303,1.325-0.975,1.459C333.915,174.641,333.835,174.647,333.753,174.647z
			 M69.196,170.241c-0.094,0-0.188-0.01-0.284-0.032c-0.666-0.154-1.08-0.822-0.925-1.49c0.761-3.24,1.648-6.49,2.644-9.66
			c0.205-0.652,0.899-1.021,1.555-0.812c0.656,0.205,1.021,0.9,0.814,1.557c-0.978,3.111-1.851,6.302-2.597,9.482
			C70.271,169.856,69.759,170.241,69.196,170.241z M328.456,155.536c-0.511,0-0.986-0.314-1.168-0.822
			c-1.101-3.064-2.33-6.134-3.654-9.115c-0.279-0.626,0.004-1.358,0.631-1.641c0.627-0.276,1.359,0.006,1.639,0.631
			c1.351,3.039,2.603,6.164,3.724,9.287c0.229,0.646-0.104,1.356-0.75,1.588C328.737,155.513,328.595,155.536,328.456,155.536z
			 M75.138,151.308c-0.152,0-0.309-0.029-0.457-0.088c-0.637-0.254-0.949-0.976-0.697-1.612c1.229-3.091,2.588-6.179,4.043-9.174
			c0.302-0.618,1.043-0.876,1.658-0.575c0.617,0.299,0.873,1.041,0.576,1.659c-1.43,2.939-2.764,5.971-3.969,9.006
			C76.099,151.011,75.632,151.308,75.138,151.308z M320.411,137.427c-0.443,0-0.871-0.236-1.095-0.655
			c-1.541-2.872-3.209-5.729-4.955-8.487c-0.366-0.578-0.194-1.346,0.386-1.712c0.576-0.366,1.344-0.198,1.711,0.383
			c1.781,2.811,3.479,5.718,5.047,8.646c0.324,0.603,0.096,1.354-0.508,1.68C320.81,137.38,320.608,137.427,320.411,137.427z
			 M83.804,133.446c-0.211,0-0.426-0.055-0.621-0.166c-0.592-0.346-0.795-1.104-0.451-1.697c1.67-2.879,3.468-5.731,5.343-8.479
			c0.387-0.567,1.157-0.71,1.725-0.326c0.563,0.387,0.711,1.158,0.324,1.726c-1.84,2.696-3.604,5.497-5.242,8.324
			C84.649,133.226,84.231,133.446,83.804,133.446z M309.796,120.683c-0.379,0-0.754-0.172-0.998-0.501
			c-1.945-2.624-4.012-5.207-6.141-7.68c-0.447-0.52-0.392-1.303,0.129-1.751c0.52-0.447,1.303-0.389,1.75,0.13
			c2.17,2.52,4.274,5.149,6.256,7.821c0.408,0.55,0.293,1.326-0.258,1.735C310.312,120.604,310.052,120.683,309.796,120.683z
			 M94.989,117.053c-0.271,0-0.545-0.088-0.772-0.27c-0.535-0.428-0.625-1.207-0.199-1.744c2.072-2.604,4.267-5.165,6.521-7.608
			c0.465-0.504,1.25-0.533,1.752-0.07c0.506,0.465,0.537,1.25,0.069,1.754c-2.211,2.398-4.362,4.913-6.397,7.47
			C95.716,116.892,95.354,117.053,94.989,117.053z M296.851,105.654c-0.317,0-0.637-0.12-0.879-0.364
			c-2.309-2.313-4.729-4.569-7.195-6.706c-0.518-0.448-0.573-1.232-0.125-1.751c0.447-0.518,1.23-0.576,1.75-0.127
			c2.513,2.176,4.978,4.476,7.328,6.832c0.484,0.486,0.482,1.271-0.002,1.756C297.485,105.534,297.167,105.654,296.851,105.654z
			 M108.435,102.467c-0.328,0-0.66-0.132-0.904-0.393c-0.469-0.5-0.442-1.286,0.058-1.755c2.422-2.271,4.961-4.482,7.551-6.578
			c0.533-0.431,1.314-0.348,1.744,0.184c0.434,0.533,0.35,1.314-0.184,1.746c-2.541,2.06-5.035,4.23-7.414,6.461
			C109.044,102.355,108.741,102.467,108.435,102.467z M281.853,92.665c-0.258,0-0.52-0.08-0.74-0.246
			c-2.618-1.952-5.342-3.834-8.096-5.59c-0.58-0.368-0.75-1.136-0.379-1.715c0.369-0.576,1.135-0.746,1.713-0.378
			c2.805,1.788,5.58,3.704,8.244,5.692c0.551,0.409,0.664,1.188,0.254,1.736C282.604,92.493,282.231,92.665,281.853,92.665z
			 M123.856,89.993c-0.395,0-0.778-0.185-1.021-0.533c-0.39-0.562-0.252-1.336,0.312-1.727c2.728-1.896,5.562-3.713,8.424-5.408
			c0.591-0.348,1.353-0.153,1.701,0.438c0.349,0.589,0.154,1.351-0.438,1.698c-2.812,1.661-5.595,3.447-8.271,5.31
			C124.347,89.921,124.101,89.993,123.856,89.993z M265.118,81.996c-0.199,0-0.4-0.048-0.589-0.146
			c-2.881-1.554-5.852-3.016-8.827-4.349c-0.627-0.278-0.906-1.014-0.627-1.639c0.278-0.627,1.014-0.906,1.641-0.627
			c3.033,1.356,6.059,2.848,8.992,4.428c0.604,0.324,0.828,1.077,0.504,1.683C265.987,81.76,265.56,81.996,265.118,81.996z
			 M140.919,79.905c-0.455,0-0.896-0.252-1.111-0.69c-0.305-0.611-0.055-1.356,0.56-1.66c2.981-1.48,6.053-2.864,9.123-4.117
			c0.631-0.258,1.358,0.048,1.616,0.684c0.259,0.634-0.047,1.357-0.682,1.616c-3.014,1.228-6.029,2.587-8.955,4.04
			C141.294,79.864,141.104,79.905,140.919,79.905z M246.995,73.892c-0.14,0-0.281-0.023-0.423-0.072
			c-3.071-1.111-6.223-2.12-9.362-2.998c-0.66-0.185-1.045-0.871-0.861-1.529c0.187-0.66,0.869-1.044,1.529-0.859
			c3.197,0.894,6.408,1.921,9.539,3.052c0.646,0.231,0.979,0.943,0.746,1.59C247.981,73.577,247.505,73.892,246.995,73.892z
			 M159.28,72.427c-0.524,0-1.012-0.334-1.18-0.859c-0.213-0.651,0.146-1.353,0.797-1.562c3.166-1.022,6.408-1.942,9.638-2.729
			c0.666-0.165,1.336,0.246,1.498,0.912c0.163,0.666-0.246,1.336-0.91,1.5c-3.168,0.771-6.353,1.673-9.461,2.68
			C159.534,72.407,159.405,72.427,159.28,72.427z M227.896,68.548c-0.08,0-0.164-0.008-0.248-0.022
			c-3.196-0.646-6.461-1.18-9.701-1.588c-0.68-0.086-1.161-0.707-1.075-1.388s0.711-1.156,1.387-1.075
			c3.301,0.416,6.627,0.959,9.883,1.616c0.672,0.136,1.107,0.789,0.973,1.464C228.991,68.143,228.474,68.548,227.896,68.548z
			 M178.546,67.729c-0.594,0-1.121-0.431-1.221-1.036c-0.113-0.676,0.342-1.315,1.02-1.429c3.273-0.549,6.615-0.98,9.93-1.286
			c0.689-0.062,1.289,0.438,1.351,1.123c0.063,0.682-0.438,1.286-1.119,1.35c-3.258,0.301-6.537,0.725-9.752,1.262
			C178.683,67.723,178.614,67.729,178.546,67.729z M208.22,66.064c-0.021,0-0.043,0-0.064-0.001
			c-3.27-0.171-6.579-0.226-9.834-0.161c-0.008,0-0.018,0-0.026,0c-0.672,0-1.226-0.54-1.238-1.216
			c-0.014-0.687,0.531-1.253,1.215-1.267c3.314-0.063,6.688-0.012,10.015,0.163c0.684,0.036,1.211,0.619,1.174,1.305
			C209.423,65.552,208.874,66.064,208.22,66.064z"/>
	</g>
	<g>
		<circle fill="#D7DFE2" cx="200.998" cy="200.005" r="117.274"/>
	</g>
</g>
<g id="cables">
	<g>
		<path fill="#345568" d="M101.903,332.851H89.499c-4.564,0-8.279-3.713-8.279-8.278V186.397c0-4.564,3.715-8.278,8.279-8.278h43.02
			c3.195,0,5.795-2.599,5.795-5.794V70.062c0-4.566,3.713-8.277,8.277-8.277h52.752c2.244,0,4.221,0.88,5.561,2.478
			c1.345,1.602,1.869,3.696,1.482,5.907l-6.232,35.545c-0.118,0.677-0.76,1.133-1.438,1.009c-0.674-0.117-1.125-0.761-1.008-1.437
			l6.231-35.545c0.258-1.477-0.073-2.854-0.938-3.883c-0.861-1.027-2.162-1.592-3.66-1.592H146.59c-3.195,0-5.795,2.6-5.795,5.795
			v102.264c0,4.564-3.713,8.277-8.277,8.277h-43.02c-3.195,0-5.795,2.6-5.795,5.795v138.175c0,3.196,2.6,5.796,5.795,5.796h12.403
			c3.195,0,5.795-2.6,5.795-5.796v-72.394c0-4.565,3.714-8.278,8.277-8.278h21.098c0.685,0,1.24,0.557,1.24,1.241
			c0,0.687-0.557,1.24-1.24,1.24h-21.098c-3.195,0-5.793,2.601-5.793,5.797v72.394C110.183,329.138,106.468,332.851,101.903,332.851
			z"/>
	</g>
	<g>
		<path fill="#345568" d="M307.106,314.44h-33.918c-4.563,0-8.276-3.714-8.276-8.278v-90.188c0-4.564,3.713-8.276,8.276-8.276
			h14.892c0.686,0,1.239,0.555,1.239,1.24c0,0.685-0.555,1.241-1.239,1.241h-14.892c-3.194,0-5.795,2.6-5.795,5.795v90.188
			c0,3.194,2.601,5.796,5.795,5.796h33.918c3.195,0,5.795-2.602,5.795-5.796V170.47c0-3.195-2.6-5.796-5.795-5.796h-28.127
			c-4.563,0-8.276-3.713-8.276-8.277v-41.779c0-4.562,3.62-8.276,8.065-8.276c3.082,0,5.586-2.6,5.586-5.795V70.063
			c0-3.195-2.6-5.795-5.795-5.795h-53.803c-3.25,0-6.467,2.703-7.029,5.901l-6.229,35.545c-0.119,0.678-0.761,1.131-1.438,1.009
			c-0.676-0.117-1.127-0.761-1.01-1.437l6.231-35.545c0.771-4.387,5.021-7.957,9.476-7.957h53.803c4.564,0,8.279,3.713,8.279,8.277
			v30.481c0,4.564-3.621,8.276-8.07,8.276c-3.078,0-5.584,2.6-5.584,5.795v41.779c0,3.196,2.6,5.796,5.795,5.796h28.127
			c4.564,0,8.277,3.713,8.277,8.276v135.692C315.384,310.727,311.671,314.44,307.106,314.44z"/>
	</g>
	<g>
		<path fill="#345568" d="M334.688,276.274h-48.287c-4.563,0-8.276-3.713-8.276-8.277v-30.439c0-0.686,0.557-1.239,1.239-1.239
			c0.687,0,1.24,0.555,1.24,1.239v30.439c0,3.195,2.601,5.795,5.797,5.795h48.287c3.195,0,5.795-2.6,5.795-5.795v-68.188
			c0-3.196-2.6-5.795-5.795-5.795h-67.565c-4.564,0-8.277-3.714-8.277-8.277v-36.572c0-4.563,3.713-8.276,8.277-8.276h47.711
			c3.196,0,5.797-2.601,5.797-5.797V85.794c0-3.194-2.601-5.794-5.797-5.794h-83.347c-3.25,0-6.469,2.703-7.028,5.903l-6.232,35.544
			c-0.119,0.675-0.756,1.127-1.436,1.008c-0.677-0.118-1.127-0.761-1.009-1.437l6.23-35.543c0.77-4.389,5.02-7.959,9.475-7.959
			h83.347c4.565,0,8.278,3.712,8.278,8.276v49.296c0,4.564-3.713,8.278-8.278,8.278h-47.711c-3.195,0-5.798,2.6-5.798,5.795v36.572
			c0,3.195,2.603,5.795,5.798,5.795h67.565c4.564,0,8.277,3.713,8.277,8.277v68.188
			C342.966,272.562,339.253,276.274,334.688,276.274z"/>
	</g>
	<g>
		<path fill="#345568" d="M122.177,308.026H61.778c-4.563,0-8.276-3.711-8.276-8.277v-69.084c0-4.563,3.713-8.276,8.276-8.276
			h53.365c3.195,0,5.795-2.601,5.795-5.795v-51.296c0-3.194-2.6-5.795-5.795-5.795H77.071c-4.563,0-8.278-3.713-8.278-8.276V85.794
			c0-4.564,3.715-8.276,8.278-8.276h109.021c2.246,0,4.221,0.881,5.563,2.479c1.343,1.599,1.869,3.696,1.48,5.908l-6.232,35.544
			c-0.116,0.675-0.756,1.127-1.436,1.008c-0.676-0.118-1.127-0.761-1.008-1.437l6.229-35.543c0.258-1.479-0.071-2.855-0.938-3.886
			C188.89,80.565,187.589,80,186.089,80H77.071c-3.196,0-5.797,2.6-5.797,5.794v65.433c0,3.194,2.601,5.795,5.797,5.795h38.072
			c4.564,0,8.275,3.713,8.275,8.276v51.296c0,4.563-3.711,8.276-8.275,8.276H61.778c-3.194,0-5.795,2.6-5.795,5.795v69.084
			c0,3.195,2.601,5.795,5.795,5.795h60.398c3.195,0,5.795-2.6,5.795-5.795V282.79c0-0.686,0.555-1.241,1.24-1.241
			c0.685,0,1.242,0.557,1.242,1.241v16.959C130.454,304.315,126.741,308.026,122.177,308.026z"/>
	</g>
	<g>
		<g>
			<path fill="#345568" d="M129.212,275.446c-0.229,0-0.414-0.184-0.414-0.414V262.93c0-0.229,0.186-0.413,0.414-0.413
				c0.228,0,0.414,0.186,0.414,0.413v12.102C129.626,275.263,129.44,275.446,129.212,275.446z"/>
		</g>
		<g>
			<rect x="126.11" y="272.448" fill="#F48272" width="6.203" height="16.625"/>
		</g>
	</g>
	<g>
		<g>
			<path fill="#345568" d="M279.778,236.235c-0.229,0-0.414-0.188-0.414-0.414v-12.103c0-0.229,0.187-0.413,0.414-0.413
				c0.229,0,0.414,0.186,0.414,0.413v12.103C280.192,236.049,280.007,236.235,279.778,236.235z"/>
		</g>
		<g>
			<rect x="276.675" y="233.235" fill="#F48272" width="6.205" height="16.626"/>
		</g>
	</g>
	<g>
		<g>
			<path fill="#345568" d="M153.974,245.517h-12.1c-0.229,0-0.414-0.187-0.414-0.414c0-0.229,0.186-0.412,0.414-0.412h12.1
				c0.23,0,0.414,0.184,0.414,0.412C154.388,245.331,154.204,245.517,153.974,245.517z"/>
		</g>
		<g>
			<rect x="127.833" y="242.001" fill="#F48272" width="16.627" height="6.205"/>
		</g>
	</g>
	<g>
		<g>
			<path fill="#345568" d="M305.919,209.386h-12.103c-0.227,0-0.412-0.187-0.412-0.414c0-0.229,0.187-0.413,0.412-0.413h12.103
				c0.229,0,0.414,0.185,0.414,0.413C306.333,209.2,306.149,209.386,305.919,209.386z"/>
		</g>
		<g>
			<rect x="279.778" y="205.868" fill="#F48272" width="16.627" height="6.207"/>
		</g>
	</g>
</g>
<g id="man">
	<path fill="#FFFFFF" d="M239.974,158.713c-0.917-0.469-1.886-0.727-2.853-0.793l2.337-12.348l-81.076-0.088l-11.442,64.506
		l35.404,35.684h39.523l12.533-73.333c3.375,1.058,7.118-0.426,8.784-3.679C245.044,165.024,243.605,160.569,239.974,158.713z"/>
	<g>
		<g>
			<path fill="#345568" d="M209.007,154.444h-19.326c-0.686,0-1.24-0.556-1.24-1.242c0-0.685,0.556-1.239,1.24-1.239h19.326
				c0.686,0,1.24,0.556,1.24,1.239C210.247,153.889,209.692,154.444,209.007,154.444z"/>
		</g>
		<g>
			<path fill="#345568" d="M171.532,185.472c-0.324,0-0.644-0.125-0.884-0.366c-0.385-0.391-0.471-0.985-0.207-1.467l10.297-18.938
				c0.328-0.604,1.082-0.826,1.685-0.498c0.602,0.328,0.824,1.081,0.496,1.684l-8.33,15.321l8.271-4.382
				c0.605-0.319,1.357-0.092,1.681,0.518c0.319,0.604,0.09,1.354-0.519,1.679l-11.91,6.308
				C171.929,185.427,171.729,185.472,171.532,185.472z"/>
		</g>
		<g>
			<path fill="#345568" d="M146.94,211.229c-0.067,0-0.141-0.006-0.211-0.017c-0.676-0.115-1.129-0.759-1.014-1.434l12.533-73.096
				c0.117-0.677,0.76-1.129,1.434-1.015c0.676,0.115,1.129,0.757,1.014,1.435l-12.532,73.094
				C148.06,210.804,147.534,211.229,146.94,211.229z"/>
		</g>
		<g>
			<path fill="#345568" d="M221.87,243.294c-0.072,0-0.148-0.007-0.224-0.02c-0.674-0.12-1.123-0.767-1.002-1.441l12.726-70.183
				c0.12-0.675,0.766-1.118,1.44-1.001c0.676,0.121,1.123,0.766,1.004,1.441l-12.727,70.183
				C222.981,242.873,222.458,243.294,221.87,243.294z"/>
		</g>
		<g>
			<path fill="#345568" d="M237.833,173.923c-1.322,0-2.662-0.304-3.918-0.943c-0.609-0.312-0.853-1.061-0.539-1.669
				c0.312-0.611,1.061-0.852,1.67-0.542c3.016,1.546,6.731,0.345,8.274-2.673c1.545-3.021,0.347-6.734-2.67-8.275
				c-1.463-0.75-3.131-0.885-4.69-0.379c-1.564,0.506-2.836,1.589-3.584,3.051c-0.312,0.612-1.062,0.851-1.672,0.539
				c-0.609-0.312-0.853-1.06-0.537-1.67c1.049-2.053,2.836-3.573,5.028-4.281c2.193-0.707,4.531-0.521,6.584,0.529
				c4.236,2.166,5.918,7.377,3.752,11.616C244.007,172.205,240.972,173.923,237.833,173.923z"/>
		</g>
		<g>
			<path fill="#345568" d="M173.501,154.444h-19.33c-0.687,0-1.24-0.556-1.24-1.242c0-0.685,0.555-1.239,1.24-1.239h19.33
				c0.686,0,1.24,0.556,1.24,1.239C174.741,153.889,174.187,154.444,173.501,154.444z"/>
		</g>
	</g>
	<g>
		<path fill="none" stroke="#345568" stroke-width="3" stroke-linecap="round" stroke-linejoin="round" stroke-miterlimit="10" d="
			M170.011,248.01"/>
	</g>
	<g>
		<path fill="none" stroke="#345568" stroke-width="3" stroke-linecap="round" stroke-linejoin="round" stroke-miterlimit="10" d="
			M221.868,245.673"/>
	</g>
	<g>
		<path fill="none" stroke="#345568" stroke-width="3" stroke-linecap="round" stroke-linejoin="round" stroke-miterlimit="10" d="
			M170.011,248.01"/>
	</g>
	<g>
		<path fill="#345568" d="M177.485,205.585c-0.684,0-1.239-0.557-1.239-1.241s0.557-1.24,1.239-1.24
			c4.673,0,8.474-3.801,8.474-8.474c0-0.687,0.557-1.241,1.244-1.241c0.684,0,1.239,0.556,1.239,1.241
			C188.442,200.669,183.526,205.583,177.485,205.585z"/>
	</g>
	<circle fill="#D7DFE2" cx="163.836" cy="164.024" r="8.067"/>
	<circle fill="#D7DFE2" cx="199.344" cy="164.024" r="8.067"/>
	<path fill="#F48272" d="M231.271,162.782h-22.71c-0.61-4.548-4.505-8.069-9.216-8.069s-8.605,3.521-9.216,8.069h-17.078
		c-0.61-4.548-4.503-8.069-9.216-8.069c-5.131,0-9.31,4.177-9.31,9.312c0,5.132,4.179,9.308,9.31,9.308
		c4.713,0,8.606-3.521,9.216-8.066h17.078c0.61,4.546,4.505,8.066,9.216,8.066s8.604-3.521,9.216-8.066h22.71
		c0.686,0,1.24-0.558,1.24-1.24C232.511,163.34,231.957,162.782,231.271,162.782z M163.835,170.848
		c-3.763,0-6.826-3.062-6.826-6.824c0-3.767,3.064-6.828,6.826-6.828c3.764,0,6.828,3.062,6.828,6.828
		C170.663,167.786,167.599,170.848,163.835,170.848z M199.345,170.848c-3.764,0-6.826-3.062-6.826-6.824
		c0-3.767,3.062-6.828,6.826-6.828c3.761,0,6.826,3.062,6.826,6.828C206.171,167.786,203.107,170.848,199.345,170.848z"/>
	<g>
		<path fill="#345568" d="M164.755,229.046c-0.316,0-0.635-0.121-0.877-0.362l-17.816-17.814c-0.483-0.487-0.483-1.271,0-1.756
			c0.484-0.485,1.271-0.485,1.756,0l17.814,17.814c0.486,0.484,0.486,1.271,0,1.756C165.39,228.925,165.073,229.046,164.755,229.046
			z"/>
	</g>
	<g>
		<path fill="#D7DFE2" d="M245.241,138.651h-88.306c-0.686,0-1.24-0.557-1.24-1.242c0-0.685,0.556-1.24,1.24-1.24h88.306
			c0.686,0,1.241,0.556,1.241,1.24C246.483,138.094,245.927,138.651,245.241,138.651z"/>
	</g>
	<g>
		<path fill="#345568" d="M166.675,164.024c0-1.566-1.271-2.838-2.84-2.838c-1.562,0-2.836,1.271-2.836,2.838
			c0,1.563,1.272,2.833,2.836,2.833C165.403,166.857,166.675,165.589,166.675,164.024z"/>
	</g>
	<g>
		<path fill="#345568" d="M202.181,164.024c0-1.566-1.271-2.838-2.838-2.838c-1.564,0-2.836,1.271-2.836,2.838
			c0,1.563,1.271,2.833,2.836,2.833C200.909,166.857,202.181,165.589,202.181,164.024z"/>
	</g>
	<path fill="#F48272" d="M260.461,269.677c-0.738-11.062-9.214-20-20.064-21.453c-0.541-0.179-1.092-0.334-1.662-0.436
		l-61.807-10.986c-6.35-1.131-12.822,3.065-14.383,9.325l-14.579,58.499c15.927,8.089,33.946,12.652,53.032,12.652
		c10.289,0,20.268-1.33,29.776-3.818l-3.336-32.153c-0.069-0.684,0.426-1.293,1.107-1.363c0.682-0.062,1.291,0.426,1.36,1.105
		l3.295,31.751c10.812-3.081,20.984-7.68,30.278-13.543L260.461,269.677z"/>
	<path fill="#345568" d="M241.021,142.124l-10.014,0.525c2.38-1.217,3.675-2.49,3.592-3.736c-0.006-0.088-0.03-0.175-0.05-0.262
		h-69.594c-5.021,1.703-7.961,3.615-7.836,5.472c0.297,4.427,17.883,6.853,39.278,5.414c10.264-0.689,19.532-2.144,26.374-3.959
		l-6.848,43.696c-0.199,1.275,0.677,2.139,1.947,1.922l4.93-0.845c1.271-0.219,2.525-1.429,2.789-2.692l5.912-28.549
		c0.26-1.261,1.521-2.155,2.799-1.98l3.383,0.456c1.28,0.173,2.543-0.717,2.81-1.979l2.387-11.31
		C243.146,143.037,242.31,142.058,241.021,142.124z"/>
	<g>
		<path fill="#F48272" d="M225.791,101.063l0.493-3.447h-8.57l-0.62,3.314h-1.922l0.475-3.314h-8.571l-0.62,3.314h-1.921
			l0.475-3.314h-8.572l-0.62,3.314h-1.92l0.476-3.314H185.8l-0.771,4.119c-12.814,2.977-23.975,13.928-26.327,26.889l-1.37,7.545
			h87.883l1.28-7.495C248.948,114.319,239.776,102.424,225.791,101.063z"/>
	</g>
	<g>
		<polygon fill="#F48272" points="156.884,138.64 155.272,145.571 244.073,143.059 244.791,138.651 		"/>
	</g>
</g>
</svg>
