<?xml version="1.0" encoding="utf-8"?>
<svg version="1.1" id="Layer_1" xmlns="http://www.w3.org/2000/svg" xmlns:xlink="http://www.w3.org/1999/xlink" x="0px" y="0px"
	 width="721px" height="401px" viewBox="0 0 721 401" enable-background="new 0 0 721 401" xml:space="preserve">
<path id="background_x5F_blue" fill="#D7DFE2" d="M487.062,73.928H234.92c-69.63,0-126.073,56.445-126.073,126.073
	c0,69.626,56.443,126.071,126.073,126.071h252.142c69.627,0,126.072-56.445,126.072-126.071
	C613.134,130.373,556.688,73.928,487.062,73.928z"/>
<g id="lines">
	<path fill="#345568" d="M343.468,249.749h-48.187c-3.725,0-6.757,3.031-6.757,6.758v71.896c0,0.206,0.167,0.373,0.375,0.373
		c0.209,0,0.376-0.167,0.376-0.373v-71.896c0-3.312,2.694-6.008,6.006-6.008h48.187v4.199c0,3.727,3.031,6.758,6.757,6.758h33.722
		c3.727,0,6.758-3.031,6.758-6.758v-4.199h148.545c3.727,0,6.758-3.03,6.758-6.757V149.97c0-3.312,2.693-6.008,6.006-6.008h18.239
		c3.312,0,6.007,2.695,6.007,6.008v28.447c0,0.207,0.168,0.374,0.374,0.374c0.209,0,0.376-0.167,0.376-0.374V149.97
		c0-3.727-3.03-6.758-6.757-6.758h-18.239c-3.726,0-6.758,3.031-6.758,6.758v93.772c0,3.312-2.693,6.007-6.006,6.007H390.704
		V133.128c0-3.312,2.693-6.008,6.006-6.008h44.455c0.207,0,0.375-0.168,0.375-0.376c0-0.206-0.168-0.374-0.375-0.374H396.71
		c-3.727,0-6.756,3.031-6.756,6.758v116.621h-45.736v-54.635h10.961c3.727,0,6.757-3.031,6.757-6.758v-25.401
		c0-3.726-3.03-6.757-6.757-6.757h-10.961v-22.746h1.751c3.726,0,6.757-3.031,6.757-6.757v-16.637c0-3.312,2.695-6.007,6.006-6.007
		h172.189c3.726,0,6.756-3.031,6.756-6.756v-5.138c0-3.311,2.695-6.006,6.008-6.006h38.205c0.207,0,0.375-0.167,0.375-0.375
		c0-0.207-0.168-0.376-0.375-0.376h-38.205c-3.727,0-6.758,3.033-6.758,6.757v5.138c0,3.311-2.695,6.006-6.006,6.006H358.731
		c-3.725,0-6.756,3.031-6.756,6.757v16.637c0,3.312-2.695,6.007-6.007,6.007h-1.751V64.237c0-3.312,2.695-6.006,6.007-6.006h204.919
		c3.727,0,6.759-3.032,6.759-6.758V40.3c0-3.312,2.692-6.008,6.006-6.008h18.239c3.312,0,6.006,2.695,6.006,6.008v28.447
		c0,0.206,0.169,0.375,0.375,0.375c0.209,0,0.376-0.169,0.376-0.375V40.3c0-3.726-3.03-6.758-6.757-6.758h-18.239
		c-3.727,0-6.757,3.032-6.757,6.758v11.174c0,3.312-2.694,6.008-6.008,6.008H350.225c-3.726,0-6.757,3.029-6.757,6.756v68.465
		H63.407c-3.727,0-6.758,3.031-6.758,6.757v10.733c0,3.727,3.031,6.756,6.758,6.756h280.061v37.416H198.509
		c-3.726,0-6.757,3.031-6.757,6.757v124.903c0,0.207,0.167,0.376,0.374,0.376c0.208,0,0.375-0.169,0.375-0.376V201.121
		c0-3.312,2.695-6.007,6.008-6.007h144.959V249.749z M389.954,250.499v4.199c0,3.312-2.695,6.008-6.008,6.008h-33.722
		c-3.312,0-6.007-2.695-6.007-6.008v-4.199H389.954z M63.407,156.198c-3.312,0-6.008-2.695-6.008-6.006v-10.733
		c0-3.312,2.695-6.007,6.008-6.007h280.061v22.746H63.407z M344.218,156.948h10.961c3.312,0,6.006,2.695,6.006,6.007v25.401
		c0,3.312-2.694,6.008-6.006,6.008h-10.961V156.948z"/>
	<path fill="#345568" d="M621.968,248.22c-0.209,0-0.375,0.166-0.375,0.373v62.689c0,3.312-2.695,6.008-6.007,6.008h-27.647
		c-3.311,0-6.006-2.695-6.006-6.008v-14.637c0-3.725-3.031-6.757-6.758-6.757H342.049c-3.727,0-6.759,3.032-6.759,6.757v63.057
		c0,3.311-2.693,6.006-6.006,6.006h-78.016c-3.311,0-6.006-2.695-6.006-6.006v-37.146c0-0.207-0.168-0.374-0.376-0.374
		s-0.374,0.167-0.374,0.374v37.146c0,3.725,3.031,6.756,6.756,6.756h78.016c3.727,0,6.758-3.031,6.758-6.756v-63.057
		c0-3.312,2.693-6.006,6.007-6.006h233.126c3.312,0,6.007,2.694,6.007,6.006v14.637c0,3.727,3.031,6.758,6.757,6.758h27.647
		c3.726,0,6.757-3.031,6.757-6.758v-62.689C622.343,248.386,622.175,248.22,621.968,248.22z"/>
</g>
<g id="papers">
	<path fill="#F48272" d="M650.401,155.942c-22.148-22.15-58.061-22.15-80.211,0.001c-17.434,17.436-21.139,43.388-11.133,64.45
		l-19.613,19.613l27.521-7.374c1.021,1.206,2.083,2.388,3.221,3.523c22.151,22.148,58.065,22.152,80.218,0
		C672.554,214.008,672.551,178.091,650.401,155.942z"/>
	<g>
		<g>
			<g>
				<polygon fill="#345568" points="632.069,221.628 598.949,213.071 598.949,160.04 632.069,168.6 				"/>
			</g>
		</g>
		<g>
			<g>
				<polygon fill="#FFFFFF" points="628.595,225.104 595.474,216.548 595.474,163.516 628.595,172.076 				"/>
			</g>
		</g>
		<g>
			<g>
				<polygon fill="#345568" points="625.118,228.58 591.997,220.022 591.997,166.993 625.118,175.552 				"/>
			</g>
		</g>
		<g>
			<g>
				<polygon fill="#FFFFFF" points="621.642,232.059 588.521,223.498 588.521,170.47 621.642,179.028 				"/>
			</g>
			<g>
				<g>
					<path fill="#F48272" d="M615.521,188.526c-0.092,0-0.187-0.012-0.282-0.037l-20.88-5.395c-0.603-0.154-0.964-0.77-0.809-1.371
						c0.154-0.602,0.771-0.961,1.37-0.809l20.881,5.396c0.604,0.154,0.965,0.77,0.809,1.371
						C616.479,188.19,616.022,188.526,615.521,188.526z"/>
				</g>
				<g>
					<path fill="#F48272" d="M615.521,195.151c-0.092,0-0.187-0.013-0.282-0.037l-20.88-5.396c-0.603-0.155-0.964-0.769-0.809-1.372
						c0.154-0.602,0.771-0.961,1.37-0.809l20.881,5.396c0.604,0.156,0.965,0.771,0.809,1.371
						C616.479,194.815,616.022,195.151,615.521,195.151z"/>
				</g>
				<g>
					<path fill="#F48272" d="M615.521,201.775c-0.092,0-0.187-0.013-0.282-0.036l-20.88-5.395c-0.603-0.156-0.964-0.77-0.809-1.373
						c0.154-0.6,0.771-0.959,1.37-0.808l20.881,5.396c0.604,0.156,0.965,0.77,0.809,1.371
						C616.479,201.438,616.022,201.775,615.521,201.775z"/>
				</g>
				<g>
					<path fill="#F48272" d="M615.521,208.398c-0.092,0-0.187-0.011-0.282-0.035l-20.88-5.396c-0.603-0.154-0.964-0.769-0.809-1.371
						c0.154-0.602,0.771-0.963,1.37-0.809l20.881,5.396c0.604,0.154,0.965,0.771,0.809,1.371
						C616.479,208.063,616.022,208.398,615.521,208.398z"/>
				</g>
				<g>
					<path fill="#F48272" d="M615.521,215.024c-0.092,0-0.187-0.013-0.282-0.036l-20.88-5.396c-0.603-0.154-0.964-0.771-0.809-1.371
						c0.154-0.603,0.771-0.965,1.37-0.808l20.881,5.395c0.604,0.156,0.965,0.771,0.809,1.372
						C616.479,214.688,616.022,215.024,615.521,215.024z"/>
				</g>
				<g>
					<path fill="#F48272" d="M615.521,221.649c-0.092,0-0.187-0.013-0.282-0.037l-20.88-5.396c-0.603-0.155-0.964-0.771-0.809-1.37
						c0.154-0.604,0.771-0.963,1.37-0.809l20.881,5.395c0.604,0.156,0.965,0.77,0.809,1.373
						C616.479,221.312,616.022,221.649,615.521,221.649z"/>
				</g>
			</g>
		</g>
	</g>
</g>
<g id="money_1_">
	<g>
		<g>
			<path fill="#345568" d="M617.642,63.188c-14.132-14.133-37.045-14.133-51.178,0.002c-14.135,14.135-14.135,37.047-0.004,51.18
				c14.133,14.131,37.049,14.135,51.184,0C631.776,100.237,631.774,77.321,617.642,63.188z"/>
		</g>
		<g>
			<circle fill="#345568" cx="554.761" cy="116.827" r="5.69"/>
		</g>
		<g>
			<circle fill="#345568" cx="543.992" cy="119.758" r="2.12"/>
		</g>
	</g>
	<g id="money">
		<g>
			<path fill="#FFFFFF" d="M613.806,92.36c-2.152-3.73-5.678-9.834-7.83-13.564c-0.671-1.162-1.475-1.961-2.329-2.399
				c0.583-1.011,1.295-2.245,1.772-3.071c0.615-1.066,0.112-0.094-1.12-0.947c-1.231-0.852-3.246-0.852-4.478,0
				c-1.231,0.854-1.734-0.119-1.12,0.947c0.478,0.826,1.19,2.06,1.773,3.07c-0.854,0.438-1.658,1.238-2.329,2.4
				c-2.153,3.73-5.677,9.834-7.83,13.564c-2.154,3.729-0.394,9.224,3.916,12.209c4.307,2.986,11.354,2.986,15.658,0
				C614.198,101.584,615.958,96.089,613.806,92.36z"/>
			<g>
				<path fill="#F48272" d="M604.951,76.472c0,0.28-0.23,0.508-0.509,0.508h-4.764c-0.28,0-0.509-0.228-0.509-0.508v-1.166
					c0-0.281,0.229-0.51,0.509-0.51h4.764c0.278,0,0.509,0.229,0.509,0.51V76.472z"/>
			</g>
			<g>
				<g>
					<path fill="#F48272" d="M604.588,93.071c0,0.537-0.198,1.015-0.591,1.434c-0.394,0.418-0.943,0.655-1.651,0.713v0.877h-0.604
						v-0.877c-0.65-0.051-1.181-0.246-1.591-0.589c-0.409-0.343-0.616-0.792-0.616-1.348h1.049c0.022,0.296,0.127,0.546,0.32,0.747
						c0.189,0.201,0.469,0.323,0.838,0.368v-2.653c-0.742-0.165-1.247-0.352-1.515-0.562c-0.325-0.258-0.526-0.537-0.605-0.832
						c-0.06-0.195-0.087-0.414-0.087-0.658c0-0.586,0.199-1.068,0.594-1.451c0.398-0.383,0.936-0.601,1.613-0.65v-0.875h0.604v0.875
						c0.607,0.05,1.097,0.242,1.474,0.568c0.373,0.329,0.595,0.768,0.659,1.314h-1.081c-0.021-0.238-0.125-0.453-0.31-0.648
						c-0.183-0.195-0.431-0.324-0.742-0.389v2.596c0.903,0.188,1.493,0.432,1.775,0.736
						C604.434,92.099,604.588,92.532,604.588,93.071z M600.837,88.778c-0.228,0.211-0.341,0.496-0.341,0.857
						c0,0.359,0.107,0.629,0.321,0.805c0.211,0.178,0.52,0.324,0.924,0.439v-2.467C601.366,88.448,601.065,88.57,600.837,88.778z
						 M603.282,93.969c0.228-0.235,0.342-0.522,0.342-0.865s-0.108-0.604-0.331-0.778c-0.22-0.178-0.535-0.32-0.947-0.429v2.5
						C602.743,94.347,603.056,94.203,603.282,93.969z"/>
				</g>
			</g>
		</g>
		<g>
			<path fill="#F48272" d="M598.006,92.397c-2.526-4.373-6.659-11.529-9.184-15.904c-0.787-1.363-1.73-2.301-2.732-2.814
				c0.684-1.186,1.519-2.632,2.079-3.603c0.722-1.25,0.133-0.107-1.312-1.108c-1.443-1.001-3.807-1.001-5.252,0
				c-1.444,1.001-2.035-0.142-1.312,1.108c0.561,0.972,1.396,2.418,2.08,3.604c-1.002,0.513-1.946,1.45-2.733,2.813
				c-2.526,4.375-6.655,11.531-9.182,15.904c-2.526,4.374-0.46,10.818,4.591,14.319s13.316,3.501,18.366,0
				C598.462,103.216,600.53,96.771,598.006,92.397z"/>
			<g>
				<path fill="#345568" d="M587.62,73.767c0,0.328-0.268,0.598-0.596,0.598h-5.586c-0.328,0-0.598-0.27-0.598-0.598v-1.367
					c0-0.328,0.27-0.598,0.598-0.598h5.586c0.328,0,0.596,0.27,0.596,0.598V73.767z"/>
			</g>
			<g>
				<g>
					<path fill="#345568" d="M587.196,93.231c0,0.631-0.233,1.191-0.693,1.682c-0.462,0.49-1.105,0.771-1.936,0.838v1.028h-0.712
						v-1.028c-0.761-0.059-1.382-0.291-1.863-0.691c-0.483-0.402-0.726-0.928-0.726-1.58h1.232c0.025,0.348,0.148,0.641,0.375,0.874
						c0.223,0.237,0.551,0.38,0.981,0.433v-3.109c-0.87-0.194-1.462-0.413-1.776-0.66c-0.382-0.303-0.615-0.63-0.709-0.977
						c-0.068-0.227-0.104-0.484-0.104-0.772c0-0.687,0.234-1.253,0.698-1.7c0.466-0.449,1.097-0.703,1.891-0.764v-1.026h0.712v1.026
						c0.712,0.061,1.285,0.283,1.727,0.666c0.439,0.387,0.697,0.9,0.771,1.543h-1.268c-0.024-0.279-0.146-0.533-0.361-0.762
						c-0.216-0.227-0.506-0.379-0.869-0.456v3.045c1.057,0.221,1.751,0.508,2.08,0.862
						C587.013,92.093,587.196,92.603,587.196,93.231z M582.797,88.2c-0.266,0.245-0.399,0.58-0.399,1.003s0.125,0.738,0.373,0.946
						c0.25,0.207,0.611,0.377,1.085,0.512v-2.893C583.415,87.811,583.063,87.954,582.797,88.2z M585.665,94.284
						c0.266-0.273,0.399-0.611,0.399-1.014s-0.128-0.708-0.386-0.914c-0.259-0.207-0.629-0.374-1.111-0.502v2.932
						C585.032,94.728,585.397,94.56,585.665,94.284z"/>
				</g>
			</g>
		</g>
	</g>
</g>
<g id="way">
	<g>
		<path fill="#F48272" d="M251.465,185.828c0.597-1.166,0.94-2.483,0.94-3.882c0-3.396-1.985-6.318-4.854-7.695
			c0.279-0.846,0.438-1.746,0.438-2.687c0-4.718-3.825-8.541-8.543-8.541c-4.717,0-8.542,3.823-8.542,8.541
			c0,0.985,0.175,1.925,0.481,2.806c-2.734,1.423-4.605,4.279-4.605,7.576c0,1.344,0.319,2.613,0.873,3.745
			c-2.461,1.499-4.107,4.2-4.107,7.29c0,4.72,3.823,8.542,8.541,8.542h14.721c4.717,0,8.541-3.822,8.541-8.542
			C255.349,189.985,253.802,187.352,251.465,185.828z"/>
		<g>
			<rect x="239.448" y="170.504" fill="#345568" width="1.5" height="31.02"/>
		</g>
	</g>
	<g>
		<path fill="#345568" d="M308.585,217.796c5.018-5.988,7.754-13.471,7.754-21.377c0-8.908-3.467-17.283-9.767-23.583
			s-14.677-9.77-23.585-9.77c-7.9,0-15.379,2.734-21.365,7.747c-0.395,0.271-0.773,0.576-1.123,0.926L99.546,332.693
			c-6.859,6.86-18.02,6.86-24.879,0.001c-3.323-3.323-5.153-7.74-5.153-12.44c0-4.699,1.83-9.117,5.153-12.44l202.382-202.383
			c13.003-13.004,13.005-34.163,0-47.17c-12.284-12.281-31.839-12.954-44.929-2.033c-0.401,0.272-0.785,0.583-1.143,0.941
			l-1.082,1.081c-0.004,0.004-0.01,0.009-0.015,0.013c-0.002,0.002-0.004,0.006-0.007,0.008L96.825,191.321
			c-3.078,3.076-3.078,8.066,0,11.144c1.539,1.538,3.555,2.308,5.57,2.308c2.018,0,4.033-0.77,5.574-2.308L241.033,69.4
			c6.857-6.854,18.013-6.852,24.872,0.006c6.859,6.86,6.859,18.021,0,24.88L63.522,296.67c-6.299,6.299-9.77,14.675-9.77,23.584
			s3.471,17.286,9.77,23.584c6.502,6.501,15.043,9.753,23.584,9.753s17.08-3.252,23.584-9.753l159.844-159.844
			c0.002-0.004,0.01-0.01,0.013-0.013c3.324-3.324,7.743-5.154,12.44-5.154c4.699,0,9.117,1.831,12.439,5.154
			c3.323,3.321,5.152,7.739,5.152,12.438c0,4.691-1.824,9.104-5.137,12.424l-69.31,69.31c-3.077,3.077-3.077,8.067,0,11.146
			c1.54,1.537,3.556,2.307,5.573,2.307s4.033-0.77,5.57-2.307l69.287-69.287c0.003-0.003,0.005-0.005,0.009-0.007
			c0.005-0.005,0.009-0.011,0.015-0.016l1.08-1.08C308.013,218.56,308.316,218.187,308.585,217.796z"/>
		<g>
			<g>
				<path fill="#F48272" d="M91.083,323.743c0.597-1.166,0.941-2.482,0.941-3.883c0-3.395-1.986-6.317-4.855-7.693
					c0.279-0.846,0.438-1.747,0.438-2.688c0-4.718-3.825-8.541-8.542-8.541c-4.719,0-8.543,3.823-8.543,8.541
					c0,0.984,0.174,1.926,0.48,2.806c-2.734,1.423-4.605,4.278-4.605,7.575c0,1.344,0.32,2.613,0.874,3.746
					c-2.46,1.5-4.108,4.199-4.108,7.291c0,4.719,3.824,8.541,8.542,8.541h14.72c4.717,0,8.541-3.822,8.541-8.541
					C94.966,327.901,93.419,325.267,91.083,323.743z"/>
				<g>
					<rect x="79.065" y="308.419" fill="#345568" width="1.502" height="31.02"/>
				</g>
			</g>
			<g>
				<path fill="#345568" d="M110.69,332.693c-3.078-3.076-8.066-3.076-11.145,0c-6.859,6.86-18.02,6.86-24.879,0.001
					c-3.323-3.323-5.153-7.74-5.153-12.44c0-0.022,0.001-0.044,0.001-0.065h-15.76c0,0.021-0.002,0.043-0.002,0.065
					c0,8.909,3.471,17.286,9.77,23.584c6.502,6.501,15.043,9.753,23.584,9.753s17.08-3.252,23.584-9.753
					C113.768,340.761,113.768,335.772,110.69,332.693z"/>
			</g>
			<g>
				<path fill="#F48272" d="M74.94,311.319c-4.72,0-8.543,3.826-8.543,8.541c0,4.719,3.823,8.543,8.543,8.543"/>
			</g>
		</g>
		<g>
			<g>
				<path fill="#D7DFE2" d="M87.106,346.102c-1.75,0-3.504-0.178-5.216-0.528c-0.202-0.043-0.334-0.24-0.292-0.443
					c0.043-0.203,0.242-0.334,0.443-0.293c2.889,0.595,5.908,0.672,8.824,0.232c0.203-0.031,0.396,0.111,0.426,0.315
					c0.031,0.204-0.109,0.396-0.314,0.426C89.702,346.005,88.399,346.102,87.106,346.102z M99.405,342.942
					c-0.132,0-0.26-0.068-0.328-0.194c-0.1-0.18-0.035-0.409,0.148-0.509c2.055-1.135,3.949-2.562,5.628-4.239l1.294-1.294
					c0.146-0.146,0.385-0.146,0.531,0c0.146,0.146,0.146,0.385,0,0.53l-1.295,1.295c-1.729,1.728-3.678,3.196-5.798,4.364
					C99.53,342.928,99.468,342.942,99.405,342.942z M73.646,342.261c-0.068,0-0.137-0.018-0.199-0.056
					c-1.664-1.038-3.217-2.274-4.615-3.674c-0.762-0.76-1.48-1.571-2.137-2.414c-0.127-0.163-0.097-0.399,0.066-0.526
					c0.162-0.129,0.398-0.099,0.525,0.066c0.639,0.815,1.336,1.605,2.074,2.343c1.359,1.36,2.869,2.562,4.484,3.567
					c0.174,0.109,0.229,0.342,0.119,0.518C73.894,342.2,73.77,342.261,73.646,342.261z M112.781,330.978
					c-0.097,0-0.192-0.035-0.266-0.109c-0.146-0.146-0.146-0.385,0-0.53l6.366-6.367c0.148-0.147,0.385-0.147,0.532,0
					c0.147,0.146,0.147,0.384,0,0.53l-6.369,6.367C112.974,330.942,112.877,330.978,112.781,330.978z M62.821,328.335
					c-0.16,0-0.307-0.102-0.357-0.262c-0.801-2.528-1.207-5.158-1.207-7.819c0-0.398,0.009-0.796,0.029-1.194
					c0.01-0.205,0.2-0.387,0.393-0.357c0.207,0.011,0.365,0.186,0.355,0.394c-0.016,0.386-0.025,0.772-0.025,1.158
					c0,2.585,0.393,5.14,1.17,7.592c0.062,0.2-0.047,0.409-0.244,0.473C62.897,328.329,62.858,328.335,62.821,328.335z
					 M125.517,318.242c-0.097,0-0.192-0.036-0.266-0.108c-0.146-0.148-0.146-0.384,0-0.531l6.367-6.369
					c0.146-0.146,0.384-0.146,0.531,0c0.146,0.148,0.146,0.385,0,0.531l-6.369,6.369
					C125.708,318.206,125.611,318.242,125.517,318.242z M63.636,310.714c-0.049,0-0.1-0.008-0.146-0.027
					c-0.191-0.082-0.281-0.302-0.201-0.492c1.189-2.814,2.858-5.377,4.961-7.619c0.142-0.152,0.381-0.156,0.531-0.017
					c0.151,0.143,0.158,0.38,0.017,0.53c-2.043,2.178-3.663,4.666-4.815,7.396C63.919,310.63,63.781,310.714,63.636,310.714z
					 M138.251,305.507c-0.096,0-0.191-0.036-0.264-0.111c-0.148-0.146-0.148-0.383,0-0.529l6.367-6.367
					c0.146-0.146,0.385-0.146,0.531,0c0.146,0.146,0.146,0.385,0,0.53l-6.368,6.366
					C138.444,305.471,138.347,305.507,138.251,305.507z M74.881,296.83c-0.095,0-0.192-0.036-0.266-0.108
					c-0.147-0.146-0.147-0.384,0-0.531l6.368-6.367c0.146-0.148,0.385-0.148,0.53,0c0.146,0.146,0.146,0.383,0,0.53l-6.366,6.368
					C75.071,296.794,74.978,296.83,74.881,296.83z M150.987,292.771c-0.096,0-0.191-0.036-0.265-0.109
					c-0.146-0.146-0.146-0.385,0-0.53l6.367-6.369c0.146-0.146,0.384-0.146,0.53,0c0.146,0.147,0.146,0.385,0,0.532l-6.367,6.367
					C151.179,292.734,151.084,292.771,150.987,292.771z M231.706,284.101c-0.098,0-0.193-0.037-0.267-0.111
					c-0.146-0.146-0.146-0.383,0-0.529l2.28-2.281c0.147-0.146,0.385-0.146,0.531,0c0.146,0.147,0.146,0.385,0,0.531l-2.281,2.279
					C231.898,284.063,231.801,284.101,231.706,284.101z M87.616,284.095c-0.096,0-0.192-0.036-0.266-0.109
					c-0.146-0.147-0.146-0.385,0-0.531l6.368-6.367c0.147-0.146,0.385-0.146,0.53,0c0.148,0.146,0.148,0.385,0,0.53l-6.367,6.368
					C87.809,284.059,87.712,284.095,87.616,284.095z M163.724,280.035c-0.097,0-0.192-0.036-0.266-0.108
					c-0.146-0.146-0.146-0.385,0-0.531l6.368-6.367c0.147-0.148,0.384-0.148,0.53,0c0.146,0.146,0.146,0.383,0,0.53l-6.368,6.368
					C163.915,279.999,163.819,280.035,163.724,280.035z M240.353,275.452c-0.094,0-0.191-0.037-0.265-0.111
					c-0.146-0.146-0.146-0.383,0-0.53l6.369-6.368c0.146-0.146,0.384-0.146,0.529,0c0.146,0.147,0.146,0.385,0,0.531l-6.366,6.367
					C240.544,275.415,240.449,275.452,240.353,275.452z M100.353,271.358c-0.096,0-0.191-0.035-0.266-0.109
					c-0.146-0.146-0.146-0.385,0-0.53l6.369-6.367c0.146-0.147,0.383-0.147,0.53,0c0.146,0.146,0.146,0.384,0,0.53l-6.368,6.367
					C100.544,271.323,100.448,271.358,100.353,271.358z M176.459,267.3c-0.096,0-0.192-0.036-0.265-0.109
					c-0.146-0.147-0.146-0.385,0-0.531l6.367-6.367c0.147-0.146,0.383-0.146,0.531,0c0.146,0.146,0.146,0.384,0,0.529l-6.368,6.369
					C176.651,267.264,176.556,267.3,176.459,267.3z M253.089,262.716c-0.096,0-0.192-0.035-0.266-0.11
					c-0.146-0.146-0.146-0.384,0-0.53l6.368-6.368c0.147-0.146,0.385-0.146,0.53,0c0.148,0.147,0.148,0.386,0,0.532l-6.367,6.366
					C253.282,262.681,253.185,262.716,253.089,262.716z M113.089,258.623c-0.096,0-0.192-0.036-0.266-0.108
					c-0.146-0.148-0.146-0.384,0-0.531l6.368-6.369c0.146-0.146,0.384-0.146,0.529,0c0.147,0.147,0.147,0.385,0,0.531l-6.366,6.369
					C113.28,258.587,113.185,258.623,113.089,258.623z M189.194,254.563c-0.096,0-0.192-0.035-0.265-0.109
					c-0.147-0.146-0.147-0.385,0-0.531l6.367-6.366c0.147-0.147,0.385-0.147,0.53,0c0.146,0.146,0.146,0.384,0,0.53l-6.367,6.367
					C189.387,254.528,189.291,254.563,189.194,254.563z M265.825,249.979c-0.096,0-0.193-0.037-0.266-0.109
					c-0.146-0.146-0.146-0.384,0-0.529l6.369-6.369c0.146-0.146,0.383-0.146,0.53,0c0.146,0.146,0.146,0.383,0,0.531l-6.368,6.367
					C266.017,249.942,265.921,249.979,265.825,249.979z M125.823,245.888c-0.096,0-0.19-0.036-0.266-0.111
					c-0.146-0.146-0.146-0.383,0-0.529l6.369-6.367c0.146-0.146,0.384-0.146,0.531,0c0.146,0.146,0.146,0.384,0,0.529l-6.368,6.367
					C126.017,245.852,125.919,245.888,125.823,245.888z M201.931,241.827c-0.097,0-0.191-0.037-0.266-0.107
					c-0.146-0.148-0.146-0.385,0-0.531l6.367-6.369c0.146-0.146,0.384-0.146,0.531,0c0.146,0.147,0.146,0.383,0,0.531l-6.368,6.369
					C202.122,241.79,202.026,241.827,201.931,241.827z M278.562,237.245c-0.096,0-0.192-0.037-0.266-0.111
					c-0.146-0.146-0.146-0.383,0-0.53l6.368-6.368c0.146-0.146,0.384-0.146,0.53,0s0.146,0.385,0,0.531l-6.367,6.367
					C278.754,237.208,278.657,237.245,278.562,237.245z M138.56,233.151c-0.098,0-0.191-0.037-0.266-0.109
					c-0.146-0.146-0.146-0.385,0-0.531l6.369-6.367c0.146-0.146,0.383-0.146,0.53,0c0.146,0.146,0.146,0.384,0,0.531l-6.368,6.367
					C138.751,233.114,138.655,233.151,138.56,233.151z M214.666,229.093c-0.097,0-0.192-0.037-0.265-0.111
					c-0.148-0.146-0.148-0.383,0-0.529l6.367-6.368c0.147-0.146,0.385-0.146,0.531,0c0.146,0.146,0.146,0.384,0,0.53l-6.367,6.367
					C214.858,229.056,214.763,229.093,214.666,229.093z M291.297,224.508c-0.097,0-0.19-0.036-0.267-0.109
					c-0.146-0.147-0.146-0.384,0-0.53l6.369-6.368c0.146-0.147,0.384-0.147,0.531,0c0.146,0.146,0.146,0.384,0,0.531l-6.368,6.367
					C291.489,224.472,291.392,224.508,291.297,224.508z M151.296,220.415c-0.096,0-0.193-0.035-0.266-0.109
					c-0.146-0.146-0.146-0.384,0-0.531l6.368-6.367c0.146-0.146,0.384-0.146,0.53,0c0.146,0.146,0.146,0.385,0,0.53l-6.367,6.368
					C151.486,220.38,151.392,220.415,151.296,220.415z M227.401,216.356c-0.096,0-0.191-0.037-0.264-0.109
					c-0.146-0.146-0.146-0.385,0-0.531l6.366-6.368c0.147-0.146,0.385-0.146,0.53,0c0.147,0.147,0.147,0.384,0,0.531l-6.367,6.368
					C227.594,216.319,227.498,216.356,227.401,216.356z M301.822,213.946c-0.09,0-0.182-0.034-0.253-0.099
					c-0.153-0.14-0.162-0.377-0.024-0.53c2.011-2.205,3.595-4.717,4.707-7.466c0.079-0.192,0.298-0.284,0.488-0.207
					c0.192,0.077,0.286,0.296,0.208,0.487c-1.147,2.833-2.777,5.42-4.848,7.69C302.026,213.903,301.925,213.946,301.822,213.946z
					 M164.031,207.681c-0.097,0-0.192-0.036-0.267-0.111c-0.146-0.146-0.146-0.383,0-0.529l6.369-6.369
					c0.146-0.146,0.384-0.146,0.531,0c0.146,0.146,0.146,0.386,0,0.531l-6.369,6.367
					C164.224,207.645,164.126,207.681,164.031,207.681z M240.137,203.62c-0.096,0-0.19-0.037-0.265-0.109
					c-0.146-0.147-0.146-0.385,0-0.531l6.367-6.367c0.146-0.146,0.385-0.146,0.53,0c0.147,0.146,0.147,0.383,0,0.531l-6.367,6.367
					C240.329,203.583,240.233,203.62,240.137,203.62z M308.448,197.603c-0.005,0-0.008,0-0.012,0
					c-0.207-0.006-0.371-0.18-0.364-0.387c0.009-0.266,0.014-0.531,0.014-0.797c0-2.708-0.433-5.379-1.284-7.938
					c-0.064-0.197,0.041-0.411,0.237-0.477c0.197-0.066,0.409,0.043,0.476,0.238c0.877,2.637,1.32,5.387,1.32,8.176
					c0,0.273-0.004,0.545-0.012,0.82C308.815,197.442,308.649,197.603,308.448,197.603z M102.396,197.269
					c-0.095,0-0.19-0.037-0.264-0.11c-0.147-0.146-0.147-0.384,0-0.53l6.367-6.368c0.146-0.146,0.384-0.146,0.529,0
					c0.148,0.146,0.148,0.384,0,0.53l-6.366,6.368C102.589,197.231,102.493,197.269,102.396,197.269z M176.767,194.944
					c-0.096,0-0.191-0.035-0.265-0.109c-0.147-0.146-0.147-0.385,0-0.531l6.368-6.366c0.146-0.147,0.385-0.147,0.53,0
					c0.147,0.146,0.147,0.384,0,0.529l-6.368,6.368C176.96,194.909,176.863,194.944,176.767,194.944z M252.874,190.885
					c-0.098,0-0.192-0.036-0.268-0.11c-0.146-0.146-0.146-0.384,0-0.529l6.369-6.369c0.147-0.146,0.383-0.146,0.531,0
					c0.146,0.146,0.146,0.385,0,0.531l-6.369,6.367C253.065,190.849,252.97,190.885,252.874,190.885z M115.133,184.532
					c-0.097,0-0.192-0.037-0.267-0.109c-0.146-0.146-0.146-0.385,0-0.531l6.369-6.369c0.146-0.145,0.383-0.145,0.531,0
					c0.146,0.147,0.146,0.385,0,0.531l-6.369,6.369C115.325,184.495,115.228,184.532,115.133,184.532z M189.503,182.208
					c-0.096,0-0.191-0.035-0.266-0.107c-0.146-0.148-0.146-0.385,0-0.532l6.368-6.368c0.146-0.146,0.384-0.146,0.53,0
					c0.147,0.147,0.147,0.383,0,0.531l-6.367,6.369C189.695,182.173,189.599,182.208,189.503,182.208z M302.872,180.87
					c-0.108,0-0.217-0.047-0.292-0.139c-0.575-0.717-1.196-1.408-1.845-2.059c-1.446-1.445-3.061-2.709-4.797-3.758
					c-0.178-0.108-0.234-0.338-0.128-0.515c0.108-0.18,0.341-0.233,0.515-0.127c1.789,1.077,3.451,2.38,4.939,3.87
					c0.67,0.667,1.309,1.379,1.901,2.117c0.129,0.162,0.104,0.398-0.058,0.527C303.038,180.845,302.956,180.87,302.872,180.87z
					 M264.976,178.784c-0.097,0-0.191-0.038-0.266-0.111c-0.146-0.146-0.146-0.383,0-0.529l0.621-0.621
					c0.004-0.006,0.008-0.01,0.014-0.014l0.461-0.462c0.053-0.052,0.119-0.087,0.186-0.101c1.297-1.135,2.699-2.134,4.188-2.984
					c0.178-0.101,0.408-0.041,0.512,0.139c0.103,0.182,0.04,0.41-0.14,0.514c-1.927,1.1-3.708,2.46-5.294,4.044l-0.016,0.015l0,0
					C265.169,178.746,265.071,178.784,264.976,178.784z M127.868,171.796c-0.096,0-0.192-0.036-0.266-0.109
					c-0.146-0.146-0.146-0.385,0-0.531l6.368-6.367c0.147-0.147,0.385-0.147,0.53,0c0.146,0.146,0.146,0.384,0,0.529l-6.367,6.369
					C128.061,171.76,127.965,171.796,127.868,171.796z M287.765,171.772c-0.023,0-0.047-0.004-0.07-0.007
					c-2.897-0.552-5.92-0.585-8.828-0.104c-0.199,0.038-0.396-0.105-0.431-0.309c-0.034-0.205,0.104-0.397,0.31-0.432
					c2.992-0.494,6.105-0.46,9.09,0.107c0.203,0.039,0.338,0.235,0.299,0.439C288.099,171.647,287.94,171.772,287.765,171.772z
					 M202.239,169.474c-0.096,0-0.191-0.036-0.267-0.111c-0.146-0.146-0.146-0.384,0-0.529l6.368-6.368
					c0.148-0.147,0.385-0.147,0.532,0c0.146,0.146,0.146,0.385,0,0.53l-6.369,6.367
					C202.431,169.438,202.333,169.474,202.239,169.474z M140.605,159.06c-0.098,0-0.192-0.035-0.267-0.108
					c-0.146-0.147-0.146-0.384,0-0.532l6.367-6.366c0.146-0.147,0.384-0.147,0.529,0c0.147,0.146,0.147,0.384,0,0.53l-6.366,6.368
					C140.796,159.024,140.7,159.06,140.605,159.06z M214.974,156.737c-0.098,0-0.191-0.037-0.266-0.109
					c-0.146-0.147-0.146-0.385,0-0.531l6.369-6.369c0.146-0.146,0.384-0.146,0.53,0c0.147,0.147,0.147,0.385,0,0.532l-6.368,6.368
					C215.167,156.7,215.069,156.737,214.974,156.737z M153.339,146.325c-0.096,0-0.191-0.037-0.266-0.109
					c-0.146-0.147-0.146-0.385,0-0.531l6.369-6.367c0.146-0.147,0.383-0.147,0.53,0c0.147,0.146,0.147,0.383,0,0.529l-6.368,6.369
					C153.532,146.288,153.435,146.325,153.339,146.325z M227.71,144.001c-0.096,0-0.193-0.037-0.266-0.109
					c-0.146-0.146-0.146-0.385,0-0.531l6.369-6.367c0.146-0.146,0.383-0.146,0.529,0c0.146,0.146,0.146,0.383,0,0.529l-6.367,6.369
					C227.901,143.964,227.806,144.001,227.71,144.001z M166.075,133.59c-0.096,0-0.192-0.037-0.266-0.11
					c-0.146-0.147-0.146-0.383,0-0.531l6.368-6.367c0.147-0.146,0.385-0.146,0.53,0c0.147,0.146,0.147,0.384,0,0.529l-6.367,6.369
					C166.268,133.553,166.171,133.59,166.075,133.59z M240.446,131.266c-0.096,0-0.191-0.036-0.267-0.11
					c-0.146-0.146-0.146-0.384,0-0.529l6.368-6.369c0.146-0.146,0.385-0.146,0.531,0s0.146,0.384,0,0.531l-6.367,6.367
					C240.638,131.229,240.541,131.266,240.446,131.266z M178.811,120.854c-0.095,0-0.19-0.036-0.264-0.109
					c-0.147-0.146-0.147-0.385,0-0.53l6.366-6.368c0.146-0.147,0.385-0.147,0.53,0c0.147,0.146,0.147,0.384,0,0.53l-6.367,6.368
					C179.003,120.817,178.907,120.854,178.811,120.854z M253.181,118.53c-0.095,0-0.191-0.037-0.264-0.111
					c-0.147-0.146-0.147-0.383,0-0.529l6.367-6.369c0.146-0.146,0.385-0.146,0.531,0c0.146,0.146,0.146,0.385,0,0.531l-6.369,6.367
					C253.374,118.493,253.277,118.53,253.181,118.53z M191.548,108.118c-0.098,0-0.192-0.037-0.267-0.111
					c-0.146-0.146-0.146-0.383,0-0.53l6.368-6.368c0.148-0.146,0.385-0.146,0.531,0c0.146,0.147,0.146,0.385,0,0.531l-6.369,6.367
					C191.739,108.081,191.642,108.118,191.548,108.118z M265.917,105.794c-0.096,0-0.191-0.037-0.264-0.11
					c-0.148-0.147-0.148-0.384,0-0.53l5.559-5.56c0.268-0.267,0.526-0.538,0.778-0.813c0.14-0.152,0.379-0.164,0.529-0.023
					c0.153,0.139,0.165,0.377,0.024,0.53c-0.26,0.282-0.525,0.563-0.803,0.839l-5.559,5.558
					C266.11,105.757,266.015,105.794,265.917,105.794z M204.282,95.381c-0.095,0-0.191-0.035-0.264-0.109
					c-0.147-0.147-0.147-0.385,0-0.53l6.367-6.367c0.146-0.148,0.384-0.148,0.531,0c0.146,0.146,0.146,0.384,0,0.529l-6.369,6.368
					C204.475,95.346,204.38,95.381,204.282,95.381z M277.06,91.841c-0.049,0-0.096-0.01-0.142-0.027
					c-0.192-0.079-0.284-0.297-0.206-0.49c1.119-2.749,1.736-5.652,1.836-8.633c0.008-0.202,0.174-0.361,0.375-0.361
					c0.004,0,0.009,0,0.012,0c0.209,0.006,0.371,0.181,0.363,0.387c-0.102,3.068-0.738,6.059-1.892,8.891
					C277.349,91.752,277.208,91.841,277.06,91.841z M217.02,82.646c-0.097,0-0.192-0.035-0.266-0.109
					c-0.147-0.147-0.147-0.384,0-0.531l6.366-6.367c0.148-0.147,0.385-0.147,0.532,0c0.147,0.146,0.147,0.385,0,0.53l-6.368,6.368
					C217.212,82.61,217.115,82.646,217.02,82.646z M277.651,74.212c-0.157,0-0.303-0.1-0.355-0.258
					c-0.934-2.823-2.35-5.434-4.208-7.758c-0.128-0.162-0.104-0.398,0.059-0.527c0.165-0.127,0.399-0.102,0.528,0.059
					c1.914,2.394,3.372,5.082,4.332,7.99c0.065,0.197-0.041,0.409-0.238,0.476C277.729,74.206,277.69,74.212,277.651,74.212z
					 M229.755,69.909c-0.097,0-0.192-0.036-0.266-0.109c-0.147-0.146-0.147-0.385,0-0.53l6.369-6.368
					c0.146-0.146,0.384-0.146,0.529,0c0.146,0.146,0.146,0.384,0,0.531l-6.367,6.367C229.946,69.873,229.851,69.909,229.755,69.909z
					 M266.65,60.421c-0.065,0-0.131-0.017-0.192-0.055c-2.54-1.538-5.312-2.604-8.236-3.164c-0.205-0.039-0.338-0.236-0.3-0.439
					c0.04-0.205,0.241-0.338,0.439-0.299c3.015,0.579,5.869,1.677,8.483,3.262c0.178,0.107,0.234,0.338,0.128,0.514
					C266.903,60.357,266.778,60.421,266.65,60.421z M240.886,60.065c-0.131,0-0.258-0.067-0.326-0.189
					c-0.104-0.18-0.041-0.41,0.14-0.512c2.658-1.512,5.544-2.529,8.572-3.023c0.2-0.033,0.397,0.104,0.431,0.309
					s-0.105,0.398-0.309,0.431c-2.942,0.481-5.741,1.47-8.323,2.937C241.012,60.05,240.948,60.065,240.886,60.065z"/>
			</g>
		</g>
	</g>
	<g>
		<path fill="#F48272" d="M102.397,130.851c-11.059,0-20.023,8.965-20.023,20.023s14.357,43.75,20.023,43.75
			c5.793,0,20.023-32.691,20.023-43.75S113.456,130.851,102.397,130.851z M102.397,161.938c-6.109,0-11.066-4.951-11.066-11.064
			c0-6.109,4.957-11.062,11.066-11.062s11.062,4.953,11.062,11.062C113.46,156.987,108.507,161.938,102.397,161.938z"/>
	</g>
	<g>
		<g>
			<path fill="#F48272" d="M203.884,114.76c-0.453-0.165-1.1-0.021-1.438,0.317l-7.259,7.26c-0.341,0.338-0.341,0.895,0,1.236
				l15.4,15.401c0.341,0.339,0.896,0.896,1.237,1.235l5.083,5.084c0.341,0.34,0.897,0.342,1.237,0l15.036-15.034
				c0.342-0.342,0.34-0.899,0-1.239l-5.084-5.084c-0.34-0.34-0.988-0.752-1.44-0.915L203.884,114.76z"/>
		</g>
		<g>
			<path fill="#D7DFE2" d="M218.143,146.53c-0.338-0.34-0.338-0.895,0.002-1.236l15.562-15.561c0.34-0.34,0.896-0.342,1.234,0
				l0.943,0.943c0.341,0.34,0.341,0.896,0.001,1.234l-15.562,15.562c-0.341,0.342-0.896,0.342-1.236,0L218.143,146.53z"/>
		</g>
		<g>
			<path fill="#D7DFE2" d="M183.599,181.075c-0.34-0.34-0.338-0.896,0.002-1.234l33.308-33.309c0.342-0.342,0.896-0.342,1.234-0.002
				l0.944,0.943c0.34,0.342,0.342,0.896,0,1.236l-33.308,33.309c-0.339,0.34-0.896,0.34-1.237,0L183.599,181.075z"/>
		</g>
		<g>
			<path fill="#345568" d="M227.549,127.536c-0.342-0.34-0.342-0.895,0-1.234l1.29-1.293c0.34-0.338,0.895-0.338,1.234,0.002
				l0.943,0.945c0.341,0.339,0.341,0.895,0,1.234l-1.289,1.291c-0.341,0.338-0.896,0.338-1.235,0L227.549,127.536z"/>
		</g>
		<g>
			<path fill="#D7DFE2" d="M212.935,136.423c-0.113-0.111-0.113-0.299,0-0.411l0.061-0.061c0.113-0.113,0.301-0.113,0.414,0
				l1.766,1.767c0.113,0.113,0.111,0.299,0,0.41l-0.062,0.062c-0.113,0.112-0.298,0.112-0.411,0L212.935,136.423z"/>
		</g>
		<g>
			<path fill="#345568" d="M209.72,135.703c0.338,0.339,0.894,0.341,1.234,0l11.545-11.546c0.34-0.338,0.248-0.752-0.201-0.92
				l-17.644-6.559c-0.449-0.168-1.095-0.027-1.436,0.312l-5.487,5.489c-0.34,0.341-0.34,0.896,0,1.234L209.72,135.703z"/>
		</g>
		<g>
			<path fill="#FFFFFF" d="M182.305,179.508c0.372,0.522,1.05,0.579,1.501,0.126l32.17-32.169c0.453-0.453,0.451-1.195,0-1.649
				l-19.969-19.966c-0.451-0.454-1.191-0.453-1.646,0l-28.533,28.535c-0.453,0.452-0.52,1.25-0.15,1.772L182.305,179.508z"/>
		</g>
		<g>
			<path fill="#345568" d="M216.168,141.866c0,0,0,0-0.002,0c-0.282,0-0.55-0.111-0.749-0.311l-5.812-5.812l0.265-0.264l5.812,5.81
				c0.128,0.129,0.301,0.201,0.485,0.201l0,0c0.184,0,0.355-0.07,0.483-0.199l9.843-9.843c0.278-0.278,0.336-0.794,0.124-1.123
				l-4.244-6.726l0.316-0.201l4.244,6.726c0.305,0.475,0.227,1.188-0.176,1.59l-9.842,9.843
				C216.718,141.755,216.452,141.866,216.168,141.866z"/>
		</g>
		<g>
			<g>
				<path fill="#D7DFE2" d="M229.423,136.197c-1.777-1.776-4.653-1.776-6.43,0c-1.775,1.776-1.775,4.652-0.002,6.429"/>
			</g>
			<g>
				<path fill="#F48272" d="M228.897,136.72c-1.485-1.488-3.896-1.486-5.382,0c-1.489,1.488-1.489,3.896,0,5.383
					c1.485,1.487,3.896,1.487,5.382,0C230.386,140.616,230.387,138.205,228.897,136.72z"/>
			</g>
			<g>
				<circle fill="#345568" cx="226.207" cy="139.411" r="1.931"/>
			</g>
		</g>
		<g>
			<g>
				<path fill="#D7DFE2" d="M197.78,167.839c-1.775-1.775-4.652-1.775-6.429,0c-1.774,1.776-1.776,4.654,0,6.429"/>
			</g>
			<g>
				<circle fill="#F48272" cx="194.566" cy="171.055" r="3.808"/>
			</g>
			<g>
				<circle fill="#345568" cx="194.565" cy="171.054" r="1.933"/>
			</g>
		</g>
		<g>

				<rect x="197.366" y="137.138" transform="matrix(0.7071 0.7071 -0.7071 0.7071 171.4622 -92.6369)" fill="#345568" width="0.376" height="47.034"/>
		</g>
	</g>
</g>
<g id="drawer">
	<g>
		<rect x="562.517" y="281.616" fill="#F48272" width="75.003" height="18.435"/>
	</g>
	<g>
		<rect x="637.52" y="281.616" fill="#345568" width="16.938" height="55.068"/>
	</g>
	<g>
		<g>
			<polygon fill="#345568" points="633.011,336.685 637.52,336.685 636.367,355.022 634.161,355.022 			"/>
		</g>
		<g>
			<polygon fill="#345568" points="562.517,336.685 567.024,336.685 565.874,355.022 563.669,355.022 			"/>
		</g>
	</g>
	<g>
		<g>
			<polygon fill="#345568" points="649.95,336.685 654.458,336.685 653.306,355.022 651.103,355.022 			"/>
		</g>
		<g>
			<polygon fill="#345568" points="579.455,336.685 583.965,336.685 582.813,355.022 580.608,355.022 			"/>
		</g>
	</g>
	<g>
		<rect x="562.517" y="300.051" fill="#F48272" width="75.003" height="18.437"/>
	</g>
	<g>
		<rect x="562.517" y="318.487" fill="#F48272" width="75.003" height="18.435"/>
	</g>
	<g>
		<rect x="562.517" y="318.112" fill="#FFFFFF" width="75.003" height="0.75"/>
	</g>
	<g>
		<rect x="562.517" y="299.677" fill="#FFFFFF" width="75.003" height="0.75"/>
	</g>
	<g>
		<rect x="592.034" y="290.46" fill="#FFFFFF" width="15.969" height="0.75"/>
	</g>
	<g>
		<rect x="592.034" y="308.894" fill="#FFFFFF" width="15.969" height="0.751"/>
	</g>
	<g>
		<rect x="592.034" y="327.329" fill="#FFFFFF" width="15.969" height="0.75"/>
	</g>
</g>
<g id="man">
	<g>
		<g>
			<circle fill="#FFFFFF" cx="529.146" cy="172.866" r="8.624"/>
		</g>
		<g>
			<path fill="#FFFFFF" d="M437.851,136.312l-15.402,90.475l-9.926,42.649h96.56l16.511-88.235l-2.65-41.938
				c0,0-28.101-3.584-34.467-2.145C482.104,138.556,437.851,136.312,437.851,136.312z"/>
		</g>
		<g>
			<path fill="#345568" d="M419.952,234.892c-0.066,0-0.137-0.006-0.207-0.019c-0.61-0.114-1.014-0.702-0.9-1.312l19.43-104.43
				c0.113-0.609,0.699-1.014,1.312-0.9c0.611,0.113,1.014,0.7,0.901,1.312l-19.43,104.428
				C420.958,234.514,420.484,234.892,419.952,234.892z"/>
		</g>
		<g>
			<path fill="#D7DFE2" d="M454.215,171.846c0-6.394-5.18-11.571-11.571-11.571c-6.391,0-11.571,5.178-11.571,11.571
				c0,6.39,5.181,11.569,11.571,11.569C449.035,183.415,454.215,178.235,454.215,171.846z"/>
			<path fill="#D7DFE2" d="M496.655,171.846c0-6.394-5.18-11.571-11.57-11.571s-11.572,5.178-11.572,11.571
				c0,6.39,5.182,11.569,11.572,11.569S496.655,178.235,496.655,171.846z"/>
			<path fill="#F48272" d="M519.526,170.72h-21.801c-0.572-6.476-6.018-11.572-12.64-11.572s-12.068,5.097-12.64,11.572h-3.339
				c-0.516-2.442-2.686-4.283-5.28-4.283c-2.593,0-4.763,1.841-5.279,4.283h-3.264c-0.573-6.476-6.019-11.572-12.64-11.572
				c-7.002,0-12.697,5.696-12.697,12.698c0,7.001,5.695,12.694,12.697,12.694c6.621,0,12.068-5.095,12.64-11.569h4.268
				c0.468,0,0.868-0.287,1.038-0.693c0.058-0.136,0.091-0.285,0.091-0.442c0-1.735,1.41-3.146,3.146-3.146s3.146,1.411,3.146,3.146
				c0,0.002,0.001,0.003,0.001,0.005s-0.001,0.003-0.001,0.005c0,0.621,0.505,1.126,1.127,1.126h4.346
				c0.572,6.475,6.018,11.569,12.64,11.569s12.068-5.095,12.64-11.569h21.801c0.62,0,1.125-0.505,1.125-1.126
				C520.651,171.223,520.146,170.72,519.526,170.72z M442.644,182.29c-5.76,0-10.445-4.686-10.445-10.444
				c0-5.761,4.686-10.446,10.445-10.446s10.446,4.686,10.446,10.446C453.09,177.604,448.403,182.29,442.644,182.29z M485.085,182.29
				c-5.76,0-10.446-4.686-10.446-10.444c0-5.761,4.687-10.446,10.446-10.446s10.445,4.686,10.445,10.446
				C495.53,177.604,490.845,182.29,485.085,182.29z"/>
		</g>
		<g>
			<path fill="#345568" d="M445.954,171.843c0-1.825-1.483-3.306-3.312-3.306c-1.823,0-3.309,1.48-3.309,3.306
				c0,1.828,1.485,3.311,3.309,3.311C444.471,175.153,445.954,173.671,445.954,171.843z"/>
		</g>
		<g>
			<circle fill="#FFFFFF" cx="441.156" cy="170.429" r="1.308"/>
		</g>
		<g>
			<path fill="#345568" d="M488.396,171.843c0-1.825-1.483-3.306-3.313-3.306c-1.824,0-3.309,1.48-3.309,3.306
				c0,1.828,1.484,3.311,3.309,3.311C486.913,175.153,488.396,173.671,488.396,171.843z"/>
		</g>
		<g>
			<circle fill="#FFFFFF" cx="483.598" cy="170.429" r="1.308"/>
		</g>
		<g>
			<path fill="#345568" d="M533.481,164.186c-2.316-1.187-4.959-1.399-7.438-0.599c-0.048,0.016-0.093,0.037-0.141,0.053
				c0.45-1.242,0.696-2.58,0.696-3.978c0-2.07-0.542-4.013-1.485-5.701c6.812-3.655,11.445-10.844,11.445-19.115
				c0-11.974-9.707-21.68-21.682-21.68c-2.106,0-4.14,0.306-6.065,0.867c-1.692-10.286-10.622-18.136-21.385-18.136
				c-4.288,0-8.281,1.25-11.646,3.397c-3.976-4.771-9.96-7.809-16.658-7.809c-9.187,0-17.035,5.719-20.193,13.789
				c-2.094-0.674-4.325-1.042-6.643-1.042c-11.979,0-21.891,9.705-21.891,21.683c0,11.974,9.912,21.68,21.891,21.68
				c4.311,0,8.324-1.264,11.7-3.434c4.106,3.409,9.381,5.46,15.136,5.46c5.976,0,11.432-2.216,15.603-5.864
				c2.881,1.244,6.056,1.937,9.394,1.937c3.86,0,7.501-0.929,10.722-2.566c1.921,4.645,5.409,8.476,9.805,10.835
				c-0.943,1.688-1.485,3.63-1.485,5.701c0,2.586,0.847,4.968,2.264,6.905c-1.414,1.71-2.264,3.904-2.264,6.297
				c0,5.463,4.429,9.889,9.893,9.889c5.459,0,9.889-4.426,9.889-9.889c0-1.188-0.224-2.318-0.608-3.373
				c0.01-0.017,0.025-0.026,0.034-0.043c0.912-1.781,2.463-3.103,4.37-3.719c1.903-0.616,3.935-0.453,5.718,0.461
				c3.678,1.879,5.137,6.406,3.256,10.09c-1.881,3.679-6.406,5.139-10.088,3.256c-0.052-0.026-0.108-0.027-0.162-0.045
				c-0.053-0.018-0.097-0.051-0.152-0.061c-0.021-0.004-0.04,0.004-0.061,0.002c-0.077-0.01-0.15-0.001-0.227,0.005
				c-0.071,0.006-0.141,0.007-0.208,0.025c-0.068,0.019-0.128,0.054-0.191,0.085c-0.065,0.032-0.132,0.06-0.19,0.104
				c-0.052,0.04-0.092,0.092-0.137,0.141c-0.055,0.061-0.109,0.118-0.15,0.19c-0.01,0.017-0.026,0.026-0.035,0.044
				c-0.025,0.049-0.025,0.103-0.043,0.153c-0.02,0.055-0.053,0.101-0.063,0.159l-14.719,81.88c-0.109,0.612,0.298,1.198,0.909,1.308
				c0.066,0.013,0.135,0.018,0.201,0.018c0.533,0,1.01-0.383,1.106-0.927l14.473-80.515c1.002,0.333,2.028,0.507,3.047,0.507
				c3.548,0,6.972-1.939,8.695-5.305C540.163,172.517,538.263,166.63,533.481,164.186z"/>
			<path fill="#345568" d="M487.941,195.444c-0.552-0.283-1.23-0.066-1.516,0.488c-2.329,4.535-5.871,8.289-10.247,10.854
				c-0.536,0.313-0.716,1.004-0.401,1.541c0.21,0.357,0.586,0.555,0.973,0.555c0.192,0,0.39-0.049,0.567-0.154
				c4.744-2.781,8.588-6.852,11.111-11.769C488.712,196.407,488.493,195.729,487.941,195.444z"/>
			<path fill="#345568" d="M453.968,159.886c0.531,0,1.005-0.381,1.105-0.922c0.111-0.611-0.291-1.199-0.905-1.312l-22.552-4.14
				c-0.606-0.114-1.197,0.293-1.311,0.906c-0.111,0.609,0.293,1.197,0.904,1.31l22.554,4.14
				C453.831,159.88,453.899,159.886,453.968,159.886z"/>
			<path fill="#345568" d="M495.595,157.652l-22.549-4.14c-0.607-0.114-1.197,0.293-1.311,0.906
				c-0.111,0.609,0.293,1.197,0.904,1.31l22.549,4.14c0.066,0.012,0.137,0.018,0.203,0.018c0.533,0,1.008-0.381,1.106-0.922
				C496.61,158.353,496.206,157.765,495.595,157.652z"/>
			<path fill="#345568" d="M464.284,188.298h-8.377l7.472-13.048c0.31-0.538,0.122-1.227-0.417-1.536
				c-0.535-0.309-1.227-0.123-1.536,0.417l-8.437,14.735c-0.201,0.348-0.199,0.775,0.002,1.122c0.201,0.349,0.572,0.562,0.975,0.562
				h10.318c0.619,0,1.124-0.505,1.124-1.126S464.903,188.298,464.284,188.298z"/>
			<circle fill="#345568" cx="445.313" cy="242.642" r="2.623"/>
			<path fill="#345568" d="M526.469,174.178c0.621,0,1.126-0.505,1.126-1.126c0-0.825,0.672-1.496,1.498-1.496
				c0.621,0,1.125-0.506,1.125-1.125c0-0.623-0.504-1.127-1.125-1.127c-2.068,0-3.749,1.682-3.749,3.748
				C525.344,173.673,525.847,174.178,526.469,174.178z"/>
		</g>
		<g>
			<g>
				<path fill="#345568" d="M487.062,88.544c-0.622,0-1.127-0.503-1.127-1.125V77.62c0-0.62,0.505-1.125,1.127-1.125
					c0.621,0,1.125,0.505,1.125,1.125v9.799C488.187,88.041,487.683,88.544,487.062,88.544z"/>
			</g>
			<g>
				<path fill="#345568" d="M481.794,88.544c-0.289,0-0.576-0.107-0.796-0.329l-6.929-6.929c-0.439-0.439-0.439-1.151,0-1.592
					c0.44-0.44,1.152-0.44,1.592,0l6.928,6.928c0.439,0.441,0.439,1.153,0,1.593C482.37,88.437,482.081,88.544,481.794,88.544z"/>
			</g>
			<g>
				<path fill="#345568" d="M492.332,88.544c-0.29,0-0.576-0.107-0.798-0.329c-0.439-0.439-0.439-1.151,0-1.593l6.928-6.928
					c0.439-0.44,1.152-0.44,1.592,0s0.439,1.152,0,1.592l-6.928,6.929C492.907,88.437,492.618,88.544,492.332,88.544z"/>
			</g>
		</g>
	</g>
	<path fill="#F48272" d="M487.062,355.022c18.604,0,36.355-3.634,52.598-10.214l-5.631-55.138
		c-1.558-15.258-15.189-26.363-30.448-24.805c-0.188,0.02-0.37,0.049-0.556,0.071c-0.683-0.142-1.395-0.218-2.127-0.218
		l-88.061,0.002c-5.85,0-11.361,4.73-12.248,10.514l-12.226,79.787C418.976,355.022,459.872,355.022,487.062,355.022z"/>
	<g>
		<rect x="464.278" y="303.216" fill="#D7DFE2" width="17.516" height="4.752"/>
		<path fill="#D7DFE2" d="M464.278,310.219v7.745c0,4.838,3.922,8.758,8.758,8.758s8.758-3.92,8.758-8.758v-7.745H464.278z"/>
	</g>
	<g>
		<g>
			<polygon fill="#345568" points="430.625,313.394 407.06,313.394 408.55,303.216 432.114,303.216 			"/>
		</g>
		<g>
			<g>
				<path fill="#D7DFE2" d="M414.315,309.737c-0.331-0.377-0.453-0.856-0.369-1.438c0.086-0.58,0.349-1.06,0.791-1.438
					c0.439-0.374,0.941-0.565,1.508-0.565c0.408,0,0.758,0.098,1.049,0.291c0.293,0.193,0.486,0.471,0.585,0.834h-0.623
					c-0.173-0.443-0.53-0.664-1.078-0.664c-0.429,0-0.803,0.141-1.122,0.424c-0.318,0.281-0.513,0.656-0.581,1.122
					c-0.069,0.465,0.017,0.839,0.253,1.124c0.236,0.283,0.568,0.426,0.998,0.426c0.258,0,0.501-0.059,0.722-0.174
					c0.222-0.115,0.406-0.28,0.55-0.496h0.625c-0.206,0.363-0.482,0.642-0.828,0.834c-0.349,0.193-0.729,0.289-1.137,0.289
					C415.093,310.306,414.646,310.117,414.315,309.737z"/>
			</g>
			<g>
				<path fill="#D7DFE2" d="M420.935,306.337l-0.061,0.408h-1.568l-0.195,1.34h1.398l-0.059,0.404h-1.397l-0.202,1.374h1.568
					l-0.061,0.408h-2.084l0.576-3.935H420.935z"/>
			</g>
			<g>
				<path fill="#D7DFE2" d="M422.937,310.312c-0.564,0-1.012-0.191-1.342-0.57c-0.33-0.381-0.453-0.86-0.369-1.442
					c0.085-0.58,0.35-1.06,0.791-1.438c0.44-0.374,0.943-0.565,1.507-0.565s1.011,0.191,1.341,0.565
					c0.328,0.378,0.45,0.857,0.365,1.441c-0.086,0.582-0.348,1.063-0.789,1.44C424.002,310.122,423.499,310.312,422.937,310.312z
					 M424.122,309.427c0.316-0.285,0.51-0.659,0.578-1.124c0.07-0.466-0.014-0.841-0.249-1.122
					c-0.235-0.283-0.567-0.424-0.997-0.424s-0.805,0.141-1.123,0.424c-0.321,0.281-0.514,0.656-0.582,1.122
					c-0.068,0.465,0.016,0.839,0.255,1.124c0.237,0.283,0.573,0.426,0.999,0.426C423.433,309.853,423.804,309.71,424.122,309.427z"
					/>
			</g>
		</g>
	</g>
	<path fill="#FFFFFF" d="M495.991,303.245c-0.617,0.066-1.066,0.618-1.002,1.238l5.181,49.926c0.749-0.068,1.493-0.149,2.239-0.23
		l-5.182-49.93C497.165,303.632,496.615,303.185,495.991,303.245z"/>
</g>
<g id="mac">
	<g>
		<path fill="#345568" d="M258.034,213.435H95.438c-2.342,0-4.254,1.915-4.254,4.254v90.869v2.688v4.254v4.254v5.127v0.873
			c0,2.341,1.912,4.254,4.254,4.254h56.533v21.513h-9.943v3.503h9.943h49.529h9.944v-3.503h-9.944v-21.513h56.533
			c2.342,0,4.255-1.913,4.255-4.254v-0.873v-5.127v-4.254v-4.254v-2.688v-90.869C262.289,215.35,260.376,213.435,258.034,213.435z"
			/>
		<g>
			<rect x="110.53" y="238.948" fill="#345568" width="134.083" height="59.057"/>
		</g>
		<g>
			<rect x="110.53" y="234.194" fill="#345568" width="134.083" height="4.754"/>
		</g>
		<g>
			<g>
				<circle fill="#345568" cx="113.845" cy="236.571" r="0.688"/>
			</g>
			<g>
				<circle fill="#345568" cx="116.658" cy="236.571" r="0.687"/>
			</g>
			<g>
				<circle fill="#345568" cx="119.472" cy="236.571" r="0.687"/>
			</g>
		</g>
		<g>
			<path fill="#345568" d="M208.956,236.571c0,0.569-0.463,1.033-1.031,1.033H147.22c-0.569,0-1.031-0.464-1.031-1.033l0,0
				c0-0.569,0.462-1.031,1.031-1.031h60.705C208.493,235.54,208.956,236.002,208.956,236.571L208.956,236.571z"/>
		</g>
		<g>
			<g>
				<g>
					<rect x="119.247" y="246.214" fill="#345568" width="7.879" height="7.88"/>
				</g>
				<g>
					<line fill="#345568" x1="130.879" y1="247.39" x2="146.116" y2="247.39"/>
				</g>
				<g>
					<line fill="#345568" x1="130.879" y1="252.769" x2="146.116" y2="252.769"/>
				</g>
				<g>
					<line fill="#345568" x1="119.247" y1="258.272" x2="146.116" y2="258.272"/>
				</g>
				<g>
					<line fill="#345568" x1="119.2" y1="263.886" x2="146.07" y2="263.886"/>
				</g>
				<g>
					<line fill="#345568" x1="119.2" y1="269.466" x2="146.07" y2="269.466"/>
				</g>
				<g>
					<line fill="#345568" x1="119.2" y1="275.048" x2="146.07" y2="275.048"/>
				</g>
				<g>
					<line fill="#345568" x1="119.2" y1="280.628" x2="146.07" y2="280.628"/>
				</g>
				<g>
					<line fill="#345568" x1="119.2" y1="289.354" x2="135.796" y2="289.354"/>
				</g>
			</g>
		</g>
	</g>
	<g>
		<path fill="#345568" d="M263.288,213.435H100.691c-2.339,0-4.255,1.915-4.255,4.254v90.869v2.688v4.254h4.255h162.597h4.254
			v-4.254v-2.688v-90.869C267.542,215.35,265.628,213.435,263.288,213.435z"/>
		<path fill="#F48272" d="M263.288,315.499h-56.533h-49.53h-56.533h-4.255v4.254v5.127v0.873c0,2.341,1.916,4.254,4.255,4.254
			h56.533v21.513h-9.944v3.503h9.944h49.53h9.943v-3.503h-9.943v-21.513h56.533c2.34,0,4.254-1.913,4.254-4.254v-0.873v-5.127
			v-4.254H263.288z"/>
	</g>
	<g>
		<g>
			<rect x="103.379" y="220.378" fill="#D7DFE2" width="157.222" height="88.18"/>
		</g>
		<g>
			<g>
				<rect x="115.785" y="238.948" fill="#FFFFFF" width="134.081" height="59.057"/>
			</g>
			<g>
				<rect x="115.785" y="234.194" fill="#345568" width="134.081" height="4.754"/>
			</g>
			<g>
				<g>
					<circle fill="#D7DFE2" cx="119.097" cy="236.571" r="0.688"/>
				</g>
				<g>
					<circle fill="#D7DFE2" cx="121.911" cy="236.571" r="0.688"/>
				</g>
				<g>
					<circle fill="#D7DFE2" cx="124.726" cy="236.571" r="0.688"/>
				</g>
			</g>
			<g>
				<path fill="#D7DFE2" d="M214.21,236.571c0,0.569-0.464,1.033-1.033,1.033h-60.703c-0.57,0-1.032-0.464-1.032-1.033l0,0
					c0-0.569,0.462-1.031,1.032-1.031h60.703C213.746,235.54,214.21,236.002,214.21,236.571L214.21,236.571z"/>
			</g>
			<g>
				<g>
					<g>
						<g>
							<rect x="126.328" y="245.86" fill="#D7DFE2" width="7.88" height="7.88"/>
						</g>
						<g>
							<rect x="137.96" y="246.662" fill="#345568" width="46.775" height="0.751"/>
						</g>
						<g>
							<rect x="137.96" y="252.04" fill="#345568" width="46.775" height="0.751"/>
						</g>
						<g>
							<rect x="126.328" y="257.543" fill="#345568" width="58.407" height="0.751"/>
						</g>
						<g>
							<rect x="126.28" y="263.157" fill="#345568" width="58.41" height="0.751"/>
						</g>
						<g>
							<rect x="126.28" y="268.737" fill="#345568" width="58.41" height="0.75"/>
						</g>
						<g>
							<rect x="126.28" y="274.319" fill="#345568" width="58.41" height="0.75"/>
						</g>
						<g>
							<rect x="126.28" y="279.9" fill="#345568" width="58.41" height="0.749"/>
						</g>
						<g>
							<path fill="#F48272" d="M142.876,290.126H126.28c-0.621,0-1.125-0.504-1.125-1.125s0.504-1.126,1.125-1.126h16.596
								c0.621,0,1.126,0.505,1.126,1.126S143.497,290.126,142.876,290.126z"/>
						</g>
					</g>
				</g>
				<g>
					<g>
						<g>
							<path fill="#345568" d="M194.14,291.468c-0.035,0-0.07-0.004-0.104-0.013c-0.2-0.058-0.313-0.266-0.257-0.466l4.423-15.33
								c0.032-0.112,0.115-0.203,0.225-0.246c0.108-0.04,0.23-0.031,0.331,0.029l7.872,4.772l6.077-10.726
								c0.064-0.118,0.191-0.189,0.325-0.189h8.989l4.594-8.83c0.025-0.051,0.064-0.094,0.109-0.127l12.271-9.185
								c0.165-0.124,0.399-0.092,0.526,0.075c0.122,0.166,0.09,0.4-0.076,0.525l-12.203,9.133l-4.661,8.955
								c-0.063,0.125-0.192,0.203-0.333,0.203h-8.996l-6.16,10.871c-0.051,0.088-0.133,0.152-0.232,0.178
								c-0.096,0.029-0.201,0.011-0.287-0.042l-7.784-4.719l-4.288,14.858C194.452,291.361,194.302,291.468,194.14,291.468z"/>
						</g>
						<g>
							<path fill="#F48272" d="M194.14,291.468c-0.051,0-0.101-0.009-0.148-0.029c-0.191-0.082-0.279-0.303-0.196-0.492
								l5.565-12.961c0.059-0.139,0.194-0.229,0.344-0.229h6.383l9.578-7.175c0.064-0.05,0.142-0.077,0.225-0.077h4.286l7.542-6.383
								l2.646-10.939c0.041-0.17,0.19-0.287,0.363-0.287h8.646c0.207,0,0.374,0.167,0.374,0.375c0,0.207-0.167,0.375-0.374,0.375
								h-8.351l-2.604,10.771c-0.019,0.076-0.062,0.148-0.121,0.199l-7.743,6.551c-0.067,0.059-0.153,0.089-0.241,0.089h-4.299
								l-9.576,7.179c-0.066,0.047-0.145,0.073-0.225,0.073h-6.263l-5.468,12.733C194.423,291.384,194.284,291.468,194.14,291.468z"
								/>
						</g>
						<g>
							<circle fill="#345568" cx="202.525" cy="278.2" r="1.209"/>
						</g>
						<g>
							<circle fill="#345568" cx="209.61" cy="275.47" r="1.209"/>
						</g>
						<g>
							<path fill="#345568" d="M230.692,258.858c0-0.668-0.542-1.211-1.209-1.211c-0.668,0-1.211,0.543-1.211,1.211
								c0,0.666,0.543,1.209,1.211,1.209C230.15,260.067,230.692,259.524,230.692,258.858z"/>
						</g>
						<g>
							<circle fill="#345568" cx="236.636" cy="253.271" r="1.209"/>
						</g>
						<g>
							<g>
								<path fill="#345568" d="M195.613,246.236h-1.474c-0.207,0-0.375-0.169-0.375-0.376s0.168-0.375,0.375-0.375h1.474
									c0.208,0,0.376,0.168,0.376,0.375S195.821,246.236,195.613,246.236z"/>
							</g>
							<g>
								<path fill="#345568" d="M195.613,253.776h-1.474c-0.207,0-0.375-0.169-0.375-0.376c0-0.208,0.168-0.375,0.375-0.375h1.474
									c0.208,0,0.376,0.167,0.376,0.375C195.989,253.607,195.821,253.776,195.613,253.776z"/>
							</g>
							<g>
								<path fill="#345568" d="M195.613,261.313h-1.474c-0.207,0-0.375-0.168-0.375-0.375s0.168-0.375,0.375-0.375h1.474
									c0.208,0,0.376,0.168,0.376,0.375S195.821,261.313,195.613,261.313z"/>
							</g>
							<g>
								<path fill="#345568" d="M195.613,268.852h-1.474c-0.207,0-0.375-0.167-0.375-0.375c0-0.207,0.168-0.374,0.375-0.374h1.474
									c0.208,0,0.376,0.167,0.376,0.374C195.989,268.685,195.821,268.852,195.613,268.852z"/>
							</g>
							<g>
								<path fill="#345568" d="M195.613,276.392h-1.474c-0.207,0-0.375-0.169-0.375-0.377c0-0.207,0.168-0.374,0.375-0.374h1.474
									c0.208,0,0.376,0.167,0.376,0.374C195.989,276.223,195.821,276.392,195.613,276.392z"/>
							</g>
							<g>
								<path fill="#345568" d="M195.613,283.93h-1.474c-0.207,0-0.375-0.167-0.375-0.376c0-0.206,0.168-0.375,0.375-0.375h1.474
									c0.208,0,0.376,0.169,0.376,0.375C195.989,283.763,195.821,283.93,195.613,283.93z"/>
							</g>
						</g>
						<g>
							<g>
								<path fill="#345568" d="M194.14,291.468c-0.207,0-0.375-0.166-0.375-0.374V245.86c0-0.207,0.168-0.375,0.375-0.375
									s0.375,0.168,0.375,0.375v45.233C194.515,291.302,194.347,291.468,194.14,291.468z"/>
							</g>
							<g>
								<g>
									<path fill="#345568" d="M195.613,246.236h-1.474c-0.207,0-0.375-0.169-0.375-0.376s0.168-0.375,0.375-0.375h1.474
										c0.208,0,0.376,0.168,0.376,0.375S195.821,246.236,195.613,246.236z"/>
								</g>
								<g>
									<path fill="#345568" d="M195.613,253.776h-1.474c-0.207,0-0.375-0.169-0.375-0.376c0-0.208,0.168-0.375,0.375-0.375h1.474
										c0.208,0,0.376,0.167,0.376,0.375C195.989,253.607,195.821,253.776,195.613,253.776z"/>
								</g>
								<g>
									<path fill="#345568" d="M195.613,261.313h-1.474c-0.207,0-0.375-0.168-0.375-0.375s0.168-0.375,0.375-0.375h1.474
										c0.208,0,0.376,0.168,0.376,0.375S195.821,261.313,195.613,261.313z"/>
								</g>
								<g>
									<path fill="#345568" d="M195.613,268.852h-1.474c-0.207,0-0.375-0.167-0.375-0.375c0-0.207,0.168-0.374,0.375-0.374h1.474
										c0.208,0,0.376,0.167,0.376,0.374C195.989,268.685,195.821,268.852,195.613,268.852z"/>
								</g>
								<g>
									<path fill="#345568" d="M195.613,276.392h-1.474c-0.207,0-0.375-0.169-0.375-0.377c0-0.207,0.168-0.374,0.375-0.374h1.474
										c0.208,0,0.376,0.167,0.376,0.374C195.989,276.223,195.821,276.392,195.613,276.392z"/>
								</g>
								<g>
									<path fill="#345568" d="M195.613,283.93h-1.474c-0.207,0-0.375-0.167-0.375-0.376c0-0.206,0.168-0.375,0.375-0.375h1.474
										c0.208,0,0.376,0.169,0.376,0.375C195.989,283.763,195.821,283.93,195.613,283.93z"/>
								</g>
							</g>
						</g>
						<g>
							<g>
								<path fill="#F48272" d="M239.373,291.468H194.14c-0.207,0-0.375-0.166-0.375-0.374s0.168-0.376,0.375-0.376h45.233
									c0.207,0,0.374,0.168,0.374,0.376S239.58,291.468,239.373,291.468z"/>
							</g>
							<g>
								<g>
									<path fill="#F48272" d="M239.373,291.468c-0.208,0-0.376-0.166-0.376-0.374v-1.475c0-0.208,0.168-0.376,0.376-0.376
										c0.207,0,0.374,0.168,0.374,0.376v1.475C239.747,291.302,239.58,291.468,239.373,291.468z"/>
								</g>
								<g>
									<path fill="#F48272" d="M231.833,291.468c-0.208,0-0.375-0.166-0.375-0.374v-1.475c0-0.208,0.167-0.376,0.375-0.376
										c0.207,0,0.375,0.168,0.375,0.376v1.475C232.208,291.302,232.04,291.468,231.833,291.468z"/>
								</g>
								<g>
									<path fill="#F48272" d="M224.294,291.468c-0.207,0-0.375-0.166-0.375-0.374v-1.475c0-0.208,0.168-0.376,0.375-0.376
										c0.208,0,0.375,0.168,0.375,0.376v1.475C224.669,291.302,224.502,291.468,224.294,291.468z"/>
								</g>
								<g>
									<path fill="#F48272" d="M216.756,291.468c-0.208,0-0.376-0.166-0.376-0.374v-1.475c0-0.208,0.168-0.376,0.376-0.376
										s0.374,0.168,0.374,0.376v1.475C217.13,291.302,216.964,291.468,216.756,291.468z"/>
								</g>
								<g>
									<path fill="#F48272" d="M209.216,291.468c-0.207,0-0.375-0.166-0.375-0.374v-1.475c0-0.208,0.168-0.376,0.375-0.376
										c0.208,0,0.375,0.168,0.375,0.376v1.475C209.591,291.302,209.424,291.468,209.216,291.468z"/>
								</g>
								<g>
									<path fill="#F48272" d="M201.677,291.468c-0.207,0-0.374-0.166-0.374-0.374v-1.475c0-0.208,0.167-0.376,0.374-0.376
										c0.208,0,0.377,0.168,0.377,0.376v1.475C202.054,291.302,201.885,291.468,201.677,291.468z"/>
								</g>
							</g>
						</g>
					</g>
					<g>
						<path fill="#345568" d="M221.774,269.739c-0.003,0-0.009,0-0.014,0c-0.207-0.009-0.367-0.184-0.361-0.391l0.088-2.25
							c0.009-0.205,0.152-0.357,0.391-0.361c0.208,0.01,0.369,0.184,0.36,0.392l-0.088,2.249
							C222.144,269.581,221.976,269.739,221.774,269.739z M221.952,265.241c-0.005,0-0.01,0-0.016,0
							c-0.207-0.009-0.367-0.184-0.359-0.392l0.088-2.249c0.008-0.207,0.147-0.374,0.391-0.361c0.206,0.009,0.367,0.183,0.359,0.39
							l-0.087,2.251C222.319,265.081,222.153,265.241,221.952,265.241z M222.722,260.994c-0.094,0-0.188-0.036-0.262-0.106
							c-0.148-0.144-0.151-0.382-0.008-0.529l1.566-1.615c0.145-0.15,0.383-0.154,0.53-0.009c0.149,0.144,0.153,0.383,0.009,0.53
							l-1.566,1.615C222.917,260.956,222.819,260.994,222.722,260.994z M225.862,257.743c-0.094,0-0.186-0.031-0.254-0.1
							c-0.129-0.125-0.16-0.309-0.072-0.452l0.489-2.071c0.046-0.201,0.247-0.33,0.45-0.279c0.203,0.047,0.326,0.248,0.279,0.449
							l-0.507,2.156c-0.017,0.066-0.05,0.127-0.097,0.176C226.074,257.702,225.968,257.743,225.862,257.743z M226.907,253.388
							c-0.028,0-0.058-0.002-0.086-0.01c-0.203-0.046-0.327-0.248-0.279-0.45l0.516-2.191c0.048-0.2,0.25-0.331,0.451-0.278
							c0.203,0.047,0.326,0.248,0.277,0.451l-0.514,2.191C227.23,253.272,227.077,253.388,226.907,253.388z M229.3,250.22
							c-0.152,0-0.297-0.095-0.352-0.247c-0.07-0.195,0.03-0.409,0.225-0.481l2.119-0.762c0.197-0.068,0.41,0.029,0.48,0.225
							c0.07,0.196-0.031,0.411-0.227,0.481l-2.117,0.763C229.387,250.212,229.344,250.22,229.3,250.22z M233.538,248.694
							c-0.156,0-0.3-0.096-0.354-0.249c-0.072-0.195,0.029-0.409,0.226-0.481l1.303-0.467c0.192-0.07,0.408,0.029,0.479,0.227
							c0.07,0.194-0.03,0.408-0.226,0.479l-1.304,0.47C233.622,248.687,233.579,248.694,233.538,248.694z"/>
					</g>
					<g>
						<circle fill="#345568" cx="221.775" cy="269.364" r="1.21"/>
					</g>
				</g>
			</g>
		</g>
	</g>
</g>
<g id="shues">
	<g>
		<circle fill="#345568" cx="282.89" cy="317.021" r="38.004"/>
	</g>
	<g>
		<path fill="#F48272" d="M299.508,293.399c-0.392,0.393-0.938,1.106-1.212,1.588c0,0-2.105,3.68-5.302,6.875
			c-3.196,3.197-6.88,5.303-6.88,5.303c-0.479,0.276-1.193,0.823-1.585,1.213l-2.481,2.482c-0.393,0.392-0.941,1.104-1.219,1.584
			l-14.874,25.609c-0.278,0.479-0.185,0.551,0.209,0.158l39.212-39.213c0.393-0.393,0.393-1.035,0-1.426l-4.309-4.311
			c-0.391-0.391-1.033-0.391-1.425,0L299.508,293.399z"/>
	</g>
	<g>

			<rect x="258.315" y="318.075" transform="matrix(0.7071 -0.7071 0.7071 0.7071 -142.1188 296.6682)" fill="#FFFFFF" width="57.472" height="3.624"/>
	</g>
	<g>

			<rect x="301.442" y="297.079" transform="matrix(-0.7072 0.707 -0.707 -0.7072 729.3077 295.271)" fill="#F48272" width="4.147" height="3.132"/>
	</g>
	<g>
		<polygon fill="#D7DFE2" points="280.196,317.026 280.448,316.575 278.928,315.717 278.669,316.164 		"/>
		<polygon fill="#D7DFE2" points="280.864,315.837 281.119,315.388 279.614,314.538 279.354,314.985 		"/>
		<polygon fill="#D7DFE2" points="279.524,318.212 279.779,317.761 278.243,316.896 277.983,317.342 		"/>
		<path fill="#D7DFE2" d="M290.903,313.473l-0.949-0.948c-0.587-0.588-1.551-0.588-2.139,0l-10.432,10.432
			c-0.588,0.588-1.548,0.588-2.135,0l-0.334-0.33l-9.465,16.299L290.903,313.473z"/>
		<polygon fill="#D7DFE2" points="278.856,319.397 279.111,318.948 277.56,318.073 277.302,318.521 		"/>
	</g>
</g>
<g id="bulb">
	<g>
		<g>
			<path fill="#F48272" d="M313.596,51.256c-22.151,22.149-22.151,58.061,0.001,80.21c22.154,22.152,58.064,22.153,80.213,0.007
				c22.149-22.152,22.152-58.065,0-80.218C371.661,29.103,335.745,29.105,313.596,51.256z"/>
		</g>
		<g>
			<circle fill="#F48272" cx="397.661" cy="149.808" r="8.919"/>
		</g>
		<g>
			<circle fill="#F48272" cx="415.496" cy="160.041" r="3.322"/>
		</g>
	</g>
	<g>
		<g>
			<path fill="#FFFFFF" d="M353.702,59.563c-5.131,0-9.288,4.158-9.288,9.291v39.695c0,5.129,4.157,9.287,9.288,9.287
				s9.289-4.158,9.289-9.287V68.854C362.991,63.722,358.833,59.563,353.702,59.563z"/>
			<path fill="#F48272" d="M357.511,72.604c-1.188,0-2.156,0.968-2.156,2.156v1.406h-3.303v-1.406c0-1.188-0.967-2.156-2.156-2.156
				s-2.156,0.968-2.156,2.156s0.969,2.156,2.156,2.156h1.406v40.92h0.75v-40.92h3.303v40.92h0.75v-40.92h1.406
				c1.189,0,2.156-0.968,2.156-2.156S358.7,72.604,357.511,72.604z M349.896,76.167c-0.774,0-1.405-0.631-1.405-1.406
				s0.631-1.406,1.405-1.406c0.775,0,1.406,0.631,1.406,1.406v1.406H349.896z M357.511,76.167h-1.406v-1.406
				c0-0.775,0.631-1.406,1.406-1.406s1.406,0.631,1.406,1.406S358.286,76.167,357.511,76.167z"/>
			<g>
				<rect x="349.859" y="117.383" fill="#345568" width="7.688" height="2.888"/>
			</g>
			<g>
				<rect x="350.824" y="120.271" fill="#345568" width="5.757" height="2.889"/>
			</g>
		</g>
	</g>
</g>
</svg>
