<?xml version="1.0" encoding="utf-8"?>
<svg version="1.1" id="Layer_1" xmlns="http://www.w3.org/2000/svg" xmlns:xlink="http://www.w3.org/1999/xlink" x="0px" y="0px"
	 width="721px" height="401px" viewBox="0 0 721 401" enable-background="new 0 0 721 401" xml:space="preserve">
<path id="background_x5F_blue" fill="#D7DFE2" d="M487.098,73.916H234.92c-69.639,0-126.092,56.451-126.092,126.089
	c0,69.637,56.453,126.089,126.092,126.089h252.178c69.635,0,126.088-56.452,126.088-126.089
	C613.186,130.367,556.732,73.916,487.098,73.916z"/>
<g id="background_x5F_lines">
	<g>
		<path fill="#345568" d="M192.119,331.954c-0.207,0-0.375-0.168-0.375-0.377v-81.236c0-3.727,3.031-6.758,6.758-6.758h156.693
			c3.312,0,6.007-2.695,6.007-6.008v-25.406c0-3.311-2.694-6.008-6.007-6.008H63.382c-3.728,0-6.761-3.031-6.761-6.758v-54.416
			c0-3.729,3.033-6.762,6.761-6.762h305.264c3.726,0,6.757,3.033,6.757,6.762v2.262c0,3.314,2.695,6.008,6.008,6.008h171.199
			c3.313,0,6.007-2.693,6.007-6.008V91.298c0-0.207,0.169-0.375,0.376-0.375s0.374,0.168,0.374,0.375v55.951
			c0,3.729-3.031,6.762-6.757,6.762H381.41c-3.726,0-6.758-3.033-6.758-6.762v-2.262c0-3.314-2.695-6.008-6.007-6.008H63.382
			c-3.313,0-6.009,2.693-6.009,6.008v54.416c0,3.312,2.695,6.008,6.009,6.008h291.813c3.726,0,6.757,3.031,6.757,6.758v25.406
			c0,3.727-3.031,6.756-6.757,6.756H198.502c-3.311,0-6.007,2.697-6.007,6.01v81.236
			C192.495,331.786,192.326,331.954,192.119,331.954z"/>
	</g>
	<g>
		<path fill="#345568" d="M337.475,267.001h-95.756c-3.726,0-6.758-3.033-6.758-6.76V81.751c0-3.314-2.697-6.041-6.011-6.078
			l-65.478-0.729c-0.207-0.002-0.375-0.172-0.371-0.377c0.001-0.207,0.168-0.373,0.375-0.373c0.002,0,0.002,0,0.004,0l65.479,0.727
			c3.723,0.041,6.754,3.107,6.754,6.83v178.49c0,3.312,2.693,6.008,6.006,6.008h95.756c3.312,0,6.008-2.695,6.008-6.008V69.755
			c0-3.727,3.031-6.758,6.758-6.758h223.086c3.311,0,6.005-2.695,6.005-6.006V45.815c0-3.729,3.032-6.76,6.758-6.76h18.243
			c3.728,0,6.758,3.031,6.758,6.76v146.109c0,0.207-0.168,0.375-0.376,0.375s-0.376-0.168-0.376-0.375V45.815
			c0-3.312-2.695-6.01-6.006-6.01h-18.243c-3.31,0-6.007,2.697-6.007,6.01v11.176c0,3.725-3.031,6.756-6.756,6.756H350.24
			c-3.312,0-6.008,2.695-6.008,6.008v190.486C344.232,263.968,341.2,267.001,337.475,267.001z"/>
	</g>
	<g>
		<path fill="#345568" d="M223.414,334.331c-0.209,0-0.376-0.168-0.376-0.375v-71.904c0-3.729,3.03-6.76,6.757-6.76h317.758
			c3.312,0,6.008-2.693,6.008-6.006v-39.184c0-3.725,3.031-6.758,6.756-6.758h34.896c0.205,0,0.374,0.17,0.374,0.375
			c0,0.209-0.169,0.375-0.374,0.375h-34.896c-3.311,0-6.005,2.697-6.005,6.008v39.184c0,3.727-3.032,6.756-6.759,6.756H229.795
			c-3.311,0-6.006,2.695-6.006,6.01v71.904C223.789,334.163,223.621,334.331,223.414,334.331z"/>
	</g>
</g>
<g id="ways">
	<g>
		<path fill="#345568" d="M264.463,116.983c-12.287-12.285-31.842-12.957-44.936-2.037c-0.402,0.275-0.786,0.586-1.145,0.945
			l-1.08,1.078c-0.006,0.006-0.012,0.01-0.013,0.016c-0.004,0.002-0.006,0.006-0.01,0.008L84.211,250.062
			c-3.076,3.078-3.076,8.068,0,11.146c1.541,1.537,3.559,2.307,5.572,2.307c2.02,0,4.033-0.77,5.574-2.307l133.085-133.084
			c6.857-6.855,18.015-6.854,24.875,0.006c6.861,6.861,6.861,18.023,0,24.885l-62.993,62.992c-3.077,3.078-3.077,8.066,0,11.145
			c1.539,1.539,3.554,2.309,5.572,2.309c2.018,0,4.035-0.77,5.574-2.309l62.992-62.99
			C277.467,151.153,277.469,129.989,264.463,116.983z"/>
		<g>
			<g>
				<path fill="#D7DFE2" d="M89.783,256.009c-0.096,0-0.189-0.035-0.263-0.109c-0.148-0.146-0.148-0.383,0-0.529l6.368-6.371
					c0.146-0.145,0.383-0.145,0.53,0c0.146,0.148,0.146,0.385,0,0.531l-6.367,6.369C89.978,255.974,89.881,256.009,89.783,256.009z
					 M102.523,243.272c-0.098,0-0.191-0.037-0.266-0.111c-0.146-0.146-0.146-0.385,0-0.531l6.368-6.369
					c0.146-0.145,0.384-0.145,0.53,0c0.146,0.146,0.146,0.385,0,0.533l-6.367,6.367
					C102.715,243.235,102.618,243.272,102.523,243.272z M115.262,230.534c-0.098,0-0.193-0.037-0.268-0.109
					c-0.145-0.148-0.145-0.385,0-0.531l6.369-6.369c0.146-0.148,0.384-0.148,0.531,0c0.146,0.146,0.146,0.385,0,0.531l-6.369,6.369
					C115.453,230.497,115.357,230.534,115.262,230.534z M195.896,221.952c-0.096,0-0.191-0.033-0.264-0.107
					c-0.147-0.146-0.147-0.385,0-0.531l0.111-0.111c0.146-0.146,0.385-0.146,0.531,0c0.146,0.145,0.146,0.383,0,0.529l-0.112,0.113
					C196.088,221.919,195.993,221.952,195.896,221.952z M127.997,217.796c-0.096,0-0.191-0.037-0.265-0.109
					c-0.145-0.148-0.145-0.383,0-0.531l6.369-6.367c0.146-0.148,0.385-0.148,0.533,0c0.144,0.146,0.144,0.383,0,0.531l-6.371,6.367
					C128.189,217.759,128.094,217.796,127.997,217.796z M202.378,215.474c-0.096,0-0.191-0.037-0.266-0.111
					c-0.146-0.146-0.146-0.383,0-0.529l6.369-6.369c0.147-0.146,0.384-0.146,0.531,0c0.146,0.146,0.146,0.385,0,0.529l-6.368,6.369
					C202.568,215.437,202.475,215.474,202.378,215.474z M140.736,205.058c-0.098,0-0.193-0.035-0.269-0.107
					c-0.145-0.146-0.145-0.385,0-0.529l6.372-6.371c0.146-0.146,0.383-0.146,0.529,0c0.145,0.146,0.145,0.385,0,0.531L141,204.95
					C140.926,205.022,140.832,205.058,140.736,205.058z M215.117,202.733c-0.096,0-0.193-0.037-0.268-0.105
					c-0.146-0.146-0.146-0.387,0-0.533l6.371-6.369c0.147-0.145,0.383-0.145,0.531,0c0.145,0.148,0.145,0.383,0,0.531l-6.369,6.371
					C215.309,202.696,215.212,202.733,215.117,202.733z M153.473,192.321c-0.096,0-0.193-0.037-0.266-0.109
					c-0.146-0.146-0.146-0.385,0-0.529l6.369-6.371c0.147-0.146,0.383-0.146,0.531,0c0.146,0.146,0.146,0.385,0,0.531l-6.369,6.369
					C153.664,192.284,153.569,192.321,153.473,192.321z M227.854,189.999c-0.096,0-0.191-0.037-0.266-0.111
					c-0.146-0.146-0.146-0.385,0-0.529l6.369-6.369c0.146-0.146,0.385-0.146,0.531,0s0.146,0.383,0,0.529l-6.369,6.369
					C228.045,189.962,227.949,189.999,227.854,189.999z M166.211,179.583c-0.096,0-0.193-0.035-0.266-0.109
					c-0.146-0.146-0.146-0.383,0-0.529l6.369-6.369c0.146-0.148,0.385-0.148,0.531,0c0.146,0.146,0.146,0.385,0,0.531l-6.37,6.367
					C166.403,179.548,166.309,179.583,166.211,179.583z M240.592,177.259c-0.098,0-0.193-0.035-0.266-0.109
					c-0.146-0.146-0.146-0.385,0-0.529l6.367-6.367c0.147-0.15,0.385-0.15,0.531,0c0.146,0.145,0.146,0.383,0,0.529l-6.368,6.367
					C240.782,177.224,240.687,177.259,240.592,177.259z M178.948,166.847c-0.096,0-0.193-0.037-0.265-0.109
					c-0.148-0.148-0.148-0.385,0-0.531l6.368-6.369c0.146-0.146,0.384-0.146,0.529,0c0.146,0.146,0.146,0.383,0,0.529l-6.368,6.371
					C179.139,166.81,179.045,166.847,178.948,166.847z M253.33,164.522c-0.099,0-0.192-0.037-0.267-0.109
					c-0.146-0.148-0.146-0.383,0-0.531l5.561-5.561c0.267-0.268,0.526-0.539,0.778-0.814c0.141-0.154,0.381-0.16,0.53-0.021
					c0.152,0.139,0.162,0.377,0.023,0.529c-0.259,0.281-0.526,0.562-0.8,0.836l-5.562,5.562
					C253.52,164.485,253.424,164.522,253.33,164.522z M191.686,154.11c-0.096,0-0.191-0.037-0.265-0.111
					c-0.148-0.146-0.148-0.387,0-0.531l6.368-6.369c0.148-0.146,0.385-0.146,0.531,0s0.146,0.387,0,0.531l-6.369,6.369
					C191.877,154.073,191.782,154.11,191.686,154.11z M264.471,150.569c-0.047,0-0.094-0.01-0.14-0.029
					c-0.193-0.078-0.285-0.295-0.207-0.486c1.12-2.75,1.737-5.656,1.837-8.637c0.008-0.207,0.152-0.342,0.39-0.365
					c0.204,0.01,0.368,0.184,0.36,0.391c-0.102,3.068-0.738,6.061-1.893,8.893C264.76,150.479,264.619,150.569,264.471,150.569z
					 M204.424,141.372c-0.096,0-0.193-0.039-0.266-0.111c-0.148-0.145-0.148-0.385,0-0.529l6.369-6.371
					c0.146-0.146,0.385-0.146,0.529,0c0.148,0.148,0.148,0.387,0,0.531l-6.367,6.369
					C204.615,141.333,204.52,141.372,204.424,141.372z M265.066,132.937c-0.16,0-0.307-0.102-0.357-0.258
					c-0.934-2.824-2.35-5.434-4.209-7.758c-0.129-0.162-0.104-0.398,0.059-0.531c0.162-0.125,0.398-0.1,0.527,0.061
					c1.914,2.395,3.373,5.084,4.335,7.992c0.064,0.197-0.043,0.41-0.237,0.475C265.143,132.931,265.104,132.937,265.066,132.937z
					 M217.16,128.634c-0.094,0-0.191-0.037-0.264-0.113c-0.148-0.143-0.148-0.381,0-0.527l6.369-6.369
					c0.146-0.145,0.384-0.145,0.529,0c0.148,0.146,0.148,0.385,0,0.531l-6.368,6.365
					C217.353,128.597,217.257,128.634,217.16,128.634z M254.062,119.144c-0.065,0-0.132-0.018-0.193-0.053
					c-2.539-1.541-5.311-2.605-8.239-3.166c-0.203-0.037-0.337-0.234-0.298-0.441c0.039-0.203,0.24-0.338,0.439-0.295
					c3.016,0.578,5.872,1.674,8.488,3.258c0.175,0.109,0.232,0.338,0.125,0.518C254.314,119.079,254.191,119.144,254.062,119.144z
					 M228.294,118.786c-0.132,0-0.259-0.066-0.329-0.188c-0.102-0.18-0.039-0.41,0.143-0.512c2.66-1.512,5.543-2.529,8.573-3.025
					c0.198-0.039,0.397,0.104,0.433,0.311c0.033,0.205-0.105,0.398-0.31,0.43c-2.945,0.482-5.743,1.469-8.326,2.938
					C228.419,118.772,228.356,118.786,228.294,118.786z"/>
			</g>
		</g>
		<g>
			<path fill="#F48272" d="M89.783,189.583c-11.057,0-20.025,8.965-20.025,20.025s14.36,43.758,20.025,43.758
				c5.797,0,20.027-32.697,20.027-43.758S100.846,189.583,89.783,189.583z M89.783,220.675c-6.107,0-11.064-4.953-11.064-11.066
				c0-6.111,4.957-11.062,11.064-11.062c6.113,0,11.068,4.951,11.068,11.062C100.852,215.722,95.896,220.675,89.783,220.675z"/>
		</g>
	</g>
	<g>
		<path fill="#345568" d="M623.596,122.46c-3.08-3.08-8.068-3.08-11.146,0L479.365,255.542c-6.859,6.855-18.018,6.852-24.875-0.006
			c-6.861-6.861-6.861-18.023,0-24.887l62.99-62.992c3.079-3.076,3.079-8.066,0-11.143c-3.077-3.078-8.066-3.078-11.144,0
			l-62.993,62.992c-13.004,13.004-13.006,34.166,0,47.174c6.504,6.504,15.045,9.754,23.586,9.754c7.597,0,15.188-2.576,21.351-7.717
			c0.401-0.275,0.786-0.586,1.144-0.943l1.08-1.08c0.004-0.004,0.01-0.01,0.014-0.014s0.005-0.006,0.008-0.008l133.07-133.068
			C626.672,130.526,626.672,125.536,623.596,122.46z"/>
		<g>
			<g>
				<path fill="#D7DFE2" d="M471.064,268.608c-0.182,0-0.34-0.131-0.371-0.316c-0.033-0.203,0.104-0.396,0.311-0.428
					c2.941-0.484,5.74-1.471,8.324-2.938c0.18-0.105,0.408-0.039,0.512,0.141c0.102,0.18,0.039,0.408-0.143,0.512
					c-2.658,1.512-5.541,2.529-8.573,3.023C471.104,268.606,471.084,268.608,471.064,268.608z M462.106,268.483
					c-0.024,0-0.048,0-0.069-0.006c-3.018-0.578-5.873-1.676-8.488-3.26c-0.177-0.107-0.234-0.34-0.127-0.516
					c0.109-0.176,0.338-0.232,0.515-0.125c2.54,1.537,5.312,2.602,8.238,3.164c0.205,0.039,0.339,0.236,0.298,0.438
					C462.439,268.36,462.282,268.483,462.106,268.483z M484.276,262.149c-0.095,0-0.192-0.035-0.265-0.107
					c-0.148-0.148-0.148-0.383,0-0.531l6.369-6.369c0.146-0.146,0.385-0.146,0.529,0c0.147,0.146,0.147,0.385,0,0.531l-6.369,6.369
					C484.469,262.114,484.372,262.149,484.276,262.149z M447.011,259.354c-0.108,0-0.216-0.047-0.292-0.141
					c-1.914-2.395-3.373-5.084-4.334-7.992c-0.064-0.197,0.043-0.41,0.24-0.473c0.199-0.07,0.407,0.041,0.472,0.236
					c0.935,2.824,2.351,5.436,4.208,7.76c0.129,0.162,0.104,0.398-0.058,0.527C447.177,259.327,447.095,259.354,447.011,259.354z
					 M497.014,249.415c-0.094,0-0.192-0.037-0.265-0.111c-0.146-0.146-0.146-0.385,0-0.529l6.368-6.369
					c0.148-0.148,0.386-0.148,0.532,0c0.147,0.146,0.147,0.383,0,0.529l-6.37,6.369
					C497.205,249.378,497.109,249.415,497.014,249.415z M441.47,242.61c-0.002,0-0.006,0-0.012,0
					c-0.206-0.008-0.369-0.178-0.363-0.387c0.103-3.068,0.741-6.061,1.894-8.893c0.078-0.195,0.299-0.287,0.49-0.207
					c0.191,0.078,0.283,0.299,0.203,0.49c-1.119,2.748-1.736,5.652-1.838,8.633C441.838,242.45,441.673,242.61,441.47,242.61z
					 M509.753,236.677c-0.097,0-0.192-0.037-0.267-0.109c-0.146-0.146-0.146-0.385,0-0.531l6.37-6.369
					c0.146-0.146,0.384-0.146,0.53,0c0.146,0.146,0.146,0.383,0,0.531l-6.369,6.369C509.945,236.64,509.85,236.677,509.753,236.677z
					 M448.129,226.278c-0.092,0-0.182-0.031-0.254-0.1c-0.152-0.137-0.164-0.377-0.021-0.529c0.258-0.281,0.524-0.561,0.797-0.834
					l5.562-5.564c0.148-0.146,0.385-0.146,0.531,0c0.148,0.146,0.148,0.385,0,0.533l-5.562,5.561
					c-0.264,0.266-0.522,0.537-0.774,0.812C448.331,226.237,448.23,226.278,448.129,226.278z M522.488,223.938
					c-0.094,0-0.191-0.037-0.264-0.109c-0.148-0.146-0.148-0.387,0-0.529l6.369-6.371c0.146-0.146,0.383-0.146,0.529,0
					c0.148,0.146,0.148,0.387,0,0.531l-6.368,6.369C522.682,223.901,522.586,223.938,522.488,223.938z M460.848,213.524
					c-0.097,0-0.191-0.037-0.266-0.111c-0.146-0.146-0.146-0.385,0-0.529l6.368-6.369c0.146-0.146,0.384-0.146,0.53,0
					s0.146,0.383,0,0.529l-6.369,6.369C461.04,213.487,460.942,213.524,460.848,213.524z M535.228,211.198
					c-0.096,0-0.193-0.033-0.267-0.107c-0.146-0.146-0.146-0.385,0-0.529l6.371-6.369c0.146-0.146,0.385-0.146,0.529,0
					c0.147,0.146,0.147,0.385,0,0.529l-6.369,6.369C535.418,211.165,535.323,211.198,535.228,211.198z M473.584,200.786
					c-0.096,0-0.19-0.037-0.265-0.111c-0.146-0.145-0.146-0.383,0-0.529l6.368-6.367c0.146-0.15,0.384-0.15,0.53,0
					c0.147,0.145,0.147,0.385,0,0.529l-6.366,6.367C473.775,200.749,473.68,200.786,473.584,200.786z M547.965,198.466
					c-0.096,0-0.191-0.039-0.266-0.111c-0.146-0.148-0.146-0.385,0-0.533l6.371-6.367c0.145-0.146,0.382-0.146,0.529,0
					c0.146,0.146,0.146,0.383,0,0.529l-6.369,6.371C548.157,198.427,548.062,198.466,547.965,198.466z M486.322,188.048
					c-0.096,0-0.193-0.037-0.266-0.109c-0.145-0.146-0.145-0.383,0-0.531l6.368-6.369c0.148-0.146,0.386-0.146,0.532,0
					c0.146,0.146,0.146,0.385,0,0.529l-6.369,6.371C486.516,188.011,486.418,188.048,486.322,188.048z M560.701,185.728
					c-0.094,0-0.191-0.037-0.264-0.113c-0.148-0.145-0.148-0.383,0-0.529l6.368-6.369c0.146-0.145,0.384-0.145,0.53,0
					c0.147,0.146,0.147,0.385,0,0.531l-6.367,6.367C560.895,185.69,560.799,185.728,560.701,185.728z M499.061,175.312
					c-0.098,0-0.191-0.039-0.266-0.111c-0.146-0.146-0.146-0.383,0-0.529l6.367-6.371c0.148-0.145,0.385-0.145,0.531,0
					c0.148,0.146,0.148,0.387,0,0.533l-6.368,6.367C499.253,175.272,499.156,175.312,499.061,175.312z M573.441,172.987
					c-0.098,0-0.193-0.037-0.268-0.109c-0.145-0.146-0.145-0.385,0-0.529l6.369-6.369c0.146-0.146,0.383-0.146,0.531,0
					c0.145,0.146,0.145,0.385,0,0.529l-6.369,6.369C573.633,172.95,573.538,172.987,573.441,172.987z M511.797,162.575
					c-0.095,0-0.191-0.037-0.266-0.111c-0.146-0.146-0.146-0.385,0-0.529l0.112-0.113c0.146-0.148,0.384-0.148,0.53,0
					c0.148,0.146,0.148,0.383,0,0.531l-0.111,0.111C511.988,162.538,511.894,162.575,511.797,162.575z M586.179,160.249
					c-0.099,0-0.193-0.035-0.267-0.107c-0.146-0.145-0.146-0.385,0-0.531l6.367-6.369c0.146-0.145,0.385-0.145,0.532,0
					c0.146,0.148,0.146,0.383,0,0.531l-6.368,6.369C586.369,160.214,586.271,160.249,586.179,160.249z M598.914,147.515
					c-0.096,0-0.191-0.037-0.264-0.111c-0.146-0.146-0.146-0.383,0-0.531l6.369-6.369c0.146-0.145,0.384-0.145,0.529,0
					c0.146,0.148,0.146,0.385,0,0.531l-6.368,6.369C599.107,147.478,599.01,147.515,598.914,147.515z M611.654,134.774
					c-0.098,0-0.194-0.033-0.268-0.107c-0.146-0.148-0.146-0.385,0-0.533l6.368-6.367c0.146-0.146,0.384-0.146,0.53,0
					c0.148,0.146,0.148,0.385,0,0.531l-6.367,6.369C611.846,134.741,611.748,134.774,611.654,134.774z"/>
			</g>
		</g>
		<g>
			<path fill="#F48272" d="M618.021,66.729c-11.059,0-20.023,8.965-20.023,20.027c0,11.061,14.358,43.754,20.023,43.754
				c5.793,0,20.027-32.693,20.027-43.754C638.049,75.694,629.084,66.729,618.021,66.729z M618.021,97.823
				c-6.109,0-11.066-4.955-11.066-11.066c0-6.113,4.957-11.068,11.066-11.068c6.113,0,11.066,4.955,11.066,11.068
				C629.088,92.868,624.135,97.823,618.021,97.823z"/>
		</g>
	</g>
</g>
<g id="girl">
	<path id="hair_x5F_back" fill="#F48272" d="M531.842,175.509c18.658-19.115,19.324-49.105,2.271-69.01
		c-0.879-1.057-1.823-2.078-2.826-3.057c-0.045-0.043-0.087-0.082-0.13-0.123c-0.064-0.062-0.123-0.127-0.186-0.189
		c-19.595-19.129-50.63-19.359-70.507-0.957c-25.289-11.295-55.998-6.379-76.481,14.596c-2.552,2.623-4.847,5.396-6.895,8.295
		c-24.078-2.225-48.909,6.014-67.118,24.662c-27.6,28.27-30.938,71.191-10.359,103.033c-2.388,1.707-4.678,3.607-6.797,5.777
		c-18.656,19.119-19.322,49.102-2.275,69.008c0.881,1.057,1.824,2.078,2.832,3.064c0.041,0.041,0.086,0.076,0.129,0.121
		c0.064,0.062,0.122,0.127,0.186,0.189c19.598,19.133,50.635,19.361,70.506,0.955c25.286,11.297,55.998,6.381,76.482-14.598
		c2.551-2.617,4.848-5.396,6.895-8.293c24.078,2.229,48.91-6.012,67.12-24.662c27.597-28.27,30.931-71.186,10.36-103.027
		C527.424,179.579,529.722,177.681,531.842,175.509z"/>
	<path id="face" fill="#FFFFFF" d="M529.079,227.133l-23.089-57.624c1.312,0.636,2.915,0.565,4.178-0.348
		c1.824-1.328,2.23-3.879,0.906-5.703l-0.287-0.148c3.562-2.586,4.357-7.572,1.773-11.133c-2.177-2.999-6.052-4.026-9.347-2.736
		c-3.93-28.498-19.787-49.804-35.93-47.881c-16.475,1.959-26.999,27.381-23.498,56.773c3.499,29.393,19.692,51.631,36.17,49.67
		c3.051-0.363,5.896-1.534,8.487-3.382l0.013,0.052c4.202-3.264,7.789-8.508,10.348-15.346c1.297-3.465,2.312-7.273,3.02-11.32
		c0.105-0.613,0.686-1.023,1.301-0.916c0.611,0.105,1.022,0.689,0.916,1.303c-0.729,4.186-1.78,8.127-3.126,11.725
		c-2.864,7.653-6.998,13.455-11.884,16.929l11.922,49.321l29.344-9.734l8.043,0.666l15.164-10.42
		C536.799,241.221,529.272,227.492,529.079,227.133z"/>
	<path id="shirt" fill="#345568" d="M553.502,236.88c-1.641,0.195-3.212,0.654-4.722,1.334l-54.522,15.445l-0.117,0.227
		c-8.337,1.682-17.492,12.883-22.112,28.092c-2.708,8.908-3.354,17.539-2.226,24.379l5.48,54.225h17.272
		c37.772,0,72.037-15.014,97.167-39.389c1.527-8.881,1.808-19.012,0.544-29.643C586.438,259.396,569.98,234.915,553.502,236.88z"/>
	<g id="glasses">
		<path fill="#FFFFFF" d="M460.618,163.941c-0.561,4.903-4.734,8.726-9.792,8.726c-5.43,0-9.846-4.42-9.846-9.852
			c0-5.428,4.416-9.842,9.846-9.842c5.048,0,9.213,3.803,9.788,8.688l-0.018,0.005c0.044,0.377,0.073,0.759,0.073,1.148
			c0,0.38-0.027,0.753-0.068,1.122C460.606,163.938,460.612,163.941,460.618,163.941z"/>
		<path fill="#FFFFFF" d="M488.243,158.253c-0.561,4.903-4.734,8.726-9.792,8.726c-5.43,0-9.846-4.42-9.846-9.852
			c0-5.428,4.416-9.842,9.846-9.842c5.048,0,9.213,3.803,9.788,8.688l-0.018,0.005c0.044,0.377,0.073,0.759,0.073,1.148
			c0,0.38-0.027,0.753-0.068,1.122C488.231,158.25,488.237,158.253,488.243,158.253z"/>
		<path fill="#345568" d="M502.982,150.86c-0.17-0.596-0.784-0.945-1.391-0.775l-11.645,3.29c-1.587-4.835-6.144-8.339-11.509-8.339
			c-6.669,0-12.097,5.426-12.097,12.096c0,0.971,0.127,1.91,0.344,2.815l-3.89,1.099c-0.862-5.83-5.893-10.324-11.969-10.324
			c-6.67,0-12.098,5.426-12.098,12.094c0,6.674,5.428,12.104,12.098,12.104c6.499,0,11.803-5.144,12.086-11.569l4.498-1.271
			c1.896,4.21,6.121,7.154,11.028,7.154c6.68,0,12.115-5.428,12.115-12.102c0-0.529-0.046-1.047-0.112-1.559l11.765-3.324
			C502.802,152.081,503.152,151.458,502.982,150.86z M460.618,163.941c-0.561,4.903-4.734,8.726-9.792,8.726
			c-5.43,0-9.846-4.42-9.846-9.852c0-5.428,4.416-9.842,9.846-9.842c5.048,0,9.213,3.803,9.788,8.688l-0.018,0.005
			c0.044,0.377,0.073,0.759,0.073,1.148c0,0.38-0.027,0.753-0.068,1.122C460.606,163.938,460.612,163.941,460.618,163.941z
			 M478.438,166.981c-5.428,0-9.846-4.42-9.846-9.85c0-5.428,4.418-9.844,9.846-9.844c5.439,0,9.862,4.416,9.862,9.844
			C488.3,162.562,483.877,166.981,478.438,166.981z"/>
	</g>
	<path id="hair_x5F_front" fill="#F48272" d="M503.73,130.237c3.514-4.428,5.582-9.812,5.582-15.631
		c0-15.053-13.822-27.264-30.863-27.264c-13.906,0-25.663,8.129-29.523,19.295c-3.502-2.426-7.75-3.85-12.332-3.85
		c-11.977,0-21.687,9.707-21.687,21.682c0,11.977,9.71,21.684,21.687,21.684c8.725,0,16.238-5.156,19.68-12.586
		c5.613,5.119,13.469,8.309,22.176,8.309c4.271,0,8.342-0.768,12.04-2.154c0,0,8.497,5.312,12.44,25.58
		c0,0,3.945-11.49,1.193-32.516C504.004,131.868,503.871,131.022,503.73,130.237z"/>
</g>
<g id="mechanism">
	<g>
		<g>
			<path fill="#F48272" d="M645.274,174.849c-18.376-18.379-48.168-18.377-66.544,0.002c-18.381,18.377-18.381,48.17-0.006,66.547
				c18.378,18.375,48.174,18.379,66.554,0C663.654,223.021,663.652,193.224,645.274,174.849z"/>
		</g>
		<g>
			<path fill="#F48272" d="M550.992,190.718c3.483,3.486,9.131,3.484,12.615,0c3.482-3.482,3.484-9.129,0.002-12.613
				c-3.486-3.484-9.132-3.484-12.617,0C547.51,181.587,547.51,187.237,550.992,190.718z"/>
		</g>
		<g>
			<path fill="#F48272" d="M540.728,177.157c1.295,1.297,3.398,1.297,4.696,0c1.299-1.295,1.299-3.398,0.002-4.699
				c-1.3-1.297-3.401-1.295-4.698,0C539.429,173.759,539.429,175.862,540.728,177.157z"/>
		</g>
	</g>
	<g>
		<g>
			<path fill="#FFFFFF" d="M613.038,213.423h-1.644c-0.334,0-0.694-0.264-0.799-0.58l-1.021-2.463
				c-0.152-0.299-0.082-0.738,0.155-0.975l1.164-1.164c0.236-0.236,0.236-0.625,0-0.861l-3.875-3.873
				c-0.235-0.234-0.625-0.234-0.861,0l-1.162,1.162c-0.237,0.238-0.676,0.309-0.974,0.156l-2.464-1.018
				c-0.319-0.109-0.578-0.469-0.578-0.805v-1.641c0-0.336-0.275-0.609-0.612-0.609h-5.476c-0.336,0-0.608,0.273-0.608,0.609v1.641
				c0,0.336-0.261,0.695-0.581,0.805l-2.463,1.018c-0.297,0.152-0.736,0.082-0.974-0.156l-1.165-1.162
				c-0.236-0.234-0.623-0.234-0.859,0l-3.873,3.873c-0.238,0.236-0.238,0.625-0.002,0.861l1.162,1.164
				c0.24,0.236,0.309,0.676,0.158,0.975l-1.02,2.463c-0.107,0.316-0.469,0.58-0.804,0.58h-1.642c-0.334,0-0.609,0.271-0.609,0.605
				v5.48c0,0.334,0.275,0.609,0.609,0.609h1.642c0.335,0,0.696,0.26,0.804,0.576l1.02,2.465c0.15,0.299,0.082,0.738-0.158,0.973
				l-1.162,1.166c-0.236,0.238-0.236,0.625,0,0.859l3.875,3.875c0.236,0.236,0.623,0.236,0.861,0l1.163-1.162
				c0.237-0.236,0.677-0.307,0.974-0.156l2.463,1.02c0.32,0.105,0.581,0.467,0.581,0.803v1.643c0,0.334,0.272,0.609,0.608,0.609
				h5.476c0.337,0,0.612-0.275,0.612-0.609v-1.643c0-0.336,0.259-0.697,0.578-0.803l2.464-1.02c0.298-0.15,0.736-0.08,0.974,0.156
				l1.162,1.162c0.236,0.236,0.626,0.236,0.861,0l3.875-3.875c0.236-0.234,0.236-0.621,0-0.859l-1.164-1.166
				c-0.237-0.234-0.308-0.674-0.155-0.973l1.021-2.465c0.104-0.316,0.465-0.576,0.799-0.576h1.644c0.337,0,0.61-0.275,0.61-0.609
				v-5.48C613.648,213.694,613.375,213.423,613.038,213.423z M597.632,226.722c-5.499,0-9.954-4.455-9.954-9.951
				c0-5.498,4.455-9.955,9.954-9.955c5.496,0,9.952,4.457,9.952,9.955C607.584,222.267,603.128,226.722,597.632,226.722z"/>
		</g>
		<path fill="#345568" d="M639.688,186.159c-1.985-1.984-4.624-3.078-7.431-3.078c-1.569,0-3.082,0.354-4.463,1.003l-0.004-0.009
			l-37.453,18.015l-0.001-0.003c-5.613,2.791-9.099,8.418-9.099,14.684c0,9.039,7.354,16.393,16.392,16.393
			c3.705,0,7.2-1.207,10.108-3.484l-0.003-0.004l31.136-27.924c0.23-0.188,0.45-0.39,0.667-0.598l0.135-0.121l-0.001-0.001
			c0.006-0.005,0.012-0.01,0.017-0.015C643.785,196.923,643.783,190.255,639.688,186.159z M639.41,200.209l-4.442-4.441
			c0.499-0.618,0.783-1.373,0.783-2.179s-0.284-1.562-0.783-2.18l4.442-4.44C642.863,190.697,642.863,196.48,639.41,200.209z
			 M625.104,186.969l4.443,4.441c-1.023,1.272-1.023,3.083,0,4.356l-4.443,4.442c-1.676-1.81-2.604-4.141-2.604-6.62
			S623.429,188.776,625.104,186.969z M632.788,193.589l1.649-1.648c0.36,0.475,0.563,1.044,0.563,1.648s-0.203,1.174-0.564,1.648
			L632.788,193.589z M633.904,195.765c-0.956,0.71-2.336,0.71-3.294,0.001l1.647-1.646L633.904,195.765z M632.258,193.058
			l-1.65-1.649c0.474-0.36,1.045-0.565,1.65-0.565c0.604,0,1.175,0.206,1.649,0.566L632.258,193.058z M631.727,193.589l-1.648,1.647
			c-0.737-0.974-0.737-2.319,0-3.296L631.727,193.589z M630.077,196.298c0.619,0.499,1.373,0.787,2.181,0.787
			c0.807,0,1.561-0.288,2.18-0.787l4.44,4.439l-0.496,0.444c-1.73,1.4-3.868,2.163-6.124,2.163c-2.479,0-4.813-0.928-6.623-2.605
			L630.077,196.298z M638.88,186.438l-4.442,4.441c-0.619-0.501-1.373-0.786-2.18-0.786c-0.808,0-1.562,0.285-2.18,0.786
			l-4.442-4.441c1.81-1.678,4.143-2.606,6.622-2.606S637.07,184.76,638.88,186.438z M607.225,229.122
			c-2.764,2.151-6.08,3.291-9.595,3.291c-8.624,0-15.643-7.018-15.643-15.643c0-5.969,3.316-11.329,8.656-13.998l0.001,0.002
			l33.9-16.305c-1.798,1.946-2.796,4.453-2.796,7.119c0,2.807,1.095,5.445,3.077,7.428c1.986,1.986,4.626,3.078,7.432,3.078
			c1.245,0,2.452-0.227,3.588-0.639L607.225,229.122z"/>
	</g>
</g>
<g id="desk">
	<rect x="128.344" y="346.456" fill="#F48272" width="465.327" height="6.758"/>
</g>
<g id="magnifying_x5F_glass">
	<path fill="#345568" d="M432.18,133.19l-20.968-19.293c0.47-1.508,0.899-3.039,1.251-4.609c6.842-30.574-12.393-60.908-42.97-67.75
		c-30.573-6.846-60.907,12.398-67.749,42.969c-6.844,30.572,12.393,60.902,42.969,67.744c24.063,5.385,47.968-5.387,60.395-25.121
		L432.18,133.19z"/>
	<g>
		<g opacity="0.6">
			<circle fill="#FFFFFF" cx="345.049" cy="84.841" r="14.399"/>
		</g>
		<g>
			<path fill="#FFFFFF" d="M385.945,120.96l-19.029-19.027c-1.036-1.039-2.578-1.248-3.832-0.651l-6.297-6.298
				c2.442-2.82,3.788-6.375,3.788-10.145c0-4.145-1.615-8.047-4.546-10.979c-2.934-2.934-6.834-4.547-10.98-4.547
				s-8.046,1.613-10.977,4.547c-6.055,6.053-6.055,15.904,0,21.957c2.931,2.934,6.83,4.549,10.979,4.549
				c3.768,0,7.322-1.346,10.143-3.789l6.298,6.298c-0.596,1.255-0.389,2.795,0.649,3.833l19.029,19.027
				c0.658,0.66,1.523,0.99,2.387,0.99c0.864,0,1.729-0.33,2.389-0.99C387.264,124.419,387.264,122.278,385.945,120.96z
				 M335.663,94.226c-5.175-5.176-5.175-13.596,0-18.771c2.509-2.508,5.841-3.889,9.386-3.889s6.879,1.381,9.387,3.889
				c2.508,2.506,3.889,5.84,3.889,9.385c0,3.547-1.381,6.879-3.889,9.387s-5.842,3.891-9.385,3.891
				C341.504,98.116,338.172,96.733,335.663,94.226z"/>
			<path fill="#FFFFFF" d="M338.623,76.819c-0.439-0.439-1.152-0.439-1.593,0c-4.423,4.426-4.423,11.619,0,16.039
				c0.22,0.221,0.507,0.33,0.798,0.33c0.285,0,0.574-0.109,0.795-0.33c0.439-0.438,0.439-1.15,0-1.592
				c-3.545-3.545-3.545-9.311,0-12.854C339.062,77.972,339.062,77.261,338.623,76.819z"/>
		</g>
	</g>
</g>
<g id="mac">
	<g>
		<path fill="#F48272" d="M308.57,204.808H145.953c-2.342,0-4.257,1.914-4.257,4.254v90.881v2.686v4.256h4.257H308.57h4.256v-4.256
			v-2.686v-90.881C312.826,206.722,310.911,204.808,308.57,204.808z"/>
		<g>
			<rect x="148.64" y="211.749" fill="#D7DFE2" width="157.243" height="88.193"/>
		</g>
		<path fill="#345568" d="M308.57,306.884h-56.541H202.49h-56.537h-4.257v4.256v5.125v0.875c0,2.342,1.915,4.256,4.257,4.256h56.537
			v21.516h-9.942v3.502h9.942h49.539h9.946v-3.502h-9.946v-21.516h56.541c2.341,0,4.256-1.914,4.256-4.256v-0.875v-5.125v-4.256
			H308.57z"/>
	</g>
</g>
<g id="browser">
	<g>
		<g>
			<rect x="156.582" y="216.259" fill="#FFFFFF" width="172.968" height="76.186"/>
		</g>
		<g>
			<rect x="156.582" y="210.128" fill="#345568" width="172.968" height="6.131"/>
		</g>
		<g>
			<g>
				<circle fill="#D7DFE2" cx="160.854" cy="213.194" r="0.888"/>
			</g>
			<g>
				<circle fill="#D7DFE2" cx="164.486" cy="213.194" r="0.885"/>
			</g>
			<g>
				<circle fill="#D7DFE2" cx="168.116" cy="213.194" r="0.888"/>
			</g>
		</g>
		<g>
			<path fill="#D7DFE2" d="M283.552,213.194c0,0.734-0.599,1.33-1.333,1.33H203.91c-0.734,0-1.332-0.596-1.332-1.33l0,0
				c0-0.736,0.598-1.332,1.332-1.332h78.309C282.953,211.862,283.552,212.458,283.552,213.194L283.552,213.194z"/>
		</g>
		<g>
			<rect x="156.582" y="216.259" fill="#D7DFE2" width="172.968" height="76.186"/>
		</g>
	</g>
	<g>
		<g>
			<rect x="163.277" y="209.563" fill="#FFFFFF" width="172.968" height="76.186"/>
		</g>
		<g>
			<rect x="163.277" y="203.431" fill="#345568" width="172.968" height="6.133"/>
		</g>
		<g>
			<g>
				<circle fill="#D7DFE2" cx="167.551" cy="206.497" r="0.887"/>
			</g>
			<g>
				<path fill="#D7DFE2" d="M172.068,206.497c0,0.49-0.396,0.887-0.889,0.887c-0.486,0-0.885-0.396-0.885-0.887
					s0.398-0.887,0.885-0.887C171.672,205.61,172.068,206.007,172.068,206.497z"/>
			</g>
			<g>
				<circle fill="#D7DFE2" cx="174.812" cy="206.497" r="0.887"/>
			</g>
		</g>
		<g>
			<path fill="#D7DFE2" d="M290.247,206.497c0,0.736-0.599,1.332-1.332,1.332h-78.309c-0.735,0-1.332-0.596-1.332-1.332l0,0
				c0-0.736,0.597-1.33,1.332-1.33h78.309C289.648,205.167,290.247,205.761,290.247,206.497L290.247,206.497z"/>
		</g>
		<g>
			<rect x="163.277" y="209.563" fill="none" width="172.968" height="76.186"/>
		</g>
	</g>
	<g>
		<g>
			<rect x="169.973" y="202.868" fill="#D7DFE2" width="172.969" height="76.186"/>
		</g>
		<g>
			<rect x="169.973" y="196.735" fill="#345568" width="172.969" height="6.133"/>
		</g>
		<g>
			<g>
				<circle fill="#D7DFE2" cx="174.248" cy="199.802" r="0.887"/>
			</g>
			<g>
				<path fill="#D7DFE2" d="M178.764,199.802c0,0.49-0.395,0.887-0.887,0.887c-0.488,0-0.885-0.396-0.885-0.887
					s0.396-0.887,0.885-0.887C178.369,198.915,178.764,199.312,178.764,199.802z"/>
			</g>
			<g>
				<circle fill="#D7DFE2" cx="181.508" cy="199.802" r="0.887"/>
			</g>
		</g>
		<g>
			<path fill="#D7DFE2" d="M296.945,199.802c0,0.736-0.6,1.332-1.332,1.332h-78.311c-0.734,0-1.331-0.596-1.331-1.332l0,0
				c0-0.736,0.597-1.33,1.331-1.33h78.311C296.346,198.472,296.945,199.065,296.945,199.802L296.945,199.802z"/>
		</g>
		<g>
			<rect x="169.973" y="202.868" fill="none" width="172.969" height="76.186"/>
		</g>
	</g>
	<g>
		<g>
			<rect x="176.67" y="196.171" fill="#FFFFFF" width="172.969" height="76.184"/>
		</g>
		<g>
			<rect x="176.67" y="190.04" fill="#345568" width="172.969" height="6.131"/>
		</g>
		<g>
			<g>
				<circle fill="#D7DFE2" cx="180.943" cy="193.104" r="0.887"/>
			</g>
			<g>
				<path fill="#D7DFE2" d="M185.461,193.104c0,0.488-0.395,0.889-0.889,0.889c-0.486,0-0.885-0.4-0.885-0.889
					s0.398-0.887,0.885-0.887C185.066,192.218,185.461,192.616,185.461,193.104z"/>
			</g>
			<g>
				<circle fill="#D7DFE2" cx="188.205" cy="193.104" r="0.887"/>
			</g>
		</g>
		<g>
			<path fill="#D7DFE2" d="M303.641,193.104c0,0.734-0.598,1.33-1.332,1.33h-78.311c-0.732,0-1.328-0.596-1.328-1.33l0,0
				c0-0.734,0.596-1.332,1.328-1.332h78.311C303.043,191.772,303.641,192.37,303.641,193.104L303.641,193.104z"/>
		</g>
		<g>
			<rect x="176.67" y="196.171" fill="none" width="172.969" height="76.184"/>
		</g>
	</g>
	<g>
		<g>
			<rect x="183.365" y="189.474" fill="#D7DFE2" width="172.97" height="76.186"/>
		</g>
		<g>
			<rect x="183.365" y="183.343" fill="#345568" width="172.97" height="6.131"/>
		</g>
		<g>
			<g>
				<circle fill="#D7DFE2" cx="187.641" cy="186.407" r="0.887"/>
			</g>
			<g>
				<circle fill="#D7DFE2" cx="191.271" cy="186.407" r="0.887"/>
			</g>
			<g>
				<circle fill="#D7DFE2" cx="194.901" cy="186.407" r="0.886"/>
			</g>
		</g>
		<g>
			<path fill="#D7DFE2" d="M310.338,186.407c0,0.736-0.6,1.332-1.333,1.332h-78.308c-0.736,0-1.332-0.596-1.332-1.332l0,0
				c0-0.734,0.596-1.332,1.332-1.332h78.308C309.738,185.075,310.338,185.673,310.338,186.407L310.338,186.407z"/>
		</g>
		<g>
			<rect x="183.365" y="189.474" fill="none" width="172.97" height="76.186"/>
		</g>
	</g>
	<g>
		<g>
			<rect x="190.062" y="182.778" fill="#FFFFFF" width="172.969" height="76.186"/>
		</g>
		<g>
			<rect x="190.062" y="176.644" fill="#345568" width="172.969" height="6.135"/>
		</g>
		<g>
			<g>
				<circle fill="#D7DFE2" cx="194.337" cy="179.712" r="0.887"/>
			</g>
			<g>
				<path fill="#D7DFE2" d="M198.854,179.712c0,0.49-0.395,0.887-0.887,0.887c-0.488,0-0.885-0.396-0.885-0.887
					s0.396-0.887,0.885-0.887C198.459,178.825,198.854,179.222,198.854,179.712z"/>
			</g>
			<g>
				<circle fill="#D7DFE2" cx="201.599" cy="179.712" r="0.888"/>
			</g>
		</g>
		<g>
			<path fill="#D7DFE2" d="M317.033,179.712c0,0.734-0.599,1.33-1.332,1.33h-78.309c-0.735,0-1.332-0.596-1.332-1.33l0,0
				c0-0.736,0.597-1.332,1.332-1.332h78.309C316.435,178.38,317.033,178.976,317.033,179.712L317.033,179.712z"/>
		</g>
		<g>
			<rect x="190.062" y="182.778" fill="none" width="172.969" height="76.186"/>
		</g>
	</g>
	<g>
		<g>
			<rect x="196.76" y="176.081" fill="#D7DFE2" width="172.969" height="76.186"/>
		</g>
		<g>
			<rect x="196.76" y="169.948" fill="#345568" width="172.969" height="6.133"/>
		</g>
		<g>
			<g>
				<circle fill="#D7DFE2" cx="201.033" cy="173.015" r="0.887"/>
			</g>
			<g>
				<circle fill="#D7DFE2" cx="204.665" cy="173.015" r="0.886"/>
			</g>
			<g>
				<circle fill="#D7DFE2" cx="208.295" cy="173.015" r="0.887"/>
			</g>
		</g>
		<g>
			<path fill="#D7DFE2" d="M323.73,173.015c0,0.736-0.598,1.332-1.332,1.332H244.09c-0.736,0-1.332-0.596-1.332-1.332l0,0
				c0-0.734,0.596-1.33,1.332-1.33h78.309C323.133,171.685,323.73,172.28,323.73,173.015L323.73,173.015z"/>
		</g>
		<g>
			<rect x="196.76" y="176.081" fill="none" width="172.969" height="76.186"/>
		</g>
	</g>
	<g>
		<g>
			<rect x="203.457" y="169.386" fill="#FFFFFF" width="172.967" height="76.184"/>
		</g>
		<g>
			<rect x="203.457" y="163.253" fill="#345568" width="172.967" height="6.133"/>
		</g>
		<g>
			<g>
				<circle fill="#D7DFE2" cx="207.731" cy="166.317" r="0.887"/>
			</g>
			<g>
				<circle fill="#D7DFE2" cx="211.36" cy="166.317" r="0.886"/>
			</g>
			<g>
				<circle fill="#D7DFE2" cx="214.991" cy="166.317" r="0.887"/>
			</g>
		</g>
		<g>
			<path fill="#D7DFE2" d="M330.426,166.317c0,0.736-0.598,1.332-1.33,1.332h-78.311c-0.734,0-1.33-0.596-1.33-1.332l0,0
				c0-0.734,0.596-1.33,1.33-1.33h78.311C329.828,164.987,330.426,165.583,330.426,166.317L330.426,166.317z"/>
		</g>
		<g>
			<g>
				<g>
					<circle fill="#D7DFE2" cx="248.729" cy="207.478" r="9.39"/>
				</g>
				<g>
					<g>
						<rect x="265.732" y="201.347" fill="#D7DFE2" width="74.809" height="2.252"/>
					</g>
					<g>
						<rect x="265.732" y="211.354" fill="#F48272" width="18.139" height="2.252"/>
					</g>
					<g>
						<rect x="294.068" y="211.354" fill="#345568" width="46.473" height="2.252"/>
					</g>
					<g>
						<path fill="none" stroke="#F48272" stroke-width="3" stroke-miterlimit="10" d="M340.541,212.479"/>
					</g>
					<g>
						<path fill="none" stroke="#F48272" stroke-width="3" stroke-miterlimit="10" d="M322.402,212.479"/>
					</g>
					<g>
						<g>
							<rect x="240.545" y="188.271" fill="#D7DFE2" width="99.996" height="2.252"/>
						</g>
						<g>
							<rect x="240.545" y="180.765" fill="#D7DFE2" width="99.996" height="2.254"/>
						</g>
					</g>
					<g>
						<g>
							<rect x="240.545" y="232.304" fill="#D7DFE2" width="99.996" height="2.252"/>
						</g>
						<g>
							<rect x="240.545" y="224.798" fill="#D7DFE2" width="99.996" height="2.254"/>
						</g>
					</g>
				</g>
			</g>
		</g>
		<g>
			<rect x="203.457" y="169.386" fill="none" width="172.967" height="76.184"/>
		</g>
	</g>
</g>
<g id="lines_x5F_front">
	<g>
		<path fill="#F48272" d="M171.611,288.298h-4.504v-0.75h4.504V288.298z M162.604,288.298h-4.505v-0.75h4.505V288.298z
			 M153.598,288.298h-4.502v-0.75h4.502V288.298z M144.591,288.298h-4.505v-0.75h4.505V288.298z M176.202,288.218l-0.188-0.727
			c0.836-0.215,1.418-0.961,1.418-1.82v-1.525h0.752v1.525C178.184,286.872,177.366,287.923,176.202,288.218z M135.924,286.472
			c-0.084-0.258-0.127-0.527-0.127-0.801v-3.809h0.75v3.809c0,0.195,0.031,0.387,0.09,0.57L135.924,286.472z M178.184,279.642
			h-0.752v-4.504h0.752V279.642z M136.547,277.36h-0.75v-4.504h0.75V277.36z M178.184,270.636h-0.752v-4.504h0.752V270.636z
			 M136.547,268.353h-0.75v-4.504h0.75V268.353z M178.184,261.63h-0.752v-4.506h0.752V261.63z M136.547,259.347h-0.75v-4.504h0.75
			V259.347z M178.184,252.62h-0.752v-4.504h0.752V252.62z M136.547,250.341h-0.75v-4.504h0.75V250.341z M178.184,243.616h-0.752
			v-4.506h0.752V243.616z M136.547,241.331h-0.75v-4.502h0.75V241.331z M178.184,234.608h-0.752v-4.504h0.752V234.608z
			 M136.547,232.325h-0.75v-4.504h0.75V232.325z M178.184,225.601h-0.752v-3.582c0-0.361,0.072-0.713,0.218-1.045l0.687,0.299
			c-0.102,0.236-0.154,0.49-0.152,0.746V225.601z M136.547,223.319h-0.75v-4.504h0.75V223.319z M212.846,220.142h-3.879v-0.752
			h3.879c0.174,0,0.349-0.021,0.515-0.07l0.206,0.721C213.335,220.106,213.092,220.142,212.846,220.142z M204.464,220.142h-4.505
			v-0.752h4.505V220.142z M195.458,220.142h-4.505v-0.752h4.505V220.142z M186.45,220.142h-4.503v-0.752h4.503V220.142z
			 M215.472,215.923h-0.752v-4.506h0.752V215.923z M136.547,214.313h-0.75v-4.506h0.75V214.313z M275.284,210.315h-0.751v-4.504
			h0.751V210.315z M215.472,206.913h-0.752v-4.502h0.752V206.913z M136.547,205.308h-0.75v-4.504h0.75V205.308z M275.284,201.31
			h-0.751v-4.504h0.751V201.31z M215.472,197.909h-0.752v-4.504h0.752V197.909z M136.547,196.298h-0.75v-4.504h0.75V196.298z
			 M275.284,192.304h-0.751V187.8h0.751V192.304z M215.472,188.901h-0.752v-4.504h0.752V188.901z M136.547,187.292h-0.75v-4.504
			h0.75V187.292z M275.284,183.296h-0.751v-4.504h0.751V183.296z M215.472,179.894h-0.752v-4.504h0.752V179.894z M136.547,178.284
			h-0.75v-4.502h0.75V178.284z M275.284,174.288h-0.751v-4.504h0.751V174.288z M215.472,170.888h-0.752v-4.504h0.752V170.888z
			 M136.547,169.278h-0.75v-4.504h0.75V169.278z M275.284,165.282h-0.751v-4.502h0.751V165.282z M215.472,161.88h-0.752v-4.504
			h0.752V161.88z M136.547,160.272h-0.75v-4.502h0.75V160.272z M275.284,156.274h-0.751v-4.502h0.751V156.274z M215.472,152.874
			h-0.752v-4.504h0.752V152.874z M136.547,151.263h-0.75v-4.502h0.75V151.263z M275.284,147.271h-0.751v-4.506h0.751V147.271z
			 M215.472,143.868h-0.752v-4.504h0.752V143.868z M275.284,138.261h-0.751v-4.502h0.751V138.261z M215.472,134.86h-0.752v-4.504
			h0.752V134.86z M275.284,129.255h-0.751v-4.504h0.751V129.255z M215.472,125.854h-0.752v-4.506h0.752V125.854z M275.284,120.247
			h-0.751v-4.5h0.751V120.247z M215.472,116.847h-0.752v-4.504h0.752V116.847z M275.284,111.241h-0.751v-4.504h0.751V111.241z
			 M215.472,107.839h-0.752v-4.502h0.752V107.839z M274.523,102.271c-0.094-0.953-0.912-1.695-1.867-1.695l0,0h-1.186v-0.75h1.186
			l0,0c1.336,0,2.485,1.041,2.614,2.375L274.523,102.271z M266.968,100.575h-4.503v-0.75h4.503V100.575z M257.961,100.575h-4.504
			v-0.75h4.504V100.575z M248.955,100.575h-4.504v-0.75h4.504V100.575z M239.946,100.575h-4.501v-0.75h4.501V100.575z
			 M230.941,100.575h-4.504v-0.75h4.504V100.575z M221.934,100.575h-4.503v-0.75h4.503V100.575z"/>
	</g>
	<g>
		<path fill="#345568" d="M349.969,360.954h-2.038v-0.75h2.038c0.702-0.002,1.342-0.391,1.667-1.02l0.667,0.346
			C351.848,360.409,350.956,360.952,349.969,360.954z M343.428,360.954h-4.504v-0.75h4.504V360.954z M334.421,360.954h-4.503v-0.75
			h4.503V360.954z M325.413,360.954h-2.708c-0.712,0-1.378-0.279-1.877-0.791l0.535-0.527c0.359,0.367,0.834,0.568,1.342,0.568
			h2.708V360.954z M320.828,355.567h-0.752v-4.502h0.752V355.567z M352.598,354.896h-0.752v-4.504h0.752V354.896z M320.828,346.562
			h-0.752v-4.504h0.752V346.562z M352.598,345.888h-0.752v-4.502h0.752V345.888z M320.828,337.554h-0.752v-4.502h0.752V337.554z
			 M352.598,336.882h-0.752v-4.504h0.752V336.882z M320.828,328.548h-0.752v-4.504h0.752V328.548z M352.598,327.874h-0.752v-4.502
			h0.752V327.874z M320.828,319.54h-0.752v-4.502h0.752V319.54z M352.598,318.866h-0.752v-4.502h0.752V318.866z M320.828,310.534
			h-0.752v-4.504h0.752V310.534z M352.598,309.862h-0.752v-4.504h0.752V309.862z M320.828,301.526h-0.752v-4.502h0.752V301.526z
			 M352.598,300.854h-0.752v-4.504h0.752V300.854z M320.828,292.519h-0.752v-4.502h0.752V292.519z M352.598,291.847h-0.752v-4.504
			h0.752V291.847z M320.828,283.515h-0.752v-4.504h0.752V283.515z M352.598,282.841h-0.752v-4.502h0.752V282.841z M320.828,274.505
			h-0.752v-4.502h0.752V274.505z M409.342,274.237h-0.749v-4.504h0.749V274.237z M352.598,273.833h-0.752v-4.502h0.752V273.833z
			 M320.828,265.501h-0.752v-4.504h0.752V265.501z M409.342,265.231h-0.749v-4.504h0.749V265.231z M352.598,264.827h-0.752v-4.504
			h0.752V264.827z M320.828,256.493h-0.752v-4.504h0.752V256.493z M409.342,256.224h-0.749v-4.502h0.749V256.224z M352.598,255.819
			h-0.752v-4.502h0.752V255.819z M320.828,247.485h-0.752v-4.502h0.752V247.485z M409.342,247.218h-0.749v-4.506h0.749V247.218z
			 M352.598,246.812h-0.752v-4.502h0.752V246.812z M320.828,238.479h-0.752v-4.504h0.752V238.479z M409.342,238.21h-0.749v-4.502
			h0.749V238.21z M352.598,237.806h-0.752v-4.504h0.752V237.806z M320.828,229.474h-0.752v-4.506h0.752V229.474z M409.342,229.202
			h-0.749V224.7h0.749V229.202z M352.598,228.8h-0.752v-4.502h0.752V228.8z M320.828,220.466h-0.752v-4.502h0.752V220.466z
			 M409.342,220.196h-0.749v-4.504h0.749V220.196z M352.598,219.792h-0.752v-4.504h0.752V219.792z M409.342,211.19h-0.749v-4.502
			h0.749V211.19z M352.598,210.786h-0.752v-4.504h0.752V210.786z M409.342,202.185h-0.749v-4.506h0.749V202.185z M352.598,201.778
			h-0.752v-4.502h0.752V201.778z M409.342,193.177h-0.749v-4.504h0.749V193.177z M351.846,192.772c0-1.5,1.178-2.68,2.627-2.68
			h0.916v0.75h-0.916c-1.037,0-1.875,0.842-1.875,1.881L351.846,192.772z M379.81,190.843h-1.903v-0.75h1.903
			c0.739,0,1.412-0.439,1.716-1.119l0.688,0.307C381.787,190.231,380.846,190.843,379.81,190.843z M373.401,190.843h-4.503v-0.75
			h4.503V190.843z M364.395,190.843h-4.503v-0.75h4.503V190.843z M382.436,184.649h-0.752v-4.502h0.752V184.649z M409.342,184.169
			h-0.749v-4.504h0.749V184.169z M382.436,175.644h-0.752v-4.504h0.752V175.644z M409.342,175.163h-0.749v-4.504h0.749V175.163z
			 M382.436,166.638h-0.752v-4.506h0.752V166.638z M409.342,166.157h-0.749v-4.504h0.749V166.157z M382.436,157.63h-0.752v-4.502
			h0.752V157.63z M409.342,157.149h-0.749v-4.504h0.749V157.149z M384.062,150.001l-0.094-0.744
			c0.109-0.016,0.227-0.023,0.342-0.023h4.206v0.752h-4.206C384.229,149.985,384.145,149.991,384.062,150.001z M406.531,149.985
			h-4.504v-0.752h4.504V149.985z M397.524,149.985h-4.505v-0.752h4.505V149.985z"/>
	</g>
</g>
<g id="devices">
	<g>
		<g>
			<g>
				<g>
					<path fill="#345568" d="M428.115,335.497c0,2.342-1.916,4.256-4.255,4.256h-29.759c-2.34,0-4.254-1.914-4.254-4.256v-51.158
						c0-2.338,1.914-4.254,4.254-4.254h29.759c2.339,0,4.255,1.916,4.255,4.254V335.497z"/>
				</g>
			</g>
			<g>
				<g>
					<path fill="#345568" d="M428.115,342.237c0,2.334-1.916,4.24-4.255,4.24h-29.759c-2.34,0-4.254-1.906-4.254-4.24
						s1.914-4.242,4.254-4.242h29.759C426.199,337.995,428.115,339.903,428.115,342.237z"/>
				</g>
			</g>
			<g>
				<g>
					<path fill="#345568" d="M428.115,278.478c0,2.334-1.914,4.244-4.255,4.244h-29.759c-2.34,0-4.254-1.91-4.254-4.244
						c0-2.332,1.914-4.24,4.254-4.24h29.759C426.201,274.237,428.115,276.146,428.115,278.478z"/>
				</g>
			</g>
		</g>
		<g>
			<rect x="392.586" y="284.146" fill="#D7DFE2" width="32.789" height="51.549"/>
		</g>
		<g>
			<rect x="389.848" y="335.694" fill="#345568" width="38.268" height="4.059"/>
		</g>
		<g>
			<rect x="389.848" y="280.085" fill="#345568" width="38.268" height="4.061"/>
		</g>
		<g>
			<rect x="389.848" y="337.995" fill="#345568" width="38.268" height="4.24"/>
		</g>
		<g>
			<rect x="389.848" y="277.771" fill="#345568" width="38.268" height="4.951"/>
		</g>
		<g>
			<circle fill="#D7DFE2" cx="408.981" cy="341.616" r="1.865"/>
		</g>
		<g>
			<circle fill="#D7DFE2" cx="408.98" cy="278.796" r="1.184"/>
		</g>
		<g>
			<g>
				<rect x="394.308" y="294.046" fill="#FFFFFF" width="29.345" height="34.523"/>
			</g>
			<g>
				<rect x="394.308" y="291.267" fill="#345568" width="29.345" height="2.779"/>
			</g>
			<g>
				<g>
					<circle fill="#D7DFE2" cx="396.244" cy="292.655" r="0.4"/>
				</g>
				<g>
					<circle fill="#D7DFE2" cx="397.889" cy="292.655" r="0.402"/>
				</g>
				<g>
					<circle fill="#D7DFE2" cx="399.536" cy="292.655" r="0.402"/>
				</g>
			</g>
			<g>
				<path fill="#D7DFE2" d="M420.367,292.655c0,0.332-0.27,0.604-0.603,0.604h-12.788c-0.333,0-0.603-0.271-0.603-0.604l0,0
					c0-0.334,0.27-0.602,0.603-0.602h12.788C420.098,292.054,420.367,292.321,420.367,292.655L420.367,292.655z"/>
			</g>
			<g>
				<g>
					<rect x="397.824" y="298.116" fill="#F48272" width="6.604" height="6.602"/>
				</g>
				<g>
					<rect x="409.014" y="297.856" fill="#F48272" width="11.15" height="2.25"/>
				</g>
				<g>
					<rect x="409.014" y="302.712" fill="#F48272" width="11.15" height="2.252"/>
				</g>
				<g>
					<rect x="397.824" y="307.571" fill="#D7DFE2" width="22.34" height="2.252"/>
				</g>
				<g>
					<rect x="397.797" y="312.429" fill="#D7DFE2" width="22.341" height="2.25"/>
				</g>
				<g>
					<rect x="397.797" y="317.284" fill="#D7DFE2" width="22.341" height="2.254"/>
				</g>
				<g>
					<path fill="#D7DFE2" d="M407.5,324.638h-9.703c-0.621,0-1.125-0.504-1.125-1.125s0.504-1.127,1.125-1.127h9.703
						c0.621,0,1.125,0.506,1.125,1.127S408.121,324.638,407.5,324.638z"/>
				</g>
			</g>
		</g>
	</g>
	<g>
		<g>
			<g>
				<g>
					<path fill="#345568" d="M174.549,138.042c0,2.344-1.915,4.256-4.256,4.256h-66.574c-2.342,0-4.256-1.912-4.256-4.256v-74.34
						c0-2.342,1.914-4.258,4.256-4.258h66.574c2.341,0,4.256,1.916,4.256,4.258V138.042z"/>
				</g>
			</g>
			<g>
				<g>
					<path fill="#345568" d="M174.549,149.821c0,2.34-1.915,4.254-4.256,4.254h-66.574c-2.342,0-4.256-1.914-4.256-4.254v-3.268
						c0-2.342,1.914-4.256,4.256-4.256h66.574c2.341,0,4.256,1.914,4.256,4.256V149.821z"/>
				</g>
			</g>
			<g>
				<g>
					<path fill="#345568" d="M174.549,55.192c0,2.34-1.915,4.252-4.256,4.252h-66.574c-2.342,0-4.256-1.912-4.256-4.252v-3.27
						c0-2.342,1.914-4.254,4.256-4.254h66.574c2.341,0,4.256,1.912,4.256,4.254V55.192z"/>
				</g>
			</g>
		</g>
		<g>
			<rect x="105.098" y="65.083" fill="#D7DFE2" width="63.814" height="71.58"/>
		</g>
		<g>
			<rect x="99.463" y="136.663" fill="#345568" width="75.086" height="5.635"/>
		</g>
		<g>
			<rect x="99.463" y="59.444" fill="#345568" width="75.086" height="5.639"/>
		</g>
		<g>
			<rect x="99.463" y="142.298" fill="#345568" width="75.086" height="7.615"/>
		</g>
		<g>
			<rect x="99.463" y="51.831" fill="#345568" width="75.086" height="7.613"/>
		</g>
		<g>
			<path fill="#D7DFE2" d="M140.814,146.106c0-2.104-1.707-3.809-3.811-3.809c-2.101,0-3.805,1.705-3.805,3.809
				c0,2.102,1.704,3.807,3.805,3.807C139.107,149.913,140.814,148.208,140.814,146.106z"/>
		</g>
		<g>
			<path fill="#D7DFE2" d="M138.648,55.64c0-0.906-0.736-1.641-1.645-1.641c-0.903,0-1.639,0.734-1.639,1.641
				s0.735,1.641,1.639,1.641C137.912,57.28,138.648,56.546,138.648,55.64z"/>
		</g>
		<g>
			<g>
				<rect x="110.535" y="78.833" fill="#FFFFFF" width="52.941" height="47.939"/>
			</g>
			<g>
				<rect x="110.535" y="74.97" fill="#345568" width="52.941" height="3.863"/>
			</g>
			<g>
				<g>
					<path fill="#D7DFE2" d="M113.783,76.901c0,0.309-0.25,0.559-0.561,0.559c-0.306,0-0.557-0.25-0.557-0.559
						c0-0.307,0.251-0.559,0.557-0.559C113.533,76.343,113.783,76.595,113.783,76.901z"/>
				</g>
				<g>
					<circle fill="#D7DFE2" cx="115.509" cy="76.901" r="0.558"/>
				</g>
				<g>
					<circle fill="#D7DFE2" cx="117.793" cy="76.901" r="0.559"/>
				</g>
			</g>
			<g>
				<path fill="#D7DFE2" d="M146.721,76.901c0,0.465-0.375,0.838-0.838,0.838h-17.755c-0.464,0-0.837-0.373-0.837-0.838l0,0
					c0-0.463,0.373-0.836,0.837-0.836h17.755C146.346,76.065,146.721,76.438,146.721,76.901L146.721,76.901z"/>
			</g>
			<g>
				<g>
					<rect x="115.418" y="84.481" fill="#F48272" width="9.172" height="9.172"/>
				</g>
				<g>
					<rect x="130.955" y="84.183" fill="#F48272" width="27.676" height="3.002"/>
				</g>
				<g>
					<rect x="130.955" y="90.929" fill="#F48272" width="27.676" height="3.004"/>
				</g>
				<g>
					<rect x="115.418" y="97.675" fill="#D7DFE2" width="43.213" height="3.002"/>
				</g>
				<g>
					<rect x="115.379" y="104.419" fill="#D7DFE2" width="43.215" height="3.004"/>
				</g>
				<g>
					<rect x="115.379" y="111.165" fill="#D7DFE2" width="43.215" height="3.002"/>
				</g>
				<g>
					<path fill="#D7DFE2" d="M128.854,120.876h-13.475c-0.621,0-1.125-0.506-1.125-1.127s0.504-1.125,1.125-1.125h13.475
						c0.62,0,1.125,0.504,1.125,1.125S129.474,120.876,128.854,120.876z"/>
				</g>
			</g>
		</g>
	</g>
</g>
<g id="flowers">
	<g>
		<path fill="#FFFFFF" d="M179.176,314.261c0.424-0.822,0.664-1.754,0.664-2.744c0-2.396-1.402-4.463-3.43-5.434
			c0.199-0.598,0.311-1.236,0.311-1.896c0-3.334-2.701-6.035-6.034-6.035s-6.032,2.701-6.032,6.035c0,0.695,0.123,1.357,0.339,1.98
			c-1.934,1.006-3.253,3.021-3.253,5.35c0,0.953,0.225,1.85,0.615,2.646c-1.736,1.061-2.901,2.967-2.901,5.15
			c0,3.334,2.702,6.035,6.034,6.035h4.979h1.501h3.919c3.332,0,6.033-2.701,6.033-6.035
			C181.92,317.198,180.826,315.339,179.176,314.261z"/>
		<g>
			<g>
				<path fill="#FFFFFF" d="M208.713,315.606c0.37-0.723,0.585-1.539,0.585-2.41c0-2.105-1.235-3.918-3.015-4.773
					c0.175-0.525,0.273-1.086,0.273-1.67c0-2.928-2.375-5.301-5.303-5.301c-2.93,0-5.301,2.373-5.301,5.301
					c0,0.611,0.108,1.195,0.297,1.744c-1.697,0.881-2.859,2.654-2.859,4.699c0,0.838,0.199,1.621,0.543,2.324
					c-1.525,0.932-2.548,2.609-2.548,4.525c0,2.93,2.372,5.303,5.3,5.303h9.138c2.927,0,5.302-2.373,5.302-5.303
					C211.125,318.187,210.164,316.552,208.713,315.606z"/>
				<g>
					<rect x="200.97" y="306.097" fill="#D7DFE2" width="1.499" height="19.252"/>
				</g>
				<g>
					<rect x="169.938" y="306.097" fill="#D7DFE2" width="1.499" height="19.252"/>
				</g>
			</g>
			<g>
				<path fill="#F48272" d="M198.693,307.897c-2.928,0-5.303,2.373-5.303,5.299c0,2.93,2.375,5.303,5.303,5.303"/>
			</g>
		</g>
		<g>
			<g>
				<path fill="#FFFFFF" d="M198.773,309.651c0.596-1.164,0.939-2.482,0.939-3.883c0-3.395-1.984-6.318-4.854-7.697
					c0.28-0.844,0.438-1.748,0.438-2.686c0-4.719-3.823-8.541-8.542-8.541s-8.543,3.822-8.543,8.541c0,0.984,0.174,1.926,0.48,2.807
					c-2.735,1.424-4.605,4.279-4.605,7.576c0,1.346,0.318,2.613,0.873,3.746c-2.461,1.5-4.109,4.201-4.109,7.291
					c0,4.719,3.824,8.543,8.541,8.543h14.726c4.716,0,8.54-3.824,8.54-8.543C202.656,313.808,201.109,311.177,198.773,309.651z"/>
				<g>
					<rect x="186.754" y="294.323" fill="#D7DFE2" width="1.5" height="31.025"/>
				</g>
			</g>
			<g>
				<path fill="#FFFFFF" d="M182.629,297.228c-4.721,0-8.543,3.822-8.543,8.541s3.822,8.539,8.543,8.539"/>
			</g>
		</g>
		<polygon fill="#F48272" points="152.941,325.349 154.443,330.438 156.057,330.438 159.311,346.45 214.197,346.45 217.449,330.438
			219.064,330.438 220.566,325.349 		"/>
	</g>
	<g>
		<g>
			<g>
				<g>
					<path fill="#F48272" d="M535.218,309.651c0.595-1.164,0.94-2.482,0.94-3.883c0-3.395-1.988-6.318-4.857-7.697
						c0.283-0.844,0.441-1.748,0.441-2.686c0-4.719-3.824-8.541-8.545-8.541c-4.717,0-8.542,3.822-8.542,8.541
						c0,0.984,0.175,1.926,0.481,2.807c-2.738,1.424-4.607,4.279-4.607,7.576c0,1.346,0.318,2.613,0.873,3.746
						c-2.46,1.5-4.107,4.201-4.107,7.291c0,4.719,3.822,8.543,8.542,8.543h14.724c4.717,0,8.543-3.824,8.543-8.543
						C539.104,313.808,537.555,311.177,535.218,309.651z"/>
					<g>
						<rect x="523.199" y="294.323" fill="#345568" width="1.5" height="31.025"/>
					</g>
				</g>
				<g>
					<path fill="#F48272" d="M519.072,297.228c-4.719,0-8.543,3.822-8.543,8.541s3.824,8.539,8.543,8.539"/>
				</g>
			</g>
			<polygon fill="#FFFFFF" points="541.086,325.349 505.311,325.349 506.811,335.694 508.498,335.694 510.38,346.45 536.018,346.45
				537.899,335.694 539.584,335.694 			"/>
		</g>
		<g>
			<rect x="511.502" y="335.907" fill="#D7DFE2" width="23.393" height="1.502"/>
		</g>
	</g>
</g>
<g id="bulbs">
	<g>
		<path fill="#FFFFFF" d="M563.197,257.958c-6.619,0-11.988,5.369-11.988,11.99v57.77c0,6.619,5.369,11.986,11.988,11.986
			c6.621,0,11.988-5.367,11.988-11.986v-57.77C575.186,263.327,569.818,257.958,563.197,257.958z"/>
		<path fill="#345568" d="M568.112,274.897c-1.476,0-2.675,1.199-2.675,2.674v1.924h-4.479v-1.924c0-1.475-1.2-2.674-2.676-2.674
			c-1.473,0-2.672,1.199-2.672,2.672c0,1.475,1.199,2.676,2.674,2.676h1.924v59.459h0.75v-59.459h4.479v59.459h0.75v-59.459h1.925
			c1.475,0,2.674-1.199,2.674-2.674S569.587,274.897,568.112,274.897z M558.285,279.495c-1.062,0-1.924-0.865-1.924-1.926
			c0-1.057,0.862-1.922,1.922-1.922c1.062,0,1.926,0.865,1.926,1.924v1.924H558.285z M568.112,279.495h-1.925v-1.924
			c0-1.059,0.861-1.924,1.925-1.924c1.06,0,1.925,0.865,1.925,1.924C570.037,278.632,569.172,279.495,568.112,279.495z"/>
		<polygon fill="#F48272" points="568.158,342.847 568.158,339.116 558.236,339.116 558.236,342.847 553.699,342.847
			553.699,346.571 572.695,346.571 572.695,342.847 		"/>
	</g>
	<g>
		<g>
			<g>
				<path fill="#345568" d="M565.668,54.304c-14.133-14.135-37.051-14.135-51.185,0.002c-14.134,14.135-14.136,37.051-0.003,51.184
					c14.135,14.135,37.053,14.139,51.189,0C579.807,91.356,579.803,68.437,565.668,54.304z"/>
			</g>
			<g>
				<circle fill="#345568" cx="502.779" cy="107.949" r="5.691"/>
			</g>
			<g>
				<circle fill="#345568" cx="492.012" cy="110.879" r="2.121"/>
			</g>
		</g>
		<g>
			<g>
				<path fill="#FFFFFF" d="M540.076,59.052c-3.363,0-6.09,2.723-6.09,6.088v26.027c0,3.363,2.727,6.088,6.09,6.088
					c3.362,0,6.09-2.725,6.09-6.088V65.14C546.166,61.774,543.438,59.052,540.076,59.052z"/>
				<path fill="#F48272" d="M542.571,70.558c0.854,0,1.546-0.693,1.546-1.543c0-0.852-0.691-1.545-1.546-1.545
					c-0.849,0-1.54,0.693-1.54,1.545v0.791h-1.908v-0.791c0-0.852-0.691-1.545-1.543-1.545s-1.541,0.693-1.541,1.545
					c0,0.85,0.689,1.543,1.543,1.543h0.791v26.398h-0.816v1.895h0.633v1.895h3.774v-1.895h0.634v-1.895h-0.814V70.558H542.571z
					 M541.783,69.015c0-0.439,0.353-0.795,0.788-0.795c0.438,0,0.795,0.355,0.795,0.795c0,0.434-0.356,0.791-0.795,0.791h-0.788
					V69.015z M537.582,69.806c-0.437,0-0.793-0.357-0.793-0.791c0-0.439,0.354-0.795,0.791-0.795c0.438,0,0.793,0.355,0.793,0.795
					v0.791H537.582z M539.123,96.956V70.558h1.908v26.398H539.123z"/>
			</g>
		</g>
	</g>
</g>
</svg>
