<?xml version="1.0" encoding="utf-8"?>
<!-- Generator: Adobe Illustrator 16.0.0, SVG Export Plug-In . SVG Version: 6.00 Build 0)  -->
<!DOCTYPE svg PUBLIC "-//W3C//DTD SVG 1.1//EN" "http://www.w3.org/Graphics/SVG/1.1/DTD/svg11.dtd">
<svg version="1.1" id="Layer_1" xmlns="http://www.w3.org/2000/svg" xmlns:xlink="http://www.w3.org/1999/xlink" x="0px" y="0px"
	 width="301px" height="301px" viewBox="0 0 301 301" enable-background="new 0 0 301 301" xml:space="preserve">
<path id="blue" fill="#345568" d="M210.676,140.096c-0.17-4.705-7.607-5.768-5.482-10.018c9.562-24.438-10.626-32.938-32.938-38.25
	c-4.25-1.062,0-9.562-4.25-11.688c-13.812-7.438-26.562,2.125-39.312,6.375c-4.25,1.062-6.375-8.5-11.688-6.375
	c-7.438,3.188-4.25,13.812-2.125,21.25c1.062,4.25,5.312,7.438,6.375,11.688c1.062,15.938,10.625,26.562,17,39.312
	c-3.188,0-6.375-1.062-8.5-2.125c-9.562-11.688-23.375-11.688-35.832-17.434c-1.717,1.116-2.595,2.768-3.163,4.477
	c-2.274,6.832-3.505,14.143-3.505,21.74c0,37.986,30.794,68.78,68.781,68.78c5.697,0,11.232-0.693,16.528-1.999
	c2.424,0.23,5.08,0.685,8.147,4.795c7.48,9.954,14.918,18.454,21.294,29.079c7.438-13.812,7.438-28.688,8.5-44.625
	c0-9.563,7.438-19.126,7.438-28.688c-1.062-6.375-9.562-12.75-10.625-21.25c-1.062-5.312,0-11.688,1.153-16.59
	C209.438,145.35,210.503,142.551,210.676,140.096z"/>
<circle id="orange" fill="#F48272" cx="115.146" cy="74.031" r="33.734"/>
<g id="light_x5F_blue_x5F_dots">
	<path fill="#D7DFE2" d="M94.842,126.677c-1.874,1.685-1.874,4.196-0.618,4.823c1.884,0.629,1.884-1.884,2.262-3.5
		C96.399,126.642,95.705,126.061,94.842,126.677z"/>
	<path fill="#D7DFE2" d="M107.428,104.503c1.271-1.306,1.302-2.315,0.339-2.229c-2.24,0.964-4.124,2.22-5.379,4.731
		C104.899,107.635,106.155,105.75,107.428,104.503z"/>
	<path fill="#D7DFE2" d="M82.919,129.616c0.627,1.884,3.141,1.257,4.43,1.038c0.785-0.679,0.402-1.868-0.438-2.303
		C84.804,127.104,82.919,127.73,82.919,129.616z"/>
	<path fill="#D7DFE2" d="M99.822,101.551c-2.46,1.06-4.97,2.943-3.715,5.455c0.627,0.629,1.884-1.256,2.776-2.283
		C100.136,103.152,100.503,101.794,99.822,101.551z"/>
	<path fill="#D7DFE2" d="M92.521,141.849c-1.258,0.628-1.258,3.14,0.618,4.823c0.861,0.616,1.559,0.034,1.645-1.323
		C94.403,143.732,94.403,141.221,92.521,141.849z"/>
	<path fill="#D7DFE2" d="M92.518,154.975c-0.625-1.194-1.254-2.449-2.509-3.707c-0.629,3.143,0,5.025,2.373,6.604
		C93.128,157.977,93.142,156.719,92.518,154.975z"/>
	<path fill="#D7DFE2" d="M94.084,115.479c-2.374,1.578-3.001,3.461-2.374,6.602c1.258-1.256,1.885-2.512,2.51-3.707
		C94.844,116.631,94.831,115.372,94.084,115.479z"/>
	<path fill="#D7DFE2" d="M90.965,138.194c0.081-0.722-1.106-1.457-2.689-1.8c-0.96,0.129-2.845,0.129-2.845,0.758
		C85.431,139.035,89.199,139.664,90.965,138.194z"/>
	<path fill="#D7DFE2" d="M86.283,156.266c-0.497-1.844-1.661-3.355-2.742-4.783c-0.032,0.543-0.079,1.08-0.136,1.613
		c1.045,2.512,2.617,4.877,3.65,7.527C87.427,159.973,87.047,158.046,86.283,156.266z"/>
	<path fill="#D7DFE2" d="M97.183,168.625c-0.895-1.027-2.15-2.911-2.779-2.283c-1.255,2.512,1.258,4.396,3.717,5.457
		C98.799,171.553,98.432,170.196,97.183,168.625z"/>
	<path fill="#D7DFE2" d="M93.086,101.199c0.683-1.336,0.313-2.637-0.753-2.905c-3.763,0.549-1.879,3.688-2.506,6.2
		C91.71,104.494,91.71,101.982,93.086,101.199z"/>
	<path fill="#D7DFE2" d="M85.208,144.997c0.841-0.435,1.225-1.625,0.438-2.303c-0.637-0.107-1.57-0.313-2.429-0.27
		c0.119,1.069,0.213,2.13,0.28,3.181C84.026,145.541,84.604,145.354,85.208,144.997z"/>
	<path fill="#D7DFE2" d="M101.759,135.896c1.257,0,2.513-1.885,1.321-3.924c-0.493-0.819-1.521-0.637-2.324,0.436
		C99.876,134.012,99.247,136.523,101.759,135.896z"/>
	<path fill="#D7DFE2" d="M99.054,140.941c0.802,1.072,1.831,1.254,2.324,0.434c1.191-2.039-0.066-3.922-1.321-3.922
		C97.546,136.824,98.173,139.336,99.054,140.941z"/>
	<path fill="#D7DFE2" d="M103.045,153.887c1.129,0.16,1.764-1.284,1.658-2.402c-0.878-1.472-2.763-0.217-3.392-1.472
		C99.428,151.268,101.312,152.525,103.045,153.887z"/>
	<path fill="#D7DFE2" d="M106.405,121.864c0.105-1.117-0.529-2.562-1.656-2.401c-1.733,1.361-3.617,2.617-1.733,3.874
		C103.643,122.08,105.526,123.337,106.405,121.864z"/>
	<path fill="#D7DFE2" d="M99.876,117.057c2.512,0,3.14-1.885,4.3-3.545c0.806-1.347,0.529-2.015-0.695-1.516
		C101.759,113.287,99.876,114.544,99.876,117.057z"/>
	<path fill="#D7DFE2" d="M133.001,148.791c-0.916-2.547-4.682-3.803-5.939-1.918c0,1.256,1.258,1.883,2.706,2.232
		C131.376,149.578,132.415,149.604,133.001,148.791z"/>
	<path fill="#D7DFE2" d="M146.349,108.263c0,1.886,3.769,4.396,5.186,1.515c0.172-0.828-0.744-1.77-2.081-2.222
		C148.233,107.635,146.978,107.635,146.349,108.263z"/>
	<path fill="#D7DFE2" d="M130.201,157.549c-1.255,0.629-0.627,3.141,0.456,4.612c0.891,0.88,1.737,0.606,1.937-0.556
		C132.714,159.434,132.085,156.921,130.201,157.549z"/>
	<path fill="#D7DFE2" d="M151.921,122.858c0.932,0.846,2.716,1.479,3.834,1.479c1.119,0,2.023-0.906,1.379-1.719
		c-0.645-0.811-2.582-1.321-4.104-1.304C151.512,121.336,150.991,122.014,151.921,122.858z"/>
	<path fill="#D7DFE2" d="M136.639,101.391c-0.468,1.134-0.052,2.622,0.867,3.301c0.919,0.676,1.928,0.371,2.3-0.648
		c0.369-1.021,0.035-2.457-0.789-3.252C138.194,99.998,137.105,100.253,136.639,101.391z"/>
	<path fill="#D7DFE2" d="M134.702,124.559c-0.585-0.814-1.623-0.787-3.232-0.316c-1.449,0.35-2.705,0.979-2.705,2.233
		C130.021,128.361,133.789,127.104,134.702,124.559z"/>
	<path fill="#D7DFE2" d="M158.569,100.705c-1.359,0.942-3.873,1.57-1.988,3.453c1.258,0.629,2.514-0.627,3.885-2.082
		C160.849,100.92,159.958,100.316,158.569,100.705z"/>
	<path fill="#D7DFE2" d="M135.13,138.906c1.885,1.885,1.256-2.512,2.732-3.623c0.359-1.551-0.028-2.357-0.963-1.818
		C135.759,135.138,133.245,137.65,135.13,138.906z"/>
	<path fill="#D7DFE2" d="M101.778,161.354c1.225,0.5,1.499-0.17,0.693-1.516c-1.16-1.66-1.786-3.545-4.299-3.545
		C98.173,158.805,100.057,160.062,101.778,161.354z"/>
	<path fill="#D7DFE2" d="M104.827,189.802c1.447-0.163,3.037-1.166,3.504-2.198c0.465-1.029-0.341-1.564-1.754-1.25
		c-1.414,0.312-2.928,1.232-3.429,2.113C102.65,189.346,103.379,189.965,104.827,189.802z"/>
	<path fill="#D7DFE2" d="M160.866,160.414c0.59,0.58,1.277-0.559,1.673-2.452c0.398-1.896,0.472-3.831,0.033-4.419
		c-0.44-0.59-1.334,0.393-1.882,2.296C160.14,157.74,160.277,159.834,160.866,160.414z"/>
	<path fill="#D7DFE2" d="M106.064,171.075c0.963,0.086,0.932-0.924-0.341-2.229c-1.271-1.248-2.527-3.132-5.038-2.504
		C101.94,168.854,103.825,170.109,106.064,171.075z"/>
	<path fill="#D7DFE2" d="M104.649,180.471c0.432-1.568,1.061-2.197-0.197-3.453c-1.883,1.885-3.141,3.769-2.945,6.212
		C102.142,183.402,103.782,182.233,104.649,180.471z"/>
	<path fill="#D7DFE2" d="M163.419,124.408c-0.432,1.295-0.685,3.693-0.51,5.416c1.328,1.052,2.238,0.193,2.238-0.925
		c0.223-1.281,0.316-2.933-0.122-4.212C164.585,123.408,163.851,123.113,163.419,124.408z"/>
	<path fill="#D7DFE2" d="M162.729,110.061c-1.153,0.331-2.41,0.958-3.037,2.844c2.511,0,5.023-0.629,6.36-3.061
		C165.929,109.128,164.498,109.236,162.729,110.061z"/>
	<path fill="#D7DFE2" d="M109.339,143.09c1.312-0.346,2.82-1.393,3.418-2.367c0.6-0.977,0.035-1.634-1.312-1.449
		c-1.345,0.185-2.937,1.266-3.501,2.4C107.38,142.812,108.027,143.434,109.339,143.09z"/>
	<path fill="#D7DFE2" d="M85.65,100.333c-0.847,2.277-0.847,5.417-0.847,7.93c1.256-1.257,1.256-3.139,2.127-4.344
		C87.417,101.427,86.353,100.112,85.65,100.333z"/>
	<path fill="#D7DFE2" d="M183.04,176.729c-0.255,2.172-0.255,4.056-0.255,5.939c1.255-2.513,3.14-5.025,1.872-8.123
		C184.11,173.901,183.464,174.88,183.04,176.729z"/>
	<path fill="#D7DFE2" d="M207.318,134.866c-0.323-0.232-0.647-0.464-0.966-0.696c-0.121,0.232-0.236,0.481-0.332,0.769
		C206.456,134.938,206.89,134.91,207.318,134.866z"/>
	<path fill="#D7DFE2" d="M188.913,145.055c0.791-0.611,0.73-1.929,0.002-2.942c-0.727-1.015-1.867-1.399-2.658-0.866
		c-0.791,0.536-0.922,1.848-0.191,2.938C186.794,145.275,188.122,145.665,188.913,145.055z"/>
	<path fill="#D7DFE2" d="M187.153,167.551c-2.486,0.672-4.368,2.557-6.252,3.812c3.766-0.628,6.908-3.14,10.609-4.582
		C190.862,166.409,188.935,166.789,187.153,167.551z"/>
	<path fill="#D7DFE2" d="M182.156,163.826c3.142,0.628,5.024,0,6.601-2.373c0.106-0.746-1.151-0.76-2.895-0.136
		C184.667,161.941,183.411,162.57,182.156,163.826z"/>
	<path fill="#D7DFE2" d="M197.909,133.948c0.116-0.679-1.23-0.972-3.064-0.769c-1.383-0.127-3.268,0.502-3.896,1.759
		C193.462,136.193,195.974,136.193,197.909,133.948z"/>
	<path fill="#D7DFE2" d="M195.974,142.475c1.884,0.627,3.768,0,3.959-2.701c-0.481-0.559-2.401-0.666-4.158-0.217
		C195.347,140.59,194.718,141.847,195.974,142.475z"/>
	<path fill="#D7DFE2" d="M190.725,151.363c-1.66,1.159-3.544,1.787-3.544,4.299c2.511,0,3.768-1.884,5.061-3.605
		C192.739,150.832,192.071,150.558,190.725,151.363z"/>
	<path fill="#D7DFE2" d="M180.901,152.522c1.255,1.884,2.51,0,3.873-1.732c0.16-1.129-1.283-1.763-2.402-1.657
		C180.901,150.011,182.156,151.895,180.901,152.522z"/>
	<path fill="#D7DFE2" d="M179.905,112.103c0.055,1.142,1.1,2.843,2.384,3.737c1.278,0.895,2.187,0.655,1.978-0.47
		c-0.033-0.181-0.098-0.377-0.174-0.577c-1.233-1.23-2.434-2.445-3.607-3.645C180.102,111.182,179.875,111.496,179.905,112.103z"/>
	<path fill="#D7DFE2" d="M106.155,96.331c1.256-1.256,0.627-1.886,0.195-3.452c-0.647-1.317-1.726-2.301-2.494-2.644
		c-0.218,0.08-0.434,0.158-0.65,0.235C103.157,92.744,104.364,94.539,106.155,96.331z"/>
	<path fill="#D7DFE2" d="M144.019,197.742c0,0.919,0.671,1.5,1.344,1.974c0.961-0.187,1.933-0.388,2.926-0.614
		c-0.002-0.021,0.002-0.039-0.002-0.061C147.157,197.742,144.646,194.602,144.019,197.742z"/>
	<path fill="#D7DFE2" d="M211.485,157.402c-0.439,0.144-1.066-0.484-1.695-0.484c0,1.885,0.629,6.281,3.518,4.842
		C213.452,160.428,212.685,158.293,211.485,157.402z"/>
	<path fill="#D7DFE2" d="M211.358,149.187c-1.568-0.433-2.197-1.06-3.453,0.195c1.885,1.884,3.769,3.141,6.211,2.946
		C214.288,151.693,213.12,150.053,211.358,149.187z"/>
	<path fill="#D7DFE2" d="M212.419,140.391c0.382-1.154-0.508-1.76-1.896-1.371c-1.361,0.943-3.873,1.57-1.988,3.455
		C209.79,143.102,211.046,141.847,212.419,140.391z"/>
	<path fill="#D7DFE2" d="M219.354,150.686c0.88,0.498,1.498-0.23,1.334-1.678c-0.162-1.447-1.166-3.037-2.197-3.502
		c-1.029-0.465-1.564,0.339-1.252,1.753C217.554,148.672,218.475,150.188,219.354,150.686z"/>
	<path fill="#D7DFE2" d="M176.235,159.053c-1.616,0.377-4.127,0.377-3.498,2.262c0.626,1.256,3.139,1.256,4.822-0.619
		C178.176,159.834,177.593,159.137,176.235,159.053z"/>
	<path fill="#D7DFE2" d="M152.182,180.158c-1.255,1.883-1.255,6.281,1.583,7.001c0.648-0.054,0.713-1.54,0.254-3.405
		C154.065,182.67,153.439,180.786,152.182,180.158z"/>
	<path fill="#D7DFE2" d="M139.697,121.949c0.895,1.281,2.597,2.326,3.737,2.382c1.142,0.056,1.281-0.78,0.369-1.908
		c-0.912-1.129-2.513-2.245-3.637-2.452C139.044,119.762,138.803,120.669,139.697,121.949z"/>
	<path fill="#D7DFE2" d="M92.073,182.42c1.334,0.145,3.47-0.622,4.359-1.822c-0.145-0.439,0.484-1.066,0.484-1.695
		C95.032,178.902,90.638,179.531,92.073,182.42z"/>
	<path fill="#D7DFE2" d="M199.733,148.109c-1.248,1.272-3.132,2.529-2.505,5.041c2.513-1.256,3.769-3.14,4.733-5.38
		C202.05,146.809,201.04,146.839,199.733,148.109z"/>
	<path fill="#D7DFE2" d="M87.987,117.082c0.762-1.778,1.141-3.707,0.77-4.355c-1.441,3.701-3.953,6.842-4.582,10.61
		C85.431,121.451,87.315,119.568,87.987,117.082z"/>
	<path fill="#D7DFE2" d="M79.437,121.034c1.432-0.415,2.121-0.974,1.557-1.454c-0.648-0.266-1.271-0.387-1.873-0.41
		C79.22,119.787,79.327,120.409,79.437,121.034z"/>
	<path fill="#D7DFE2" d="M90.631,175.055c1.067-0.27,1.435-1.569,0.753-2.906c-1.375-0.783-1.375-3.295-3.26-3.295
		C88.753,171.365,86.868,174.506,90.631,175.055z"/>
	<path fill="#D7DFE2" d="M154.054,149.012c-1.119,0-2.905,0.634-3.835,1.479c-0.93,0.846-0.409,1.523,1.11,1.543
		c1.52,0.018,3.459-0.492,4.103-1.305C156.077,149.917,155.173,149.012,154.054,149.012z"/>
	<path fill="#D7DFE2" d="M205.942,163.205c-0.27-1.066-1.568-1.436-2.905-0.754c-0.784,1.375-3.296,1.375-3.296,3.26
		C202.253,165.083,205.395,166.967,205.942,163.205z"/>
	<path fill="#D7DFE2" d="M175.885,168.627c-0.434-0.84-1.624-1.225-2.304-0.438c-0.218,1.289-0.844,3.801,1.038,4.429
		C176.505,172.618,177.132,170.734,175.885,168.627z"/>
	<path fill="#D7DFE2" d="M197.229,159.43c2.513,1.257,4.397-1.256,5.458-3.715c-0.245-0.68-1.603-0.312-3.174,0.938
		C198.485,157.546,196.602,158.803,197.229,159.43z"/>
	<path fill="#D7DFE2" d="M200.318,168.607c-1.206,0.871-3.09,0.871-4.345,2.127c2.512,0,5.652,0,7.931-0.848
		C204.124,169.185,202.812,168.122,200.318,168.607z"/>
	<path fill="#D7DFE2" d="M195.974,128.029c0.66,0.99,1.667,0.762,2.717,0.161c-0.678-0.562-1.355-1.123-2.014-1.685
		C195.666,126.77,195.026,127.082,195.974,128.029z"/>
	<path fill="#D7DFE2" d="M174.619,186.436c1.886,0.628,2.513-1.885,3.138-3.789c-0.139-1.152-0.953-1.293-1.896-0.364
		C175.25,183.924,172.737,185.809,174.619,186.436z"/>
	<path fill="#D7DFE2" d="M188.437,123.633c0.616,1.232,3.041,0.648,4.522-0.397c-0.716-0.646-1.427-1.29-2.12-1.933
		C189.254,121.519,187.968,122.225,188.437,123.633z"/>
	<path fill="#D7DFE2" d="M184.272,128.709c-2.743,0.576-2.743,4.973-0.232,4.344c0.627,0,1.258-1.256,1.725-2.376
		C186.216,129.84,185.55,128.99,184.272,128.709z"/>
	<path fill="#D7DFE2" d="M167.084,170.107c0.629,0,0.629-1.885,0.759-2.845c-0.346-1.584-1.08-2.771-1.803-2.69
		C164.573,166.338,165.2,170.107,167.084,170.107z"/>
	<path fill="#D7DFE2" d="M172.262,152.457c-2.038-1.191-3.923,0.065-3.923,1.321c-0.626,2.512,1.885,1.884,3.491,1.003
		C172.901,153.979,173.083,152.951,172.262,152.457z"/>
	<path fill="#D7DFE2" d="M168.339,184.551c1.256,0,1.885-1.255,2.111-2.76c0.33-1.486-0.062-2.57-0.865-2.406
		C167.713,180.155,165.2,183.924,168.339,184.551z"/>
	<path fill="#D7DFE2" d="M166.291,144.826c-0.063-1.16-0.95-3.021-2.005-3.699c-1.118,0-2.023,0.906-2.023,2.025
		c0,1.117,0.905,2.023,2.023,2.023C165.438,146.013,166.355,145.988,166.291,144.826z"/>
	<path fill="#D7DFE2" d="M162.942,176.474c1.087,0.44,1.45-0.413,0.892-1.863c-0.556-1.448-1.657-3.009-2.546-3.524
		c-0.891-0.514-1.381,0.26-1.021,1.784C160.626,174.396,161.854,176.033,162.942,176.474z"/>
	<path fill="#D7DFE2" d="M172.562,145.889c1.138,0.564,1.76-0.08,1.415-1.393c-0.346-1.311-1.393-2.82-2.367-3.418
		c-0.976-0.602-1.634-0.035-1.449,1.311C170.347,143.734,171.427,145.326,172.562,145.889z"/>
	<circle fill="#D7DFE2" cx="172.961" cy="116.045" r="2.025"/>
	<path fill="#D7DFE2" d="M170.478,127.615c-0.326,1.66,0.051,3.571,0.773,4.199c0.723,0.629,1.396-0.258,1.592-1.918
		c0.193-1.66-0.066-3.463-0.656-4.094C171.598,125.172,170.803,125.953,170.478,127.615z"/>
	<path fill="#D7DFE2" d="M143.571,158.094c0.328-1.018-0.412-1.588-1.703-1.236c-1.293,0.348-2.603,1.598-2.877,2.76
		c-0.275,1.164,0.54,1.672,1.777,1.176C142.005,160.295,143.241,159.107,143.571,158.094z"/>
	<path fill="#D7DFE2" d="M179.78,139.193c-0.378-1.42-1.276-2.59-2.106-2.652c-3.055,1.537-0.542,5.306,1.343,5.306
		C180.274,141.847,179.644,139.963,179.78,139.193z"/>
	<path fill="#D7DFE2" d="M146.974,174.703c0.898-0.673,1.054-1.791,0.323-2.562c-2.023-1.403-3.905-0.776-3.905,1.108
		C143.392,174.506,144.019,175.762,146.974,174.703z"/>
	<path fill="#D7DFE2" d="M139.234,192.355c1.304-0.526,2.025-1.722,1.597-2.551c-1.209-0.227-2.464-2.739-3.722-0.854
		C137.109,190.207,135.854,192.719,139.234,192.355z"/>
	<path fill="#D7DFE2" d="M156.83,131.303c-2.802,0.223-4.057,1.479-4.686,3.99c1.884,0,3.14-1.256,4.466-1.27
		C157.532,133.312,157.651,132.101,156.83,131.303z"/>
	<path fill="#D7DFE2" d="M160.807,187.159c0.531-1.085,0.341-2.372-0.435-2.937c-2.707-0.927-3.336,2.841-2.081,4.098
		C159.549,188.947,160.175,187.692,160.807,187.159z"/>
	<path fill="#D7DFE2" d="M148.122,190.003c0.601-0.42,0.578-2.229,0.059-4.072c-0.395-0.749-0.395-2.633-1.649-2.005
		C144.646,185.811,145.902,189.578,148.122,190.003z"/>
	<path fill="#D7DFE2" d="M149.831,163.57c-1.416-2.881-5.185-0.369-5.185,1.516c0.627,0.628,1.885,0.628,3.104,0.707
		C149.088,165.342,150.005,164.398,149.831,163.57z"/>
	<path fill="#D7DFE2" d="M179.679,120.834c-2.547,0.914-3.803,4.684-1.918,5.938c1.256,0,1.883-1.255,2.232-2.704
		C180.465,122.459,180.491,121.42,179.679,120.834z"/>
	<path fill="#D7DFE2" d="M139.911,182.893c0.822-0.797,0.703-2.007-0.221-2.719c-1.323-0.016-2.581-1.271-4.463-1.271
		C135.854,181.414,137.109,182.67,139.911,182.893z"/>
	<path fill="#D7DFE2" d="M108.665,195.037c1.062-1.089,0.846-1.906-0.422-1.793c-0.635,0.056-1.413,0.297-2.151,0.643
		c0.81,0.438,1.63,0.859,2.462,1.26C108.591,195.109,108.628,195.074,108.665,195.037z"/>
	<path fill="#D7DFE2" d="M82.296,96.32c0.195-0.021,0.391-0.052,0.586-0.109c1.707-0.503,2.267-1.209,1.098-1.453
		C83.362,95.247,82.8,95.768,82.296,96.32z"/>
	<path fill="#D7DFE2" d="M93.556,91.552c-0.546,2.355,3.323,2.894,5.062,2.894c0-0.626-0.627-1.255-0.483-1.694
		c-0.233-0.315-0.557-0.599-0.926-0.845C95.958,91.994,94.74,91.898,93.556,91.552z"/>
	<path fill="#D7DFE2" d="M85.228,169.431c-0.872-1.205-0.872-3.089-2.127-4.345c0,0.535,0.002,1.103,0.01,1.68
		c0.475,2.088,1.062,3.995,1.764,5.733C85.264,171.916,85.51,170.881,85.228,169.431z"/>
	<path fill="#D7DFE2" d="M154.065,195.231c-0.701,0.934-0.792,1.779-0.541,2.54c0.85-0.235,1.703-0.479,2.567-0.738
		C155.438,196.012,154.56,195.231,154.065,195.231z"/>
	<path fill="#D7DFE2" d="M219.072,160.423c-1.676,0.848-2.219,2.005-2.155,3.188c0.892-0.938,1.713-1.873,2.447-2.799
		C219.278,160.652,219.185,160.513,219.072,160.423z"/>
	<path fill="#D7DFE2" d="M164.606,193.586c0.882-1.035,0.782-1.836-0.385-1.869c-1.168-0.036-2.988,0.596-3.902,1.521
		c-0.916,0.925-0.438,1.987,0.732,2.092c0.119,0.011,0.242,0.006,0.367-0.002c0.629-0.214,1.259-0.432,1.892-0.655
		C163.8,194.373,164.254,193.999,164.606,193.586z"/>
	<path fill="#D7DFE2" d="M119.344,85.654c1.194,0.599,2.946,0.042,3.659-1.796c-1.449,0.276-2.881,0.604-4.291,0.985
		C118.788,85.177,118.978,85.472,119.344,85.654z"/>
	<path fill="#D7DFE2" d="M130.649,85.654c1.256,0,2.512-0.627,2.523-2.42c0.025-0.143,0.033-0.279,0.033-0.414
		c-1.2,0.019-2.391,0.075-3.572,0.164C129.355,83.945,129.638,84.98,130.649,85.654z"/>
	<path fill="#D7DFE2" d="M160.514,93.6c0.697,0.232,1.394,0.289,2.005,0.137c-0.861-0.705-1.728-1.385-2.602-2.033
		C159.682,92.447,159.655,93.17,160.514,93.6z"/>
	<path fill="#D7DFE2" d="M170.936,105.203c0,1.118,0.907,2.022,2.025,2.022c1.022,0,1.86-0.759,1.997-1.743
		c-0.754-0.771-1.502-1.531-2.242-2.278C171.714,103.326,170.936,104.168,170.936,105.203z"/>
	<path fill="#D7DFE2" d="M165.208,98.853c0.925,0.616,2.455,0.927,3.857,0.751c-0.758-0.73-1.514-1.443-2.27-2.139
		C166.126,97.773,165.516,98.236,165.208,98.853z"/>
	<path fill="#D7DFE2" d="M138.813,84.398c1.209,1.813,2.416-0.438,3.581-0.813c-1.214-0.239-2.473-0.412-3.761-0.542
		C138.702,83.533,138.813,84.022,138.813,84.398z"/>
	<path fill="#D7DFE2" d="M153.886,93.19c1.256-0.627,1.885-2.513,1.834-3.596c0.055-0.22,0.1-0.433,0.139-0.64
		c-0.731-0.449-1.473-0.876-2.223-1.281C152.746,89.332,153.007,91.873,153.886,93.19z"/>
	<path fill="#D7DFE2" d="M148.233,89.423c1.255,0.629,1.255-1.257,1.648-2.005c0.138-0.488,0.238-0.973,0.304-1.431
		c-0.781-0.335-1.574-0.646-2.382-0.932C147.106,86.421,147.082,88.272,148.233,89.423z"/>
	<path fill="#D7DFE2" d="M137.315,172.557c0.821-0.793,1.158-2.229,0.788-3.25c-0.372-1.021-1.382-1.326-2.3-0.648
		c-0.921,0.679-1.336,2.166-0.869,3.301C135.401,173.096,136.493,173.352,137.315,172.557z"/>
	<path fill="#D7DFE2" d="M123.66,91.854c-2.433,1.337-3.062,3.849-3.062,6.361c1.885-0.627,2.514-1.884,2.844-3.04
		C124.267,93.408,124.374,91.978,123.66,91.854z"/>
	<path fill="#D7DFE2" d="M120.599,113.287c1.256-0.628,1.885-2.513,1.76-3.895c0.201-1.835-0.091-3.182-0.77-3.065
		C119.344,108.263,119.344,110.774,120.599,113.287z"/>
	<path fill="#D7DFE2" d="M124.859,118.473c-1.118,0.467-2.376,1.096-2.376,1.723c-0.629,2.512,3.769,2.512,4.346-0.234
		C126.547,118.687,125.698,118.021,124.859,118.473z"/>
	<path fill="#D7DFE2" d="M123.722,132.984c0.629,0.723,2.539,1.102,4.201,0.774c1.662-0.323,2.444-1.12,1.812-1.71
		c-0.631-0.591-2.435-0.848-4.095-0.654C123.979,131.589,123.094,132.264,123.722,132.984z"/>
	<path fill="#D7DFE2" d="M138.465,153.379c1.122-0.207,2.725-1.324,3.636-2.452c0.913-1.13,0.773-1.966-0.367-1.91
		c-1.142,0.056-2.844,1.101-3.74,2.384C137.101,152.68,137.34,153.588,138.465,153.379z"/>
	<path fill="#D7DFE2" d="M111.989,148.129c0,1.257,1.885,0.627,2.652,0.764c1.421-0.379,2.59-1.275,2.654-2.105
		C115.758,143.732,111.989,146.244,111.989,148.129z"/>
	<path fill="#D7DFE2" d="M127.507,108.263c1.885,1.886,1.258-2.513,2.734-3.624c0.36-1.55-0.029-2.355-0.963-1.817
		C128.136,104.494,125.626,107.006,127.507,108.263z"/>
	<path fill="#D7DFE2" d="M118.323,190.793c1.406,0.435,2.891-0.018,3.092-1.029c-0.633-2.068-2.518-2.698-3.775-2.068
		C116.384,188.322,117.013,190.207,118.323,190.793z"/>
	<path fill="#D7DFE2" d="M131.905,115.801c1.884,0.627,2.511-1.886,2.391-4.059c-0.197-1.162-1.047-1.435-1.937-0.555
		C131.276,112.659,130.649,115.172,131.905,115.801z"/>
	<path fill="#D7DFE2" d="M148.649,142.887c0.43-0.83-0.292-2.025-1.594-2.551c-3.381-0.363-2.125,2.148-2.125,3.405
		C146.187,145.625,147.442,143.115,148.649,142.887z"/>
	<path fill="#D7DFE2" d="M145.126,135.107c0.448-1.757,0.34-3.68-0.218-4.158c-2.7,0.189-3.329,2.074-2.7,3.958
		C142.835,136.162,144.093,135.536,145.126,135.107z"/>
	<path fill="#D7DFE2" d="M148.675,98.646c-2.953-1.059-3.582,0.196-3.582,1.453c0,1.883,1.885,2.511,3.906,1.106
		C149.729,100.437,149.573,99.319,148.675,98.646z"/>
	<path fill="#D7DFE2" d="M131.259,91.791c-2.494,0.772-3.752,3.284-3.752,5.797c1.885-0.63,2.514-1.886,3.558-3.273
		C132.077,92.736,132.173,91.655,131.259,91.791z"/>
	<path fill="#D7DFE2" d="M116.343,124.457c-0.768,0.135-2.652-0.494-2.652,0.764c0,1.884,3.77,4.396,5.307,1.341
		C118.933,125.731,117.765,124.835,116.343,124.457z"/>
	<path fill="#D7DFE2" d="M142.47,112.555c-1.236-0.496-2.053,0.014-1.776,1.177c0.274,1.163,1.585,2.413,2.876,2.761
		c1.293,0.35,2.034-0.221,1.704-1.236C144.945,114.242,143.708,113.055,142.47,112.555z"/>
	<path fill="#D7DFE2" d="M136.929,94.445c1.885,0,3.141-1.255,4.467-1.271c0.921-0.711,1.041-1.922,0.217-2.72
		C138.813,90.678,137.556,91.934,136.929,94.445z"/>
	<path fill="#D7DFE2" d="M118.897,160.062c-1.258,2.512-1.258,5.023,0.988,6.959c0.68,0.117,0.973-1.23,0.77-3.065
		C120.782,162.574,120.153,160.689,118.897,160.062z"/>
	<path fill="#D7DFE2" d="M128.539,168.711c-1.478-1.113-0.849-5.51-2.733-3.625c-1.885,1.256,0.629,3.768,1.771,5.442
		C128.51,171.066,128.897,170.261,128.539,168.711z"/>
	<path fill="#D7DFE2" d="M128.032,141.299c0.631-0.59-0.148-1.385-1.812-1.71c-1.662-0.325-3.571,0.052-4.2,0.774
		s0.258,1.397,1.918,1.592C125.599,142.147,127.401,141.889,128.032,141.299z"/>
	<path fill="#D7DFE2" d="M125.125,153.386c-0.575-2.744-4.972-2.744-4.343-0.232c0,0.627,1.255,1.257,2.375,1.724
		C123.994,155.328,124.845,154.662,125.125,153.386z"/>
	<path fill="#D7DFE2" d="M129.813,192.405c1.008,0.044,1.896-0.97,1.656-2.292c-0.012-1.791-1.269-2.418-2.523-2.418
		C127.062,188.951,127.69,191.463,129.813,192.405z"/>
	<path fill="#D7DFE2" d="M129.558,181.557c0.911,0.137,0.816-0.943-0.195-2.521c-1.043-1.389-1.672-2.646-3.557-3.273
		C125.806,178.273,127.062,180.786,129.558,181.557z"/>
	<path fill="#D7DFE2" d="M131.898,200.268c1.604-0.016,3.099-0.792,3.281-1.636c-1.21-2.145-4.979-1.519-5.605,0.367
		C129.574,199.626,131.458,200.256,131.898,200.268z"/>
	<path fill="#D7DFE2" d="M121.741,178.174c-0.332-1.156-0.959-2.412-2.844-3.039c0,2.512,0.629,5.023,3.059,6.359
		C122.673,181.371,122.564,179.939,121.741,178.174z"/>
	<path fill="#D7DFE2" d="M113.444,181.531c1.155,0.381,1.76-0.509,1.371-1.896c-0.941-1.361-1.57-3.873-3.455-1.988
		C110.733,178.902,111.989,180.158,113.444,181.531z"/>
	<path fill="#D7DFE2" d="M109.648,131.676c0.562,1.133,2.153,2.215,3.501,2.399c1.344,0.185,1.911-0.472,1.311-1.448
		c-0.598-0.976-2.107-2.021-3.42-2.368C109.729,129.916,109.084,130.538,109.648,131.676z"/>
	<path fill="#D7DFE2" d="M110.482,115.323c-0.61,0.791-0.22,2.118,0.872,2.847c1.089,0.73,2.4,0.598,2.936-0.19
		c0.535-0.79,0.15-1.933-0.865-2.659C112.413,114.592,111.095,114.533,110.482,115.323z"/>
	<path fill="#D7DFE2" d="M113.063,108.263c0.627,1.255,1.883,0.629,2.916,0.2c0.451-1.757,0.343-3.68-0.216-4.159
		C113.063,104.494,112.435,106.379,113.063,108.263z"/>
	<path fill="#D7DFE2" d="M111.724,158.028c1.015-0.727,1.398-1.868,0.865-2.659c-0.535-0.79-1.848-0.921-2.938-0.191
		c-1.089,0.729-1.479,2.057-0.87,2.848C109.392,158.816,110.708,158.756,111.724,158.028z"/>
	<path fill="#D7DFE2" d="M115.146,91.817c-1.455,1.373-2.711,2.628-2.082,3.885c1.883,1.886,2.512-0.627,3.453-1.987
		C116.905,92.326,116.302,91.437,115.146,91.817z"/>
	<path fill="#D7DFE2" d="M116.104,197.008c1.28,0.223,2.932,0.315,4.211-0.122c1.277-0.44,1.574-1.176,0.279-1.606
		c-1.295-0.432-3.693-0.686-5.416-0.51C114.126,196.096,114.985,197.008,116.104,197.008z"/>
	<path fill="#D7DFE2" d="M114.06,169.045c0.561-0.48,0.669-2.401,0.219-4.159c-1.033-0.427-2.289-1.056-2.918,0.2
		C110.733,166.969,111.36,168.854,114.06,169.045z"/>
</g>
<g id="orange_x5F_lines">
	<path fill="#F48272" d="M209.591,229.31l-10.497,4.802l11.075-13.571c0.033-0.568,0.067-1.138,0.102-1.709l-13.238,16.223
		l-9.529,4.359c0.211,0.271,0.422,0.541,0.633,0.811l7.465-3.414l-5.183,6.351c0.21,0.271,0.42,0.542,0.628,0.812l6.615-8.105
		l11.835-5.413C209.528,230.073,209.562,229.692,209.591,229.31z"/>
	<path fill="#F48272" d="M186.421,238.031l24.141-24.141c0.032-0.523,0.084-1.046,0.154-1.569l-24.914,24.915
		C186.008,237.5,186.216,237.768,186.421,238.031z"/>
</g>
</svg>
