<?xml version="1.0" encoding="utf-8"?>
<!-- Generator: Adobe Illustrator 16.0.0, SVG Export Plug-In . SVG Version: 6.00 Build 0)  -->
<!DOCTYPE svg PUBLIC "-//W3C//DTD SVG 1.1//EN" "http://www.w3.org/Graphics/SVG/1.1/DTD/svg11.dtd">
<svg version="1.1" id="Layer_1" xmlns="http://www.w3.org/2000/svg" xmlns:xlink="http://www.w3.org/1999/xlink" x="0px" y="0px"
	 width="301px" height="301px" viewBox="0 0 301 301" enable-background="new 0 0 301 301" xml:space="preserve">
<circle id="orange_x5F_2" fill="#F48272" cx="98.286" cy="228.878" r="11.296"/>
<path id="orange_x5F_1" fill="#F48272" d="M228.881,154.654c6.358-6.359,6.36-16.672,0-23.032l-69.738-69.735
	c-6.359-6.361-16.67-6.361-23.032,0l-1.058,1.057c-6.359,6.36-6.359,16.672,0,23.033l69.736,69.736
	c6.361,6.361,16.674,6.361,23.033,0L228.881,154.654z"/>
<g id="light_x5F_blue_x5F_dots">
	<path fill="#D7DFE2" d="M87.674,142.094c1.605,0,3.209-2.408,1.688-5.014c-0.632-1.047-1.943-0.814-2.968,0.555
		C85.268,139.686,84.465,142.895,87.674,142.094z"/>
	<path fill="#D7DFE2" d="M93.608,124.167c0.135-1.426-0.677-3.271-2.116-3.066c-2.213,1.739-4.62,3.343-2.213,4.949
		C90.08,124.443,92.485,126.05,93.608,124.167z"/>
	<path fill="#D7DFE2" d="M94.914,101.991c1.625-1.669,1.662-2.957,0.434-2.847c-2.862,1.232-5.268,2.835-6.873,6.043
		C91.686,105.993,93.289,103.584,94.914,101.991z"/>
	<path fill="#D7DFE2" d="M89.316,165.07c1.44,0.207,2.252-1.639,2.117-3.066c-1.122-1.88-3.528-0.277-4.33-1.88
		C84.697,161.727,87.104,163.332,89.316,165.07z"/>
	<path fill="#D7DFE2" d="M85.268,118.025c3.207,0,4.012-2.406,5.494-4.527c1.028-1.719,0.676-2.572-0.887-1.936
		C87.674,113.211,85.268,114.817,85.268,118.025z"/>
	<path fill="#D7DFE2" d="M132.227,98.016c-0.597,1.449-0.067,3.348,1.109,4.216c1.173,0.865,2.463,0.474,2.936-0.828
		c0.471-1.305,0.045-3.138-1.006-4.153C134.215,96.237,132.822,96.564,132.227,98.016z"/>
	<path fill="#D7DFE2" d="M75.872,149.696c-1.603,0.802-1.603,4.011,0.791,6.16c1.103,0.786,1.99,0.044,2.101-1.69
		C78.278,152.102,78.278,148.893,75.872,149.696z"/>
	<path fill="#D7DFE2" d="M78.838,130.316c-2.394,2.15-2.394,5.359-0.791,6.16c2.408,0.803,2.408-2.404,2.891-4.471
		C80.828,130.271,79.939,129.527,78.838,130.316z"/>
	<path fill="#D7DFE2" d="M67.097,96.664c-1.081,2.91-1.081,6.92-1.081,10.129c1.602-1.605,1.602-4.009,2.717-5.547
		C69.354,98.062,67.993,96.383,67.097,96.664z"/>
	<path fill="#D7DFE2" d="M130.301,145.938c2.405,2.406,1.604-3.211,3.49-4.629c0.459-1.98-0.038-3.01-1.23-2.322
		C131.103,141.123,127.895,144.332,130.301,145.938z"/>
	<path fill="#D7DFE2" d="M63.607,134.072c0.802,2.404,4.01,1.604,5.658,1.324c1.005-0.867,0.514-2.387-0.559-2.941
		C66.016,130.861,63.607,131.662,63.607,134.072z"/>
	<path fill="#D7DFE2" d="M67.906,168.113c-0.635-2.355-2.123-4.287-3.505-6.109c-0.042,0.693-0.101,1.377-0.173,2.059
		c1.336,3.207,3.345,6.229,4.663,9.615C69.365,172.848,68.881,170.384,67.906,168.113z"/>
	<path fill="#D7DFE2" d="M73.885,145.027c0.105-0.922-1.412-1.86-3.435-2.301c-1.226,0.168-3.634,0.168-3.634,0.971
		C66.816,146.103,71.631,146.906,73.885,145.027z"/>
	<path fill="#D7DFE2" d="M84.219,148.539c1.024,1.367,2.338,1.6,2.968,0.551c1.522-2.604-0.083-5.01-1.688-5.01
		C82.289,143.279,83.094,146.485,84.219,148.539z"/>
	<path fill="#D7DFE2" d="M77.871,116.012c-3.032,2.014-3.836,4.42-3.032,8.432c1.605-1.604,2.407-3.209,3.204-4.734
		C78.842,117.482,78.824,115.875,77.871,116.012z"/>
	<path fill="#D7DFE2" d="M76.594,97.771c0.873-1.706,0.401-3.367-0.962-3.71c-4.804,0.702-2.398,4.711-3.199,7.919
		C74.839,101.979,74.839,98.771,76.594,97.771z"/>
	<path fill="#D7DFE2" d="M66.532,153.717c1.073-0.555,1.563-2.075,0.56-2.941c-0.814-0.137-2.007-0.4-3.102-0.344
		c0.15,1.365,0.27,2.72,0.357,4.062C65.021,154.412,65.762,154.172,66.532,153.717z"/>
	<path fill="#D7DFE2" d="M166.434,127.418c-0.551,1.652-0.873,4.717-0.65,6.918c1.696,1.344,2.86,0.246,2.86-1.182
		c0.285-1.637,0.403-3.747-0.157-5.38C167.925,126.141,166.986,125.766,166.434,127.418z"/>
	<path fill="#D7DFE2" d="M160.241,97.139c-1.738,1.205-4.946,2.008-2.54,4.414c1.605,0.803,3.209-0.803,4.963-2.66
		C163.151,97.414,162.015,96.643,160.241,97.139z"/>
	<path fill="#D7DFE2" d="M163.174,173.41c0.756,0.741,1.632-0.713,2.138-3.132c0.511-2.422,0.602-4.894,0.042-5.645
		c-0.561-0.753-1.705,0.502-2.404,2.931C162.246,169.996,162.422,172.668,163.174,173.41z"/>
	<path fill="#D7DFE2" d="M144.631,106.793c0,2.408,4.812,5.617,6.622,1.936c0.222-1.058-0.951-2.26-2.657-2.838
		C147.035,105.993,145.434,105.993,144.631,106.793z"/>
	<path fill="#D7DFE2" d="M75.868,166.461c-0.8-1.525-1.599-3.129-3.204-4.734c-0.803,4.016,0,6.418,3.031,8.434
		C76.648,170.295,76.666,168.689,75.868,166.461z"/>
	<path fill="#D7DFE2" d="M127.581,158.562c-1.171-3.252-5.981-4.855-7.587-2.45c0,1.605,1.605,2.406,3.455,2.853
		C125.506,159.568,126.832,159.602,127.581,158.562z"/>
	<path fill="#D7DFE2" d="M129.754,127.608c-0.748-1.038-2.074-1.005-4.131-0.403c-1.85,0.448-3.453,1.251-3.453,2.854
		C123.773,132.467,128.587,130.861,129.754,127.608z"/>
	<path fill="#D7DFE2" d="M124.004,169.75c-1.603,0.803-0.801,4.012,0.584,5.893c1.137,1.122,2.219,0.774,2.471-0.712
		C127.213,172.159,126.41,168.948,124.004,169.75z"/>
	<path fill="#D7DFE2" d="M151.748,125.438c1.189,1.08,3.471,1.89,4.9,1.89c1.428,0,2.582-1.158,1.759-2.195
		c-0.823-1.036-3.3-1.689-5.239-1.666C151.225,123.493,150.561,124.359,151.748,125.438z"/>
	<path fill="#D7DFE2" d="M87.699,174.609c1.562,0.639,1.914-0.215,0.887-1.936c-1.482-2.121-2.283-4.529-5.492-4.529
		C83.094,171.354,85.498,172.96,87.699,174.609z"/>
	<path fill="#D7DFE2" d="M81.827,183.898c-1.142-1.312-2.746-3.719-3.549-2.917c-1.604,3.208,1.604,5.616,4.747,6.972
		C83.893,187.639,83.423,185.905,81.827,183.898z"/>
	<path fill="#D7DFE2" d="M93.172,187.027c1.229,0.111,1.19-1.18-0.434-2.848c-1.624-1.593-3.228-4-6.436-3.198
		C87.905,184.189,90.312,185.795,93.172,187.027z"/>
	<path fill="#D7DFE2" d="M165.557,109.092c-1.477,0.422-3.082,1.223-3.883,3.631c3.211,0,6.417-0.804,8.125-3.909
		C169.641,107.9,167.812,108.039,165.557,109.092z"/>
	<path fill="#D7DFE2" d="M97.355,151.28c1.676-0.44,3.604-1.777,4.367-3.024c0.766-1.246,0.043-2.085-1.674-1.85
		c-1.721,0.235-3.755,1.617-4.474,3.066C94.854,150.924,95.68,151.721,97.355,151.28z"/>
	<path fill="#D7DFE2" d="M91.365,199.03c0.551-2.005,1.354-2.808-0.251-4.413c-2.405,2.408-4.011,4.814-3.764,7.937
		C88.162,202.773,90.256,201.281,91.365,199.03z"/>
	<path fill="#D7DFE2" d="M91.592,210.948c1.851-0.207,3.879-1.489,4.475-2.807c0.594-1.316-0.434-2-2.239-1.599
		c-1.806,0.399-3.74,1.576-4.378,2.699C88.813,210.367,89.744,211.156,91.592,210.948z"/>
	<path fill="#D7DFE2" d="M85.199,98.219c-3.143,1.355-6.35,3.761-4.744,6.969c0.801,0.806,2.406-1.604,3.547-2.914
		C85.598,100.267,86.066,98.531,85.199,98.219z"/>
	<path fill="#D7DFE2" d="M199,153.789c1.01-0.779,0.934-2.462,0.004-3.757s-2.389-1.788-3.396-1.106
		c-1.01,0.684-1.178,2.359-0.244,3.754C196.294,154.072,197.99,154.57,199,153.789z"/>
	<path fill="#D7DFE2" d="M191.496,194.248c-0.324,2.775-0.324,5.182-0.324,7.589c1.605-3.21,4.011-6.421,2.393-10.378
		C192.865,190.637,192.041,191.889,191.496,194.248z"/>
	<path fill="#D7DFE2" d="M210.49,139.604c0.15-0.868-1.571-1.241-3.914-0.983c-1.768-0.162-4.172,0.643-4.975,2.248
		C204.809,142.472,208.02,142.472,210.49,139.604z"/>
	<path fill="#D7DFE2" d="M196.754,182.526c-3.177,0.858-5.582,3.265-7.988,4.87c4.812-0.804,8.823-4.012,13.553-5.854
		C201.488,181.067,199.027,181.553,196.754,182.526z"/>
	<path fill="#D7DFE2" d="M190.369,177.77c4.014,0.801,6.419,0,8.433-3.033c0.136-0.951-1.472-0.971-3.7-0.172
		C193.577,175.362,191.973,176.164,190.369,177.77z"/>
	<path fill="#D7DFE2" d="M70.081,118.059c0.976-2.271,1.46-4.736,0.983-5.562c-1.84,4.727-5.049,8.738-5.852,13.554
		C66.816,123.642,69.225,121.234,70.081,118.059z"/>
	<path fill="#D7DFE2" d="M201.315,161.849c-2.12,1.481-4.527,2.284-4.527,5.491c3.206,0,4.813-2.406,6.464-4.605
		C203.891,161.169,203.035,160.819,201.315,161.849z"/>
	<path fill="#D7DFE2" d="M188.766,163.33c1.604,2.405,3.207,0,4.95-2.213c0.202-1.443-1.642-2.252-3.069-2.118
		C188.766,160.121,190.369,162.529,188.766,163.33z"/>
	<path fill="#D7DFE2" d="M222.502,140.777c-0.412-0.295-0.82-0.59-1.226-0.886c-0.156,0.296-0.301,0.611-0.422,0.978
		C221.407,140.869,221.956,140.834,222.502,140.777z"/>
	<path fill="#D7DFE2" d="M187.492,111.699c0.072,1.459,1.406,3.632,3.048,4.773c1.632,1.143,2.793,0.837,2.524-0.601
		c-0.042-0.228-0.123-0.476-0.22-0.729c-1.577-1.573-3.112-3.129-4.613-4.662C187.744,110.524,187.455,110.928,187.492,111.699z"/>
	<path fill="#D7DFE2" d="M93.289,91.553c1.604-1.604,0.802-2.407,0.249-4.409c-0.826-1.683-2.202-2.939-3.185-3.378
		c-0.279,0.103-0.555,0.203-0.83,0.303C89.459,86.971,91.002,89.265,93.289,91.553z"/>
	<path fill="#D7DFE2" d="M141.654,221.092c0,1.174,0.857,1.915,1.715,2.521c1.229-0.239,2.471-0.496,3.74-0.785
		c-0.004-0.026,0.002-0.051-0.002-0.078C145.664,221.092,142.455,217.081,141.654,221.092z"/>
	<path fill="#D7DFE2" d="M227.834,169.564c-0.562,0.182-1.363-0.621-2.168-0.621c0,2.406,0.805,8.023,4.494,6.187
		C230.348,173.429,229.366,170.701,227.834,169.564z"/>
	<path fill="#D7DFE2" d="M227.67,159.069c-2.004-0.553-2.805-1.355-4.41,0.249c2.406,2.406,4.812,4.012,7.936,3.762
		C231.414,162.271,229.924,160.176,227.67,159.069z"/>
	<path fill="#D7DFE2" d="M229.025,147.834c0.488-1.477-0.65-2.249-2.424-1.752c-1.736,1.205-4.947,2.007-2.539,4.414
		C225.666,151.297,227.271,149.693,229.025,147.834z"/>
	<path fill="#D7DFE2" d="M237.885,160.984c1.123,0.635,1.914-0.295,1.705-2.143c-0.209-1.852-1.49-3.88-2.807-4.475
		s-1.999,0.432-1.6,2.24C235.586,158.411,236.761,160.348,237.885,160.984z"/>
	<path fill="#D7DFE2" d="M193.073,132.91c-3.504,0.738-3.504,6.354-0.296,5.549c0.8,0,1.605-1.604,2.201-3.033
		C195.555,134.356,194.705,133.27,193.073,132.91z"/>
	<path fill="#D7DFE2" d="M154.471,158.845c-1.428,0-3.709,0.811-4.896,1.89c-1.188,1.079-0.523,1.945,1.418,1.97
		c1.939,0.022,4.419-0.628,5.238-1.667C157.057,160.003,155.9,158.845,154.471,158.845z"/>
	<path fill="#D7DFE2" d="M152.081,198.631c-1.603,2.405-1.603,8.022,2.022,8.941c0.827-0.068,0.908-1.967,0.324-4.35
		C154.488,201.839,153.687,199.432,152.081,198.631z"/>
	<path fill="#D7DFE2" d="M182.807,171.672c-2.064,0.482-5.273,0.482-4.469,2.889c0.801,1.604,4.01,1.604,6.16-0.791
		C185.285,172.668,184.541,171.779,182.807,171.672z"/>
	<path fill="#D7DFE2" d="M75.305,201.52c1.699,0.185,4.428-0.795,5.564-2.328c-0.184-0.561,0.619-1.363,0.619-2.166
		C79.081,197.025,73.465,197.828,75.305,201.52z"/>
	<path fill="#D7DFE2" d="M59.159,123.107c1.827-0.531,2.711-1.243,1.989-1.857c-0.828-0.34-1.623-0.494-2.394-0.524
		C58.883,121.514,59.019,122.308,59.159,123.107z"/>
	<path fill="#D7DFE2" d="M182.359,183.902c-0.556-1.075-2.076-1.566-2.941-0.56c-0.279,1.645-1.08,4.854,1.324,5.655
		C183.152,188.998,183.95,186.593,182.359,183.902z"/>
	<path fill="#D7DFE2" d="M208.02,150.496c2.405,0.801,4.812,0,5.057-3.451c-0.615-0.714-3.068-0.852-5.312-0.277
		C207.219,148.089,206.416,149.693,208.02,150.496z"/>
	<path fill="#D7DFE2" d="M73.457,192.111c1.363-0.345,1.834-2.004,0.964-3.711c-1.757-1.002-1.757-4.211-4.162-4.211
		C71.059,187.398,68.65,191.411,73.457,192.111z"/>
	<path fill="#D7DFE2" d="M180.742,206.648c2.41,0.803,3.208-2.406,4.006-4.84c-0.176-1.472-1.216-1.651-2.422-0.465
		C181.547,203.439,178.338,205.848,180.742,206.648z"/>
	<path fill="#D7DFE2" d="M209.623,172.154c3.209,1.605,5.617-1.605,6.971-4.746c-0.312-0.869-2.047-0.398-4.053,1.197
		C211.229,169.746,208.821,171.35,209.623,172.154z"/>
	<path fill="#D7DFE2" d="M212.82,157.693c-1.591,1.625-3.999,3.229-3.197,6.439c3.209-1.604,4.814-4.012,6.047-6.873
		C215.779,156.031,214.49,156.07,212.82,157.693z"/>
	<path fill="#D7DFE2" d="M213.568,183.877c-1.539,1.11-3.945,1.11-5.549,2.716c3.21,0,7.221,0,10.131-1.082
		C218.43,184.613,216.752,183.257,213.568,183.877z"/>
	<path fill="#D7DFE2" d="M220.752,176.976c-0.344-1.363-2.005-1.834-3.713-0.964c-0.998,1.758-4.207,1.758-4.207,4.165
		C216.041,179.374,220.053,181.779,220.752,176.976z"/>
	<path fill="#D7DFE2" d="M198.392,126.428c0.786,1.573,3.876,0.829,5.767-0.502c-0.916-0.828-1.816-1.65-2.703-2.476
		C199.434,123.727,197.794,124.629,198.392,126.428z"/>
	<path fill="#D7DFE2" d="M208.02,132.044c0.84,1.261,2.12,0.974,3.457,0.214c-0.867-0.721-1.72-1.439-2.562-2.158
		C207.624,130.436,206.81,130.834,208.02,132.044z"/>
	<path fill="#D7DFE2" d="M158.018,136.225c-3.577,0.285-5.182,1.891-5.985,5.098c2.408,0,4.013-1.605,5.704-1.622
		C158.914,138.79,159.066,137.244,158.018,136.225z"/>
	<path fill="#D7DFE2" d="M172.72,204.242c1.605,0,2.407-1.604,2.696-3.525c0.421-1.899-0.08-3.283-1.104-3.074
		C171.92,198.627,168.709,203.439,172.72,204.242z"/>
	<path fill="#D7DFE2" d="M177.731,163.248c-2.604-1.523-5.012,0.082-5.012,1.686c-0.8,3.209,2.407,2.406,4.459,1.282
		C178.547,165.189,178.779,163.877,177.731,163.248z"/>
	<path fill="#D7DFE2" d="M187.334,146.305c-0.482-1.814-1.629-3.309-2.69-3.39c-3.901,1.965-0.693,6.778,1.717,6.778
		C187.966,149.693,187.16,147.287,187.334,146.305z"/>
	<path fill="#D7DFE2" d="M170.104,153.499c-0.081-1.481-1.216-3.861-2.562-4.725c-1.428,0-2.584,1.157-2.584,2.585
		c0,1.429,1.156,2.586,2.584,2.586C169.015,155.016,170.186,154.984,170.104,153.499z"/>
	<path fill="#D7DFE2" d="M178.114,154.855c1.452,0.723,2.247-0.103,1.808-1.777c-0.442-1.674-1.777-3.604-3.023-4.367
		c-1.246-0.768-2.086-0.044-1.85,1.674C175.283,152.104,176.664,154.139,178.114,154.855z"/>
	<path fill="#D7DFE2" d="M181.211,116.735c0-1.431-1.158-2.585-2.588-2.585c-1.428,0-2.586,1.154-2.586,2.585
		c0,1.429,1.158,2.585,2.586,2.585C180.053,119.32,181.211,118.164,181.211,116.735z"/>
	<path fill="#D7DFE2" d="M165.825,193.925c1.39,0.56,1.853-0.528,1.141-2.38c-0.712-1.851-2.116-3.844-3.253-4.504
		c-1.136-0.655-1.764,0.332-1.304,2.28C162.868,191.27,164.436,193.361,165.825,193.925z"/>
	<path fill="#D7DFE2" d="M175.45,131.514c-0.415,2.122,0.065,4.562,0.989,5.365s1.785-0.329,2.033-2.45
		c0.246-2.121-0.084-4.425-0.837-5.229C176.883,128.393,175.865,129.391,175.45,131.514z"/>
	<path fill="#D7DFE2" d="M171.115,185.791c0.805,0,0.805-2.406,0.971-3.633c-0.441-2.023-1.379-3.539-2.303-3.436
		C167.91,180.977,168.709,185.791,171.115,185.791z"/>
	<path fill="#D7DFE2" d="M135.545,214.211c1.662-0.673,2.586-2.199,2.037-3.258c-1.545-0.291-3.147-3.5-4.753-1.092
		C132.829,211.467,131.227,214.675,135.545,214.211z"/>
	<path fill="#D7DFE2" d="M136.406,202.123c1.051-1.018,0.898-2.563-0.279-3.473c-1.692-0.02-3.298-1.625-5.703-1.625
		C131.227,200.233,132.829,201.839,136.406,202.123z"/>
	<path fill="#D7DFE2" d="M163.098,207.572c0.679-1.384,0.436-3.029-0.554-3.75c-3.46-1.184-4.263,3.629-2.657,5.233
		C161.492,209.858,162.292,208.254,163.098,207.572z"/>
	<path fill="#D7DFE2" d="M141.082,170.445c0.42-1.299-0.524-2.027-2.176-1.578c-1.65,0.443-3.323,2.039-3.674,3.525
		c-0.354,1.486,0.689,2.135,2.27,1.5C139.083,173.256,140.662,171.74,141.082,170.445z"/>
	<path fill="#D7DFE2" d="M149.078,177.441c-1.809-3.68-6.623-0.471-6.623,1.938c0.802,0.801,2.407,0.801,3.968,0.902
		C148.129,179.705,149.3,178.499,149.078,177.441z"/>
	<path fill="#D7DFE2" d="M133.091,188.92c1.05-1.014,1.479-2.848,1.008-4.151c-0.474-1.304-1.765-1.694-2.938-0.827
		c-1.176,0.865-1.705,2.766-1.11,4.215C130.647,189.607,132.04,189.936,133.091,188.92z"/>
	<path fill="#D7DFE2" d="M146.896,211.205c0.766-0.537,0.735-2.848,0.073-5.201c-0.505-0.957-0.505-3.363-2.107-2.562
		C142.455,205.85,144.061,210.662,146.896,211.205z"/>
	<path fill="#D7DFE2" d="M145.426,191.661c1.148-0.858,1.35-2.287,0.414-3.271c-2.583-1.793-4.988-0.992-4.988,1.415
		C140.852,191.411,141.654,193.015,145.426,191.661z"/>
	<path fill="#D7DFE2" d="M96.494,217.635c1.356-1.39,1.081-2.432-0.537-2.288c-0.811,0.07-1.807,0.38-2.75,0.819
		c1.035,0.559,2.083,1.098,3.145,1.61C96.398,217.727,96.447,217.683,96.494,217.635z"/>
	<path fill="#D7DFE2" d="M62.812,91.538c0.248-0.026,0.5-0.063,0.748-0.138c2.18-0.643,2.895-1.545,1.403-1.855
		C64.176,90.168,63.457,90.832,62.812,91.538z"/>
	<path fill="#D7DFE2" d="M66.557,184.927c-1.112-1.537-1.112-3.945-2.715-5.548c0,0.684,0,1.408,0.01,2.146
		c0.606,2.664,1.359,5.103,2.254,7.321C66.604,188.104,66.918,186.779,66.557,184.927z"/>
	<path fill="#D7DFE2" d="M77.195,85.447c-0.697,3.011,4.244,3.698,6.468,3.698c0-0.8-0.802-1.604-0.618-2.165
		c-0.301-0.403-0.713-0.765-1.183-1.08C80.264,86.014,78.707,85.891,77.195,85.447z"/>
	<path fill="#D7DFE2" d="M154.488,217.885c-0.895,1.193-1.01,2.273-0.691,3.244c1.085-0.301,2.176-0.613,3.279-0.943
		C156.24,218.882,155.121,217.885,154.488,217.885z"/>
	<path fill="#D7DFE2" d="M110.135,77.914c1.527,0.765,3.766,0.055,4.677-2.293c-1.854,0.354-3.683,0.773-5.483,1.26
		C109.424,77.307,109.669,77.682,110.135,77.914z"/>
	<path fill="#D7DFE2" d="M237.523,173.422c-2.139,1.082-2.832,2.561-2.752,4.072c1.14-1.199,2.188-2.393,3.125-3.576
		C237.789,173.715,237.668,173.536,237.523,173.422z"/>
	<path fill="#D7DFE2" d="M167.95,215.781c1.127-1.322,1.001-2.344-0.489-2.388c-1.492-0.044-3.816,0.764-4.986,1.944
		c-1.167,1.18-0.559,2.538,0.936,2.671c0.153,0.013,0.312,0.008,0.471-0.003c0.801-0.272,1.604-0.549,2.41-0.834
		C166.919,216.791,167.5,216.311,167.95,215.781z"/>
	<path fill="#D7DFE2" d="M187.205,122.854c-3.255,1.166-4.857,5.98-2.45,7.584c1.605,0,2.405-1.604,2.852-3.454
		C188.211,124.928,188.243,123.602,187.205,122.854z"/>
	<path fill="#D7DFE2" d="M136.133,124.275c1.145,1.637,3.318,2.972,4.775,3.044c1.457,0.071,1.637-0.999,0.471-2.438
		c-1.164-1.441-3.209-2.865-4.645-3.131C135.298,121.482,134.99,122.643,136.133,124.275z"/>
	<path fill="#D7DFE2" d="M168.721,94.774c1.182,0.788,3.143,1.185,4.938,0.958c-0.969-0.933-1.936-1.848-2.9-2.736
		C169.9,93.391,169.115,93.983,168.721,94.774z"/>
	<path fill="#D7DFE2" d="M176.037,102.885c0,1.43,1.158,2.585,2.586,2.585c1.31,0,2.377-0.972,2.551-2.229
		c-0.963-0.985-1.916-1.955-2.863-2.91C177.032,100.486,176.037,101.564,176.037,102.885z"/>
	<path fill="#D7DFE2" d="M124.576,77.914c1.604,0,3.209-0.799,3.223-3.09c0.033-0.183,0.042-0.357,0.044-0.53
		c-1.533,0.024-3.054,0.097-4.563,0.21C122.924,75.732,123.286,77.055,124.576,77.914z"/>
	<path fill="#D7DFE2" d="M135.004,76.311c1.549,2.324,3.099-0.58,4.592-1.043c-1.563-0.309-3.169-0.554-4.825-0.719
		C134.856,75.184,135.004,75.822,135.004,76.311z"/>
	<path fill="#D7DFE2" d="M154.256,87.541c1.604-0.801,2.408-3.209,2.346-4.592c0.069-0.287,0.13-0.566,0.182-0.836
		c-0.934-0.572-1.877-1.119-2.833-1.636C152.8,82.596,153.131,85.854,154.256,87.541z"/>
	<path fill="#D7DFE2" d="M147.035,82.729c1.605,0.803,1.605-1.604,2.109-2.561c0.177-0.625,0.305-1.244,0.387-1.83
		c-0.996-0.427-2.012-0.826-3.043-1.189C145.598,78.893,145.566,81.26,147.035,82.729z"/>
	<path fill="#D7DFE2" d="M162.725,88.062c0.896,0.3,1.794,0.375,2.578,0.174c-1.104-0.905-2.215-1.771-3.338-2.604
		C161.66,86.586,161.625,87.514,162.725,88.062z"/>
	<path fill="#D7DFE2" d="M115.729,138.372c0.803,0.923,3.243,1.405,5.365,0.989c2.124-0.414,3.121-1.43,2.313-2.184
		c-0.805-0.756-3.108-1.083-5.229-0.838C116.059,136.59,114.926,137.453,115.729,138.372z"/>
	<path fill="#D7DFE2" d="M117.182,119.836c-1.43,0.596-3.035,1.398-3.035,2.201c-0.803,3.207,4.814,3.207,5.551-0.299
		C119.338,120.107,118.251,119.26,117.182,119.836z"/>
	<path fill="#D7DFE2" d="M120.564,106.793c2.406,2.408,1.605-3.209,3.491-4.627c0.46-1.98-0.038-3.01-1.231-2.322
		C121.368,101.979,118.159,105.188,120.564,106.793z"/>
	<path fill="#D7DFE2" d="M125.357,85.754c-3.188,0.986-4.793,4.195-4.793,7.404c2.406-0.805,3.209-2.407,4.544-4.183
		C126.401,86.96,126.522,85.582,125.357,85.754z"/>
	<path fill="#D7DFE2" d="M115.648,85.834c-3.105,1.707-3.908,4.917-3.908,8.125c2.406-0.801,3.209-2.406,3.631-3.883
		C116.422,87.818,116.562,85.992,115.648,85.834z"/>
	<path fill="#D7DFE2" d="M108.831,212.215c1.798,0.555,3.692-0.022,3.95-1.315c-0.808-2.642-3.217-3.446-4.822-2.642
		C106.355,209.059,107.158,211.467,108.831,212.215z"/>
	<path fill="#D7DFE2" d="M109.564,172.96c-1.605,3.21-1.605,6.419,1.264,8.89c0.869,0.15,1.241-1.57,0.984-3.915
		C111.974,176.17,111.168,173.762,109.564,172.96z"/>
	<path fill="#D7DFE2" d="M111.74,113.211c1.604-0.801,2.406-3.209,2.245-4.974c0.257-2.343-0.114-4.064-0.982-3.915
		C110.135,106.793,110.135,110.002,111.74,113.211z"/>
	<path fill="#D7DFE2" d="M134.559,164.424c1.437-0.266,3.482-1.691,4.646-3.133c1.164-1.443,0.986-2.51-0.471-2.439
		c-1.457,0.072-3.633,1.406-4.776,3.043C132.818,163.531,133.123,164.691,134.559,164.424z"/>
	<path fill="#D7DFE2" d="M143.067,141.084c0.574-2.244,0.437-4.699-0.276-5.311c-3.451,0.242-4.252,2.65-3.451,5.056
		C140.145,142.432,141.749,141.631,143.067,141.084z"/>
	<path fill="#D7DFE2" d="M126.18,116.423c2.407,0.8,3.209-2.408,3.054-5.185c-0.251-1.484-1.335-1.832-2.472-0.709
		C125.379,112.41,124.576,115.619,126.18,116.423z"/>
	<path fill="#D7DFE2" d="M100.74,157.718c0,1.605,2.406,0.801,3.387,0.976c1.816-0.483,3.311-1.631,3.391-2.69
		C105.555,152.102,100.74,155.311,100.74,157.718z"/>
	<path fill="#D7DFE2" d="M147.571,151.021c0.548-1.061-0.376-2.586-2.037-3.258c-4.319-0.465-2.716,2.742-2.716,4.348
		C144.422,154.521,146.027,151.312,147.571,151.021z"/>
	<path fill="#D7DFE2" d="M132.598,89.146c2.406,0,4.012-1.604,5.705-1.624c1.176-0.908,1.33-2.455,0.279-3.475
		C135.004,84.332,133.398,85.936,132.598,89.146z"/>
	<path fill="#D7DFE2" d="M147.604,94.511c-3.773-1.353-4.577,0.252-4.577,1.856c0,2.404,2.407,3.207,4.989,1.412
		C148.949,96.797,148.749,95.369,147.604,94.511z"/>
	<path fill="#D7DFE2" d="M126.174,224.318c2.047-0.021,3.957-1.014,4.189-2.091c-1.545-2.739-6.359-1.938-7.16,0.47
		C123.203,223.498,125.61,224.302,126.174,224.318z"/>
	<path fill="#D7DFE2" d="M139.676,112.276c-1.58-0.634-2.621,0.017-2.271,1.503c0.353,1.486,2.026,3.082,3.675,3.525
		c1.651,0.449,2.598-0.281,2.177-1.578C142.838,114.433,141.258,112.916,139.676,112.276z"/>
	<path fill="#D7DFE2" d="M117.521,164.432c-0.735-3.505-6.353-3.505-5.547-0.295c0,0.799,1.604,1.605,3.032,2.201
		C116.078,166.914,117.163,166.062,117.521,164.432z"/>
	<path fill="#D7DFE2" d="M121.234,148.994c0.806-0.754-0.191-1.77-2.316-2.186c-2.121-0.416-4.561,0.066-5.363,0.99
		c-0.804,0.922,0.328,1.785,2.449,2.032C118.125,150.076,120.428,149.747,121.234,148.994z"/>
	<path fill="#D7DFE2" d="M105.998,220.153c1.635,0.285,3.745,0.403,5.378-0.156c1.634-0.562,2.012-1.503,0.355-2.052
		c-1.652-0.55-4.716-0.876-6.917-0.652C103.473,218.988,104.57,220.153,105.998,220.153z"/>
	<path fill="#D7DFE2" d="M113.196,196.094c-0.423-1.477-1.223-3.079-3.632-3.881c0,3.209,0.804,6.418,3.91,8.124
		C114.387,200.18,114.248,198.352,113.196,196.094z"/>
	<path fill="#D7DFE2" d="M121.879,184.006c-1.885-1.419-1.083-7.035-3.488-4.627c-2.406,1.603,0.803,4.811,2.26,6.95
		C121.844,187.016,122.34,185.986,121.879,184.006z"/>
	<path fill="#D7DFE2" d="M106.304,127.48c-0.981,0.173-3.388-0.63-3.388,0.976c0,2.405,4.812,5.616,6.777,1.712
		C109.611,129.109,108.117,127.965,106.304,127.48z"/>
	<path fill="#D7DFE2" d="M123.182,200.416c1.166,0.175,1.043-1.205-0.248-3.221c-1.334-1.773-2.138-3.379-4.543-4.181
		C118.391,196.223,119.994,199.432,123.182,200.416z"/>
	<path fill="#D7DFE2" d="M123.51,214.273c1.286,0.056,2.422-1.238,2.115-2.928c-0.015-2.287-1.621-3.088-3.224-3.088
		C119.994,209.861,120.796,213.07,123.51,214.273z"/>
	<path fill="#D7DFE2" d="M102.113,106.793c0.803,1.605,2.405,0.805,3.727,0.256c0.574-2.244,0.436-4.699-0.277-5.312
		C102.113,101.979,101.311,104.389,102.113,106.793z"/>
	<path fill="#D7DFE2" d="M102.6,200.385c1.476,0.486,2.246-0.65,1.75-2.424c-1.203-1.738-2.004-4.946-4.412-2.539
		C99.136,197.025,100.74,198.631,102.6,200.385z"/>
	<path fill="#D7DFE2" d="M98.818,115.813c-0.781,1.011-0.283,2.704,1.111,3.636c1.393,0.934,3.066,0.764,3.751-0.243
		c0.683-1.01,0.191-2.47-1.104-3.396C101.28,114.879,99.596,114.805,98.818,115.813z"/>
	<path fill="#D7DFE2" d="M104.773,85.788c-1.857,1.753-3.463,3.357-2.66,4.963c2.405,2.407,3.209-0.802,4.412-2.538
		C107.021,86.437,106.25,85.301,104.773,85.788z"/>
	<path fill="#D7DFE2" d="M103.387,184.435c0.715-0.614,0.853-3.067,0.279-5.312c-1.32-0.546-2.926-1.349-3.729,0.257
		C99.136,181.784,99.938,184.189,103.387,184.435z"/>
	<path fill="#D7DFE2" d="M100.4,170.362c1.295-0.929,1.789-2.387,1.106-3.396c-0.684-1.012-2.358-1.178-3.753-0.246
		c-1.393,0.932-1.892,2.627-1.111,3.637C97.423,171.368,99.105,171.291,100.4,170.362z"/>
	<path fill="#D7DFE2" d="M97.75,136.699c0.719,1.451,2.754,2.83,4.473,3.066c1.72,0.236,2.441-0.604,1.676-1.851
		c-0.764-1.245-2.693-2.581-4.368-3.024C97.854,134.452,97.029,135.246,97.75,136.699z"/>
</g>
<path id="blue" fill="#345568" d="M219.34,136.516c8.78,19.719,5.183,43.017-5.774,61.744c-2.552,3.521-5.399,6.857-11.944,8.011
	c-23.875,2.511-38.804,22.869-57.805,36.44c-8.143,6.786-16.287-17.644-24.43-27.145c-9.501-14.928-32.573,2.716-48.86-6.785
	c-27.144-13.571-5.429-44.787,8.578-62.175c1.023-3.29,2.282-6.476,3.759-9.538c1.475-3.062,3.166-6,5.055-8.795
	c2.517-3.726,7.422-2.546,12.445-1.812c27.166,3.603,58.381-1.826,73.311-28.971c8.145-16.287,29.857-4.07,35.287,10.857
	c1.358,5.43,5.428,10.858,5.015,16.394C215.284,129.966,217.453,133.038,219.34,136.516z"/>
<path id="white_x5F_lines" fill="#FFFFFF" d="M212.809,186.219c-2.346-1.783-4.908-3.088-7.802-3.992
	c-11.255-3.842-25.86-4.201-40.942-3.772c0.469-3.124,0.979-6.255,1.48-9.335c3.344-20.502,6.503-39.865-3.543-49.169
	c-1.469-1.296-3.272-2.566-5.45-3.679c-0.328,0.222-0.653,0.453-0.987,0.666c2.322,1.127,4.222,2.441,5.741,3.783
	c9.628,8.914,6.513,28.012,3.215,48.232c-0.515,3.145-1.033,6.342-1.512,9.531c-4.219,0.133-8.47,0.315-12.692,0.5
	c-3.704,0.164-7.447,0.326-11.176,0.451c-2.34-8.541-3.139-18.854-3.913-28.869c-0.65-8.428-1.318-16.977-2.894-24.685
	c-0.343,0.065-0.683,0.133-1.026,0.194c1.568,7.65,2.237,16.17,2.887,24.572c0.77,9.971,1.565,20.236,3.88,28.825
	c-7.748,0.245-15.407,0.313-22.477-0.169c-16.438-0.638-31.012-3.791-45.105-6.84l-1.284-0.277c-1.478-0.311-2.978-0.6-4.478-0.887
	c-0.646-0.123-1.295-0.248-1.943-0.376c-0.159,0.321-0.315,0.644-0.471,0.966c0.74,0.145,1.48,0.287,2.219,0.43
	c1.494,0.287,2.986,0.574,4.456,0.881l1.28,0.278c14.139,3.058,28.758,6.222,45.268,6.862c7.188,0.488,14.969,0.411,22.829,0.158
	c0.26,0.902,0.532,1.791,0.831,2.65c2.737,7.878,8.17,13.044,16.146,15.354c1.965,0.568,4.049,0.932,6.209,1.153
	c0.693,9.222,3.703,15.822,9.021,19.663c0.286,0.206,0.593,0.39,0.892,0.581c0.297-0.229,0.594-0.458,0.891-0.684
	c-0.396-0.24-0.803-0.47-1.174-0.739c-5.027-3.631-7.893-9.918-8.582-18.726c1.207,0.094,2.43,0.157,3.684,0.157
	c14.513,0,31.94-6.012,46.441-12.444c1.502,1.204,2.91,2.626,4.258,4.281c0.162-0.343,0.323-0.687,0.479-1.031
	c-1.178-1.405-2.398-2.646-3.686-3.724c1.607-0.723,3.189-1.447,4.711-2.17c0.546-0.258,1.099-0.533,1.646-0.798
	c0.168-0.48,0.329-0.964,0.487-1.447C218.001,183.846,215.39,185.071,212.809,186.219z M161.478,198.605
	c-2.069-0.213-4.024-0.572-5.842-1.098c-7.635-2.211-12.835-7.155-15.456-14.699c-0.266-0.762-0.508-1.549-0.742-2.345
	c3.645-0.126,7.303-0.282,10.925-0.442c4.157-0.184,8.344-0.363,12.502-0.493c-0.423,2.877-0.811,5.746-1.108,8.558
	C161.393,191.896,161.301,195.4,161.478,198.605z M162.518,198.678c-0.182-3.184-0.094-6.679,0.271-10.488
	c0.304-2.852,0.695-5.768,1.125-8.693c15.05-0.435,29.619-0.09,40.771,3.719c2.593,0.81,4.911,1.955,7.042,3.49
	C192.957,194.935,175.541,199.678,162.518,198.678z"/>
</svg>
