<?xml version="1.0" encoding="utf-8"?>
<!-- Generator: Adobe Illustrator 16.0.0, SVG Export Plug-In . SVG Version: 6.00 Build 0)  -->
<!DOCTYPE svg PUBLIC "-//W3C//DTD SVG 1.1//EN" "http://www.w3.org/Graphics/SVG/1.1/DTD/svg11.dtd">
<svg version="1.1" id="Layer_1" xmlns="http://www.w3.org/2000/svg" xmlns:xlink="http://www.w3.org/1999/xlink" x="0px" y="0px"
	 width="301px" height="301px" viewBox="0 0 301 301" enable-background="new 0 0 301 301" xml:space="preserve">
<path id="oeange" fill="#F48272" d="M171.524,115.352c-33.523-21.279-77.615-13.613-102.535,13.227
	c-13.42,15.336-9.586,36.422-3.834,55.592c1.916,7.668,9.584,11.502,13.418,19.17c5.752,5.75,13.42,9.584,21.088,13.418
	c9.584,1.918,19.17,7.668,28.754,5.752c7.668-1.916,13.42,0,21.088-3.834c13.418-5.752,23.004-11.502,32.588-23.004
	c11.502-13.418,13.42-30.672,11.502-47.924c0-5.752-7.668-11.504-8.592-18.135C181.353,124.004,176.792,119.195,171.524,115.352z"/>
<path id="blue_x5F_2" fill="#345568" d="M117.136,209.582c-2.975-21.055-27.975-38.055-47.975-25.055c-4,3-6.625,4.848-9.5,10.973
	c-1.533,3.264-2.98,6.5-3,11.152c1,15,5.5,30.875,14.5,42.875c16,19,39,0,44-20c1-4,2.387-6.66,2.67-12.785
	C117.81,214.404,117.583,212.012,117.136,209.582z"/>
<path id="blue_x5F_1" fill="#345568" d="M235.333,108.24c0-30.711-24.895-55.605-55.605-55.605c-7.678,0-14.99,1.555-21.643,4.369
	c-6.621,2.312-12.578,5.883-17.814,3.404c-27.758,6.467-1.906,42.66-9.588,64.367c0.867,11.256,4.695,17.752,9.727,22.783
	c10.062,10.062,23.965,16.287,39.318,16.287C210.438,163.846,235.333,138.949,235.333,108.24z"/>
<g id="light_x5F_blue_x5F_dots">
	<path fill="#D7DFE2" d="M162.147,143.338c1.361-0.152,2.857-1.098,3.297-2.068c0.438-0.969-0.32-1.473-1.65-1.178
		s-2.756,1.162-3.227,1.99C160.099,142.91,160.784,143.492,162.147,143.338z"/>
	<path fill="#D7DFE2" d="M161.979,134.557c0.406-1.477,0.998-2.068-0.186-3.25c-1.771,1.773-2.955,3.547-2.771,5.846
		C159.62,137.314,161.163,136.215,161.979,134.557z"/>
	<path fill="#D7DFE2" d="M163.312,125.713c0.906,0.082,0.877-0.869-0.32-2.098c-1.197-1.174-2.379-2.947-4.742-2.357
		C159.431,123.623,161.204,124.805,163.312,125.713z"/>
	<path fill="#D7DFE2" d="M226.161,86.957c0.182-1.562-0.062-3.26-0.617-3.852c-0.555-0.596-1.303,0.141-1.609,1.705
		c-0.307,1.562,0.049,3.361,0.729,3.953S225.978,88.52,226.161,86.957z"/>
	<path fill="#D7DFE2" d="M159.278,116.564c1.152,0.469,1.41-0.16,0.652-1.428c-1.092-1.562-1.682-3.336-4.047-3.336
		C155.884,114.164,157.657,115.348,159.278,116.564z"/>
	<path fill="#D7DFE2" d="M223.638,98.715c0.174,1.266,1.191,2.766,2.26,3.295c1.07,0.531,1.656-0.076,1.332-1.311
		c-0.326-1.234-1.311-2.656-2.229-3.219C224.083,96.916,223.464,97.449,223.638,98.715z"/>
	<path fill="#D7DFE2" d="M166.394,99.375c1.234-0.326,2.654-1.311,3.217-2.229c0.564-0.92,0.033-1.537-1.234-1.363
		c-1.266,0.174-2.764,1.191-3.295,2.26C164.55,99.113,165.159,99.699,166.394,99.375z"/>
	<path fill="#D7DFE2" d="M157.437,60.279c-2.314,0.998-4.678,2.77-3.496,5.135c0.59,0.592,1.773-1.182,2.613-2.148
		C157.731,61.787,158.077,60.508,157.437,60.279z"/>
	<path fill="#D7DFE2" d="M152.749,83.928c-1.764,1.584-1.764,3.949-0.582,4.539c1.773,0.592,1.773-1.773,2.129-3.295
		C154.216,83.895,153.562,83.348,152.749,83.928z"/>
	<path fill="#D7DFE2" d="M157.487,74.873c2.363,0,2.955-1.773,4.047-3.336c0.758-1.268,0.498-1.896-0.654-1.428
		C159.259,71.324,157.487,72.508,157.487,74.873z"/>
	<path fill="#D7DFE2" d="M154.952,123.408c-0.842-0.967-2.023-2.74-2.615-2.15c-1.182,2.365,1.184,4.139,3.498,5.137
		C156.474,126.164,156.128,124.887,154.952,123.408z"/>
	<path fill="#D7DFE2" d="M150.565,98.207c-1.184,0.59-1.184,2.955,0.582,4.539c0.811,0.58,1.467,0.031,1.547-1.246
		C152.337,99.979,152.337,97.615,150.565,98.207z"/>
	<path fill="#D7DFE2" d="M150.562,110.561c-0.588-1.125-1.18-2.307-2.361-3.488c-0.592,2.957,0,4.729,2.234,6.213
		C151.136,113.385,151.149,112.201,150.562,110.561z"/>
	<path fill="#D7DFE2" d="M152.036,73.389c-2.234,1.484-2.824,3.256-2.234,6.213c1.184-1.182,1.773-2.365,2.361-3.49
		C152.751,74.473,152.739,73.287,152.036,73.389z"/>
	<path fill="#D7DFE2" d="M216.644,68.289c-1.086,0.311-2.27,0.9-2.859,2.676c2.363,0,4.729-0.592,5.986-2.881
		C219.653,67.41,218.308,67.514,216.644,68.289z"/>
	<path fill="#D7DFE2" d="M190.265,81.934c-0.551-0.766-1.527-0.74-3.043-0.297c-1.363,0.328-2.545,0.92-2.545,2.102
		C185.858,85.512,189.405,84.33,190.265,81.934z"/>
	<path fill="#D7DFE2" d="M190.667,95.438c1.773,1.773,1.182-2.365,2.572-3.41c0.338-1.459-0.027-2.219-0.906-1.711
		C191.259,91.891,188.894,94.256,190.667,95.438z"/>
	<path fill="#D7DFE2" d="M188.663,104.74c-0.861-2.396-4.406-3.578-5.59-1.805c0,1.182,1.184,1.771,2.547,2.102
		C187.134,105.48,188.112,105.506,188.663,104.74z"/>
	<circle fill="#D7DFE2" cx="226.272" cy="73.922" r="1.906"/>
	<path fill="#D7DFE2" d="M193.806,109.059c1.057-0.195,2.564-1.246,3.422-2.309c0.859-1.062,0.729-1.85-0.346-1.797
		s-2.676,1.035-3.52,2.242C192.522,108.4,192.747,109.256,193.806,109.059z"/>
	<path fill="#D7DFE2" d="M194.966,79.477c0.842,1.207,2.443,2.189,3.518,2.242s1.205-0.734,0.348-1.795
		c-0.859-1.062-2.365-2.113-3.424-2.309C194.351,77.418,194.124,78.273,194.966,79.477z"/>
	<path fill="#D7DFE2" d="M192.087,60.129c-0.439,1.066-0.049,2.467,0.816,3.105c0.865,0.637,1.814,0.35,2.164-0.609
		c0.348-0.961,0.033-2.312-0.742-3.061C193.552,58.818,192.526,59.059,192.087,60.129z"/>
	<path fill="#D7DFE2" d="M186.028,112.982c-1.182,0.592-0.59,2.957,0.43,4.342c0.838,0.828,1.635,0.57,1.822-0.523
		C188.394,114.758,187.802,112.393,186.028,112.982z"/>
	<path fill="#D7DFE2" d="M164.595,63.059c1.195-1.23,1.225-2.18,0.318-2.098c-2.107,0.906-3.881,2.088-5.062,4.453
		C162.216,66.006,163.397,64.232,164.595,63.059z"/>
	<path fill="#D7DFE2" d="M225.563,56.25c-0.051-0.609-1.449-0.67-3.203-0.238c-1.021-0.045-2.795,0.545-3.385,1.729
		C220.749,58.922,224.888,58.922,225.563,56.25z"/>
	<path fill="#D7DFE2" d="M217.292,81.793c-0.406,1.217-0.645,3.475-0.48,5.096c1.25,0.99,2.107,0.182,2.107-0.869
		c0.209-1.207,0.297-2.762-0.115-3.965C218.39,80.852,217.698,80.574,217.292,81.793z"/>
	<path fill="#D7DFE2" d="M204.147,65.932c-1.148,0.074-2.33,0.074-2.922,0.664c0,1.775,3.547,4.139,4.881,1.426
		C206.269,67.242,205.405,66.355,204.147,65.932z"/>
	<path fill="#D7DFE2" d="M206.47,80.334c0.877,0.795,2.557,1.393,3.609,1.393s1.904-0.854,1.297-1.619
		c-0.605-0.762-2.43-1.242-3.861-1.227C206.085,78.9,205.595,79.539,206.47,80.334z"/>
	<path fill="#D7DFE2" d="M214.89,115.68c0.555,0.547,1.201-0.525,1.574-2.309c0.375-1.783,0.443-3.605,0.031-4.158
		c-0.414-0.555-1.256,0.369-1.771,2.16C214.206,113.164,214.335,115.133,214.89,115.68z"/>
	<path fill="#D7DFE2" d="M212.728,59.482c-1.279,0.889-3.645,1.479-1.871,3.252c1.184,0.592,2.365-0.592,3.656-1.961
		C214.872,59.686,214.034,59.117,212.728,59.482z"/>
	<path fill="#D7DFE2" d="M138.251,78.616c1.347-0.392,1.996-0.917,1.465-1.368c-0.611-0.25-1.195-0.363-1.764-0.387
		C138.046,77.442,138.147,78.028,138.251,78.616z"/>
	<path fill="#D7DFE2" d="M241.14,116.658c0.1-0.703-1.084-0.717-2.725-0.129c-1.125,0.588-2.307,1.18-3.488,2.361
		C237.884,119.482,239.655,118.891,241.14,116.658z"/>
	<path fill="#D7DFE2" d="M237.392,106.621c0.15-1.062-1.209-1.658-2.262-1.559c-1.385,0.826-0.203,2.6-1.385,3.189
		C234.927,110.025,236.108,108.252,237.392,106.621z"/>
	<path fill="#D7DFE2" d="M241.286,101.223c0.744-0.574,0.688-1.814,0.002-2.768c-0.684-0.955-1.758-1.318-2.502-0.816
		c-0.744,0.506-0.867,1.74-0.18,2.766C239.292,101.432,240.542,101.799,241.286,101.223z"/>
	<path fill="#D7DFE2" d="M242.822,81.648c-0.264-0.844-0.546-1.68-0.849-2.506c-0.9,0.342-1.457,0.955-1.137,1.92
		C241.146,81.679,241.938,81.807,242.822,81.648z"/>
	<path fill="#D7DFE2" d="M226.856,122.998c-0.205,1.213-0.795,3.576,0.977,4.168c1.775,0,2.365-1.773,1.191-3.756
		C228.616,122.619,227.495,122.256,226.856,122.998z"/>
	<path fill="#D7DFE2" d="M236.7,89.928c0.59,0,1.184-1.182,1.623-2.236c0.424-0.787-0.203-1.588-1.404-1.852
		C234.337,86.383,234.337,90.52,236.7,89.928z"/>
	<path fill="#D7DFE2" d="M226.062,116.527c0.59,1.182,2.955,1.182,4.539-0.584c0.58-0.811,0.031-1.465-1.246-1.545
		C227.833,114.754,225.47,114.754,226.062,116.527z"/>
	<path fill="#D7DFE2" d="M235.052,73.729c1.203,0.842,2.059,0.615,1.861-0.443c-0.195-1.057-1.246-2.564-2.309-3.422
		s-1.85-0.727-1.797,0.348S233.843,72.887,235.052,73.729z"/>
	<path fill="#D7DFE2" d="M163.397,55.367c1.182-1.182,0.59-1.775,0.184-3.25c-0.609-1.24-1.625-2.165-2.348-2.488
		c-0.205,0.076-0.408,0.15-0.611,0.223C160.575,51.99,161.712,53.68,163.397,55.367z"/>
	<path fill="#D7DFE2" d="M199.032,150.812c0,0.945,0.756,1.511,1.443,1.98c0.868-0.17,1.729-0.361,2.581-0.571
		c-0.002-0.063,0.004-0.121-0.007-0.188C201.987,150.812,199.624,147.855,199.032,150.812z"/>
	<path fill="#D7DFE2" d="M233.745,125.984c1.865-0.312,3.568-1.115,5.271-2.003c0.292-0.558,0.586-1.114,0.858-1.683
		c-0.081,0.033-0.163,0.062-0.244,0.098C237.29,123.029,235.519,124.803,233.745,125.984z"/>
	<path fill="#D7DFE2" d="M232.595,78.428c-2.396,0.861-3.578,4.408-1.805,5.59c1.182,0,1.771-1.182,2.102-2.545
		C233.335,79.957,233.36,78.98,232.595,78.428z"/>
	<path fill="#D7DFE2" d="M208.478,104.947c-1.053,0-2.734,0.598-3.609,1.393s-0.385,1.434,1.045,1.451s3.256-0.463,3.861-1.227
		C210.382,105.801,209.53,104.947,208.478,104.947z"/>
	<path fill="#D7DFE2" d="M230.708,93.211c-2.875,1.447-0.51,4.994,1.264,4.994c1.184,0,0.59-1.773,0.719-2.498
		C232.335,94.371,231.489,93.27,230.708,93.211z"/>
	<path fill="#D7DFE2" d="M156.714,97.354c0.754,1.008,1.723,1.18,2.188,0.406c1.121-1.918-0.062-3.691-1.244-3.691
		C155.294,93.479,155.884,95.842,156.714,97.354z"/>
	<path fill="#D7DFE2" d="M143.683,101.17c0.791-0.41,1.152-1.529,0.412-2.168c-0.6-0.102-1.478-0.294-2.285-0.253
		c0.111,1.007,0.199,2.005,0.264,2.993C142.569,101.683,143.114,101.506,143.683,101.17z"/>
	<path fill="#D7DFE2" d="M144.694,111.775c-0.468-1.735-1.564-3.158-2.582-4.5c-0.029,0.51-0.074,1.016-0.127,1.518
		c0.984,2.363,2.464,4.59,3.436,7.084C145.771,115.264,145.413,113.451,144.694,111.775z"/>
	<path fill="#D7DFE2" d="M151.097,59.949c0.643-1.258,0.295-2.482-0.709-2.734c-3.541,0.516-1.768,3.471-2.357,5.834
		C149.802,63.049,149.802,60.686,151.097,59.949z"/>
	<path fill="#D7DFE2" d="M149.101,94.768c0.076-0.68-1.041-1.371-2.531-1.695c-0.904,0.123-2.678,0.123-2.678,0.715
		C143.892,95.559,147.438,96.15,149.101,94.768z"/>
	<path fill="#D7DFE2" d="M206.716,134.262c-1.182,1.773-1.182,5.912,1.49,6.59c0.609-0.051,0.67-1.449,0.238-3.205
		C208.489,136.627,207.899,134.854,206.716,134.262z"/>
	<path fill="#D7DFE2" d="M160.47,109.535c1.062,0.152,1.66-1.207,1.561-2.26c-0.826-1.385-2.6-0.203-3.191-1.385
		C157.065,107.072,158.839,108.254,160.47,109.535z"/>
	<path fill="#D7DFE2" d="M159.259,92.605c1.184,0,2.365-1.775,1.244-3.693c-0.465-0.771-1.432-0.6-2.188,0.408
		C157.487,90.83,156.896,93.195,159.259,92.605z"/>
	<path fill="#D7DFE2" d="M163.632,79.398c0.1-1.053-0.498-2.412-1.559-2.262c-1.631,1.283-3.404,2.465-1.631,3.646
		C161.032,79.602,162.806,80.783,163.632,79.398z"/>
	<path fill="#D7DFE2" d="M141.528,86.693c0.59,1.773,2.955,1.184,4.168,0.977c0.74-0.639,0.379-1.758-0.412-2.166
		C143.302,84.33,141.528,84.92,141.528,86.693z"/>
	<path fill="#D7DFE2" d="M150.144,136.391c1.256,0.137,3.266-0.586,4.104-1.715c-0.137-0.414,0.455-1.004,0.455-1.596
		C152.929,133.08,148.792,133.672,150.144,136.391z"/>
	<path fill="#D7DFE2" d="M200.075,91.861c0.422-1.652,0.32-3.463-0.205-3.914c-2.541,0.18-3.133,1.953-2.541,3.727
		C197.919,92.855,199.103,92.266,200.075,91.861z"/>
	<path fill="#D7DFE2" d="M148.786,129.459c1.004-0.254,1.35-1.477,0.709-2.734c-1.295-0.738-1.295-3.102-3.068-3.102
		C147.019,125.986,145.245,128.943,148.786,129.459z"/>
	<path fill="#D7DFE2" d="M146.298,74.896c0.717-1.674,1.074-3.488,0.725-4.1c-1.357,3.484-3.721,6.439-4.312,9.986
		C143.892,79.01,145.665,77.236,146.298,74.896z"/>
	<path fill="#D7DFE2" d="M144.099,59.133c-0.797,2.145-0.797,5.1-0.797,7.463c1.182-1.182,1.182-2.953,2.002-4.088
		C145.761,60.162,144.759,58.926,144.099,59.133z"/>
	<path fill="#D7DFE2" d="M225.614,108.191c-1.918-1.121-3.691,0.061-3.691,1.242c-0.59,2.365,1.773,1.773,3.285,0.945
		C226.216,109.623,226.388,108.656,225.614,108.191z"/>
	<path fill="#D7DFE2" d="M216.843,130.795c1.023,0.414,1.365-0.389,0.84-1.754c-0.523-1.363-1.561-2.832-2.396-3.316
		c-0.838-0.484-1.299,0.244-0.961,1.678C214.663,128.838,215.819,130.381,216.843,130.795z"/>
	<path fill="#D7DFE2" d="M214.833,140.852c0.5-1.021,0.32-2.232-0.408-2.764c-2.549-0.873-3.141,2.674-1.959,3.855
		C213.649,142.535,214.239,141.354,214.833,140.852z"/>
	<path fill="#D7DFE2" d="M214.368,50.049c-0.402,0.973-0.994,2.156,0.189,2.746c1.712,0.571,3.408,0.021,3.686-2.302
		c-0.381-0.229-0.77-0.446-1.157-0.666C216.319,49.742,215.322,49.806,214.368,50.049z"/>
	<path fill="#D7DFE2" d="M221.923,138.396c1.182,0,1.773-1.182,1.986-2.598c0.311-1.398-0.059-2.418-0.814-2.266
		C221.333,134.26,218.968,137.807,221.923,138.396z"/>
	<circle fill="#D7DFE2" cx="226.272" cy="63.717" r="1.904"/>
	<path fill="#D7DFE2" d="M211.091,88.281c-2.637,0.209-3.818,1.393-4.41,3.756c1.773,0,2.955-1.182,4.203-1.195
		C211.751,90.172,211.864,89.031,211.091,88.281z"/>
	<path fill="#D7DFE2" d="M220.741,124.803c0.592,0,0.592-1.773,0.715-2.678c-0.326-1.49-1.018-2.607-1.697-2.531
		C218.378,121.256,218.968,124.803,220.741,124.803z"/>
	<path fill="#D7DFE2" d="M219.995,101.01c-0.061-1.092-0.895-2.846-1.887-3.482c-1.053,0-1.904,0.854-1.904,1.906
		c0,1.051,0.852,1.904,1.904,1.904C219.192,102.125,220.056,102.104,219.995,101.01z"/>
	<path fill="#D7DFE2" d="M198.612,113.496c0.309-0.957-0.389-1.494-1.604-1.164c-1.217,0.328-2.449,1.504-2.707,2.598
		c-0.26,1.096,0.508,1.574,1.672,1.105S198.302,114.449,198.612,113.496z"/>
	<path fill="#D7DFE2" d="M194.53,145.742c1.227-0.496,1.906-1.621,1.502-2.4c-1.137-0.215-2.318-2.578-3.502-0.805
		C192.53,143.721,191.349,146.084,194.53,145.742z"/>
	<path fill="#D7DFE2" d="M195.167,136.836c0.773-0.75,0.662-1.889-0.207-2.559c-1.246-0.016-2.43-1.197-4.201-1.197
		C191.349,135.443,192.53,136.627,195.167,136.836z"/>
	<path fill="#D7DFE2" d="M201.813,129.127c0.846-0.633,0.992-1.684,0.305-2.41c-1.904-1.32-3.676-0.73-3.676,1.043
		C198.442,128.943,199.032,130.125,201.813,129.127z"/>
	<path fill="#D7DFE2" d="M204.503,118.65c-1.332-2.711-4.879-0.348-4.879,1.426c0.59,0.592,1.773,0.592,2.922,0.666
		C203.804,120.318,204.667,119.43,204.503,118.65z"/>
	<path fill="#D7DFE2" d="M202.896,143.527c0.564-0.395,0.543-2.098,0.055-3.832c-0.371-0.705-0.371-2.479-1.553-1.887
		C199.624,139.582,200.806,143.127,202.896,143.527z"/>
	<path fill="#D7DFE2" d="M218.048,145.141c-1.1-0.033-2.812,0.561-3.674,1.432c-0.572,0.577-0.558,1.206-0.166,1.597
		c1.613-0.792,3.182-1.66,4.703-2.6C218.812,145.315,218.534,145.154,218.048,145.141z"/>
	<path fill="#D7DFE2" d="M143.7,124.166c-0.82-1.135-0.82-2.908-2.002-4.09c0,0.504,0.002,1.037,0.01,1.58
		c0.445,1.965,1,3.762,1.66,5.397C143.734,126.506,143.966,125.53,143.7,124.166z"/>
	<path fill="#D7DFE2" d="M165.759,148.266c1-1.025,0.797-1.793-0.396-1.688c-0.598,0.053-1.33,0.28-2.025,0.605
		c0.762,0.412,1.534,0.809,2.316,1.185C165.688,148.334,165.725,148.301,165.759,148.266z"/>
	<path fill="#D7DFE2" d="M192.724,127.107c0.773-0.746,1.09-2.098,0.742-3.059c-0.35-0.961-1.301-1.248-2.164-0.609
		c-0.867,0.639-1.258,2.037-0.818,3.105C190.923,127.615,191.95,127.855,192.724,127.107z"/>
	<path fill="#D7DFE2" d="M208.489,148.449c-0.637,0.85-0.736,1.621-0.529,2.318c0.77-0.268,1.531-0.551,2.284-0.851
		C209.651,149.07,208.917,148.449,208.489,148.449z"/>
	<path fill="#D7DFE2" d="M230.569,135.962c-0.314-0.442-0.906-0.352-1.568,0.3c-0.396,1.063-1.639,2.235-1.798,3.055
		C228.374,138.248,229.493,137.126,230.569,135.962z"/>
	<path fill="#D7DFE2" d="M244.776,90.384c-0.683,0.281-1.277,0.726-1.574,1.319c0.612,0.306,1.224,0.527,1.826,0.659
		C244.958,91.698,244.87,91.041,244.776,90.384z"/>
	<path fill="#D7DFE2" d="M242.991,107.16c-1.562,1.092-3.336,1.684-3.336,4.047c2.363,0,3.547-1.773,4.764-3.393
		C244.888,106.66,244.259,106.402,242.991,107.16z"/>
	<path fill="#D7DFE2" d="M140.941,55.356c0.185-0.02,0.368-0.048,0.552-0.103c1.605-0.475,2.133-1.138,1.033-1.367
		C141.945,54.348,141.415,54.836,140.941,55.356z"/>
	<path fill="#D7DFE2" d="M186.45,45.318c1.182,0,2.363-0.59,2.375-2.277c0.024-0.135,0.031-0.264,0.031-0.39
		c-1.125,0.017-2.24,0.07-3.348,0.153C185.245,43.71,185.497,44.684,186.45,45.318z"/>
	<path fill="#D7DFE2" d="M194.134,44.137c1.182,1.773,2.363-0.592,3.5-0.805c0.021-0.041,0.027-0.086,0.043-0.129
		c-1.227-0.176-2.469-0.305-3.72-0.398C194.019,43.285,194.134,43.768,194.134,44.137z"/>
	<path fill="#D7DFE2" d="M208.319,52.41c1.182-0.59,1.773-2.363,1.727-3.383c0.246-1,0.326-1.873,0.242-2.459
		c-0.387-0.153-0.771-0.312-1.161-0.457C207.153,47.271,207.247,50.807,208.319,52.41z"/>
	<path fill="#D7DFE2" d="M202.999,48.865c1.182,0.592,1.182-1.184,1.553-1.887c0.224-0.795,0.344-1.576,0.36-2.235
		c-0.657-0.187-1.318-0.364-1.985-0.526C201.968,45.508,201.755,47.621,202.999,48.865z"/>
	<path fill="#D7DFE2" d="M203.392,99.184c0.404-0.781-0.275-1.906-1.5-2.4c-3.182-0.342-2,2.021-2,3.205
		C201.073,101.762,202.255,99.398,203.392,99.184z"/>
	<path fill="#D7DFE2" d="M175.81,45.318c1.125,0.563,2.773,0.039,3.445-1.689c-1.365,0.26-2.713,0.568-4.04,0.927
		C175.286,44.869,175.466,45.146,175.81,45.318z"/>
	<path fill="#D7DFE2" d="M151.538,50.869c-0.512,2.216,3.129,2.723,4.766,2.723c0-0.59-0.59-1.182-0.455-1.594
		c-0.221-0.297-0.524-0.563-0.871-0.796C153.8,51.285,152.653,51.195,151.538,50.869z"/>
	<path fill="#D7DFE2" d="M179.931,89.863c0.592,0.68,2.389,1.037,3.953,0.729c1.564-0.305,2.301-1.053,1.705-1.609
		c-0.594-0.555-2.291-0.797-3.854-0.615C180.173,88.551,179.339,89.186,179.931,89.863z"/>
	<path fill="#D7DFE2" d="M181.001,76.205c-1.053,0.439-2.236,1.031-2.236,1.623c-0.592,2.363,3.547,2.363,4.09-0.221
		C182.589,76.406,181.79,75.781,181.001,76.205z"/>
	<path fill="#D7DFE2" d="M176.991,71.324c1.182-0.59,1.773-2.363,1.656-3.664c0.189-1.727-0.086-2.994-0.725-2.885
		C175.81,66.596,175.81,68.961,176.991,71.324z"/>
	<path fill="#D7DFE2" d="M179.872,51.152c-2.289,1.258-2.881,3.623-2.881,5.986c1.773-0.59,2.365-1.771,2.676-2.859
		C180.442,52.615,180.544,51.27,179.872,51.152z"/>
	<path fill="#D7DFE2" d="M175.39,115.348c-1.184,2.365-1.184,4.729,0.93,6.551c0.641,0.109,0.916-1.158,0.725-2.885
		C177.163,117.713,176.571,115.939,175.39,115.348z"/>
	<path fill="#D7DFE2" d="M168.888,104.117c0,1.184,1.773,0.59,2.496,0.719c1.338-0.355,2.438-1.201,2.498-1.982
		C172.435,99.979,168.888,102.344,168.888,104.117z"/>
	<path fill="#D7DFE2" d="M174.849,144.271c1.324,0.408,2.721-0.016,2.91-0.969c-0.596-1.947-2.369-2.539-3.553-1.947
		C173.024,141.945,173.616,143.721,174.849,144.271z"/>
	<path fill="#D7DFE2" d="M192.36,53.592c1.773,0,2.955-1.182,4.203-1.195c0.867-0.67,0.98-1.809,0.205-2.561
		C194.134,50.047,192.95,51.229,192.36,53.592z"/>
	<path fill="#D7DFE2" d="M197.575,70.637c-1.164-0.469-1.932,0.012-1.672,1.107c0.258,1.094,1.492,2.27,2.707,2.598
		c1.217,0.33,1.914-0.207,1.604-1.164C199.905,72.225,198.741,71.107,197.575,70.637z"/>
	<path fill="#D7DFE2" d="M203.415,57.547c-2.779-0.998-3.371,0.184-3.371,1.367c0,1.771,1.773,2.363,3.676,1.041
		C204.407,59.23,204.261,58.18,203.415,57.547z"/>
	<path fill="#D7DFE2" d="M172.985,81.838c-0.723,0.127-2.496-0.465-2.496,0.719c0,1.773,3.547,4.137,4.994,1.262
		C175.423,83.037,174.323,82.193,172.985,81.838z"/>
	<path fill="#D7DFE2" d="M187.626,153.189c1.51-0.016,2.916-0.746,3.088-1.541c-1.139-2.018-4.686-1.428-5.275,0.346
		C185.438,152.584,187.212,153.178,187.626,153.189z"/>
	<path fill="#D7DFE2" d="M187.024,51.094c-2.348,0.727-3.531,3.092-3.531,5.455c1.773-0.592,2.365-1.773,3.348-3.08
		C187.794,51.982,187.884,50.967,187.024,51.094z"/>
	<path fill="#D7DFE2" d="M187.632,73.691c1.773,0.59,2.363-1.775,2.25-3.82c-0.186-1.094-0.984-1.35-1.822-0.521
		C187.04,70.734,186.45,73.1,187.632,73.691z"/>
	<path fill="#D7DFE2" d="M183.493,66.596c1.773,1.775,1.184-2.363,2.572-3.41c0.34-1.459-0.027-2.217-0.906-1.711
		C184.085,63.049,181.722,65.414,183.493,66.596z"/>
	<path fill="#D7DFE2" d="M181.251,109.064c-0.541-2.582-4.68-2.582-4.088-0.219c0,0.59,1.182,1.184,2.236,1.623
		C180.187,110.893,180.987,110.266,181.251,109.064z"/>
	<path fill="#D7DFE2" d="M183.987,97.689c0.594-0.555-0.141-1.303-1.705-1.609s-3.361,0.049-3.953,0.729s0.242,1.314,1.805,1.498
		C181.696,98.488,183.394,98.244,183.987,97.689z"/>
	<path fill="#D7DFE2" d="M178.065,132.395c-0.312-1.088-0.902-2.27-2.676-2.861c0,2.365,0.592,4.729,2.879,5.986
		C178.942,135.404,178.841,134.057,178.065,132.395z"/>
	<path fill="#D7DFE2" d="M172.761,150.121c1.205,0.209,2.76,0.297,3.963-0.115c1.203-0.414,1.482-1.107,0.264-1.512
		c-1.219-0.406-3.477-0.646-5.098-0.48C170.899,149.262,171.708,150.121,172.761,150.121z"/>
	<path fill="#D7DFE2" d="M185.663,145.789c0.949,0.041,1.785-0.914,1.559-2.158c-0.01-1.686-1.193-2.275-2.375-2.275
		C183.073,142.537,183.665,144.902,185.663,145.789z"/>
	<path fill="#D7DFE2" d="M184.464,123.488c-1.391-1.047-0.799-5.186-2.572-3.412c-1.773,1.182,0.592,3.547,1.666,5.123
		C184.437,125.705,184.802,124.947,184.464,123.488z"/>
	<path fill="#D7DFE2" d="M185.423,135.578c0.857,0.129,0.768-0.889-0.184-2.373c-0.982-1.307-1.574-2.49-3.348-3.08
		C181.892,132.488,183.073,134.854,185.423,135.578z"/>
	<path fill="#D7DFE2" d="M170.257,135.555c1.088,0.357,1.656-0.479,1.291-1.785c-0.887-1.281-1.479-3.645-3.252-1.871
		C167.706,133.08,168.888,134.262,170.257,135.555z"/>
	<path fill="#D7DFE2" d="M166.685,88.631c0.529,1.068,2.027,2.086,3.295,2.26c1.266,0.174,1.799-0.445,1.234-1.363
		c-0.562-0.918-1.984-1.902-3.219-2.229C166.761,86.975,166.153,87.561,166.685,88.631z"/>
	<path fill="#D7DFE2" d="M167.47,73.242c-0.574,0.744-0.207,1.992,0.82,2.678c1.025,0.689,2.26,0.564,2.764-0.178
		c0.504-0.744,0.141-1.82-0.814-2.504C169.286,72.553,168.046,72.498,167.47,73.242z"/>
	<path fill="#D7DFE2" d="M169.899,66.596c0.59,1.182,1.771,0.592,2.744,0.189c0.424-1.654,0.322-3.463-0.203-3.914
		C169.899,63.049,169.308,64.824,169.899,66.596z"/>
	<path fill="#D7DFE2" d="M171.858,51.119c-1.369,1.291-2.551,2.473-1.959,3.656c1.771,1.773,2.363-0.59,3.25-1.871
		C173.515,51.598,172.946,50.76,171.858,51.119z"/>
	<path fill="#D7DFE2" d="M168.638,113.434c0.955-0.684,1.316-1.758,0.814-2.502c-0.504-0.744-1.738-0.867-2.766-0.18
		c-1.025,0.686-1.393,1.936-0.818,2.68S167.683,114.119,168.638,113.434z"/>
	<path fill="#D7DFE2" d="M170.837,123.803c0.527-0.453,0.629-2.26,0.205-3.914c-0.973-0.402-2.154-0.994-2.746,0.188
		C167.706,121.85,168.296,123.623,170.837,123.803z"/>
</g>
<path id="white_x5F_lines" fill="#FFFFFF" d="M130.56,174.566c9.319,14.387,19.49,27.278,30.436,38.586
	c0.303-0.168,0.598-0.341,0.896-0.511c-10.486-10.808-20.265-23.073-29.262-36.724c16.258,10.52,32.053,18.04,46.212,23.425
	c0.243-0.259,0.485-0.526,0.727-0.792c-14.741-5.576-31.283-13.479-48.28-24.699c-4.193-6.484-8.223-13.26-12.063-20.345
	c-2.538-4.746-4.983-9.503-7.38-14.241c25.75,15.151,51.485,31.113,75.273,49.268c0.168-0.291,0.35-0.576,0.511-0.869
	c-24.219-18.471-50.433-34.67-76.626-50.053c-2.836-5.631-5.592-11.228-8.298-16.727c-1.903-3.869-3.796-7.713-5.696-11.531
	c-0.309,0.127-0.611,0.268-0.919,0.398c1.907,3.832,3.807,7.69,5.718,11.574c2.485,5.051,5.016,10.186,7.608,15.354
	c-7.528-4.412-15.053-8.764-22.523-13.08c-2.483-1.436-4.987-2.885-7.487-4.333c-0.29,0.216-0.574,0.438-0.861,0.658
	c2.623,1.52,5.244,3.036,7.849,4.541c7.91,4.57,15.88,9.181,23.853,13.86c2.621,5.203,5.309,10.436,8.1,15.654
	c3.474,6.406,7.103,12.558,10.865,18.477c-18.219-12.292-36.88-28.408-54.32-49.551c-0.252,0.219-0.51,0.43-0.76,0.651
	C92.243,145.515,111.671,162.075,130.56,174.566z"/>
</svg>
