<?xml version="1.0" encoding="utf-8"?>
<!-- Generator: Adobe Illustrator 16.0.0, SVG Export Plug-In . SVG Version: 6.00 Build 0)  -->
<!DOCTYPE svg PUBLIC "-//W3C//DTD SVG 1.1//EN" "http://www.w3.org/Graphics/SVG/1.1/DTD/svg11.dtd">
<svg version="1.1" id="Layer_1" xmlns="http://www.w3.org/2000/svg" xmlns:xlink="http://www.w3.org/1999/xlink" x="0px" y="0px"
	 width="351px" height="351px" viewBox="0 0 351 351" enable-background="new 0 0 351 351" xml:space="preserve">
<g id="orange">
	<g>
		<path fill="#F48272" d="M237.055,243.565c1.758,10.538-5.549,19.151-16.225,19.151h-90.652c-10.678,0-17.977-8.613-16.221-19.151
			l16.459-98.726c1.754-10.538,11.93-19.151,22.604-19.151h44.967c10.682,0,20.855,8.613,22.611,19.151L237.055,243.565z"/>
	</g>
</g>
<g id="blue2">
	<g>
		<path fill="#345568" d="M260.033,280.536c0,2.75-2.25,5-5,5H95.98c-2.75,0-5-2.25-5-5v-35.658c0-2.75,2.25-5,5-5h159.053
			c2.75,0,5,2.25,5,5V280.536z"/>
	</g>
</g>
<g id="blue1">
	<g>
		<g>
			<path fill="#345568" d="M175.5,98.267c-0.828,0-1.5-0.672-1.5-1.5V66.964c0-0.828,0.672-1.5,1.5-1.5s1.5,0.672,1.5,1.5v29.803
				C177,97.595,176.328,98.267,175.5,98.267z"/>
		</g>
	</g>
	<g>
		<g>
			<g>
				<path fill="#345568" d="M285.438,158.159h-29.803c-0.828,0-1.5-0.672-1.5-1.5s0.672-1.5,1.5-1.5h29.803
					c0.828,0,1.5,0.672,1.5,1.5S286.266,158.159,285.438,158.159z"/>
			</g>
		</g>
		<g>
			<g>
				<path fill="#345568" d="M95.365,158.159H65.562c-0.828,0-1.5-0.672-1.5-1.5s0.672-1.5,1.5-1.5h29.803c0.828,0,1.5,0.672,1.5,1.5
					S96.193,158.159,95.365,158.159z"/>
			</g>
		</g>
	</g>
	<g>
		<g>
			<path fill="#345568" d="M127.244,114.39c-0.383,0-0.768-0.146-1.061-0.439l-21.076-21.076c-0.586-0.586-0.586-1.535,0-2.121
				s1.535-0.586,2.121,0l21.076,21.076c0.586,0.586,0.586,1.535,0,2.121C128.012,114.243,127.629,114.39,127.244,114.39z"/>
		</g>
	</g>
	<g>
		<g>
			<path fill="#345568" d="M223.762,114.39c-0.383,0-0.768-0.146-1.061-0.439c-0.586-0.586-0.586-1.535,0-2.121l21.076-21.076
				c0.586-0.586,1.535-0.586,2.121,0s0.586,1.535,0,2.121l-21.076,21.076C224.529,114.243,224.146,114.39,223.762,114.39z"/>
		</g>
	</g>
</g>
<g id="white">
	<g>
		<path fill="#FFFFFF" d="M125.947,233.171c-0.082,0-0.166-0.007-0.25-0.021c-0.816-0.136-1.369-0.909-1.232-1.727l13.004-77.999
			c0.137-0.817,0.904-1.37,1.727-1.232c0.816,0.136,1.369,0.909,1.232,1.727l-13.004,77.999
			C127.303,232.651,126.666,233.171,125.947,233.171z"/>
	</g>
	<g>
		<path fill="#FFFFFF" d="M139.926,149.177c-0.082,0-0.164-0.007-0.248-0.021c-0.816-0.136-1.369-0.909-1.232-1.727l0.557-3.344
			c0.137-0.817,0.908-1.366,1.727-1.232c0.816,0.136,1.369,0.909,1.232,1.727l-0.557,3.344
			C141.281,148.657,140.646,149.177,139.926,149.177z"/>
	</g>
</g>
</svg>
