<?xml version="1.0" encoding="utf-8"?>
<!-- Generator: Adobe Illustrator 16.0.0, SVG Export Plug-In . SVG Version: 6.00 Build 0)  -->
<!DOCTYPE svg PUBLIC "-//W3C//DTD SVG 1.1//EN" "http://www.w3.org/Graphics/SVG/1.1/DTD/svg11.dtd">
<svg version="1.1" id="Layer_1" xmlns="http://www.w3.org/2000/svg" xmlns:xlink="http://www.w3.org/1999/xlink" x="0px" y="0px"
	 width="351px" height="351px" viewBox="0 0 351 351" enable-background="new 0 0 351 351" xml:space="preserve">
<g id="cilynder2">
	<path fill="#F38173" d="M108.017,252.842h-3.487c-0.713,0-1.48-0.555-1.706-1.229l-2.166-5.232c-0.319-0.635-0.17-1.568,0.334-2.07
		l2.468-2.471c0.504-0.504,0.504-1.326,0-1.831l-8.228-8.226c-0.504-0.503-1.327-0.503-1.83,0l-2.47,2.469
		c-0.504,0.504-1.436,0.653-2.071,0.334l-5.231-2.168c-0.677-0.227-1.229-0.994-1.229-1.707v-3.485c0-0.712-0.582-1.294-1.294-1.294
		H69.47c-0.711,0-1.294,0.582-1.294,1.294v3.485c0,0.713-0.553,1.48-1.229,1.707l-5.23,2.168c-0.635,0.319-1.568,0.17-2.071-0.334
		l-2.472-2.469c-0.503-0.503-1.326-0.503-1.83,0l-8.227,8.226c-0.505,0.505-0.505,1.327-0.002,1.831l2.47,2.471
		c0.505,0.502,0.654,1.436,0.333,2.07l-2.166,5.232c-0.226,0.674-0.992,1.229-1.706,1.229H42.56c-0.712,0-1.295,0.58-1.295,1.293
		v11.636c0,0.712,0.583,1.295,1.295,1.295h3.485c0.714,0,1.48,0.552,1.706,1.229l2.166,5.231c0.321,0.637,0.172,1.568-0.333,2.07
		l-2.47,2.472c-0.503,0.503-0.503,1.327,0,1.831l8.229,8.229c0.504,0.502,1.327,0.502,1.833,0l2.469-2.47
		c0.503-0.503,1.437-0.653,2.071-0.331l5.23,2.163c0.677,0.226,1.229,0.993,1.229,1.706v3.487c0,0.712,0.583,1.296,1.294,1.296
		h11.636c0.712,0,1.294-0.584,1.294-1.296v-3.487c0-0.713,0.553-1.48,1.229-1.706l5.231-2.163c0.636-0.322,1.567-0.172,2.071,0.331
		l2.47,2.47c0.503,0.502,1.326,0.502,1.83,0l8.228-8.229c0.504-0.504,0.504-1.328,0-1.831l-2.468-2.472
		c-0.504-0.502-0.653-1.434-0.334-2.07l2.166-5.231c0.226-0.677,0.993-1.229,1.706-1.229h3.487c0.711,0,1.293-0.583,1.293-1.295
		v-11.636C109.31,253.422,108.728,252.842,108.017,252.842z M75.287,281.095c-11.677,0-21.143-9.467-21.143-21.142
		c0-11.677,9.466-21.144,21.143-21.144c11.679,0,21.146,9.467,21.146,21.144C96.433,271.629,86.966,281.095,75.287,281.095z"/>
</g>
<path id="cilynder1" fill="#345569" d="M206.719,174.015c-4.349-4.349-10.13-6.744-16.28-6.744c-6.149,0-11.931,2.395-16.279,6.744
	c-4.349,4.348-6.744,10.129-6.744,16.279s2.395,11.932,6.744,16.279c4.349,4.349,10.13,6.744,16.28,6.744
	c6.149,0,11.932-2.396,16.28-6.744c4.349-4.348,6.743-10.129,6.743-16.278S211.067,178.364,206.719,174.015z M210.463,190.296
	c0,4.844-1.723,9.415-4.855,13.045l-8.464-8.463c1.884-2.754,1.884-6.413,0-9.166l8.463-8.463
	C208.739,180.88,210.463,185.451,210.463,190.296z M185.93,187.907l2.389,2.388l-2.389,2.388
	C185.141,191.188,185.141,189.401,185.93,187.907z M188.05,185.784c0.73-0.388,1.539-0.615,2.39-0.615s1.658,0.228,2.389,0.615
	l-2.389,2.39L188.05,185.784z M190.439,192.416l2.39,2.389c-0.73,0.389-1.539,0.616-2.39,0.616s-1.659-0.228-2.39-0.615
	L190.439,192.416z M192.561,190.295l2.387-2.388c0.789,1.494,0.789,3.28,0,4.774L192.561,190.295z M203.485,175.128l-8.461,8.461
	c-1.341-0.921-2.924-1.42-4.585-1.42c-1.662,0-3.245,0.499-4.586,1.419l-8.461-8.46c3.631-3.133,8.202-4.856,13.046-4.856
	C195.283,170.271,199.854,171.995,203.485,175.128z M170.415,190.295c0-4.845,1.724-9.416,4.856-13.046l8.463,8.462
	c-1.885,2.754-1.885,6.414-0.001,9.168l-8.462,8.462C172.139,199.711,170.415,195.139,170.415,190.295z M177.393,205.462l8.461-8.46
	c1.341,0.92,2.924,1.419,4.586,1.419c1.661,0,3.244-0.499,4.585-1.42l8.462,8.461c-3.631,3.133-8.202,4.856-13.047,4.856
	S181.023,208.594,177.393,205.462z"/>
<g id="lines">
	<path fill="#345569" d="M161.243,264.773v12.193h149.494v-12.193H191.938V217.57l14.615-10.853l-1.789-2.408l-12.826,9.524v-16.913
		h-3v19.141l-93.598,69.505l-0.002-0.003c-5.768,4.524-12.702,6.915-20.053,6.915c-17.934,0-32.523-14.59-32.523-32.523
		c0-12.408,6.893-23.55,17.99-29.101l0.001,0.003l121.198-58.705l-1.309-2.7L59.482,228.14l-0.003-0.006
		c-12.162,6.05-19.717,18.243-19.717,31.82c0,19.588,15.936,35.523,35.523,35.523h172.612c3.953,0,7.17-3.216,7.17-7.169v-7.98h-3
		v7.98c0,2.299-1.871,4.169-4.17,4.169H89.614c2.623-1.16,5.116-2.646,7.438-4.45l0.001,0.002l91.885-68.231v44.975H161.243z"/>
	<path fill="#345569" d="M163.006,146.297h84.799c2.299,0,4.169,1.87,4.169,4.169v15.784h3v-15.784c0-3.953-3.216-7.169-7.169-7.169
		h-84.799c-2.299,0-4.17-1.87-4.17-4.169V125.4h0.03V78.903c0-2.299,1.87-4.169,4.169-4.169h123.936c2.299,0,4.169,1.87,4.169,4.169
		v11.694h3V78.903c0-3.953-3.216-7.169-7.169-7.169H163.035c-3.953,0-7.169,3.216-7.169,7.169v29.444h-0.03v30.78
		C155.836,143.081,159.052,146.297,163.006,146.297z"/>
</g>
<g id="pump">
	<polygon fill="#345569" points="268.368,184.488 275.78,178.683 268.368,172.877 238.775,172.877 231.361,178.683 238.775,184.488 
		231.361,190.295 238.775,196.101 231.361,201.906 238.775,207.713 231.361,213.518 238.775,219.324 231.361,225.131 
		238.775,230.936 231.361,236.742 238.775,242.549 231.361,248.353 238.775,254.16 268.368,254.16 275.78,248.353 268.368,242.549 
		275.78,236.742 268.368,230.936 275.78,225.131 268.368,219.324 275.78,213.518 268.368,207.713 275.78,201.906 268.368,196.101 
		275.78,190.295 	"/>
	<path fill="#F38173" d="M226.526,264.773h54.089V254.16h-54.089V264.773z M258.097,162.263v-5.848h-9.052v5.848h-22.519v10.613
		h54.089v-10.613H258.097z"/>
	<path fill="#D6DEE1" d="M231.361,249.853h44.419v-3h-44.419V249.853z M231.361,238.242h44.419v-3h-44.419V238.242z
		 M231.361,226.631h44.419v-3h-44.419V226.631z M231.361,215.018h44.419v-3h-44.419V215.018z M231.361,203.406h44.419v-3h-44.419
		V203.406z M231.361,191.795h44.419v-3h-44.419V191.795z M231.361,177.183v3h44.419v-3H231.361z"/>
	<g>
		<rect x="236.433" y="276.967" fill="#F38173" width="34.274" height="6.726"/>
	</g>
</g>
<g id="filters">
	<g>
		<rect x="249.274" y="56.021" fill="#F38173" width="6.726" height="34.274"/>
	</g>
	<g>
		<rect x="152.81" y="99.15" fill="#F38173" width="9.053" height="20.676"/>
	</g>
</g>
</svg>
