<?xml version="1.0" encoding="utf-8"?>
<!-- Generator: Adobe Illustrator 16.0.0, SVG Export Plug-In . SVG Version: 6.00 Build 0)  -->
<!DOCTYPE svg PUBLIC "-//W3C//DTD SVG 1.1//EN" "http://www.w3.org/Graphics/SVG/1.1/DTD/svg11.dtd">
<svg version="1.1" id="Layer_1" xmlns="http://www.w3.org/2000/svg" xmlns:xlink="http://www.w3.org/1999/xlink" x="0px" y="0px"
	 width="351px" height="351px" viewBox="0 0 351 351" enable-background="new 0 0 351 351" xml:space="preserve">
<g id="blue_x5F_line">
	<path fill="#345568" d="M36.745,311.476c-0.248,0-0.5-0.062-0.731-0.191c-0.723-0.404-0.98-1.318-0.576-2.042l36.454-65.091
		c0.265-0.474,0.766-0.767,1.309-0.767h85.599l43.698-83.97c0.104-0.2,0.252-0.374,0.433-0.508L318.108,72.69
		c0.663-0.497,1.603-0.361,2.1,0.302c0.496,0.663,0.361,1.604-0.303,2.1l-114.904,86.012l-43.961,84.474
		c-0.258,0.496-0.771,0.808-1.331,0.808h-85.63l-36.024,64.324C37.78,311.199,37.27,311.476,36.745,311.476z"/>
</g>
<g id="orange_x5F_line">
	<path fill="#F48272" d="M31.556,287.04c-0.583,0-1.136-0.341-1.38-0.909c-0.326-0.762,0.027-1.644,0.788-1.97l68.465-29.325
		c0.187-0.08,0.388-0.121,0.591-0.121h40.973l71.874-60.833l24.972-103.334c0.163-0.673,0.766-1.147,1.458-1.147h81.149
		c0.828,0,1.5,0.671,1.5,1.5s-0.672,1.5-1.5,1.5h-79.969l-24.81,102.662c-0.075,0.31-0.246,0.587-0.489,0.792l-72.667,61.505
		c-0.271,0.229-0.614,0.355-0.969,0.355h-41.215l-68.182,29.204C31.953,287.001,31.752,287.04,31.556,287.04z"/>
</g>
<g id="dashed_x5F_line">
	<path fill="#345568" d="M155.274,243.465c-0.02,0-0.04,0-0.06-0.001c-0.828-0.032-1.472-0.73-1.44-1.558l0.102-2.586
		c0.033-0.828,0.713-1.492,1.558-1.44c0.828,0.032,1.472,0.73,1.44,1.558l-0.102,2.586
		C156.741,242.831,156.076,243.465,155.274,243.465z M155.846,228.888c-0.02,0-0.04,0-0.06-0.001
		c-0.828-0.032-1.473-0.73-1.44-1.558l0.47-11.99c0.033-0.828,0.734-1.488,1.558-1.44c0.828,0.032,1.473,0.73,1.44,1.558
		l-0.47,11.99C157.312,228.254,156.647,228.888,155.846,228.888z M156.787,204.906c-0.02,0-0.04,0-0.06-0.001
		c-0.828-0.032-1.473-0.73-1.44-1.558l0.47-11.99c0.033-0.828,0.735-1.485,1.558-1.44c0.828,0.032,1.473,0.73,1.44,1.558
		l-0.47,11.99C158.253,204.272,157.588,204.906,156.787,204.906z M157.727,180.925c-0.02,0-0.04,0-0.06-0.001
		c-0.828-0.032-1.473-0.73-1.44-1.558l0.471-11.991c0.033-0.829,0.715-1.46,1.558-1.44c0.828,0.033,1.472,0.73,1.44,1.558
		l-0.471,11.99C159.193,180.291,158.528,180.925,157.727,180.925z M165.589,159.908c-0.376,0-0.753-0.141-1.044-0.423
		c-0.595-0.577-0.61-1.526-0.033-2.121l8.354-8.615c0.577-0.595,1.527-0.609,2.121-0.033c0.595,0.577,0.61,1.526,0.033,2.121
		l-8.354,8.615C166.372,159.755,165.981,159.908,165.589,159.908z M182.296,142.678c-0.376,0-0.753-0.141-1.044-0.423
		c-0.595-0.577-0.609-1.526-0.033-2.121l8.354-8.615c0.577-0.594,1.527-0.609,2.121-0.033c0.595,0.577,0.609,1.526,0.033,2.121
		l-8.354,8.615C183.079,142.525,182.688,142.678,182.296,142.678z M195.525,123.544c-0.113,0-0.229-0.013-0.345-0.041
		c-0.807-0.19-1.307-0.998-1.116-1.804l2.752-11.68c0.189-0.806,0.994-1.31,1.804-1.116c0.807,0.19,1.307,0.998,1.116,1.804
		l-2.752,11.68C196.821,123.079,196.206,123.544,195.525,123.544z M201.029,100.184c-0.113,0-0.229-0.013-0.345-0.041
		c-0.807-0.19-1.307-0.998-1.116-1.804l2.753-11.68c0.19-0.805,0.995-1.308,1.804-1.116c0.807,0.19,1.307,0.998,1.116,1.804
		l-2.753,11.68C202.325,99.718,201.71,100.184,201.029,100.184z M206.534,76.824c-0.113,0-0.229-0.013-0.345-0.041
		c-0.807-0.19-1.307-0.998-1.116-1.804l2.47-10.479c0.116-0.494,0.475-0.895,0.951-1.067l1.16-0.418
		c0.778-0.281,1.64,0.123,1.92,0.903c0.281,0.779-0.123,1.639-0.902,1.919l-0.396,0.143l-2.283,9.688
		C207.83,76.358,207.215,76.824,206.534,76.824z M221.453,61.859c-0.614,0-1.191-0.381-1.411-0.992
		c-0.281-0.779,0.123-1.639,0.902-1.919l11.29-4.067c0.777-0.28,1.64,0.123,1.92,0.903c0.281,0.779-0.123,1.639-0.902,1.919
		l-11.29,4.067C221.794,61.831,221.622,61.859,221.453,61.859z M244.033,53.726c-0.614,0-1.191-0.381-1.411-0.992
		c-0.281-0.779,0.123-1.639,0.902-1.919l11.289-4.067c0.777-0.282,1.64,0.123,1.92,0.903c0.281,0.779-0.123,1.639-0.902,1.919
		l-11.289,4.067C244.374,53.697,244.202,53.726,244.033,53.726z M266.612,45.592c-0.614,0-1.191-0.38-1.411-0.992
		c-0.281-0.779,0.123-1.639,0.902-1.919l11.29-4.067c0.777-0.281,1.64,0.123,1.92,0.903c0.281,0.779-0.123,1.639-0.902,1.919
		l-11.29,4.067C266.953,45.563,266.781,45.592,266.612,45.592z"/>
</g>
<g id="circles">
	<g id="c3">
		<circle fill="#F48272" cx="227.614" cy="143.346" r="11.354"/>
		<path fill="#345568" d="M227.612,156.2c-7.087,0-12.853-5.767-12.853-12.854c0-7.087,5.766-12.854,12.853-12.854
			c7.089,0,12.855,5.766,12.855,12.854C240.468,150.434,234.701,156.2,227.612,156.2z M227.612,133.492
			c-5.433,0-9.853,4.42-9.853,9.854c0,5.434,4.42,9.854,9.853,9.854c5.435,0,9.855-4.421,9.855-9.854
			C237.468,137.913,233.047,133.492,227.612,133.492z"/>
	</g>
	<g id="c2">
		<circle fill="#F48272" cx="294.765" cy="90.9" r="11.355"/>
		<path fill="#345568" d="M294.765,103.754c-7.088,0-12.854-5.766-12.854-12.854c0-7.088,5.767-12.854,12.854-12.854
			c7.089,0,12.855,5.767,12.855,12.854C307.62,97.988,301.854,103.754,294.765,103.754z M294.765,81.046
			c-5.434,0-9.854,4.421-9.854,9.854c0,5.433,4.421,9.854,9.854,9.854c5.435,0,9.855-4.42,9.855-9.854
			C304.62,85.467,300.199,81.046,294.765,81.046z"/>
	</g>
	<g id="c1">
		<circle fill="#F48272" cx="155.272" cy="241.965" r="11.354"/>
		<path fill="#345568" d="M155.273,254.82c-7.088,0-12.855-5.767-12.855-12.855c0-7.088,5.767-12.854,12.855-12.854
			c7.087,0,12.854,5.767,12.854,12.854C168.127,249.054,162.361,254.82,155.273,254.82z M155.273,232.11
			c-5.434,0-9.855,4.421-9.855,9.854c0,5.435,4.421,9.855,9.855,9.855c5.433,0,9.854-4.421,9.854-9.855
			C165.127,236.531,160.707,232.11,155.273,232.11z"/>
	</g>
</g>
</svg>
