<?xml version="1.0" encoding="utf-8"?>
<!-- Generator: Adobe Illustrator 16.0.0, SVG Export Plug-In . SVG Version: 6.00 Build 0)  -->
<!DOCTYPE svg PUBLIC "-//W3C//DTD SVG 1.1//EN" "http://www.w3.org/Graphics/SVG/1.1/DTD/svg11.dtd">
<svg version="1.1" id="Layer_1" xmlns="http://www.w3.org/2000/svg" xmlns:xlink="http://www.w3.org/1999/xlink" x="0px" y="0px"
	 width="351px" height="351px" viewBox="0 0 351 351" enable-background="new 0 0 351 351" xml:space="preserve">
<g>
	<path id="bag" fill="#F48272" d="M247.43,193.771c-13.1-22.688-34.521-59.799-47.621-82.486
		c-4.082-7.069-8.973-11.935-14.17-14.597c3.55-6.146,7.883-13.651,10.79-18.681c3.737-6.485,0.682-0.559-6.813-5.754
		c-7.487-5.189-19.742-5.189-27.238,0c-7.482,5.195-10.547-0.731-6.801,5.754c2.905,5.028,7.236,12.534,10.783,18.68
		c-5.197,2.662-10.09,7.526-14.172,14.598c-13.095,22.688-34.521,59.798-47.611,82.486c-13.108,22.676-2.391,56.09,23.799,74.247
		c26.199,18.159,69.052,18.159,95.246,0C249.807,249.861,260.529,216.447,247.43,193.771z"/>
	<path id="tag" fill="#345568" d="M193.577,97.145c0,1.701-1.394,3.096-3.093,3.096h-28.963c-1.701,0-3.102-1.395-3.102-3.096
		v-7.094c0-1.699,1.4-3.095,3.102-3.095h28.963c1.699,0,3.093,1.396,3.093,3.095V97.145z"/>
	<g id="dollar">
		<path fill="#345568" d="M191.373,198.09c0,3.266-1.205,6.178-3.592,8.721c-2.395,2.539-5.736,3.994-10.043,4.346v5.33h-3.684
			v-5.33c-3.941-0.31-7.167-1.507-9.67-3.588c-2.494-2.086-3.754-4.812-3.754-8.197h6.382c0.133,1.805,0.781,3.318,1.95,4.539
			c1.154,1.23,2.859,1.969,5.092,2.234v-16.121c-4.51-1.006-7.587-2.145-9.213-3.422c-1.975-1.575-3.191-3.264-3.679-5.061
			c-0.353-1.184-0.532-2.521-0.532-4.012c0-3.559,1.21-6.496,3.621-8.822c2.416-2.326,5.688-3.644,9.803-3.949v-5.33h3.684v5.33
			c3.695,0.306,6.672,1.461,8.959,3.455c2.277,2.002,3.616,4.662,4.003,7.998h-6.573c-0.129-1.447-0.752-2.767-1.865-3.953
			c-1.131-1.177-2.628-1.971-4.523-2.363v15.787c5.482,1.148,9.088,2.639,10.796,4.475
			C190.43,192.182,191.373,194.822,191.373,198.09z M168.567,171.996c-1.38,1.271-2.075,3.008-2.075,5.2s0.645,3.827,1.938,4.905
			c1.293,1.076,3.168,1.961,5.625,2.66v-15.007C171.772,169.979,169.943,170.724,168.567,171.996z M183.434,203.553
			c1.385-1.424,2.078-3.176,2.078-5.268c0-2.08-0.674-3.664-2.008-4.74c-1.334-1.075-3.264-1.938-5.766-2.594v15.193
			C180.158,205.844,182.053,204.979,183.434,203.553z"/>
	</g>
</g>
</svg>
