<?xml version="1.0" encoding="utf-8"?>
<!-- Generator: Adobe Illustrator 16.0.0, SVG Export Plug-In . SVG Version: 6.00 Build 0)  -->
<!DOCTYPE svg PUBLIC "-//W3C//DTD SVG 1.1//EN" "http://www.w3.org/Graphics/SVG/1.1/DTD/svg11.dtd">
<svg version="1.1" id="Layer_1" xmlns="http://www.w3.org/2000/svg" xmlns:xlink="http://www.w3.org/1999/xlink" x="0px" y="0px"
	 width="201px" height="201px" viewBox="0 0 201 201" enable-background="new 0 0 201 201" xml:space="preserve">
<g id="circle_x5F_white">
	<circle fill="#FFFFFF" cx="100.491" cy="100.49" r="71.594"/>
</g>
<g id="ciricle_x5F_blue">
	<circle fill="#D7DFE2" cx="100.491" cy="100.49" r="71.594"/>
</g>
<g id="bag_x5F_big">
	<g>
		<g>
			<path fill="#345568" d="M144.618,27.47h-1.644c0-4.307-3.504-7.812-7.812-7.812s-7.812,3.505-7.812,7.812h-1.643
				c0-5.213,4.241-9.454,9.454-9.454C140.377,18.016,144.618,22.257,144.618,27.47z"/>
		</g>
		<g>
			<rect x="125.709" y="27.47" fill="#345568" width="1.643" height="13.659"/>
		</g>
		<g>
			<rect x="142.977" y="27.47" fill="#345568" width="1.643" height="13.659"/>
		</g>
	</g>
	<g>
		<rect x="104.836" y="50.515" fill="#345568" width="60.65" height="99.799"/>
	</g>
	<g>
		<rect x="104.836" y="38.964" fill="#F48272" width="60.65" height="11.551"/>
	</g>
	<g>
		<polygon fill="#345568" points="113.602,44.738 104.836,50.515 104.836,38.964 		"/>
	</g>
	<g>
		<polygon fill="#345568" points="156.725,44.738 165.486,50.515 165.486,38.964 		"/>
	</g>
	<g>
		<g>
			<path fill="#345568" d="M144.618,38.616h-1.644c0-4.307-3.504-7.812-7.812-7.812s-7.812,3.506-7.812,7.812h-1.643
				c0-5.213,4.241-9.454,9.454-9.454C140.377,29.162,144.618,33.403,144.618,38.616z"/>
		</g>
		<g>
			<rect x="125.709" y="38.616" fill="#345568" width="1.643" height="13.659"/>
		</g>
		<g>
			<rect x="142.977" y="38.616" fill="#345568" width="1.643" height="13.659"/>
		</g>
	</g>
</g>
<g id="bag_x5F_small">
	<g>
		<g>
			<path fill="#F48272" d="M89.58,54.911h-1.643c0-6.057-4.927-10.982-10.983-10.982c-6.056,0-10.981,4.926-10.981,10.982h-1.642
				c0-6.961,5.662-12.624,12.623-12.624C83.916,42.287,89.58,47.95,89.58,54.911z"/>
		</g>
		<g>
			<rect x="64.331" y="54.911" fill="#F48272" width="1.642" height="18.675"/>
		</g>
		<g>
			<rect x="87.938" y="54.911" fill="#F48272" width="1.643" height="18.675"/>
		</g>
	</g>
	<g>
		<rect x="35.493" y="86.419" fill="#F48272" width="82.922" height="68.819"/>
	</g>
	<g>
		<rect x="35.493" y="70.626" fill="#345568" width="82.922" height="15.793"/>
	</g>
	<g>
		<polygon fill="#F48272" points="47.475,78.521 35.493,86.419 35.493,70.626 		"/>
	</g>
	<g>
		<polygon fill="#F48272" points="106.434,78.521 118.415,86.419 118.415,70.626 		"/>
	</g>
	<g>
		<g>
			<path fill="#F48272" d="M89.58,70.151h-1.643c0-6.057-4.927-10.984-10.983-10.984c-6.056,0-10.981,4.928-10.981,10.984h-1.642
				c0-6.963,5.662-12.626,12.623-12.626C83.916,57.525,89.58,63.188,89.58,70.151z"/>
		</g>
		<g>
			<rect x="64.331" y="70.151" fill="#F48272" width="1.642" height="18.673"/>
		</g>
		<g>
			<rect x="87.938" y="70.151" fill="#F48272" width="1.643" height="18.673"/>
		</g>
	</g>
</g>
</svg>
