<?xml version="1.0" encoding="utf-8"?>
<!-- Generator: Adobe Illustrator 16.0.0, SVG Export Plug-In . SVG Version: 6.00 Build 0)  -->
<!DOCTYPE svg PUBLIC "-//W3C//DTD SVG 1.1//EN" "http://www.w3.org/Graphics/SVG/1.1/DTD/svg11.dtd">
<svg version="1.1" id="Layer_1" xmlns="http://www.w3.org/2000/svg" xmlns:xlink="http://www.w3.org/1999/xlink" x="0px" y="0px"
	 width="201px" height="201px" viewBox="0 0 201 201" enable-background="new 0 0 201 201" xml:space="preserve">
<g id="circle_x5F_white">
	<circle fill="#FFFFFF" cx="101" cy="99.988" r="71.594"/>
</g>
<g id="circle_x5F_blue">
	<circle fill="#D7DFE2" cx="101" cy="99.988" r="71.594"/>
</g>
<g id="face_1_">
	<path id="headphones_x5F_back" fill="#F48272" d="M64.195,80.699c0.121-4.116,0.84-8.153,2.199-12.017l-1.549-0.545
		c-1.479,4.196-2.24,8.589-2.313,13.065c-4.268,1.641-7.303,5.768-7.303,10.612c0,6.284,5.095,11.377,11.377,11.377V80.438
		C65.779,80.438,64.975,80.531,64.195,80.699z"/>
	<g id="face">
		<g id="mouth">
			<path fill="#345568" d="M93.094,123.777c-1.283,0-2.365-0.996-2.453-2.295c-0.094-1.356,0.932-2.532,2.288-2.625
				c4.129-0.281,8.157-1.891,11.34-4.525c1.049-0.869,2.598-0.725,3.469,0.324c0.867,1.05,0.722,2.603-0.325,3.47
				c-3.974,3.289-8.996,5.295-14.146,5.646C93.208,123.775,93.151,123.777,93.094,123.777z"/>
		</g>
		<path id="eyes" fill="#345568" d="M75.635,86.518c-1.463,0-2.65,1.187-2.65,2.65s1.187,2.65,2.65,2.65
			c1.464,0,2.65-1.187,2.65-2.65S77.099,86.518,75.635,86.518z M108.797,86.519c-1.461,0-2.648,1.187-2.648,2.649
			c0,1.461,1.188,2.647,2.648,2.647c1.465,0,2.652-1.186,2.652-2.647C111.449,87.705,110.262,86.519,108.797,86.519z"/>
		<g id="nose">
			<path fill="#345568" d="M92.921,106.074h-8.26c-0.879,0-1.69-0.469-2.132-1.229c-0.44-0.761-0.442-1.697-0.006-2.459
				l6.754-11.796c0.679-1.182,2.188-1.592,3.361-0.914c1.18,0.677,1.589,2.181,0.914,3.361l-4.645,8.108h4.013
				c1.359,0,2.463,1.104,2.463,2.463C95.384,104.971,94.28,106.074,92.921,106.074z"/>
		</g>
		<g id="head">
			<g>
				<path fill="#345568" d="M117.822,76.598h-18.05c-1.359,0-2.463,1.104-2.463,2.463c0,1.36,1.104,2.463,2.463,2.463h18.05
					c1.361,0,2.464-1.103,2.464-2.463S119.184,76.598,117.822,76.598z"/>
				<path fill="#345568" d="M150.782,59.918c0-9.588-7.772-17.355-17.358-17.355c-1.693,0-3.324,0.254-4.871,0.706
					c-1.353-8.239-8.486-14.531-17.104-14.531c-3.434,0-6.623,1.01-9.317,2.729c-3.183-3.824-7.976-6.261-13.341-6.261
					c-7.355,0-13.629,4.585-16.156,11.046c-1.68-0.542-3.467-0.842-5.327-0.842c-9.589,0-17.358,7.77-17.358,17.358
					c0,9.585,7.77,17.355,17.358,17.355c0.154,0,0.304-0.013,0.457-0.017l-1.208,6.497c-1.336,0.027-2.413,1.115-2.413,2.458
					c0,1.03,0.634,1.91,1.531,2.278l-10.665,57.32c-0.248,1.337,0.634,2.622,1.971,2.872c0.152,0.027,0.304,0.041,0.454,0.041
					c1.162,0,2.198-0.827,2.418-2.012L70.65,81.523h14.011c1.359,0,2.463-1.103,2.463-2.463c0-1.359-1.103-2.462-2.463-2.462H71.567
					l1.383-7.434c1.316-0.457,2.565-1.058,3.718-1.798c3.288,2.732,7.512,4.379,12.123,4.379c4.783,0,9.141-1.783,12.479-4.704
					c2.312,0.999,4.854,1.56,7.53,1.56c3.095,0,6.009-0.753,8.587-2.068c1.537,3.722,4.324,6.796,7.848,8.688
					c-0.756,1.353-1.19,2.907-1.19,4.565c0,2.07,0.679,3.977,1.812,5.528c-1.131,1.369-1.812,3.126-1.812,5.04
					c0,4.375,3.548,7.917,7.92,7.917c4.371,0,7.917-3.542,7.917-7.917c0-1.135-0.242-2.211-0.673-3.188
					c2.188-1.717,3.601-4.381,3.601-7.381c0-1.658-0.435-3.214-1.189-4.566C147.07,72.292,150.782,66.54,150.782,59.918z"/>
			</g>
			<path fill="#345568" d="M142.053,94.075c-1.338-0.233-2.619,0.649-2.859,1.989l-11.781,65.547
				c-0.241,1.339,0.648,2.619,1.988,2.859c0.146,0.026,0.293,0.039,0.438,0.039c1.169,0,2.206-0.836,2.421-2.027l11.781-65.546
				C144.282,95.597,143.393,94.316,142.053,94.075z"/>
		</g>
	</g>
	<path id="headphones_x5F_front" fill="#F48272" d="M155.788,91.815c0-6.02-4.679-10.937-10.599-11.339
		c-0.438-12.516-6.597-24.328-16.696-31.823l-0.979,1.318c9.687,7.187,15.6,18.509,16.032,30.51
		c-5.877,0.442-10.513,5.343-10.513,11.334c0,5.93,4.537,10.792,10.326,11.324c-1.092,10.947-10.354,19.524-21.584,19.524h-2.635
		c-0.363-1.291-1.533-2.242-2.938-2.242h-6.124c-1.691,0-3.062,1.371-3.062,3.063c0,1.688,1.371,3.061,3.062,3.061h6.124
		c1.403,0,2.575-0.949,2.938-2.24h2.635c12.129,0,22.115-9.302,23.227-21.143C151.01,102.854,155.788,97.9,155.788,91.815z"/>
</g>
</svg>
