<?xml version="1.0" encoding="utf-8"?>
<!-- Generator: Adobe Illustrator 16.0.0, SVG Export Plug-In . SVG Version: 6.00 Build 0)  -->
<!DOCTYPE svg PUBLIC "-//W3C//DTD SVG 1.1//EN" "http://www.w3.org/Graphics/SVG/1.1/DTD/svg11.dtd">
<svg version="1.1" id="Layer_1" xmlns="http://www.w3.org/2000/svg" xmlns:xlink="http://www.w3.org/1999/xlink" x="0px" y="0px"
	 width="201px" height="201px" viewBox="0 0 201 201" enable-background="new 0 0 201 201" xml:space="preserve">
<circle id="circle_x5F_white" fill="#FFFFFF" cx="101" cy="100" r="71.594"/>
<circle id="circle_x5F_blue" fill="#D7DFE2" cx="101" cy="100" r="71.594"/>
<g id="boxes">
	<g>
		<g>
			<rect x="94.862" y="141.965" fill="#345568" width="44.97" height="17.5"/>
			<path fill="#345568" d="M140.242,159.877h-45.79v-18.322h45.79V159.877z M95.272,159.055h44.148v-16.68H95.272V159.055z"/>
		</g>
		<g>
			<rect x="113.818" y="141.965" fill="#345568" width="7.057" height="2.746"/>
		</g>
	</g>
	<g>
		<g>
			<rect x="94.862" y="124.49" fill="#345568" width="44.97" height="17.5"/>
			<path fill="#345568" d="M140.242,142.4h-45.79v-18.32h45.79V142.4z M95.272,141.58h44.148V124.9H95.272V141.58z"/>
		</g>
		<g>
			<rect x="113.818" y="124.49" fill="#345568" width="7.057" height="2.744"/>
		</g>
	</g>
	<g>
		<g>
			<rect x="94.862" y="107.018" fill="#345568" width="44.97" height="17.5"/>
			<path fill="#345568" d="M140.242,124.93h-45.79v-18.322h45.79V124.93z M95.272,124.107h44.148v-16.68H95.272V124.107z"/>
		</g>
		<g>
			<rect x="113.818" y="107.018" fill="#345568" width="7.057" height="2.746"/>
		</g>
	</g>
	<g>
		<g>
			<rect x="94.862" y="89.543" fill="#345568" width="44.97" height="17.5"/>
			<path fill="#345568" d="M140.242,107.453h-45.79V89.131h45.79V107.453z M95.272,106.633h44.148v-16.68H95.272V106.633z"/>
		</g>
		<g>
			<rect x="113.818" y="89.543" fill="#345568" width="7.057" height="2.744"/>
		</g>
	</g>
	<g>
		<g>
			<rect x="49.89" y="141.965" fill="#345568" width="44.973" height="17.5"/>
			<path fill="#345568" d="M95.272,159.877H49.479v-18.322h45.793V159.877z M50.301,159.055h44.151v-16.68H50.301V159.055z"/>
		</g>
		<g>
			<rect x="68.847" y="141.965" fill="#345568" width="7.056" height="2.746"/>
		</g>
	</g>
	<g>
		<g>
			<rect x="49.89" y="124.49" fill="#345568" width="44.973" height="17.5"/>
			<path fill="#345568" d="M95.272,142.4H49.479v-18.32h45.793V142.4z M50.301,141.58h44.151V124.9H50.301V141.58z"/>
		</g>
		<g>
			<rect x="68.847" y="124.49" fill="#345568" width="7.056" height="2.744"/>
		</g>
	</g>
	<g>
		<g>
			<rect x="49.89" y="107.018" fill="#345568" width="44.973" height="17.5"/>
			<path fill="#345568" d="M95.272,124.93H49.479v-18.322h45.793V124.93z M50.301,124.107h44.151v-16.68H50.301V124.107z"/>
		</g>
		<g>
			<rect x="68.847" y="107.018" fill="#345568" width="7.056" height="2.746"/>
		</g>
	</g>
	<g>
		<g>
			<rect x="94.862" y="72.057" fill="#345568" width="44.97" height="17.502"/>
			<path fill="#345568" d="M140.242,89.969h-45.79V71.646h45.79V89.969z M95.272,89.148h44.148v-16.68H95.272V89.148z"/>
		</g>
		<g>
			<rect x="113.818" y="72.057" fill="#345568" width="7.057" height="2.746"/>
		</g>
	</g>
	<g>
		<g>
			<rect x="49.89" y="89.529" fill="#345568" width="44.973" height="17.502"/>
			<path fill="#345568" d="M95.272,107.441H49.479V89.119h45.793V107.441z M50.301,106.619h44.151v-16.68H50.301V106.619z"/>
		</g>
		<g>
			<rect x="68.847" y="89.529" fill="#345568" width="7.056" height="2.746"/>
		</g>
	</g>
	<g>
		<g>
			<rect x="94.862" y="54.57" fill="#345568" width="44.97" height="17.5"/>
			<path fill="#345568" d="M140.242,72.48h-45.79V54.158h45.79V72.48z M95.272,71.66h44.148V54.98H95.272V71.66z"/>
		</g>
		<g>
			<rect x="113.818" y="54.57" fill="#345568" width="7.057" height="2.744"/>
		</g>
	</g>
	<g>
		<g>
			<rect x="49.89" y="72.045" fill="#345568" width="44.973" height="17.5"/>
			<path fill="#345568" d="M95.272,89.955H49.479v-18.32h45.793V89.955z M50.301,89.135h44.151v-16.68H50.301V89.135z"/>
		</g>
		<g>
			<rect x="68.847" y="72.045" fill="#345568" width="7.056" height="2.744"/>
		</g>
	</g>
	<g>
		<g>
			<rect x="94.862" y="37.084" fill="#345568" width="44.97" height="17.502"/>
			<path fill="#345568" d="M140.242,54.996h-45.79V36.674h45.79V54.996z M95.272,54.176h44.148V37.494H95.272V54.176z"/>
		</g>
		<g>
			<rect x="113.818" y="37.084" fill="#345568" width="7.057" height="2.745"/>
		</g>
	</g>
	<g>
		<g>
			<rect x="49.89" y="54.557" fill="#345568" width="44.973" height="17.5"/>
			<path fill="#345568" d="M95.272,72.469H49.479V54.146h45.793V72.469z M50.301,71.646h44.151v-16.68H50.301V71.646z"/>
		</g>
		<g>
			<rect x="68.847" y="54.557" fill="#345568" width="7.056" height="2.746"/>
		</g>
	</g>
	<g>
		<g>
			<rect x="103.721" y="141.965" fill="#D7DFE2" width="44.969" height="17.5"/>
			<path fill="#345568" d="M149.102,159.877h-45.791v-18.322h45.791V159.877z M104.131,159.055h44.148v-16.68h-44.148V159.055z"/>
		</g>
		<g>
			<rect x="122.678" y="141.965" fill="#345568" width="7.055" height="2.746"/>
		</g>
	</g>
	<g>
		<g>
			<rect x="103.721" y="124.49" fill="#D7DFE2" width="44.969" height="17.5"/>
			<path fill="#345568" d="M149.102,142.4h-45.791v-18.32h45.791V142.4z M104.131,141.58h44.148V124.9h-44.148V141.58z"/>
		</g>
		<g>
			<rect x="122.678" y="124.49" fill="#345568" width="7.055" height="2.744"/>
		</g>
	</g>
	<g>
		<g>
			<rect x="103.721" y="107.018" fill="#D7DFE2" width="44.969" height="17.5"/>
			<path fill="#345568" d="M149.102,124.93h-45.791v-18.322h45.791V124.93z M104.131,124.107h44.148v-16.68h-44.148V124.107z"/>
		</g>
		<g>
			<rect x="122.678" y="107.018" fill="#345568" width="7.055" height="2.746"/>
		</g>
	</g>
	<g>
		<g>
			<rect x="103.721" y="89.543" fill="#D7DFE2" width="44.969" height="17.5"/>
			<path fill="#345568" d="M149.102,107.453h-45.791V89.131h45.791V107.453z M104.131,106.633h44.148v-16.68h-44.148V106.633z"/>
		</g>
		<g>
			<rect x="122.678" y="89.543" fill="#345568" width="7.055" height="2.744"/>
		</g>
	</g>
	<g>
		<g>
			<rect x="58.748" y="141.965" fill="#D7DFE2" width="44.973" height="17.5"/>
			<path fill="#345568" d="M104.131,159.877H58.337v-18.322h45.794V159.877z M59.158,159.055h44.15v-16.68h-44.15V159.055z"/>
		</g>
		<g>
			<rect x="77.705" y="141.965" fill="#345568" width="7.055" height="2.746"/>
		</g>
	</g>
	<g>
		<g>
			<rect x="58.748" y="124.49" fill="#D7DFE2" width="44.973" height="17.5"/>
			<path fill="#345568" d="M104.131,142.4H58.337v-18.32h45.794V142.4z M59.158,141.58h44.15V124.9h-44.15V141.58z"/>
		</g>
		<g>
			<rect x="77.705" y="124.49" fill="#345568" width="7.055" height="2.744"/>
		</g>
	</g>
	<g>
		<g>
			<rect x="58.748" y="107.018" fill="#D7DFE2" width="44.973" height="17.5"/>
			<path fill="#345568" d="M104.131,124.93H58.337v-18.322h45.794V124.93z M59.158,124.107h44.15v-16.68h-44.15V124.107z"/>
		</g>
		<g>
			<rect x="77.705" y="107.018" fill="#345568" width="7.055" height="2.746"/>
		</g>
	</g>
	<g>
		<g>
			<rect x="103.721" y="72.057" fill="#D7DFE2" width="44.969" height="17.502"/>
			<path fill="#345568" d="M149.102,89.969h-45.791V71.646h45.791V89.969z M104.131,89.148h44.148v-16.68h-44.148V89.148z"/>
		</g>
		<g>
			<rect x="122.678" y="72.057" fill="#345568" width="7.055" height="2.746"/>
		</g>
	</g>
	<g>
		<g>
			<rect x="58.748" y="89.529" fill="#D7DFE2" width="44.973" height="17.502"/>
			<path fill="#345568" d="M104.131,107.441H58.337V89.119h45.794V107.441z M59.158,106.619h44.15v-16.68h-44.15V106.619z"/>
		</g>
		<g>
			<rect x="77.705" y="89.529" fill="#345568" width="7.055" height="2.746"/>
		</g>
	</g>
	<g>
		<g>
			<rect x="103.721" y="54.57" fill="#D7DFE2" width="44.969" height="17.5"/>
			<path fill="#345568" d="M149.102,72.48h-45.791V54.158h45.791V72.48z M104.131,71.66h44.148V54.98h-44.148V71.66z"/>
		</g>
		<g>
			<rect x="122.678" y="54.57" fill="#345568" width="7.055" height="2.744"/>
		</g>
	</g>
	<g>
		<g>
			<rect x="58.748" y="72.045" fill="#D7DFE2" width="44.973" height="17.5"/>
			<path fill="#345568" d="M104.131,89.955H58.337v-18.32h45.794V89.955z M59.158,89.135h44.15v-16.68h-44.15V89.135z"/>
		</g>
		<g>
			<rect x="77.705" y="72.045" fill="#345568" width="7.055" height="2.744"/>
		</g>
	</g>
	<g>
		<g>
			<rect x="103.721" y="37.084" fill="#D7DFE2" width="44.969" height="17.502"/>
			<path fill="#345568" d="M149.102,54.996h-45.791V36.674h45.791V54.996z M104.131,54.176h44.148V37.494h-44.148V54.176z"/>
		</g>
		<g>
			<rect x="122.678" y="37.084" fill="#345568" width="7.055" height="2.745"/>
		</g>
	</g>
	<g>
		<g>
			<rect x="58.748" y="54.557" fill="#D7DFE2" width="44.973" height="17.5"/>
			<path fill="#345568" d="M104.131,72.469H58.337V54.146h45.794V72.469z M59.158,71.646h44.15v-16.68h-44.15V71.646z"/>
		</g>
		<g>
			<rect x="77.705" y="54.557" fill="#345568" width="7.055" height="2.746"/>
		</g>
	</g>
</g>
<g id="track">
	<g>
		<g>
			<path fill="#F48272" d="M149.268,106.508c-0.309-0.664-1.16-1.205-1.893-1.205h-15.641c-0.734,0-1.332,0.596-1.332,1.33v33.188
				c0,0.734,0,1.932,0,2.66v10.955c0,0.736,0.598,1.336,1.332,1.336h32.396c0.733,0,1.334-0.6,1.334-1.336V142.48
				c0-0.73-0.254-1.873-0.563-2.535L149.268,106.508z"/>
		</g>
		<g>
			<path fill="#D7DFE2" d="M130.402,156.102c0-0.732,0.598-1.33,1.332-1.33h33.529c0.732,0,1.334,0.598,1.334,1.33v2.029
				c0,0.734-0.602,1.334-1.334,1.334h-33.529c-0.734,0-1.332-0.6-1.332-1.334V156.102L130.402,156.102z"/>
			<path fill="#345568" d="M165.264,159.877h-33.529c-0.961,0-1.74-0.783-1.74-1.746v-2.029c0-0.963,0.779-1.742,1.74-1.742h33.529
				c0.963,0,1.745,0.779,1.745,1.742v2.029C167.009,159.094,166.227,159.877,165.264,159.877z M131.734,155.182
				c-0.51,0-0.922,0.41-0.922,0.92v2.029c0,0.51,0.412,0.924,0.922,0.924h33.529c0.51,0,0.924-0.414,0.924-0.924v-2.029
				c0-0.51-0.414-0.92-0.924-0.92H131.734z"/>
		</g>
		<g>
			<path fill="#D7DFE2" d="M52.866,156.102c0-0.732,0.6-1.33,1.334-1.33h74.872c0.73,0,1.33,0.598,1.33,1.33v2.029
				c0,0.734-0.6,1.334-1.33,1.334H54.2c-0.734,0-1.334-0.6-1.334-1.334V156.102z"/>
			<path fill="#345568" d="M129.072,159.877H54.2c-0.962,0-1.745-0.783-1.745-1.746v-2.029c0-0.963,0.783-1.742,1.745-1.742h74.872
				c0.96,0,1.74,0.779,1.74,1.742v2.029C130.812,159.094,130.032,159.877,129.072,159.877z M54.2,155.182
				c-0.51,0-0.924,0.41-0.924,0.92v2.029c0,0.51,0.414,0.924,0.924,0.924h74.872c0.508,0,0.92-0.414,0.92-0.924v-2.029
				c0-0.51-0.412-0.92-0.92-0.92H54.2z"/>
		</g>
		<g>
			<path fill="#345568" d="M160.995,145.768c0-0.729,0.601-1.33,1.331-1.33h2.783c0.729,0,1.328,0.602,1.328,1.33v2.033
				c0,0.732-0.602,1.332-1.328,1.332h-2.783c-0.73,0-1.331-0.6-1.331-1.332V145.768z"/>
		</g>
		<g>
			<path fill="#D7DFE2" d="M135.68,139.598c0-0.244,0.201-0.439,0.441-0.439h0.135c0.24,0,0.441,0.195,0.441,0.439v3.807
				c0,0.248-0.201,0.447-0.441,0.447h-0.135c-0.24,0-0.441-0.199-0.441-0.447V139.598z"/>
		</g>
		<g>
			<path fill="#345568" d="M132.988,135.357c0,0.73,0.6,1.332,1.33,1.332h24.877c0.729,0,1.08-0.545,0.775-1.209l-11.938-26.074
				c-0.306-0.666-1.151-1.209-1.886-1.209h-11.828c-0.73,0-1.33,0.598-1.33,1.328V135.357L132.988,135.357z"/>
		</g>
		<g>
			<path fill="#345568" d="M53.161,153.02c-0.16,0.963,0.507,1.752,1.481,1.752h72.418c0.976,0,1.772-0.803,1.772-1.775v-43.021
				c0-0.979-0.799-1.773-1.772-1.773H43.018c-0.976,0-1.905,0.787-2.069,1.752L53.161,153.02z"/>
		</g>
		<g>
			<path fill="#345568" d="M155.648,149.543h-21.209c-0.959,0-1.74-0.783-1.74-1.742v-12.52h0.82v12.52
				c0,0.508,0.412,0.922,0.92,0.922h21.209c0.543,0,1.104-0.449,1.223-0.979l2.671-11.818l0.802,0.18l-2.671,11.818
				C157.469,148.832,156.581,149.543,155.648,149.543z"/>
		</g>
		<g>
			<g>
				<path fill="#D7DFE2" d="M153.688,157.119c0-3.826-3.104-6.928-6.929-6.928s-6.927,3.102-6.927,6.928"/>
			</g>
			<g>
				<path fill="#F48272" d="M152.561,157.119c0-3.205-2.598-5.803-5.802-5.803s-5.798,2.598-5.798,5.803
					c0,3.199,2.594,5.797,5.798,5.797S152.561,160.318,152.561,157.119z"/>
			</g>
			<g>
				<path fill="#345568" d="M149.703,157.119c0-1.627-1.318-2.945-2.944-2.945s-2.944,1.318-2.944,2.945
					c0,1.621,1.318,2.939,2.944,2.939S149.703,158.74,149.703,157.119z"/>
			</g>
		</g>
		<g>
			<g>
				<g>
					<path fill="#D7DFE2" d="M92.133,157.119c0-3.826-3.101-6.928-6.927-6.928s-6.928,3.102-6.928,6.928"/>
				</g>
				<g>
					<path fill="#F48272" d="M91.008,157.119c0-3.205-2.598-5.803-5.802-5.803s-5.802,2.598-5.802,5.803
						c0,3.199,2.598,5.797,5.802,5.797S91.008,160.318,91.008,157.119z"/>
				</g>
				<g>
					<path fill="#345568" d="M88.15,157.119c0-1.627-1.318-2.945-2.944-2.945s-2.944,1.318-2.944,2.945
						c0,1.621,1.318,2.939,2.944,2.939S88.15,158.74,88.15,157.119z"/>
				</g>
			</g>
			<g>
				<g>
					<path fill="#D7DFE2" d="M105.984,157.119c0-3.826-3.098-6.928-6.927-6.928c-3.826,0-6.928,3.102-6.928,6.928"/>
				</g>
				<g>
					<path fill="#F48272" d="M104.857,157.119c0-3.205-2.599-5.803-5.8-5.803c-3.204,0-5.802,2.598-5.802,5.803
						c0,3.199,2.598,5.797,5.802,5.797C102.262,162.916,104.857,160.318,104.857,157.119z"/>
				</g>
				<g>
					<path fill="#345568" d="M102.001,157.119c0-1.627-1.317-2.945-2.943-2.945s-2.944,1.318-2.944,2.945
						c0,1.621,1.318,2.939,2.944,2.939S102.001,158.74,102.001,157.119z"/>
				</g>
			</g>
		</g>
		<g>
			<rect x="54.068" y="148.723" fill="#FFFFFF" width="74.767" height="0.82"/>
		</g>
	</g>
	<g>
		<path fill="#F48272" d="M53.161,153.02c-0.16,0.963,0.507,1.752,1.481,1.752h14.05c0.976,0,1.774-0.803,1.774-1.775
			l-11.674-43.021c0-0.979-0.802-1.773-1.777-1.773H43.018c-0.976,0-1.905,0.787-2.069,1.752L53.161,153.02z"/>
	</g>
	<g>
		<path fill="#345568" d="M52.866,156.102c0-0.732,0.6-1.33,1.334-1.33h15.603c0.731,0,1.327,0.598,1.327,1.33v2.029
			c0,0.734-0.596,1.334-1.327,1.334H54.2c-0.734,0-1.334-0.6-1.334-1.334V156.102z"/>
	</g>
	<g>
		<polygon fill="#345568" points="61.256,119.051 50.891,119.051 42.764,119.051 42.764,137.373 50.891,137.373 66.227,137.373 		
			"/>
		<polygon fill="#D7DFE2" points="61.368,119.461 51.301,119.461 51.301,136.961 66.116,136.961 		"/>
		<path fill="#345568" d="M35.802,136.523v18.248h32.891c0.976,0,1.774-0.803,1.774-1.777l-4.47-16.471H43.928H35.802z"/>
		<path fill="#D7DFE2" d="M65.707,139.678h-5.795v-2.744H44.339v17.5h25.332c0.469-0.32,0.796-0.834,0.796-1.438l-4.358-16.062
			h-0.401L65.707,139.678L65.707,139.678z"/>
	</g>
</g>
</svg>
