<?xml version="1.0" encoding="utf-8"?>
<!-- Generator: Adobe Illustrator 16.0.0, SVG Export Plug-In . SVG Version: 6.00 Build 0)  -->
<!DOCTYPE svg PUBLIC "-//W3C//DTD SVG 1.1//EN" "http://www.w3.org/Graphics/SVG/1.1/DTD/svg11.dtd">
<svg version="1.1" id="bags_1_" xmlns="http://www.w3.org/2000/svg" xmlns:xlink="http://www.w3.org/1999/xlink" x="0px" y="0px"
	 width="201px" height="201px" viewBox="0 0 201 201" enable-background="new 0 0 201 201" xml:space="preserve">
<g id="circle_x5F_white">
	<circle fill="#FFFFFF" cx="100" cy="100" r="71.594"/>
</g>
<g id="circle_x5F_blue">
	<circle fill="#D7DFE2" cx="100" cy="100" r="71.594"/>
</g>
<g id="bags">
	<g id="bag_x5F_small">
		<path fill="#345568" d="M169.986,109.875c-6.926-12.001-18.264-31.638-25.191-43.636c-2.159-3.74-4.746-6.313-7.495-7.723
			c1.876-3.252,4.166-7.219,5.707-9.88c1.978-3.435,0.36-0.302-3.604-3.047c-3.961-2.745-10.444-2.745-14.406,0
			c-3.963,2.745-5.582-0.388-3.602,3.047c1.537,2.661,3.828,6.627,5.705,9.879c-2.749,1.409-5.337,3.982-7.496,7.723
			c-6.928,11.998-18.265,31.635-25.191,43.636c-6.928,11.997-1.26,29.678,12.596,39.279c13.855,9.607,36.529,9.607,50.385,0
			C171.25,139.553,176.917,121.872,169.986,109.875z"/>
		<g>
			<path fill="#F48272" d="M141.498,58.757c0,0.901-0.736,1.64-1.639,1.64h-15.32c-0.9,0-1.639-0.738-1.639-1.64v-3.752
				c0-0.901,0.736-1.639,1.639-1.639h15.32c0.902,0,1.639,0.737,1.639,1.639V58.757z"/>
		</g>
		<g>
			<g>
				<path fill="#F48272" d="M140.33,112.161c0,1.729-0.635,3.269-1.896,4.614c-1.267,1.345-3.035,2.111-5.311,2.297v2.818h-1.95
					v-2.818c-2.09-0.163-3.796-0.795-5.116-1.896c-1.322-1.104-1.986-2.546-1.986-4.339h3.38c0.069,0.956,0.409,1.759,1.026,2.405
					c0.613,0.646,1.514,1.042,2.696,1.184v-8.533c-2.39-0.533-4.016-1.137-4.873-1.81c-1.047-0.834-1.692-1.729-1.95-2.683
					c-0.188-0.625-0.279-1.33-0.279-2.115c0-1.886,0.642-3.438,1.918-4.67c1.275-1.232,3.005-1.927,5.186-2.091v-2.818h1.95v2.818
					c1.951,0.164,3.524,0.776,4.735,1.828c1.205,1.059,1.912,2.47,2.121,4.23h-3.479c-0.071-0.764-0.399-1.463-0.992-2.091
					c-0.59-0.619-1.388-1.039-2.386-1.248v8.353c2.9,0.604,4.805,1.391,5.71,2.369C139.833,109.034,140.33,110.43,140.33,112.161z
					 M128.27,98.354c-0.734,0.677-1.1,1.595-1.1,2.751c0,1.162,0.342,2.027,1.025,2.596c0.685,0.57,1.677,1.042,2.978,1.41v-7.938
					C129.965,97.29,128.997,97.685,128.27,98.354z M136.137,115.051c0.729-0.754,1.096-1.681,1.096-2.783
					c0-1.104-0.354-1.943-1.063-2.509c-0.704-0.569-1.724-1.026-3.045-1.376v8.045C134.398,116.264,135.404,115.805,136.137,115.051
					z"/>
			</g>
		</g>
	</g>
	<g id="bag_x5F_big">
		<path fill="#F48272" d="M119.15,110c-8.125-14.073-21.417-37.097-29.543-51.172c-2.532-4.385-5.566-7.402-8.79-9.054
			c2.201-3.812,4.891-8.469,6.692-11.591c2.321-4.024,0.422-0.348-4.226-3.569c-4.646-3.22-12.247-3.22-16.893,0
			c-4.648,3.221-6.548-0.455-4.223,3.569c1.803,3.122,4.49,7.779,6.691,11.589c-3.225,1.651-6.26,4.669-8.794,9.056
			C51.94,72.903,38.649,95.927,30.524,110c-8.127,14.068-1.478,34.8,14.772,46.062c16.248,11.267,42.835,11.267,59.085,0
			C120.63,144.8,127.275,124.068,119.15,110z"/>
		<g>
			<path fill="#345568" d="M85.74,50.057c0,1.055-0.863,1.921-1.918,1.921h-17.97c-1.055,0-1.919-0.866-1.919-1.921v-4.4
				c0-1.055,0.864-1.921,1.919-1.921h17.97c1.055,0,1.918,0.866,1.918,1.921V50.057z"/>
		</g>
		<g>
			<g>
				<path fill="#345568" d="M84.372,112.682c0,2.026-0.742,3.832-2.224,5.409c-1.487,1.578-3.562,2.478-6.229,2.694v3.311h-2.287
					v-3.311c-2.448-0.189-4.449-0.934-6-2.227c-1.552-1.293-2.33-2.986-2.33-5.082h3.964c0.08,1.119,0.481,2.059,1.204,2.814
					c0.721,0.764,1.775,1.223,3.162,1.389v-10.002c-2.804-0.623-4.707-1.332-5.715-2.123c-1.227-0.979-1.984-2.027-2.286-3.144
					c-0.22-0.731-0.329-1.562-0.329-2.485c0-2.207,0.752-4.031,2.245-5.475c1.499-1.44,3.526-2.262,6.085-2.45v-3.304h2.287v3.304
					c2.288,0.188,4.136,0.907,5.553,2.142c1.415,1.241,2.243,2.894,2.487,4.962H79.88c-0.082-0.895-0.47-1.716-1.163-2.45
					c-0.695-0.731-1.627-1.222-2.798-1.466v9.793c3.401,0.713,5.635,1.637,6.694,2.777
					C83.787,109.016,84.372,110.654,84.372,112.682z M70.226,96.491c-0.859,0.789-1.287,1.867-1.287,3.227
					c0,1.363,0.402,2.378,1.205,3.044c0.802,0.668,1.963,1.215,3.489,1.651v-9.311C72.218,95.241,71.079,95.702,70.226,96.491z
					 M79.452,116.07c0.855-0.885,1.286-1.973,1.286-3.268c0-1.294-0.417-2.273-1.246-2.941c-0.829-0.668-2.023-1.202-3.572-1.609
					v9.43C77.418,117.491,78.595,116.956,79.452,116.07z"/>
			</g>
		</g>
	</g>
</g>
</svg>
