<?xml version="1.0" encoding="utf-8"?>
<!-- Generator: Adobe Illustrator 16.0.0, SVG Export Plug-In . SVG Version: 6.00 Build 0)  -->
<!DOCTYPE svg PUBLIC "-//W3C//DTD SVG 1.1//EN" "http://www.w3.org/Graphics/SVG/1.1/DTD/svg11.dtd">
<svg version="1.1" id="Layer_1" xmlns="http://www.w3.org/2000/svg" xmlns:xlink="http://www.w3.org/1999/xlink" x="0px" y="0px"
	 width="201px" height="201px" viewBox="0 0 201 201" enable-background="new 0 0 201 201" xml:space="preserve">
<g id="circle_x5F_white">
	<circle fill="#FFFFFF" cx="101.046" cy="100.034" r="71.594"/>
</g>
<g id="circle_x5F_blue">
	<circle fill="#D7DFE2" cx="101.046" cy="100.034" r="71.594"/>
</g>
<g id="wave2">
	<path fill="#F48272" d="M141.622,74.153c0-6.186-5.032-11.218-11.22-11.218c-6.185,0-11.215,5.032-11.215,11.218
		c0,4.516,2.69,8.409,6.547,10.183l0.457-1.601c-3.172-1.562-5.361-4.816-5.361-8.582c0-5.281,4.295-9.576,9.572-9.576
		c5.281,0,9.576,4.295,9.576,9.576c0,3.766-2.19,7.021-5.361,8.582l0.455,1.601C138.93,82.562,141.622,78.669,141.622,74.153z"/>
	<path fill="#F48272" d="M138.3,74.15c0-4.355-3.542-7.896-7.897-7.896c-4.354,0-7.896,3.54-7.896,7.896
		c0,2.995,1.696,5.574,4.159,6.911l0.459-1.609c-1.777-1.104-2.977-3.06-2.977-5.302c0-3.447,2.807-6.254,6.254-6.254
		c3.449,0,6.256,2.807,6.256,6.254c0,2.242-1.198,4.198-2.979,5.302l0.459,1.609C136.604,79.725,138.3,77.146,138.3,74.15z"/>
	<path fill="#F48272" d="M123.906,90.763l0.449-1.581c-5.951-2.401-10.168-8.226-10.168-15.028c0-8.94,7.273-16.218,16.215-16.218
		c8.943,0,16.218,7.277,16.218,16.218c0,6.803-4.216,12.627-10.168,15.028l0.45,1.581c6.641-2.604,11.359-9.06,11.359-16.609
		c0-9.849-8.012-17.859-17.859-17.859c-9.846,0-17.855,8.011-17.855,17.859C112.546,81.703,117.268,88.159,123.906,90.763z"/>
	<path fill="#F48272" d="M144.941,74.153c0-8.018-6.521-14.54-14.539-14.54c-8.014,0-14.535,6.522-14.535,14.54
		c0,6.033,3.699,11.219,8.949,13.412l0.453-1.594c-4.562-1.988-7.761-6.536-7.761-11.818c0-7.113,5.783-12.898,12.894-12.898
		c7.111,0,12.897,5.785,12.897,12.898c0,5.282-3.2,9.83-7.763,11.818l0.453,1.594C141.243,85.372,144.941,80.187,144.941,74.153z"/>
</g>
<g id="wave1">
	<path fill="#F48272" d="M96.915,37.282c0-8.81-7.164-15.975-15.973-15.975c-8.807,0-15.971,7.165-15.971,15.975
		c0,6.411,3.807,11.938,9.273,14.478l0.455-1.604c-4.778-2.325-8.087-7.213-8.087-12.873c0-7.902,6.429-14.332,14.329-14.332
		c7.902,0,14.331,6.43,14.331,14.332c0,5.66-3.31,10.548-8.087,12.873l0.456,1.604C93.108,49.219,96.915,43.693,96.915,37.282z"/>
	<path fill="#F48272" d="M92.076,37.279c0-6.139-4.995-11.132-11.134-11.132c-6.138,0-11.132,4.993-11.132,11.132
		c0,4.197,2.338,7.857,5.778,9.756l0.466-1.639c-2.753-1.662-4.602-4.673-4.602-8.117c0-5.234,4.257-9.49,9.489-9.49
		c5.234,0,9.491,4.256,9.491,9.49c0,3.444-1.851,6.455-4.602,8.117l0.465,1.635C89.738,45.137,92.076,41.477,92.076,37.279z"/>
	<path fill="#F48272" d="M71.576,61.13l0.449-1.581c-8.832-3.547-15.091-12.184-15.091-22.264c0-13.241,10.77-24.015,24.008-24.015
		c13.239,0,24.01,10.773,24.01,24.015c0,10.08-6.26,18.714-15.091,22.264l0.45,1.581c9.519-3.752,16.282-13.015,16.282-23.845
		c0-14.146-11.507-25.656-25.651-25.656c-14.143,0-25.649,11.51-25.649,25.656C55.292,48.115,62.056,57.381,71.576,61.13z"/>
	<path fill="#F48272" d="M101.754,37.282c0-11.479-9.336-20.812-20.812-20.812c-11.475,0-20.811,9.335-20.811,20.812
		c0,8.624,5.277,16.035,12.771,19.185l0.454-1.594c-6.806-2.944-11.582-9.718-11.582-17.591c0-10.573,8.6-19.172,19.168-19.172
		c10.57,0,19.17,8.599,19.17,19.172c0,7.87-4.776,14.645-11.583,17.591l0.455,1.594C96.479,53.317,101.754,45.906,101.754,37.282z"
		/>
</g>
<path id="trafo" fill="#345568" d="M161.611,152.297h-9.623l-20.764-72.922v-0.731c2.133-0.388,3.754-2.251,3.754-4.493
	c0-2.523-2.051-4.576-4.576-4.576c-2.521,0-4.574,2.053-4.574,4.576c0,2.242,1.623,4.105,3.754,4.493v0.731l-19.006,66.755
	L81.763,44.947v-1.456c3.08-0.407,5.473-3.021,5.473-6.212c0-3.471-2.823-6.293-6.294-6.293c-3.47,0-6.294,2.822-6.294,6.293
	c0,3.19,2.393,5.805,5.473,6.212v1.456l-30.566,107.35H40.48c-1.359,0-2.463,1.104-2.463,2.463c0,1.36,1.104,2.463,2.463,2.463
	h121.131c1.359,0,2.463-1.103,2.463-2.463C164.074,153.4,162.971,152.297,161.611,152.297z M123.527,106.635l5.791,6.699
	l-11.479,13.277L123.527,106.635z M81.763,83.282h7.696l-7.696,8.899V83.282z M81.763,119.432h17.496l-17.496,12.119V119.432z
	 M81.763,117.789V96.59l18.326,21.199H81.763z M82.028,94.387l9.106-10.535l8.947,31.414L82.028,94.387z M90.504,81.639h-8.741
	V50.941L90.504,81.639z M76.291,37.279c0-2.566,2.086-4.65,4.651-4.65s4.652,2.084,4.652,4.65c0,2.565-2.087,4.653-4.652,4.653
	S76.291,39.845,76.291,37.279z M80.121,81.639h-8.74l8.74-30.697V81.639z M70.75,83.855l9.106,10.531l-18.05,20.877L70.75,83.855z
	 M51.262,152.297l9.213-32.359L79.5,133.118l-27.68,19.179H51.262z M80.121,152.297H54.706l25.415-17.609V152.297z M80.121,131.551
	l-17.494-12.119h17.494V131.551z M80.121,117.789H61.794L80.121,96.59V117.789z M72.426,83.282h7.695v8.899L72.426,83.282z
	 M81.763,152.297v-17.609l25.417,17.609H81.763z M109.025,151.575l-26.641-18.457l19.025-13.181l8.312,29.189L109.025,151.575z
	 M110.525,152.297l0.051-0.173l0.049,0.173H110.525z M111.428,149.128l5.082-17.844l12.451,8.627l-16.836,11.664L111.428,149.128z
	 M113.971,152.297l15.61-10.816v10.816H113.971z M129.582,138.344l-10.92-7.566h10.92V138.344z M129.582,129.137h-11.754
	l11.754-13.596V129.137z M129.582,111.131l-4.457-5.16h4.457V111.131z M129.582,104.329h-5.396l5.396-18.957V104.329z
	 M131.225,129.137v-13.6l11.754,13.6H131.225z M142.146,130.777l-10.922,7.564v-7.564H142.146z M142.968,126.611l-11.479-13.277
	l5.791-6.695L142.968,126.611z M131.225,111.131v-5.16h4.461L131.225,111.131z M136.622,104.329h-5.397V85.372L136.622,104.329z
	 M127.471,74.15c0-1.619,1.313-2.935,2.932-2.935c1.619,0,2.936,1.315,2.936,2.935c0,1.616-1.316,2.935-2.936,2.935
	C128.784,77.085,127.471,75.767,127.471,74.15z M131.225,152.297V141.48l15.612,10.816H131.225z M149.723,152.297l-17.877-12.386
	l12.451-8.627l5.982,21.013H149.723z"/>
</svg>
